<svg xmlns="http://www.w3.org/2000/svg" viewBox="0 0 347.61 411.5"><g id="Layer_2" data-name="Layer 2"><g id="Layer_group" data-name="Layer group"><g id="Vector_layer" data-name="Vector layer"><path d="M196.93,290.24h0Z"/><path d="M197,290.23Z"/><path d="M197,290.23h0Z"/><path d="M125,334.49c.14,1.64-3.14,1.28-4.12.91.52.62,1.58,1.06,1.52,2a1,1,0,0,1-1.11.81.83.83,0,0,1-.21-.06h0a11.28,11.28,0,0,1-1.81-1.39,19.88,19.88,0,0,1-5-8.54c-.27-1.08-1.41-5.35.55-5.09a.79.79,0,0,1,.59.74c0-1.05.91-.5,1.59-.62a.23.23,0,0,1,.23.25c-.07.47-.88.13-1.23.23-.16,4.25,2.21,10,7.13,10C123.85,333.72,124.86,333.5,125,334.49Z"/><path d="M139.15,352.67a5.18,5.18,0,0,1,.06,1.89,1,1,0,0,1-1.26.81,1.17,1.17,0,0,1-.37-.19c-.74-.56-.48-1.86-.62-2.71-.11-2.22-.21-4.44-.36-6.66-.1-1.45-.22-2.87-.37-4.32s-1-3.63.68-4.41c0-.71.44-.71.49,0a1.05,1.05,0,0,1,.82.88c.37,2.89.51,5.81.68,8.72C139,348.67,139.07,350.67,139.15,352.67Z"/><path d="M119.28,357.18c-.2-5,.13-10-.94-15-.23-1.38-.48-2.71-.75-4.05.7-1.47,1.43,3.53,1.58,3.94a39.52,39.52,0,0,1,.07-5.22,1,1,0,0,1,1-.74c1.41.1,1,2,1.14,2.94.15,5.09,0,10.18,0,15.28-.17,1.1.54,3.22-.79,3.68A1.06,1.06,0,0,1,119.28,357.18Z"/><path d="M114.93,363.18a12,12,0,0,1-3.76-1.68,5,5,0,0,0-2.35-1.23,1.16,1.16,0,0,1,.33-2.3c1.5-3.1,5.74-1.41,7.23.87.37.59,1.09,1.32.82,2.07-.54.64-1.37-.87-1.83-1.16-1-.85-2.61-2-3.94-1.17v0a23.73,23.73,0,0,1,4.64,2.61A1.24,1.24,0,0,1,114.93,363.18Z"/><path d="M129.33,360.47c-.8.11-9.68-1.51-8.67-2.64a.27.27,0,0,1,.27-.08,4.54,4.54,0,0,0,1.28-.15.16.16,0,0,1,.29.09c0,.22-.29.24-.46.27,7.26,1.21,9,1.37,15.33-2.64,1.31-.9,2.94-.92,4.46-1.14,3.49-.34,6.27-1.54,6,3.38a1.15,1.15,0,0,1-2.24.15c-.11-.48-.17-1-.28-1.46a49.3,49.3,0,0,0-6.3.79C135.89,358.42,132.92,360.8,129.33,360.47Z"/><path d="M135.93,405c-3.17-.08-6.09-1.41-9-2.53a21.59,21.59,0,0,0-3.64-.93c-1,0-2.45-.52-2.13-1.75a1.16,1.16,0,0,1,1.27-.85c4.09.11,7.61,2.44,11.53,3.28a19.34,19.34,0,0,0,8.39-.46c1.07-2.49,1.06-5.22,1-7.88a42.39,42.39,0,0,0-1.28-10.77c-1.89-5.52-3.81-10.47-.11-15.78a34.08,34.08,0,0,0,3.19-4.82c.33-.49,2.54-6.06,2.95-4.55,0,.08,0,.24-.1.28a60.23,60.23,0,0,1-3.07,7.89c-1.52,2.38-3,5-2.88,7.91.27,3.27,1.82,6.23,2.65,9.37A53.7,53.7,0,0,1,145.86,397a13.5,13.5,0,0,1-1.57,6.43c-.89,1-2.36,1.09-3.59,1.31A36.24,36.24,0,0,1,135.93,405Z"/><path d="M118.8,400.17c-.63-.1-.61-.88-.71-1.38-.13-1-.29-2.07-.48-3.1-1.82-2.79-3-8-6.55-8.88-3.16-.36-6.25,1.33-8.89,2.88-1.35.95-2.66,1.94-3.92,3a31.79,31.79,0,0,0-4.18,6.87l-.56-.38-1.77-.24a19.7,19.7,0,0,1,3.68-7,29.67,29.67,0,0,1,10.85-7.06c7.17-2.86,11.26,1.35,12.58,8.21.84,1.52,1.68,3,2.47,4.58.38.69.74,1.73-.13,2.22a1.29,1.29,0,0,1-1.77-.73c0,.07,0,.13,0,.2a.17.17,0,0,1,0,.25C119.37,399.91,119.13,400.23,118.8,400.17Z"/><path d="M112.41,405.69a54.07,54.07,0,0,1-9.86-1.53c-2.77-.6-5.55-1.57-8.4-1.6,0,.25-.4.18-.33-.06,0-.81,2.54-.32,3.11-.31a6.09,6.09,0,0,1-1.2-.66,1,1,0,0,1,.37-1.82,2.58,2.58,0,0,1,1.46.26,16.29,16.29,0,0,0,4.2.77c5,.19,10.15.34,15,1.54a1.36,1.36,0,0,1,.93,1.77,1.9,1.9,0,0,1-1.21.91,8.51,8.51,0,0,1-4.24.72Zm0-1.81a64.94,64.94,0,0,0-9.26-.65c1.59.27,3.18.51,4.7.62A38.54,38.54,0,0,0,112.36,403.88Z"/><path d="M168,371.81a1.82,1.82,0,0,1-.48-1.1,62.94,62.94,0,0,0-1.42-6.4,31.2,31.2,0,0,0-1.47-3.38c-.37-.8-1.09-1.71-.55-2.6,1.47-1.65,4.13-1.67,6.19-1.57,4.08.77,8,3.74,12.28,2.64.86-.23,1.72-.95,2.62-.66a1.15,1.15,0,0,1,.61,1.5,1.31,1.31,0,0,1-.71.66,19.87,19.87,0,0,1-2.08,1c-3.14.69-6.43-.24-9.35-1.41-2.26-1.1-4.78-1.82-7.25-.94a24.15,24.15,0,0,1,1.93,6.7c.19,1.7.43,3.4.45,5.11A.49.49,0,0,1,168,371.81Z"/><path d="M196.36,376.51c-1.18-.28-1.24-2.41-.33-3a33.34,33.34,0,0,0,2-5.95c.19-1.43,1-5.8-1.33-5.59-.64-.21-4.84.47-4-.78.41-.31,1-.22,1.38-.62a.16.16,0,0,1,.25.14c1.71-.28,4-1,5.25.63,1.65,3.1.66,7.17-.32,10.28-.4,1.15-.86,2.24-1.21,3.39C197.93,375.88,197.35,376.78,196.36,376.51Z"/><path d="M173.56,407.33c-4.29-.14-9.65-2.78-9.57-7.67a79.87,79.87,0,0,1,1.18-9.63,44.46,44.46,0,0,0,1.83-9.88c.06-2,.23-3.95.28-5.93,0-.3.48-.3.47,0,0,1.72.21,3.44.24,5.17.44,5.25-1.14,10.33-1.33,15.55-.39,3.8-1.24,7.28,3.12,8.95,1.79,1,3.91,1,5.91,1a24.14,24.14,0,0,0,6.09-.76,1,1,0,0,1,.41,2,27.27,27.27,0,0,0-2.6.86C177.66,407.63,175.56,407.29,173.56,407.33Z"/><path d="M215.87,407.42c-1.43-3.41-2.73-7.14-5.49-9.72a16.62,16.62,0,0,0-11.67-3.48,29.61,29.61,0,0,0-6.21,11.24c.17.25-.17.64-.44.47-1.11-1.89,3.2-9.64,4.52-11.46-2.56.37-3.42,3.09-4.07,5.24s-1,4.17-1.41,6.23a1.23,1.23,0,0,1-2,.12c-.76-.89-.12-2.13,0-3.15a41.37,41.37,0,0,1,1.23-4.78c1.23-4.36,3.79-6.45,8.36-6.43.75-1.09,2-1.21,3.25-1.23,4.82-.62,9.28,2.23,12.27,5.8,2,2.72,2.55,6.12,3.58,9.26a3,3,0,0,1,.36,1.42A1.26,1.26,0,0,1,215.87,407.42Z"/><path d="M210.74,410.4a54.19,54.19,0,0,0-12.4-.62c-1,0-2.06.2-3.1.21a.51.51,0,0,1-.5-.3,1.25,1.25,0,0,1,0-.43.16.16,0,0,1,.31,0c-.25.72,1,.16,1.39.19,1.84-.29,3.76-.56,5.6-.68,2.33-.18,4.61-.22,6.93-.19,2.59,0,4.14.59,5.57-2.11a1,1,0,0,1,1.72.86C215.33,409.63,213.23,411.15,210.74,410.4Z"/><path d="M180.08,393.16c-.61-2.67,2.42-4.07,3.89-5.74a14,14,0,0,1,7.28-4.2,31.43,31.43,0,0,0-3.33-.61l-2.09.71a54.34,54.34,0,0,1-7.89,2.2c-1,.29-2.07-.68-1.38-1.63a7.32,7.32,0,0,1,2.18-1.28,17.52,17.52,0,0,1,6.1-1.88c1.27-.16,2.56.29,3.76-.25-1.93-.71-3.93-1.26-5.91-1.82A.86.86,0,0,1,183,377l1.53.3a50.12,50.12,0,0,1,7.35,2.41c1.31-.27,4.37.92,2.81,2.49a15.45,15.45,0,0,0,2.7.41,1,1,0,0,1,.28,1.83c-2.57.48-5.41.38-7.77,1.42a14.86,14.86,0,0,1,2.75,0,.19.19,0,0,1,.35,0s0,.09.08.1c.7.83-1.17,1-1.68,1.09a18.19,18.19,0,0,0-3.53.76c-2.61.64-3.95,3.08-5.42,5.12C182,393.84,180.65,394.33,180.08,393.16Z"/><path d="M126,388.46c-2.14-1.65-3.85-3.78-5.84-5.6-1.22-1-2.16-2.35-3.72-2.61a19.37,19.37,0,0,0-7.43-.08c-1.26-1.32,5.82-1.1,6.47-.94a18.38,18.38,0,0,0-3.56-1.64c-.6-.25-1.34-.22-1.81-.7a1.22,1.22,0,0,1,.38-2c.87-.31,1.77-.53,2.65-.82a5.88,5.88,0,0,0-1.91-.12c-.44.07-.88.32-1.33.11a1.11,1.11,0,0,1,0-2c2.44-1,5.11.05,7.39,1a9.93,9.93,0,0,1,5.9.58c1.43.78,6.16,3.38,4.13,5.28-2.07,1.33-8.09-2.52-10.35-3.4l-.37.07c-.69.16-1.38.34-2.06.55a25.46,25.46,0,0,1,6.45,4.53,13.65,13.65,0,0,1,4.14,2.68,18.36,18.36,0,0,1,2.66,3.53,1.74,1.74,0,0,1,.41,1.14C128,389.17,126.67,389.09,126,388.46Z"/><path d="M194.09,327.41c.15,3.66.07,8-4.27,9-1.69.45-3.47,1.18-5.24.87a1.1,1.1,0,0,1,.14-2.13,30.24,30.24,0,0,0,5-1.11,3.42,3.42,0,0,0,1.93-1.38c1.07-1.69,1.14-3.81,1.31-5.72.14-2.53.23-5.06.23-7.59-.17-.1,0-.37.13-.35.65-.09.45,1.26.57,1.68C194,322.94,194.08,325.18,194.09,327.41Z"/><path d="M187.07,336.15c-.28-.1-1.21-.36-1-.76a.18.18,0,0,1,.26,0,1.94,1.94,0,0,0,.61.34l.26.07A.2.2,0,0,1,187.07,336.15Z"/><path d="M175.08,357.59c-3.32-4.65-2.91-14.77-2.86-20.46.15-5.15.07-10.29.13-15.43.08-1-.16-2.07.26-2.95a.58.58,0,0,1,.67-.21,8.3,8.3,0,0,0,.5.71l.08.11v0c.17.23.35.45.53.67,0,.58-.05,1.15-.08,1.72s-.14.83-.2,1.25c-.1.71-.16,1.42-.21,2.13,0,.35,0,.69,0,1s0,.92,0,1.37v-.09c0,.15,0,.29,0,.44,0,.81-.08,1.63-.11,2.44-.06-.35-.12-.7-.17-1.06.05,1.35.1,2.69.14,4v.11l0,.61c.18,5.07.4,10.15,1,15.16a24.42,24.42,0,0,0,2,7.06,1.11,1.11,0,0,1-1,1.65A1,1,0,0,1,175.08,357.59Z"/><path d="M189.35,359.92c-.88-.17-.87-1-.65-1.65.64-3.52.87-7.11,1.2-10.67.18-2.73.17-5.46.26-8.2,0-.49,0-4.33.86-2.59a.23.23,0,0,1-.25.32c-.07,5.49.25,11-.12,16.46,0,1.61-.14,3.23-.22,4.83C190.46,359.13,190.23,360,189.35,359.92Z"/><path d="M140.52,76.12h0Z"/><path d="M140.52,76.13Z"/><path d="M161.47,292.69l0,0Z"/><path d="M161.47,292.69l0,0Z"/><path d="M154,278.42h0v0Z"/><path d="M154,278.19s0,0,0,.06S154,278.21,154,278.19Z"/><path d="M115.92,320.09c-.82-.16-1-1-1.08-1.73-.16-1-.32-2.06-.49-3.09-.45-2.66-.88-5.32-1.32-8-.44-2.87-1.07-5.73-1.27-8.63a.82.82,0,0,1,1.61-.22c0-.6,0-1.22,0-1.82a52.57,52.57,0,0,1-5.8,3.39,3.71,3.71,0,0,1-2.41.43c-1.58-.44-1.2-2.35-1.21-3.61,0-2.7,1.32-5.48,1.73-8.06.81-4.43,1.28-8.9,2.2-13.32,1-7.55,2.26-15.09,3.34-22.64.58-4.32,1.81-8.55,2.15-12.9.19-1-.17-6.33.48-8.12-5.72,2.1-4.28-3.74-3.51-7.25,1.48-5.68,1.93-11.58,3.14-17.33.67-4.23,1.94-8.32,3-12.46a48,48,0,0,0-.76-10c-.35-3.14-.15-6.32-.57-9.46-.61-4.91-2.7-9.2-4.85-13.57-1.33-4.18-2.64-8.59-5.89-11.68-1.73-1.75-4.08-2.58-6.22-3.7-1-.06-1.86-.92-2.72-1.43A19.11,19.11,0,0,1,91.37,141a2.27,2.27,0,0,1-.65.22,1.33,1.33,0,0,1-1.25-1.89,25.14,25.14,0,0,1,1.27-2.2,35.18,35.18,0,0,0-2.87-4c-.75-.84-1.53-1.65-2.33-2.45a20.35,20.35,0,0,1-6-2.71c-3.78-2.24-7.45-5.66-7.66-10.33a6.37,6.37,0,0,1,1-3.38,37.6,37.6,0,0,1,5.49-7.54c2.89-3.27,6-6.35,9.08-9.42a111,111,0,0,1,17-15.52c6.31-4.75,13.72-7.86,20.3-12.18h0c0-.07-.07-.11-.07-.19a.16.16,0,0,1,.31-.05,1,1,0,0,1,.08.23c.24.31-.23.75-.44.94-4.44,3.69-9.52,6.47-14.36,9.56A110.94,110.94,0,0,0,94.47,93.37c-3,3.22-6.07,6.49-9.24,9.58-3.59,3.94-7.66,7.71-10.14,12.48a3.79,3.79,0,0,1,.21.65,8.55,8.55,0,0,0,2,3c2.85,3.2,6.1,6,9,9.17q.9.28,1.83.51c2.27.84,4.33,2.12,6.51,3.16,1.39-1.64,2.84-3.23,4.19-4.86.69-1,1.27-2.16,1.88-3.19.47-.85,1.06-2.32,2.26-1.56,1.08-1.1,3.64-4.3,6.42-7.4h0c-.81-.13-1-1-1.44-1.62a12.09,12.09,0,0,0-2.28-2.24c-.31-.18-.62-.34-.94-.5A1.71,1.71,0,0,1,104,110c-.67-.43-1.37-.82-2.06-1.19h0a1,1,0,0,1,1.06-1.75,11.8,11.8,0,0,1,1.55.87c.5-.37,1-.72,1.49-1.11a60.69,60.69,0,0,0,8.58-8.68c1.87-2.09,4.22-3.67,6.18-5.68,2.13-2.15,4-4.54,6-6.81s4.19-4.35,5.33-7.19c.72-1,1.57-3.76,3.14-3.08a1.18,1.18,0,0,1,.54,1.57l-.5.91a.56.56,0,0,0,.3.08l.07,0a10.06,10.06,0,0,1,1.54-.77V77a1.15,1.15,0,0,0,.47.11h.22l.09,0,.08,0,.08,0,.17,0,.08,0h0l.62-.28c.35-.16.71-.31,1.07-.44l.34-.11h0a0,0,0,0,1,0,0h.06a2.24,2.24,0,0,0,.36-.14,3.23,3.23,0,0,0,.44-.27,1,1,0,0,0,.37-.3,1.14,1.14,0,0,1,.68.07,22.81,22.81,0,0,0,2.2-1.13l.08,0c-.28-.92-.68-1.79-1-2.68a.89.89,0,0,1,0-.66,12.6,12.6,0,0,1-1.23-11.68,9.23,9.23,0,0,1,2.51-3,.74.74,0,0,1,.49-.41l.82-.7c.84-.68,4.37-3.17,5.26-2.31.25,0,.49,0,.74,0a9.56,9.56,0,0,1,.39-2.25l0-.07a11.72,11.72,0,0,0-1.5-.37,47.87,47.87,0,0,0-8.23.35,12.9,12.9,0,0,0-6.11,3.12A46.11,46.11,0,0,0,133.08,61a.41.41,0,0,1,.48.47c-1.25,3.08-3.2,5.86-4.82,8.76a.16.16,0,0,1,0,.25l-.16.07c-.38.4-1.43,3-2,2.39a.87.87,0,0,1-.16-.69,25.5,25.5,0,0,1,1.5-5.94,59.56,59.56,0,0,1,5.19-10.72A13.51,13.51,0,0,1,135,52.33c.44-.73.88-1.47,1.31-2.21a4,4,0,0,1,2.3-1.42,1.31,1.31,0,0,1,.18-.5,18.78,18.78,0,0,1,2.58-5,25.35,25.35,0,0,1,3.92-4.48c-5.52-1.36-8-7.82-7.8-13.12.05-3.7,1.72-7.08,3.34-10.32,1.35-2.79,4.15-4.59,6.85-5.84,7.24-3.76,18-3.7,23.13,3.39C174,17,174.1,22.7,172.15,27.44a11.19,11.19,0,0,1-2.49,2.91A31.61,31.61,0,0,1,181,33.09a17.93,17.93,0,0,1,5.48,4.12,28.28,28.28,0,0,1,5.41,7.28c1.62,2.73,3.15,5.74,3.22,9,0,.56-.26,1.4-.78,1.56a12.17,12.17,0,0,1,3,3.81c.11.17.4.7.76,1.42v0c.81,1.53,1.5,3.13,2.24,4.71l.35.65a.2.2,0,0,1,.23-.05,2.56,2.56,0,0,1,.72.45c.17.11,0,.38-.17.26A5.76,5.76,0,0,0,201,66c2,4.42,6.58,6.68,10.62,8.94a49,49,0,0,1,6.71,4.76c3.69,2.68,7.66,4.42,11.27,7.14a41.85,41.85,0,0,1,4.54,3.39,43.85,43.85,0,0,1,4.41,8.18c2.27,5.79-.52,11.87-3.62,16.77a154.61,154.61,0,0,1-8.95,13.16,22.66,22.66,0,0,0-1.82,3.12A3.6,3.6,0,0,1,223,133a.33.33,0,0,1,0,.14.77.77,0,0,1,0,.58,3.79,3.79,0,0,1-.39.78c.3-.26.58-.55.89-.81-.21.36-.42.72-.62,1.08l-.72,1.34c-.11.21-.21.42-.32.64-1.88,2.15-3.57,4.49-5.29,6.73-3.47,4.07-6.25,8.54-9.5,12.75a35.26,35.26,0,0,0-3.67,4.69c0,2.59-.69,5.11-.69,7.68a79.48,79.48,0,0,1-.71,14c-.37,8.31-2.24,16.67-.95,25,.84,4.74,1.27,9.56,2.44,14.23.66,2.8,1.49,5.54,2.08,8.35a12.89,12.89,0,0,1,.3,1.93,1.27,1.27,0,0,1-1.66,1.13c-.64-.23-1-.86-1.44-1.33a31.21,31.21,0,0,0-2.47-2.41l-.78-.65c-.06.24-.13.48-.2.7-.2.76-.4,1.52-.59,2.28.19,6.28-.37,12.6.71,18.82a102.45,102.45,0,0,0,1.92,11.56c.65,2.29,1.59,4.46,2.14,6.78s.88,4.8,1.53,7.16a41.91,41.91,0,0,1,1.6,6.59c.2,1.81.67,8.62-2.3,7.82a1.39,1.39,0,0,1-.21-.11,3.93,3.93,0,0,1-1.29,1.21,11,11,0,0,1-3.4.77c-.8.09-1.55.26-2.3.41.8,5.79-.21,11.65-.71,17.43-.14,2.15-.27,4.32-.39,6.47-.1,1,0,2.86-1.46,2.72-1.82-.41-.46-2.67-.49-3.91.53-3.41,1-6.83,1.61-10.23a60.26,60.26,0,0,0,.86-12.36l-.73.13c-.25-.24-.17-.48.06-.72h-.21c-2.9.18-5.82.09-8.71.49a47.47,47.47,0,0,1-13.93-.14,23.56,23.56,0,0,0-3.85.05h0a.9.9,0,0,1,.43.57c.55,3.06.69,6.21,1.6,9.21.59,1.93,1.49,3.76,2.25,5.64a33.34,33.34,0,0,0,2.71,5.45,1,1,0,0,1-1.73.92,39.42,39.42,0,0,1-6.15-14.69,42,42,0,0,1-.61-4.6c0-.36-.06-.74-.07-1.1-.48.17-1,.28-1.41.41-2.67.81-5.3,2-8.1,2.2h0c-1.24,0-2-1.13-2.54-2.73a13.83,13.83,0,0,1-1.41-4c-.81,2.06-2.39,4.33-4.72,4.58a4.05,4.05,0,0,1-3.2,2.07,2.92,2.92,0,0,1-.7-.09,17,17,0,0,1-3-.72c-.53,5-1.63,10-2,15.05-.14,1.3-.26,2.6-.37,3.9,0,.56-.23,1.27-.91,1.2a1,1,0,0,1-1.13.87,1,1,0,0,1-.85-1.12c.16-1.17.4-2.33.61-3.48.34-1.82.7-3.56,1.07-5.35,0,0,0,0,0-.06.81-3.84,1.6-7.67,2.2-11.53a20.33,20.33,0,0,1-2.1-1c-1.74,0-6.64-.53-3.79-1.12-5.26-.79-10.35,1.5-15.49,2a1.52,1.52,0,0,1-1.22-.4,2.8,2.8,0,0,1-.35.25,1.12,1.12,0,0,1-.6.59c-1.26.36-2.64.26-3.86.83,0,.84.09,1.67.11,2.51-.07,2.62.66,5.17,1,7.75.67,3.25,1,6.63,1.65,9.86.14.64.26,1.24.41,1.87a1,1,0,0,1,.23,1,1,1,0,0,1-1,.74A.82.82,0,0,1,115.92,320.09Zm19.53-26.64-.41.1a11.06,11.06,0,0,0,2.73.36l.38-.08c-.74-.19-1.48-.37-2.23-.52ZM114.9,233a9.59,9.59,0,0,1,0-1.42.3.3,0,0,1-.18.05C114.81,232,114.86,232.49,114.9,233Zm-7.69-111.74c-2.34,3-5.35,5.45-7.09,8.81A43.92,43.92,0,0,1,97.59,134a1.21,1.21,0,0,1-.91,1.38,16.24,16.24,0,0,0-2.2,4.65c1.14,1.06,2.22,2.2,3.45,3.16,2.26,1.68,5.1,2.37,7.27,4.19,4.3,3.41,6,8.76,7.6,13.77,1.47,3.1,3.18,6.12,4,9.5,1.46,4.75,1,9.75,1.57,14.63a37.08,37.08,0,0,1,.57,10.4c-2.56,8.37-3.87,17-5.19,25.67-.52,2.78-1.6,5.51-1.54,8.37A37.89,37.89,0,0,1,122.3,228c4-.64,8-.87,11.92-1.66,6.39-2.7,12.36-6.49,19.05-8.48,5.3-1.57,10.88-1.19,16.34-1.13a36,36,0,0,1,9.69,1.24,69.7,69.7,0,0,1,7.36,3c6,2.46,10.9,2.06,15.82,7.14a101.32,101.32,0,0,1-3.17-15.47,67.45,67.45,0,0,1-1.23-10.69c.15-7.24,1.16-14.43,1.76-21.65.89-4.5.39-9.16,1.49-13.61.32-1.33.7-2.65,1-4a.86.86,0,0,1-.29,0,.75.75,0,0,1-.71-.7c-.63-3.33,2.66-5.38,4.46-7.73,2.31-2.83,4.19-5.89,6.6-8.64-.32-1.58,5.42-8.88,8.32-11.78-.33-.19-.65-.39-1-.6-2.55,2.23-10.57-10.47-12.07-12.54a24.73,24.73,0,0,1-2.76-5.3c-.32-1.27-.58-2.56-.78-3.86a20.84,20.84,0,0,0-1.79,1.29,1.28,1.28,0,0,0-.43-.5,1.52,1.52,0,0,0-1.39-.13,6.66,6.66,0,0,0-.73.31l-.09,0c2.74-2.88,12.87-7,14.21-7.09,0-.26.38-.18.31.07.59.54-.39,1-.83,1.17-1.59.72-3.15,1.48-4.7,2.28-.84.44-1.68.88-2.51,1.34a.64.64,0,0,1,0,.07c1.49,3.53,3.31,6.91,5.06,10.32.7,1.31,1.39,2.64,2.2,3.89,1,1.06,2.06,2.13,3.08,3.14a23.24,23.24,0,0,0,4.77,3.8c.15-.35.36-.69.48-1,1.81-3.81,4.74-6.92,7-10.44,2.74-4.42,5.95-8.7,7.56-13.7a11.82,11.82,0,0,0-.35-7.39,47.08,47.08,0,0,0-3.77-7,96.17,96.17,0,0,0-12-8.07,58,58,0,0,1-7.09-5.41c-3.5-2.58-7.74-4.75-10.46-8.19a.52.52,0,0,1-.25.24.16.16,0,0,1-.14-.24,2.68,2.68,0,0,0,.18-.28l-.08-.1c-1,.12-1.77-1.59-2.34-2.22-1.89-2.44-2.91-5.4-4.74-7.77-.83-1.06-1.72-2.08-2.64-3.06a7.79,7.79,0,0,0-8-1.09L184,56c3.5,1.15,5.82,3.59,5.87,8.09a6.85,6.85,0,0,1,0,1.2q-.13.45-.24.9-.14.63-.24,1.26c-.36,1.08-.84,2.14-1.23,3.21a8.59,8.59,0,0,1-2.47,3.66,8.11,8.11,0,0,1,3,.7,8.51,8.51,0,0,1,.89.5.83.83,0,0,1,.08.12,6.42,6.42,0,0,0,.63.75c.21.21.44.4.67.6s.43.4.67.59l0,.06,0,0c.06.16.13.31.2.47l.22.48s0,0,0,0a0,0,0,0,0,0,0c.15.32.29.65.44,1s.32.81.49,1.22a3.4,3.4,0,0,0,.42.71,1.36,1.36,0,0,1,0,.6,44,44,0,0,0,3.11,3.56c2,2.29,4.72,3.79,6.87,5.93a80.52,80.52,0,0,0,8.94,8.24,33.76,33.76,0,0,0,8.07,4.39,1.25,1.25,0,0,1-1,2.3c-6.48-2.34-11.81-6.93-16.37-11.94-1.71-2-3.81-3.68-5.63-5.62a60.39,60.39,0,0,1-4.79-6.44l-.31-.06a5,5,0,0,1-1.1-1.44,25.08,25.08,0,0,1-6.6,11.54c-2.93,2.92-4.62,6.86-8,9.26a45.06,45.06,0,0,1-8.34,5.74,1.89,1.89,0,0,1,.41.39,31.33,31.33,0,0,1,3.62,5.41l.11.21a1.2,1.2,0,0,0-.19.85,2.22,2.22,0,0,0,.52,1c.2.28.42.55.63.82.38.47.76.92,1.18,1.35h0l.05.06s0,0,0,0a5.66,5.66,0,0,0,2.79,1.88,8.5,8.5,0,0,0,1,.16,1.36,1.36,0,0,0,.73.22h0a.85.85,0,0,0,.23,0,2.33,2.33,0,0,1-1.88.27,10.51,10.51,0,0,1-2.6-1.13c.38,1.86-10.84,6.37-12,6.67a19.6,19.6,0,0,1-8.92,1.32,34.65,34.65,0,0,1-11.55-3.78,14.79,14.79,0,0,1-2-1.35,4.18,4.18,0,0,1-1.21-.94c-.61,0-1.23,0-1.85,0H137a.13.13,0,0,1-.15.09,4.49,4.49,0,0,1-1.52-.16c-.61,0-1.23-.1-1.84-.16-2,.6-4,1.43-6.16,1.22l-.52-.09a1.07,1.07,0,0,1-.36.16c-.8.33-2-.54-3.29-1.93a10.3,10.3,0,0,1-1.39-1.33c-.16-.25-.58-.61-.44-.92-2-2.73-3.79-6-4-7.12a43.94,43.94,0,0,0-5,4.69.94.94,0,0,1-.23.5,1.77,1.77,0,0,0-.24.61.16.16,0,0,1-.31,0,.82.82,0,0,1,.07-.31C110.09,117.89,108.67,119.57,107.21,121.21Zm-17.59,11a30.3,30.3,0,0,1,2,3.49c.42-.59.86-1.17,1.31-1.75-1.14-.57-2.25-1.2-3.38-1.78Zm-11.28-8.17c.44.34.88.68,1.33,1-1.51-1.44-3-2.9-4.41-4.46A11.78,11.78,0,0,0,78.34,124.08Zm73,.08c6.86,2.12,13.9-1.06,20-4,.35-.19.7-.37,1-.57a16.28,16.28,0,0,1-1.14-1.7,26.22,26.22,0,0,1-1.49-2.74c-.72-1.57-1.92-2.87-2.48-4.53a4.85,4.85,0,0,1-.5-2.41,12.53,12.53,0,0,1-4.62.76c-3.88-.41-7-3.16-10.23-5.09-2.94-2.19-6.46-3.6-9.15-6.1A31.92,31.92,0,0,1,140,93.07c-.14-.26-.27-.53-.39-.79A11.43,11.43,0,0,1,138,88.6a1.54,1.54,0,0,0-.08-.19c0-.12-.15-.3-.08-.44a27.34,27.34,0,0,1-.7-8.47l-.41.08a21,21,0,0,1-2.15.46.86.86,0,0,1-.38-.07c-.22.41-.43.82-.63,1.24A14.91,14.91,0,0,1,130.72,85c-2.1,2.26-4.1,4.59-6.11,6.93-2.47,2.93-5.67,5.07-8.43,7.68-3.32,3.28-6.79,6.62-10.93,8.83.41.3.8.63,1.18,1a32.82,32.82,0,0,1,4.47,4c3-3.23,6.07-5.89,7.51-5.27,1.11.37,1.08,1.91,1.47,2.77a30.15,30.15,0,0,0,6.35,8.91,1,1,0,0,1,1.18,1.14,10.55,10.55,0,0,0,4-.64.82.82,0,0,1,.37-.13h0c.63-.1,1.27-.55,1.89-.39a.53.53,0,0,1,.3.34c.77,0,1.5.07,1.84.06l.34-.28c2.16-1.62,4.24-3.29,6.23-5.11a80.86,80.86,0,0,0,8.13-9.23c1.06-1.24,2.54.31,1.46,1.47a1.06,1.06,0,0,1-.47,1.07c-1.75,1.42-3.05,3.31-4.68,4.85a52.94,52.94,0,0,1-5.65,5.46c-.24.21-.55.49-.87.72a.91.91,0,0,1,.4.21,5.32,5.32,0,0,1,.67.35l.38-.06a.76.76,0,0,0-.06.18,1.08,1.08,0,0,0,0,.59.77.77,0,0,0,.12.28h0a2.23,2.23,0,0,0,1.58.88l.62.16a5.52,5.52,0,0,0,.54.28l.63.3a1.47,1.47,0,0,0,.65.18.58.58,0,0,0,.19,0A42,42,0,0,0,151.3,124.16Zm-14.52-4.1c.72,0,1.45-.08,2.17-.15a1.13,1.13,0,0,1,.32-.56,1,1,0,0,1-.48-.63C138.13,119.19,137.46,119.62,136.78,120.06Zm10-44.91a1.9,1.9,0,0,1-.86.75,2.79,2.79,0,0,1-1.27,1.55,14.25,14.25,0,0,1-6,1.8c-.09,1.25-.14,2.5-.14,3.75a21.13,21.13,0,0,0,2.24,9.45A36.08,36.08,0,0,0,143.43,96a8.22,8.22,0,0,0,.61.57,53.65,53.65,0,0,0,4.81,2.65c3.22,1.74,6.19,3.91,9.35,5.75a8,8,0,0,0,7.08,1.16c4.75-1.69,8.75-5.26,12.54-8.43,1.44-1.6,2.64-3.38,4.08-5a47.83,47.83,0,0,0,4.57-5.47,21.35,21.35,0,0,0,3.2-8.19A6.8,6.8,0,0,0,185.11,77a8.48,8.48,0,0,0-2.17.11,6.37,6.37,0,0,1-3.1-.06,18.65,18.65,0,0,1-4.32.37c-2.47-.11-5.42-.26-7.12-2.3a11.12,11.12,0,0,1-1.52-5.15,17.48,17.48,0,0,1-2.51,0,15.86,15.86,0,0,1-5.93,4.26,12.33,12.33,0,0,1-9.27.68,9.58,9.58,0,0,1-2.32-1A3.2,3.2,0,0,1,146.78,75.15Zm-11.7,3.12a.71.71,0,0,1,.14-.1l-.07,0Zm38.79-19.68a1.73,1.73,0,0,1-.46.12,6.8,6.8,0,0,0-3,3.54,14.51,14.51,0,0,0-.87,3.55,1.08,1.08,0,0,1,.55.42.82.82,0,0,1-.57,1.26c.54.82.41,1.38-.1,1.76,0,.17,0,.34,0,.51a4.89,4.89,0,0,0,4.77,5,15.3,15.3,0,0,0,5.52-.38,2.56,2.56,0,0,1,.11-.24,1.15,1.15,0,0,1,1.48-.37,7.64,7.64,0,0,0,2.31-1.75c2.51-2.49,3.19-4.52,2.62-8-.29-2.31-1.23-4.82-3.63-5.64a11.13,11.13,0,0,0-8.28-.13h0A1.1,1.1,0,0,1,173.87,58.59ZM127.6,69.8c-.2.67-.37,1.35-.51,2l.6-1.06a1.56,1.56,0,0,1,.16-1.35Zm23-12.39c-3.12,1.21-5.81,4.18-5.86,7.64,0,3.77,2.54,6.57,6.39,6.54a18.57,18.57,0,0,0,8.47-2.47,4.87,4.87,0,0,0,.74-.62,2,2,0,0,1-.46-.82c-.22-1.19.89-1.57,1.89-1.72a7.46,7.46,0,0,0,.25-2.44c-.36-2.49-2.16-4.46-4-6.09a12.35,12.35,0,0,0-4.05-.74A7.92,7.92,0,0,0,150.6,57.41Zm-22.7,13,.51-.89a.61.61,0,0,1-.16-.12A3.37,3.37,0,0,0,127.9,70.41ZM161.65,51.1l-.58.59a17.51,17.51,0,0,1-3.68,2l-.27.16a10.57,10.57,0,0,1,1,.56,1.19,1.19,0,0,0,.17.45,2.25,2.25,0,0,0,.88.67c.23.12.45.24.69.35a3.05,3.05,0,0,0,1.23.42h0c3,2.13,5.31,5.7,5,9.33H167a27.41,27.41,0,0,1,.71-3.46,9.12,9.12,0,0,1,2.38-4,14.88,14.88,0,0,1-8.41-7Zm-15.09,5.22a1.6,1.6,0,0,0-.3.11c-.22.19-.42.4-.62.61a6.44,6.44,0,0,0-2.15,3.4,11.44,11.44,0,0,1,4.5-4.57C147.51,56,147,56.18,146.56,56.32Zm1.15-1.15c.51-.16,1-.32,1.56-.44a.67.67,0,0,1-.06-.12.88.88,0,0,1,0-.48C148.66,54.46,148.18,54.8,147.71,55.17Z"/><path d="M172.83,115.22h0Z"/><path d="M116.58,320a7.61,7.61,0,0,1-.8-2.66,60.31,60.31,0,0,0-1.55-6.87c-1-2.86-1-6-1-9a36.29,36.29,0,0,1,.44-5.53c1-.89.87,1.73,1,2.25.32,3.41.35,7,1.28,10.3a63.62,63.62,0,0,1,2.74,10.35A1.21,1.21,0,0,1,116.58,320Z"/><path d="M122.76,336.62c-7-2.46-9.05-7.66-6.88-14.52.2-.47.19-1.26.72-1.47.22,0,.28.21.22.37s.05.35-.08.45c-1.42,7.06,1.24,11.58,8.3,13.23a1.16,1.16,0,0,1-.14,2.18A4,4,0,0,1,122.76,336.62Z"/><path d="M139.59,357.41c-.56-1.51-.27-3.22-.39-4.81-.6-3.83-1.17-7.4-1.41-11.29,0,.95-.59,1.57-.77.23-.24-2.43-.55-4.86-.84-7.29-.32-2.26-1.28-4.35-1.75-6.57a3.52,3.52,0,0,1,.11-2.81c.66-.71,1.46-.1,1.58.71a8,8,0,0,1,1.1,3.18,17.77,17.77,0,0,1,1.05,7.14c1.33,4.12,1,8.47,1.79,12.68a57,57,0,0,1,1.22,8.51A.91.91,0,0,1,139.59,357.41Z"/><path d="M135.17,326.73a1.08,1.08,0,0,1-1.31-1.18,35.7,35.7,0,0,1,2.47-7.88c.52-1.27,1-2.56,1.52-3.83a1.25,1.25,0,0,1,.52-.71,1,1,0,0,1,1.53,1c-.74,4.32-2,8.77-4.37,12.42a.16.16,0,0,1-.11.28C135.31,326.85,135.21,326.83,135.17,326.73Z"/><path d="M120.44,357c-.71-5.1-1.17-10.24-2-15.34-.2-1.32-.43-2.44-.71-3.69a4.23,4.23,0,0,1-.22-1.72.71.71,0,0,1,1.14-.21c0-.2,0-.48.16-.62s.46.1.27.27c0,1.33.82,2.46,1.09,3.75s.64,2.64,1,3.95c.25.69.51,1.76-.46,2,.45,2.12.59,4.28.9,6.42a24.09,24.09,0,0,1,.5,5.21A.87.87,0,0,1,120.44,357Z"/><path d="M174.52,314.31c-.57-.25-.69-.92-.92-1.43-.61-1.56-1.18-3.14-1.8-4.7-1.65-4.34-3.53-8.61-4.21-13.23,0-.58-.63-2.44.12-2.57a.26.26,0,0,1,.16.48,30.15,30.15,0,0,0,3.82,11.48c1.14,2.42,2.39,4.8,3.49,7.24.22.47.46.93.66,1.41A1,1,0,0,1,174.52,314.31Z"/><path d="M153.16,76.52c-8.34.23-12-5.79-10.53-13.53a10.79,10.79,0,0,1,4.25-7.6c.62-.41,1.68-1.54,2.4-.89.7-.18.88.67.85,1.19a.16.16,0,0,1-.31,0,1.88,1.88,0,0,0,0-.48c-.07-.25-.23-.06-.38,0-.72,1.14-2,1.88-2.44,3.2a6.86,6.86,0,0,0-.73,1.88c0,.78-.57,1.54-1.42,1.23l-.09.2a.83.83,0,0,1-.59.38c-.82,5.4,1.12,11.56,7.43,11.8,2.84.4,5.59-.64,8-2a8.42,8.42,0,0,0,2.91-5.36c1-4,.15-6.14-3.2-8.45a12,12,0,0,0-3.27-1.38,1.24,1.24,0,0,1,.65-2.36c4.26.89,8.8,4.53,8.74,9.17s-1.71,9.88-6.43,11.5A14.43,14.43,0,0,1,153.16,76.52Z"/><path d="M172.14,76.9c-4.78-.4-8.43-4-6.74-8.94.79-3.85,2.35-7.73,5.86-9.84.24-.13.7-.4.85,0a11.89,11.89,0,0,1,7.28-1.89,7.34,7.34,0,0,1,4.81,1.24c1.45,1,2,2.75,2.52,4.36,1.44,2.11.85,4.7.42,7C186.56,76.52,178.41,77.68,172.14,76.9Zm4-3.63a1.09,1.09,0,0,1,.54.52c5.45-.56,8.21-2.47,8.12-8.26a23.24,23.24,0,0,0-.53-2.74,4.43,4.43,0,0,0-1.61-1.52,13.58,13.58,0,0,0-6.25-.84,7.8,7.8,0,0,0-3.09,1.78c-2.76,2.47-3.15,7.58-.26,10.06A23.51,23.51,0,0,0,176.17,73.27Zm-6.54.42a8.81,8.81,0,0,1-2.32-4.89A4.17,4.17,0,0,0,169.63,73.69Z"/><path d="M155.86,74.71a.24.24,0,0,1,0-.35,29.79,29.79,0,0,0,2.58-4.11c-.06-1.23.88-2.3,1.2-3.46a21.57,21.57,0,0,0,1-6,3.54,3.54,0,0,0-2.47-2.25,1,1,0,0,1,.22-1.72c1.42-.48,2.67.67,3.31,1.83,1.52-1,1.61,2.37,1.52,3.24a14.08,14.08,0,0,1,.13,4.2,6.71,6.71,0,0,1-2,3.86c-.72.52-1.93,2.35-2.82,1.43-.7,1.15-1.63,2.15-2.31,3.31A.24.24,0,0,1,155.86,74.71Z"/><path d="M178.43,75.15a5.72,5.72,0,0,1-3.56-1.55c-1.38,1.25-2.94-1.37-3.3-2.5-1.65-2.52-1.2-5.52-.61-8.29a8.69,8.69,0,0,1,1.45-2.92c.29-.41.65-.88,1.2-.89a.88.88,0,0,1,.86,1c-.43,1.42-1.56,2.62-1.56,4.19a.84.84,0,0,1,.37.78,13.65,13.65,0,0,0-.1,2.09,12.41,12.41,0,0,0,2.17,4.81,6.12,6.12,0,0,0,2.27,2.25c.51.27,1.06.45,1.56.73C179.43,75.25,178.65,75.2,178.43,75.15Z"/><path d="M153.68,73.36a2.27,2.27,0,0,1-1-.29,1,1,0,0,1,.48-1.78c3.56-.86,6.89-4.33,6.63-8.14-.63-6.48-6.08-4.75-5.42-6.84a.71.71,0,0,1,.32-1.21,2.58,2.58,0,0,1,1,0,7.67,7.67,0,0,1,2.11.88,8.72,8.72,0,0,1,3.81,1.7,5.63,5.63,0,0,1,1.2,1.38c.42,1-.88,1.71-1.68,1.14A9,9,0,0,1,158.33,71C157.05,72.17,155.57,73.52,153.68,73.36Z"/><path d="M105.74,301.36c-1-.62,0-5.75.61-6.59.43-.19.57.78.65,1.07s-.28.26-.31.06a3,3,0,0,0-.24-.75h0a11.64,11.64,0,0,0-.3,5.34c3.42-2.64,6.85-5.1,10.92-6.57,2.81-1,5.72-1.17,8.6-1.76a61.63,61.63,0,0,1,13.2-1.1,11.61,11.61,0,0,1,5.63,1c.63.31,1.44.43,1.85,1,2.34.58,2.93,1,4.51-1.18a28.19,28.19,0,0,0,2.38-3.71c.24-.8.83-1.69,1.79-1.33,2.31,1-1.54,5.45-2.38,6.69-2.05,2.7-4,2.94-7,1.37-.69.23-1.35-.26-2-.48a7.81,7.81,0,0,0-3.3-.85,65.18,65.18,0,0,0-14.23,1c-2.53.53-5.24.64-7.71,1.34a51.45,51.45,0,0,0-8.2,3.3c-1.08.58-2.2,1.34-3.22,1.94C106.63,301.4,106.17,301.67,105.74,301.36Z"/><path d="M128.72,405.63a1.28,1.28,0,0,1-.12-1.33c-1.45-.47-2.71-1.4-4.12-1.9-2.17-.34-4.6-.79-6.68.1-1.28.51-2.36,2.21-3.85,1.74-1.24-.59-.59-2,.39-2.49a10.09,10.09,0,0,1,4.22-2.12,19.21,19.21,0,0,1,6.92.42,36.08,36.08,0,0,0,7.48,3.06,58.36,58.36,0,0,0,9.57-1.36c1.17-6.55.93-13.39-1.73-19.53a12.23,12.23,0,0,1-1.34-7.87,31.55,31.55,0,0,1,2.49-7.8,14.24,14.24,0,0,0,2.11-8c-1.39.23-2.58,1.07-3.95,1.41a34.5,34.5,0,0,1-8.45,1.17c-2.39.55-4.37,1.66-6.84,1.48-5.89,0-6-5-12.73-1.21l.21.42c0,.08.08.17.13.26.47.26.58.89.84,1.33-.09-.4-.15-.8-.21-1.21a.16.16,0,0,1,.32,0,30.73,30.73,0,0,0,1.06,4c.71,1.8,1.7,3.48,2.48,5.24.28.73.82,1.48.68,2.29a.89.89,0,0,1-1.54.34,17.27,17.27,0,0,1-1.1-2.53c-1.64-3.31-3.46-6.54-4.77-10-.25-1.07,1-1.41,1.7-1.81,1.7-.81,3.51-1.73,5.45-1.59,3,.24,5.18,2.65,8.33,2.06,1.78-.1,3.31-1,5-1.4,2.16-.39,4.4-.15,6.54-.76h-.11a27.68,27.68,0,0,0,2.83-.67c1.81-.64,3.91-2,5.82-1,1.23,1.2.82,3.22.7,4.77a18.33,18.33,0,0,1-2.65,7.27c-1.13,3.28-2.67,7-1.66,10.45a36,36,0,0,1,3.57,15.46c-.17,3.08-.05,6.11-1.08,9,.81,1.22-.31,2.17-1.54,2.15-2.35.4-4.55-.11-6.87.16a1.63,1.63,0,0,1-1.52.38h-2C131.39,405.88,129.73,406.73,128.72,405.63Z"/><path d="M109.27,405.13a29.75,29.75,0,0,1-4.22-1.19c-3-.72-6-1.58-9.06-2.22-1.66-.18-3.45.1-5-.56a1.07,1.07,0,0,1-.46-1.33c.52-1.05,1.94-.65,2.89-.69a19.77,19.77,0,0,1,8,1.46c1.84.58,3.73,1,5.53,1.68a15.21,15.21,0,0,0,2.84.93,25.43,25.43,0,0,0,4.6-1c.6,0,3.54-1.49,3.3-.34-.06.08-.09.26-.22.24a15.36,15.36,0,0,1-4.27,2C111.93,404.55,110.62,405.24,109.27,405.13Z"/><path d="M138.32,409.29a26.39,26.39,0,0,1-7.83-1.63c-1.4-.91-2.58-2.21-4.21-2.75l.1,0a9.19,9.19,0,0,0-2.7-.49h.13a66.9,66.9,0,0,0-10.78.14c0,.41-.72.18-1,.21-2-.31,3.59-1.26,3.9-1.47-.88-1.91,2-2.83,3.42-3.13a11.83,11.83,0,0,1,7.65,1.51c1.76,1.13,3.58,2.1,5.41,3.12a28.91,28.91,0,0,1,8.67.8c.89-1.08,1.05-2.77,2.22-3.57a1.11,1.11,0,0,1,.74-.06c2,.72-.13,3.69-.73,4.86a1.34,1.34,0,0,1-1.67,1.48A6.28,6.28,0,0,1,138.32,409.29Z"/><path d="M198.05,411.48a17.87,17.87,0,0,1-8.81-2.78c-.71-.49-1.64-.9-1.93-1.77l-1.14-.08.17,0c-1.91-.18-3.71.63-5.49,1.18s-3.59,1.67-5.49,2.27c-1.38.36-4.66,1.06-5.56-.31-1,.19-2.07,0-3,.26a1.78,1.78,0,0,1-1.16,0c-.77-.38-1.62-1.25-1.16-2.17-.06-1.37-1.11-7.59,1.49-6.69a9,9,0,0,0-.22-1.57.21.21,0,1,1,.39-.14,6.61,6.61,0,0,1,.43,1.52,1,1,0,0,1,1.41.71c0,1,0,2.06.08,3.09,4.19-1,8.51.17,12.65.49a16.26,16.26,0,0,1,9.92-.65,11.78,11.78,0,0,1,1.2-5,10.61,10.61,0,0,0,1.17-2.14c.92-2.48,2.24-5,4.7-6.22,3.63-2,8.12-.69,11.46,1.3a13,13,0,0,1,4.07,2.86c2.26,2.7,4.81,5.7,4.72,9.42,0,1.58.06,3.55-1.16,4.73a3.28,3.28,0,0,1-2.14.34,22.53,22.53,0,0,0-3.18-.1C206.91,410,202.58,411.68,198.05,411.48Zm1.8-2.53c3-.16,5.9-1.09,8.9-1.31a37.09,37.09,0,0,1,6.41,0c1.17-4.37-1.58-7.88-4.4-10.89-3.2-2.16-7.17-4.58-11.15-3.39,1,.24,1,1.4.37,2.07-.68.85-2,.79-2.69,1.63-3,2.45-3.35,5.29-3.83,8.93a34.85,34.85,0,0,0,2.89,2.81A16.37,16.37,0,0,0,199.85,409Z"/><path d="M204.85,391.7c-.17-.05-.41-.23-.18-.37l-.4-.45c-3.32-.51-6.47-2.44-9.79-2.58-.34.32-1.13.08-1-.46.64-1.21,3-.4,4.1-.14-.36-.17-.87-.44-.76-.91.61-1.14,2.44-.33,3.33.09a11.18,11.18,0,0,1,2.13,1.43,23.81,23.81,0,0,1,2.33,1,2.55,2.55,0,0,1,1.07.77c.3.53-.27,1-.8.91.18.25.59,1-.07.73Z"/><path d="M198.23,388.57c-2.25-.79-4.11-7.73-4-10a.16.16,0,0,1,.16-.16c.28,0,.11.45.16.65,0,1.81,1.95,9.32,4.09,9.2.2,0,.25.29,0,.31A1.62,1.62,0,0,1,198.23,388.57Z"/><path d="M195.29,385c-1.76-1.47.71-8.94,1.4-11a.16.16,0,1,1,.3.08,38.65,38.65,0,0,0-1.82,7c-.11,1.17-.38,2.53.15,3.6C195.64,384.62,195.59,385.07,195.29,385Z"/><path d="M196.55,376.09a.17.17,0,0,1-.13-.2c.58-1.93,1.57-3.8,1.82-5.78-1,.73-1.37,2-1.89,3.09a.16.16,0,0,1-.18.05c-.24-.15,0-.48.06-.69a26.61,26.61,0,0,0,2-6.74c.09-.26-.1-.88.2-.95a.15.15,0,0,1,.16.16,16.8,16.8,0,0,1-1.32,5.7c1.18-1.77,1.65-.8,1,.78-.43,1.48-1,2.94-1.52,4.4A.18.18,0,0,1,196.55,376.09Z"/><path d="M199.32,369.62c-.38-.26-.45-.82-.63-1.23-.77-2.2-1.35-4.54-2.95-6.3-3.28-3.32-11-.2-15.17,0,0,.94.38,1.87.41,2.8-.39,1.17-2.57-1.89-3.19-2.14-.41-.23-.39.43-.33.67a6.22,6.22,0,0,0,.52,1.38.17.17,0,0,1-.08.21.17.17,0,0,1-.21-.08c-.29-.74-1.13-2-.22-2.61a.71.71,0,0,1,.53.06,25,25,0,0,1,2.39,2.09,11,11,0,0,1-.48-2.76.6.6,0,0,1,.24-.34,50,50,0,0,1,11-1.38c6-.11,6.47,5.07,8.35,9.33C199.8,369.37,199.63,369.8,199.32,369.62Z"/><path d="M182.29,376.28s0-.09,0-.13c-.21-.53-.44-1-.67-1.58-.48.49-1.11,0-1.18-.57a53.43,53.43,0,0,1-3.41-9.54,1.83,1.83,0,0,1,1.07-2.08,14.61,14.61,0,0,0,4.33-.19c-2-.22-1.55-2.68.4-2.13,3.11.42,6.26-.11,9.35-.47,1.47-.07,3.11-.9,4.49-.14,2.5,1.64,3.11,4.91,3.17,7.63a34.78,34.78,0,0,1,.19,5.2,1.24,1.24,0,0,1-2.46-.16c0-1.39-.07-2.83-.18-4.21a.19.19,0,0,1,0,.08c0-.25,0-.47-.05-.71v0s0,.05,0,.09c-.14-2.08-.19-4.42-2-5.83-1.21.09-2.4.32-3.61.45-.6.75-1.7.3-2.52.4-3.49.3-6.68,1.62-10.17,1.28h0c1.22,2.79,2.34,5.61,3.48,8.43a.41.41,0,0,1-.49.57c.14.81,2.17,3.77.85,4A.57.57,0,0,1,182.29,376.28Zm-3.68-12.52.09.09a1.8,1.8,0,0,0-.08-.21l-.28-.05-.05.06A.42.42,0,0,1,178.61,363.76Z"/><path d="M124.2,375.27a28.55,28.55,0,0,0,3.46-8.23,22.27,22.27,0,0,1,1.09-3,.32.32,0,0,1,.29-.12v-.08c0-.07,0-.13,0-.2a22.66,22.66,0,0,1-10.48-1.23,11.22,11.22,0,0,1-2.83-1.48,13.57,13.57,0,0,0-4.49-.15c.74,1.73,2.33,3.41,2,5.41,1.18,2.85,2.74,5.58,3.56,8.55.64-.1,1.26-.11,1.9-.16.21,0,.21.3,0,.32-.62,0-1.25.06-1.85.15-.14.06-.32.08-.34-.11-.72-3-2.44-5.7-3.83-8.42-.39-.09-.59-.72-.17-.91-.23-1.75-1.49-3.15-2.16-4.73-.18-1.73,3.55-1.06,4.63-1.07,0-.83.92-1.13,1.57-.81,1.94.7,3.86,1.45,5.84,2h0a.89.89,0,0,1,.49.5,30.79,30.79,0,0,0,5.68,0c2.27-.08,1.68,2.91,1.35,4.36a53,53,0,0,1-1.92,6.42c-.24.81-1.23,2.64-2,1.29a21.14,21.14,0,0,1-1.21,2.07.38.38,0,0,1-.27.08A.35.35,0,0,1,124.2,375.27Z"/><path d="M128.47,366.79c-.22-.05-.24-.57.05-.5a21.42,21.42,0,0,0,.42-6.64.24.24,0,0,1,.23-.23C129.81,359.36,129.28,367.08,128.47,366.79Z"/><path d="M168.46,340a1,1,0,0,1,.71-1.4,1,1,0,0,1,.91.41c14.75-1.07,29.65-3.14,44.41-3.84,9.55-.84,19-1.86,28.65-1.9,9.33-.14,18.63-.88,27.94-1.39s18.45.61,27.67,0,18.48,0,27.7.53c6,.06,11.92-.56,17.88-.66a3.33,3.33,0,0,1,3.28,2.85c.22,5.2-6.57,3.78-10,4.09-3.36,0-6.71.14-10.06.05a231.78,231.78,0,0,0-33.73-1.1c-7,0-14-.55-20.95-.51-14,.77-28,1-42,1.18-9.18.73-18.37.32-27.57.59-8.57.27-16.81.86-25.25,1.54-2.43.19-4.87.36-7.31.4C169.88,340.84,168.87,340.84,168.46,340Z"/><path d="M223.81,355.53c0-.68,1-.74,1.41-.86a153.53,153.53,0,0,1,16.65-2.3c10.38-1,20.91-1.11,31.35-1.39,7-.5,14-1.78,21-2.44a173.58,173.58,0,0,1,19.35-.49c1.8,0,3.59-.05,5.39-.09a1.2,1.2,0,0,1,0,2.4c-8,0-16.1-.73-24.15-.06-6.6.47-13.13,1.58-19.73,2.09-16.77.37-33.73,0-50.25,3.33A.52.52,0,0,1,223.81,355.53Z"/><path d="M19.07,235.14c4.22-1.82,9-2.13,13.52-3A189.32,189.32,0,0,1,56,230.1c10.91-.42,21.81-1,32.73-1.32,19.62-.39,38.89-3.39,58.48-3.7,9.56-.15,19.66.17,29.05-.45,11.4-1,22.21-1.74,33.54-1.67,3.89,0,7.77-.17,11.65-.27,2.8.1,7.7-1,8,2.91-.35,4.39-6.26,2.55-9.21,2.86-6.54.06-13.08-.31-19.61-.39-9-.1-17.9.83-26.86,1.08-13.4.34-26.79-.78-40.19-.2s-26.91,1.7-40.38,1.74c-16-.09-31.95.14-47.91.84-8.61.71-17.53,1.45-25.78,4.13C19.24,236,18.69,235.47,19.07,235.14Z"/><path d="M35.11,254.13c-1.16-.15-5.63.31-5.22-1.4.23-.53.81-.48,1.22-.2a8.56,8.56,0,0,0,2.18.31c8.31.07,16.53-1.52,24.75-2.59,16.72-2.3,33.37-5.31,50.19-6.81a1.38,1.38,0,0,1,.18,2.74c-16,1.1-31.67,3.5-47.56,5.44C52.3,252.57,43.71,254,35.11,254.13Z"/><path d="M126.26,153.64c11.4-3.57,23.35-5,35.14-6.63,16.42-1.9,33.08-2,49.53-3.23,15.94-.95,31.77-2.84,47.59-4.91,6.63-.76,13.22-1,19.83-1.77,10.43-1.24,20.8-3,31.23-4.28,1.15-.16,2.68-.07,2.87,1.37.12,2.29-3,2.14-4.58,2.6-10.81,1.41-21.6,3-32.45,4-7.85.53-15.69.82-23.49,1.79-11.38,1.45-22.82,2.36-34.26,2.89-19.36,1.25-38.85.77-58.15,2.75-8.74,1.07-17.51,2.24-26.12,4.14-2.36.48-4.65,1.24-7,1.95C126.05,154.44,125.81,153.76,126.26,153.64Z"/><path d="M197.3,171.63c1-1.33,2.83-1.52,4.28-2.06a87.34,87.34,0,0,1,9.87-2.06A165,165,0,0,1,232,165.34c10-.69,19.89-1.68,29.9-1.54a1.26,1.26,0,0,1,0,2.51c-11.63-.6-23.22.53-34.8.93a144.77,144.77,0,0,0-17.86,2c-3.62.72-7.59,1.1-10.84,2.89C198.2,173.07,196.75,172.45,197.3,171.63Z"/><path d="M9.55,31.16c-.08-.94,1.16-.64,1.87-.78,9.66-1.4,19.31-3,29-3.78,10.16-.74,20.46-.93,30.56-1.81,12.61-1,25.2-2,37.8-2.93,12.52-1.21,25-2.81,37.61-3,18.35-.08,36.21-3.84,54.39-5.59l1.73-.11a1.1,1.1,0,0,1,.15,2.19c-1.14.15-2.29.25-3.43.35-13.41,1.33-26.71,3.75-40.18,4.61-8.54.49-17.16.47-25.68,1-9.7.69-19.35,2-29,2.6C89.8,24.82,75.3,26,60.73,26.84c-8.25.45-16.55.47-24.76,1.33-8.47.95-16.93,2.07-25.34,3.42C10.22,31.76,9.62,31.71,9.55,31.16Z"/><path d="M41,46.27c-.13-.56.34-.91.84-.93C48,44,54.11,43,60.25,41.82c31.33-6.49,63.27-8.88,94.92-13.24a.85.85,0,0,1,.23,1.69c-24.46,3.44-49.13,5.06-73.54,8.87C70,41,58.16,43.4,46.34,45.54a38.46,38.46,0,0,0-4.48,1.21A.68.68,0,0,1,41,46.27Z"/><path d="M73.72,10.25c-.12-.48-.45-1.13,0-1.52a2.7,2.7,0,0,1,.78-.33A72,72,0,0,1,85,7.3c11.57-.57,23.19-.92,34.75-1.44,25.39-1.65,50.62-4.44,76-5.8,1.11.09,2.93-.53,3.28.89a1,1,0,0,1-.89,1.18c-23.67,1-47.19,3.08-70.83,4.34-13.54.76-27.11.66-40.66,1.44-4.16.32-8.44.21-12.44,1.36,0,.38.48,1,0,1.22A.34.34,0,0,1,73.72,10.25Z"/><path d="M237.38,105.65c-.81-.62.84-1.19,1.17-1.64a.35.35,0,0,1,.5.06c.28.43-.36.68-.61.93,8.62-.87,17.17-2.35,25.76-3.51,6.38-.88,12.8-1.29,19.17-2.25,6.11-.79,12.19-1.72,18.3-2.48a.68.68,0,1,1,.19,1.34c-2.13.38-4.29.59-6.43.9-7.66,1-15.38,2.26-23.06,2.89C260.64,102.51,249.06,105,237.38,105.65Z"/><path d="M265.84,203.83c.31-.69,1.16-.85,1.82-1.05,3.63-.94,7.35-1.46,11.06-2.06,15.12-2.51,30.49-2.82,45.62-5.31a.77.77,0,0,1,.21,1.53c-19.16,3-39,2-57.79,7.07,0,.81-1.24.53-.91-.21Z"/><path d="M.24,320.34a.61.61,0,0,1,.28-1.08.57.57,0,0,1,.43.12c6.67-.46,13.17-2.24,19.79-3.13,8.59-1.51,17.3-2,25.93-3.3,5.95-.76,11.95-1,17.9-1.78a.85.85,0,1,1,.23,1.69c-1.64.2-3.28.35-4.93.48-12.12.76-24.2,1.82-36.22,3.5-6,.84-12,2-18,3.07-1.77.14-3.71.87-5.42.41Z"/><path d="M181.15,122.46c-2.39-.47-5.64-1.31-6.55-3.82.07-.73.85-.49,1.25-.22.19-.1.48,0,.45.23,4.33,2.5,7.42-1.13,10.84-3.29a76.58,76.58,0,0,1,7.62-3.12c2.15-.78,4.33-2,6.68-1.81a2.13,2.13,0,0,1,1,3.76c-3.48,2-7.69,3.16-11.35,4.49C187.64,119.48,184.81,122.57,181.15,122.46Z"/><path d="M126.94,121a.25.25,0,1,1,.5,0,.25.25,0,0,1-.5,0Z"/><path d="M132.18,123.3a31.73,31.73,0,0,1-4.16-1.78c-.44-.19-1.25-.5-.86-1.09a1.39,1.39,0,0,1,1.24-.34c5.8,1.09,5.07.14,9.71-2.49,3.39-1.75,5.39,2.2,1.63,3.47C137.43,122.28,134.91,124.07,132.18,123.3Z"/></g></g></g></svg>