<svg xmlns="http://www.w3.org/2000/svg" viewBox="0 0 114.3 178.72"><g id="Layer_2" data-name="Layer 2"><g id="Vector_layer" data-name="Vector layer"><path d="M58.81,18.22c.08.28-.22.25-.39.32A1.35,1.35,0,0,0,57.77,20a.24.24,0,0,1-.45.18,1.72,1.72,0,0,1,.84-2C58.35,18,58.69,18,58.81,18.22Z"/><path d="M56.51,21.82c.22,0,.3.25.31.44.07,1-1,1.47-1.66,2.13A.64.64,0,0,0,55,25a4.93,4.93,0,0,1,.56,2.76c-.17.58-.88.77-1.13,1.31.17.16.36.2.52.36s.11.48.12.72a2.22,2.22,0,0,0,.11,1c.17.5-.21.9-.57,1.19a4.43,4.43,0,0,0-.49.48.16.16,0,0,1-.24,0c-.27-.3.69-.85.84-1.09s-.06-.52-.17-.76a1.18,1.18,0,0,1,.16-1.27c0-.06,0-.14-.07-.16-.26-.14-.64-.19-.7-.54a1.53,1.53,0,0,1,.94-1.54,1.78,1.78,0,0,0,.22-1.3,2.24,2.24,0,0,0-.21-.68A1.51,1.51,0,0,1,54.5,25c-.18-1.36,2.24-1.37,2-2.8-.12,0-.26-.06-.23-.2S56.39,21.78,56.51,21.82Z"/><path d="M54.11,33.36c0,.22.23.83-.16.8a.19.19,0,0,1-.1-.26.94.94,0,0,0-.1-.43A.19.19,0,1,1,54.11,33.36Z"/><path d="M53.2,16.07a.18.18,0,1,1-.31.17c-.88.47-1.79,1.53-1.44,2.59a.33.33,0,0,1-.63.2c-.43-1.06.42-2.09,1.21-2.71C52.34,16.1,52.89,15.62,53.2,16.07Z"/><path d="M51.06,19.41a.35.35,0,0,1-.05.53c-2.1.88-3.4,1.28-3.66,3.84a.37.37,0,0,1-.38.31c-.86-.06,0-2.3.34-2.7.65-1.08,1.95-1.32,3-1.81a.66.66,0,0,0,.22-.19A.36.36,0,0,1,51.06,19.41Z"/><path d="M47.21,24.73c.07.18-.13.24-.26.29a.88.88,0,0,0-.37.32c-.17.31.06.65.15.95.81,2-1.76,2.84-2.66,4.15v0h0a.06.06,0,0,0,0,0,.43.43,0,0,0,0,.25c.87,1.4-.46,2.54-.87,3.84-.33.69-1.09.92-1.72,1.25-.34.19-.69.75-1.12.42-.67-.68,1-1.48,1.43-1.79s.58-.72.9-1.06c.39-.58,1.17-1.19,1-2a2.49,2.49,0,0,1-.31-1c.14-.94,1.18-1.39,1.82-2,.47-.41,1.19-.72,1.25-1.41s-.45-1.16-.21-1.75a1.25,1.25,0,0,1,.75-.62A.18.18,0,0,1,47.21,24.73Z"/><path d="M43.84,38.49c.1.48-.48.56-.82.55a1.64,1.64,0,0,1-1.29-.76c-.26-.31-.33-.76-.64-1a.51.51,0,0,0-.53.07.52.52,0,0,0-.15.47c.12.18-.09.41-.26.25a.81.81,0,0,1,.43-1.13c1-.45,1.39,1,2.19,1.24a1.16,1.16,0,0,0,.64,0A.4.4,0,0,1,43.84,38.49Z"/><path d="M49.86,42.31a.88.88,0,0,1,.5.92.65.65,0,0,1-.06.21.81.81,0,0,1-.57.48,3.08,3.08,0,0,1-.85.09c-1.21.16-2.63-.42-2.28-1.87A2.25,2.25,0,0,1,46,40.33a1.33,1.33,0,0,0-.27-.87A1.27,1.27,0,0,0,45,39c-.27,0-.52-.12-.57-.42a.44.44,0,0,1,.76-.33,2.57,2.57,0,0,1,1.45.91c.34.42.44,1,.74,1.42a1.19,1.19,0,0,0,.46.2A1.53,1.53,0,0,1,48.67,42,5.46,5.46,0,0,1,49.86,42.31Z"/><path d="M51.31,43.62c.58.11.48.92-.11.8-.42-.08-.91-.54-.48-.91A.4.4,0,0,1,51.31,43.62Z"/><path d="M60.16,20.17a.48.48,0,0,1,.05,1,1.73,1.73,0,0,1-.68,0,1.35,1.35,0,0,1-1-1.42c0-.31,0-.87.26-1.08.14-.52.9-.19.63.28C59.54,19.38,59.39,20.27,60.16,20.17Z"/><path d="M65.78,24a.46.46,0,0,1,0,.92A6.51,6.51,0,0,1,65,25a1.91,1.91,0,0,1-1.88-1.1c-.31-.77,1.47-2.13.23-2.43A1.65,1.65,0,0,0,62,21.7a.42.42,0,0,1-.55-.16c-.37-.84,1.63-.94,2.11-.72,1.36.39.84,1.55.62,2.54C64.22,24,65.32,23.91,65.78,24Z"/><path d="M69.91,29.14c.47.36,1.51,1.13.85,1.74l-.12.07a.34.34,0,0,1-.2,0,.51.51,0,0,1-.42-.21c-.17-.43-.62-.55-.92-.86a1.49,1.49,0,0,1-.38-1c0-.49-.5-.79-.62-1.24s.09-.81,0-1.2c-.25-.31-.64-.4-1-.61a.35.35,0,0,1-.27-.43c.12-.37.51-.2.75-.07a3.49,3.49,0,0,1,1,.51c.41.36.39.94.51,1.44a4.91,4.91,0,0,1,.55,1.07C69.8,28.62,69.76,28.92,69.91,29.14Z"/><path d="M59.68,12c.55.22.31,1-.24.67a6.38,6.38,0,0,0-2.2.61c-.28.13-.33.52-.67.53a.43.43,0,0,1-.39-.18C55.58,12.53,59,11.7,59.68,12Z"/><path d="M66.81,12.77a.25.25,0,0,1,.12.32.23.23,0,0,1-.31.11c-.57-.27-1.24.11-1.77.33a5,5,0,0,1-2.39.56c-.54,0-1.07,0-1.61,0a.29.29,0,0,1-.29-.43c.09-.14.25-.13.36-.14a12.34,12.34,0,0,0,2.78-.17C64.7,13.1,65.76,12.25,66.81,12.77Z"/><path d="M73.94,22.23c.48.32,1.43.44,1.21,1.24a.71.71,0,0,1-.78.49,2.56,2.56,0,0,1-1.88-1.54,1.93,1.93,0,0,0-.7-1.08c-.84-.48-2.24-1.38-1.35-2.45.27-.39.71-.75.66-1.28a1.4,1.4,0,0,0-.75-1,.46.46,0,0,1-.39-.45c.26-1.19,1.89.39,2,1a2,2,0,0,1-.14,1.5,8.26,8.26,0,0,0-.48.87c.4.5,1.06.72,1.49,1.18S73.45,21.83,73.94,22.23Z"/><path d="M76.18,30.83c.62.81,1.24,1.44.49,2.44-.23.42-.53.81-.74,1.24a.18.18,0,0,1-.22.11c-.39-.11.31-1.27.37-1.57s.52-.59.44-1c-.2-.65-.84-1.09-.88-1.8-.47-.72-1.55-.58-2.13-1.2a1.39,1.39,0,0,1,0-2c.38-.45.93-.73,1.23-1.25.11-.23.16-.64.51-.54.69.28-.57,1.62-.82,2C73.1,28.94,75.55,28.72,76,30,76.06,30.25,76,30.57,76.18,30.83Z"/><path d="M78.83,38c.08.75.37,1.64-.16,2.28s-1.86.88-2.15,0a1.7,1.7,0,0,0-1.08-.37c-.29.08-.48.36-.71.55a9.64,9.64,0,0,1-2,1.4c-.71.26-1.51.21-2.22.48a4.44,4.44,0,0,0-1,.75c-.64.39-2.06,1.56-2.57.51-.31-1,1-.94,1.54-1.38a2.54,2.54,0,0,1,1.8-1A4.81,4.81,0,0,0,73,40.52a8.53,8.53,0,0,0,.85-.44.91.91,0,0,1,.21-.37,2.09,2.09,0,0,1,2.8-.38.61.61,0,0,1,.29-.14l.19,0c0-.12,0-.25,0-.38s.06-.35.09-.53a1.62,1.62,0,0,1-.87-2.47c0-.28.22-.58.56-.52a.45.45,0,0,1,.36.57c0,.26-.25.57-.06.8h0C77.89,37.05,78.7,37.2,78.83,38Z"/><path d="M53.83,37.69c.19.24-.2.53-.38.28s-.44-.79-.71-1.15a.36.36,0,0,1-.09-.26.19.19,0,0,1,.38,0C53.33,36.91,53.55,37.32,53.83,37.69Z"/><path d="M70.64,31c.81.05.52,1.26.45,1.78-1,4.31-2.57,11.48-8.16,11.36a12.36,12.36,0,0,1-1.85-.37l-.6-.16c-.5-.15-1-.32-1.5-.5a7.1,7.1,0,0,1-4-2.62.3.3,0,0,1,0-.23.08.08,0,0,1,.16,0c.69.35,1.34.72,2,1.1a34,34,0,0,0,3.87,1.45c1.25.21,2.59.73,3.81.24a7.46,7.46,0,0,0,3.68-4.21,19.91,19.91,0,0,0,1.52-6.29c.1-.48-.17-1.32.38-1.54l.13,0Z"/><path d="M61.52,47.8a.78.78,0,0,1,0,.65.57.57,0,0,1-.42.32.5.5,0,0,1-.32,0,1.11,1.11,0,0,1-.36-.32,2.91,2.91,0,0,1-.38-.82,3.89,3.89,0,0,1,0-2.67c.11-.38.06-1.14.42-1.36a.42.42,0,0,1,.28-.07.39.39,0,0,1,.32.23,2.83,2.83,0,0,1,0,.92,6.59,6.59,0,0,0,0,1.66A8.64,8.64,0,0,0,61.52,47.8Z"/><path d="M50.3,43.44c.31.21.08.85,0,1.18a4.67,4.67,0,0,1-1.58,2.69c-.35.38-.71,1.24-1.32,1.13a.56.56,0,0,1-.15-.1.41.41,0,0,1-.14-.22c-.06-.41.62-.9.89-1.18a6.12,6.12,0,0,0,1.37-1.59,4.43,4.43,0,0,0,.32-1.43l0-.26a.35.35,0,0,1,.3-.29A.52.52,0,0,1,50.3,43.44Z"/><path d="M61.14,48.77c.12.53-.66,1.15-1,1.52A9.09,9.09,0,0,1,55.76,52a8.52,8.52,0,0,1-6.28-1.53c-.28-.16-1.5-1.23-1-1.45a.54.54,0,0,1,.3.17,7,7,0,0,0,2.67,1.21,13.4,13.4,0,0,0,7.09-.71A2.94,2.94,0,0,0,59.75,49a4,4,0,0,1,.71-.59.45.45,0,0,1,.51.08A.64.64,0,0,1,61.14,48.77Z"/><path d="M47.15,48.12c.15,0,.23.07.17.2l0,0a6.66,6.66,0,0,1-1.47.48c-1.25.3-2.45.45-3.66.85s-2.45.47-3.65.8c-2.35.71-5.38.77-6.66,3.18-.44.92-.89,1.84-1.39,2.73-.19.42-.47,1.18-1,1.12h0a.55.55,0,0,1-.26-.12l0,0-.05-.07c-.44-.61.29-1.36.6-1.9.84-1.18,1.3-2.6,2.37-3.6a7.51,7.51,0,0,1,2.62-1.35,21.78,21.78,0,0,1,4.2-1c1.63-.14,3.13-.61,4.73-.88.75-.11,1.56-.08,2.29-.23A7,7,0,0,1,47.15,48.12Z"/><path d="M30.13,55.74a.13.13,0,0,1,.08.21v0c-.25.5-.5,1-.74,1.51s-.34.73-.49,1.1a8.41,8.41,0,0,0-.23,1.11,5.47,5.47,0,0,1-.21.91A11.28,11.28,0,0,0,28,62.86c-.11.62-.31,1.64-1.17,1.41-.6-.19-.62-.84-.36-1.32a9.59,9.59,0,0,1,1.1-2.62c.07-.11.14-.22.2-.33s.07-.18.11-.26a20.55,20.55,0,0,1,1.29-2.46c.27-.46.54-.91.8-1.38C30,55.83,30,55.73,30.13,55.74Z"/><path d="M30.2,56a.12.12,0,0,1-.06.14c-.2.46-.43.92-.65,1.38l-.06.13-.13.27c.33.35-.23,1-.34,1.33-.07.16-.15.32-.22.47-.22.49-.44,1-.64,1.46-.19.69-.35,1.38-.54,2.07-.07.33-.35.66-.71.54-.75-.19-.14-1.82.67-3.44.1-.2.2-.4.31-.59.52-1,1.05-1.89,1.34-2.39a2.77,2.77,0,0,0,.17-.3c.24-.33.4-.93.7-1.15A.12.12,0,0,1,30.2,56Z"/><path d="M38.35,68.13a.71.71,0,0,1-.15.57l-.07.08a2.65,2.65,0,0,1-1.68.55,10.58,10.58,0,0,1-4.45-.9,13.87,13.87,0,0,1-2.66-2.23,1.59,1.59,0,0,0-.4-.58l-.2-.17c-.45-.33-1-.54-1.49-.86-.11-.08,0-.22.13-.13.57.2,1.13.42,1.72.58l.13,0,.32.07a30.86,30.86,0,0,1,2.85,1.49,10.14,10.14,0,0,0,2.34.75,5.28,5.28,0,0,0,2.76.07A.77.77,0,0,1,38.35,68.13Z"/><path d="M40.46,63.06c0-.83,1.1-1,1.13-.1a24.87,24.87,0,0,1-.51,3.46c-.39.87-.75,1.72-1.09,2.6a9.65,9.65,0,0,1-.69,1.1.66.66,0,0,1-1,.14.48.48,0,0,1-.12-.16.81.81,0,0,1-.06-.57,2.15,2.15,0,0,0,.07-.83h0c0-.16-.1-.45.07-.51a.16.16,0,0,1,.08-.06h.07a.13.13,0,0,1,.08.13,2,2,0,0,1,.27.23l0,0a15.16,15.16,0,0,0,1-3A8.94,8.94,0,0,0,40.46,63.06Z"/><path d="M39.65,70.07a5.53,5.53,0,0,1,.5,2.65c0,2.1-.64,4.16-.52,6.27a5,5,0,0,0,.07.54c.1.56.25,1.11.39,1.66a8.94,8.94,0,0,1,.28,1.53,18.59,18.59,0,0,1,0,4.83c0,.42-.11.85-.18,1.27a.81.81,0,0,1-.8.69.72.72,0,0,1-.44-.12c-.83-.73-.38-2-.38-3,0-.74,0-1.5,0-2.24,0-1.94-.91-3.75-.77-5.67A15.77,15.77,0,0,1,39,73.56a9.22,9.22,0,0,0,.69-3,.5.5,0,0,0-.11-.36c-.08,0-.17-.07-.1-.13A.16.16,0,0,1,39.65,70.07Z"/><path d="M39.49,94.92a.9.9,0,0,1-1-1c0-.24.19-.67.23-.87.25-1.17.45-2.33.67-3.5,0-.25.09-.5.14-.76a22.29,22.29,0,0,0,.19-4.47c0-1,.08-2.11,0-3.15,0-.49-.1-1-.17-1.44a.14.14,0,0,1,.09-.16.15.15,0,0,1,.23.12,11.32,11.32,0,0,1,.16,1.54c0,1,0,2,0,3,.13,1.14.21,2.27.25,3.41.07,1.78,0,3.56,0,5.35l.19-.06v0c0,.16-.06.32-.08.48h0a.8.8,0,0,0,0,.26v0a.27.27,0,0,0,.06.12.57.57,0,0,0,.42.15h.43a5.87,5.87,0,0,0,.94-.09c.27,0,.53-.09.8-.12l.58,0h.08a15.28,15.28,0,0,0-2.46.47c-.63.15-1.16.56-1.77.74Z"/><path d="M45.47,93.59l.4-.07.28,0h.18a.64.64,0,0,1-.3.11Z"/><path d="M41.58,92.64l0,0,.29-.06v0h0l-.15.05a.26.26,0,0,0-.09,0Z"/><path d="M38.19,69.74c.15.1.17.29.12.52-.08.4-.35.9-.41,1.14-.56,1.19-.89,2.47-1.48,3.64a22.69,22.69,0,0,0-1,2.37c-.51,1.16-1,2.35-1.52,3.49-.21.31-.4.84-.66,1.21h0l-.05.06a.71.71,0,0,1-.66.34.88.88,0,0,1-.29-.09.68.68,0,0,1-.32-.6.56.56,0,0,1,.1-.33l.25-.36.57-.83a15.11,15.11,0,0,0,1-1.64c-.61-.56.31-1.27.53-1.82a31.79,31.79,0,0,1,2.3-4.31c.32-.8.75-1.56,1-2.38,0-.16.1-.36.27-.43s.15-.22.23-.19S38.21,69.61,38.19,69.74Z"/><path d="M25.37,80.28c-.77-.2-.23-1.16-.21-1.7.19-1,.34-2.11.53-3.17.31-1.53.53-3.08.87-4.6a28.75,28.75,0,0,1,1.27-3.62c.17-.39.14-1,.62-1.19a2.79,2.79,0,0,1,.59-.92.12.12,0,0,1,.18,0,.13.13,0,0,1,0,.18,2.42,2.42,0,0,0-.53.81c.44.35-.05,1.1-.15,1.54a22.23,22.23,0,0,0-1.21,4.21v0A6.12,6.12,0,0,0,27,73.07c-.06.33-.07.68-.12,1s-.07.39-.1.58,0,.34-.08.51-.05.2-.07.31l-.09.42c0,.16-.07.32-.11.47s-.07.34-.11.51,0,.15,0,.22a.88.88,0,0,0,0,.16c0,.19,0,.39,0,.58s0,.2,0,.3l-.06.2c0,.12-.07.25-.11.37l-.07.22a.53.53,0,0,0,0,.22.68.68,0,0,0,.13.27c0,.15-.05.3-.07.45a.49.49,0,0,1-.45.41A.21.21,0,0,1,25.37,80.28Z"/><path d="M14.3,89.91a.55.55,0,0,0-.14-.32.48.48,0,0,1,0-.17,2.08,2.08,0,0,1,.48-.87c.17-.27.33-.49.48-.7A25.58,25.58,0,0,1,22,81.41c1-.59,1.91-1.18,2.92-1.69l.33-.16a.41.41,0,0,1,.56.16.42.42,0,0,1,0,.27h0a.39.39,0,0,1-.2.28c-.54.28-1.07.57-1.6.87a3.85,3.85,0,0,1,.66-.28l-.14.09c-.17.11-.32.24-.49.36h0l-.08.06a.66.66,0,0,0-.14.2l0,0c-.62.42-1.21.92-1.82,1.35a24.08,24.08,0,0,0-4.89,4.39,12.83,12.83,0,0,0-1.61,2.06,1.24,1.24,0,0,1-.82.75A.55.55,0,0,1,14.3,89.91Z"/><path d="M33.29,82.07c.39-.09-.2.55-.28.64-.92.93-2.06,1.62-3,2.57a23.7,23.7,0,0,1-4.51,3.44,15.19,15.19,0,0,1-5.14,2.19c-.59-.06-1.17.35-1.75.16a.59.59,0,0,1,0-1,32.77,32.77,0,0,1,5-2.19c.77-.41,1.48-1,2.22-1.41a49.14,49.14,0,0,0,5.29-3.71,2.63,2.63,0,0,0,.8-.9c.13-.22.24-.46.35-.69a6.19,6.19,0,0,1,.36-.67.33.33,0,0,1,.21-.16.37.37,0,0,1,.43.5,12.42,12.42,0,0,1-.74,1.71,2.64,2.64,0,0,1-.64.7,9.78,9.78,0,0,0,1.31-1,.09.09,0,0,1,0,0s0,0,.05-.06h0s0,0,0,0Z"/><path d="M12,89.67a.61.61,0,0,0,.05.12h0a2.64,2.64,0,0,0,.23.35h-.06a1.67,1.67,0,0,0-.32.08,2.46,2.46,0,0,0-.38.14A2.18,2.18,0,0,1,12,89.67Z"/><path d="M14,89.5a1.58,1.58,0,0,0-.31-.09l-.13,0-.26-.09-.39-.2v0l-.06,0a1.38,1.38,0,0,1,.22-.1.45.45,0,0,1,.42.11,4.24,4.24,0,0,0,.65.38l.16.07c.12-.16.32-.11.26.11a.09.09,0,0,1-.16,0,.42.42,0,0,1-.16.11A.51.51,0,0,0,14,89.5Z"/><path d="M9,92.54a3.6,3.6,0,0,1,2.29-2.76l.67-.23a.11.11,0,0,0,0,0,.62.62,0,0,0,.07.19h0l.21.32-.14.06-.22.06a4.07,4.07,0,0,0-.61.24,6.5,6.5,0,0,0-.87.7,7.15,7.15,0,0,0-.88.86,2.65,2.65,0,0,0-.38.62,1.62,1.62,0,0,0-.19.88A2,2,0,0,1,9,92.54Z"/><path d="M14.93,95.4a4,4,0,0,1-1.25-.49,2,2,0,0,0,.56-.21,4,4,0,0,0,.89.16.26.26,0,0,1,.29.23c0,.22-.17.29-.35.31Z"/><path d="M13.34,95.62c-.81,0-1.82-.06-2.34-.78a.64.64,0,0,1-.07-.16l0,0a1.6,1.6,0,0,0,1,.37h.11a4.5,4.5,0,0,0,2.43-.35,8.22,8.22,0,0,0,2.64-2.29c.34-.34,1.07-.77,1.41-.21.2.34-.07.64-.32.85s-.3.63-.64.79a8.08,8.08,0,0,1-3.67,1.76A3,3,0,0,1,13.34,95.62Z"/><path d="M18,93.14c-.28,0-.64,0-.44-.4a3.87,3.87,0,0,1,1.67-1.32c.33-.09,1-.68,1.2-.24s-.59.47-.87.64a4.19,4.19,0,0,0-1.82,1.11c.11,0,.36,0,.36.14A.08.08,0,0,1,18,93.14Z"/><path d="M47.82,133.44a.3.3,0,0,1,.25-.31.29.29,0,0,1,.31.25.27.27,0,0,1-.24.31A.29.29,0,0,1,47.82,133.44Z"/><path d="M37.26,150.68a.92.92,0,0,1-.88-1,3.86,3.86,0,0,1,.66-1.19c1.74-2.83,3.84-5.4,5.81-8.06a33.47,33.47,0,0,0,3.67-6.21c.15-.22.39-1.15.67-1.58a.56.56,0,0,0,.05-.08c.11-.14.23-.19.35-.08.11-.36.42-.7.83-.57,1,.45-.09,1.66-.32,2.32a34.49,34.49,0,0,1-2.45,4.46c-.78,1.19-1.49,2.4-2.17,3.65-1.12,1.93-2.36,3.77-3.61,5.62-.58.8-1.5,2.67-2.56,2.76Z"/><path d="M45.39,157.77c0-.11-.23-.27-.11-.38s.17.21.25.3A.08.08,0,0,1,45.39,157.77Z"/><path d="M51,149c-.85-1.09.77-1.84,1.44-2.47.45-.36.71-.68,1.1-1,1.5-1.45,2.6-3.24,4-4.79-.12-.48.3-.85.54-1.21.74-1,1.57-1.85,2.39-2.73,0-.29.28-.47.47-.64s.46-.38.69-.55.63-.73,1.08-.79c.22-.12.41-.35.66-.41,0,0,0-.07,0-.11v0c-.43-.49.16-1.21.27-1.74.18-1.55.72-3.08,1-4.62.14-.59.25-1.2.43-1.78.13-.4.31-.31.53,0,.07.08-.05.19-.12.11l-.17-.18h0a9,9,0,0,0-.47,2.29c.76,0,.22,1.38.25,1.86-.21,1.09-.17,3.56-1.15,4.18A6.12,6.12,0,0,1,62.43,137c-1.1,1.4-2.42,2.62-3.53,4-1.66,2.09-3,4.22-4.59,6.33a12.28,12.28,0,0,1-1.51,1.37C52.32,149.13,51.54,149.63,51,149Z"/><path d="M52.16,153.27a18.57,18.57,0,0,1-4.86-.8c-.78-.21-3,.11-2.67-1.21-.17-.21.1-.39.31-.32a.49.49,0,0,1,.29-.05.61.61,0,0,1,.3.15,40.28,40.28,0,0,0,4.51.45,13.32,13.32,0,0,1,2.71.27A.79.79,0,0,1,53.2,153,1.12,1.12,0,0,1,52.16,153.27Z"/><path d="M45.9,162.9a3.38,3.38,0,0,1-1.7-.37,4.48,4.48,0,0,1-3.05-3.31c-.33-1.52.06-5.13,2.18-5a16.19,16.19,0,0,0,1.48-2.59.23.23,0,0,1,.4.17,3.34,3.34,0,0,1-.18.5c.1,0,.15.1.16.18s-.17.13-.17,0l-.06,0c-.28.74-.57,1.47-.86,2.2.79,1.19-.82,3.54-1.55,4.53.55,1.49,2.29,1.69,3.58,2.18A.78.78,0,0,1,45.9,162.9Z"/><path d="M46.56,165.78A23.93,23.93,0,0,1,44.85,163c-.29-.65-2.1-2.71-1.09-3.15a.36.36,0,0,1,.39.6c1,1.56,2.32,2.88,3.35,4.41A.65.65,0,0,1,46.56,165.78Z"/><path d="M47.27,169.3a14.1,14.1,0,0,1-.9-5.22.49.49,0,0,1,.22-.39,4.19,4.19,0,0,1,1,0,.12.12,0,0,1,0,.24,2.61,2.61,0,0,0-.74,0,15.75,15.75,0,0,0,1.68,4.61A.72.72,0,1,1,47.27,169.3Z"/><path d="M52.52,170.37a5.36,5.36,0,0,1-4.16-2.55c-.52-.79-1.37-1.61-1.43-2.58s1.64-.56,1.11.24c1.14,1.34,2.38,3,4.27,3.12,3-2,7.69-4,4.21-8.06-1.18-1-2.72-1.68-3.54-3.06-.32-.61-.79-1.64.07-2a.79.79,0,0,1,1,.36c.76,1.62,2.53,2.27,3.72,3.43a5.37,5.37,0,0,1,1.35,5.2c1.48,1.12-1.63,3.58-2.44,4.41A7.3,7.3,0,0,1,52.52,170.37Z"/><path d="M55.57,157.87a5,5,0,0,1-4.4-3.41c-.11-.61.63-1.2,1.07-.63h0c0,.06.09.13.08.13a1.74,1.74,0,0,1,.11.18c.13-.47,0-1,.16-1.45a.5.5,0,0,1,1,.15,17.84,17.84,0,0,0,0,2.07.5.5,0,0,1-.44.48,4.71,4.71,0,0,0,3.4,2c.11-.37.54-.22.37.09S56,157.86,55.57,157.87Z"/><path d="M33.75,167.07c-2.22,0-3.5-2.29-3.58-4.3,0-.65-.18-1.44.22-2a3.44,3.44,0,0,0-.15-.55,1.83,1.83,0,0,1-.66-1.14.93.93,0,0,1-.78.09.83.83,0,0,1-.55.12,5.1,5.1,0,0,1-2.48-1.9c-.12-.13-.38-.36-.65-.62a.31.31,0,0,1-.46.1,1.33,1.33,0,0,1-.15-.83c-.18-.31-.2-.59.11-.77l0-.06a4.16,4.16,0,0,1,.83-3.57,21.75,21.75,0,0,1,1.93-2,.43.43,0,0,1,.73.38.68.68,0,0,1,.33.09c.13.2-.3.52-.31.19l-.25.11a10.14,10.14,0,0,0-2.07,3,3.59,3.59,0,0,0,.33,2.31,6.13,6.13,0,0,0,2.51,1.76c.43.22,1,.29,1.22.79a.65.65,0,0,1-.07.65,2.49,2.49,0,0,1,.74.81.38.38,0,0,1,.61-.05,2.49,2.49,0,0,1,.25.77c.18,1.36.58,2.67.67,4,.92,1.35,2.29.88,3.55.29h0a.46.46,0,0,1,.18-.16c1-.71,2-1.27,3-2,.18-.19.45-.34.51-.6.28-1.91-.71-3.88-1.54-5.56l-.06-.12c-.81-1.15-1.45-3.79-.21-3.3,0-.14,0-.28,0-.42a3.89,3.89,0,0,1-1.51.36,11.55,11.55,0,0,0-2.12,0A4,4,0,0,1,30.7,152c-.39-.39-1.65-1.35-1.11-1.92a.69.69,0,0,1,.17-.11.44.44,0,0,0,0-.1c0-.11-.08-.1-.14-.08a4.76,4.76,0,0,0-1.53,1.59,12.48,12.48,0,0,0-.95,1.62.29.29,0,0,1-.37.14c-.48-.31.32-1,.51-1.35s2.16-2.82,2.65-2a1,1,0,0,1,0,.16.67.67,0,0,1,.39.2,1.24,1.24,0,0,1-.08-.58l0-.08a.27.27,0,0,1,.06-.16,1.59,1.59,0,0,1,.14-.42c1-2.77,1.76-5.65,2.81-8.37.9-2.48,1.9-4.9,2.88-7.35.22-.62.42-1.24.68-1.84a.25.25,0,0,1,.19-.17l-.07,0c-.57-.31-.44-1.1-.49-1.66a39.59,39.59,0,0,1,0-4.49c.08-.45-.07-1.93-.05-3a3,3,0,0,1-1.21-.5c-.22.78-.42,1.56-.57,2.35h0A.85.85,0,0,1,33,123.6a24.15,24.15,0,0,1,.82-3.25.27.27,0,0,1,.1-.29c.3-.91.63-1.8,1-2.7.47-2.36.83-4.66,1.21-7a34.88,34.88,0,0,1,1.36-6.4c.17-.51.35-1,.53-1.52.35-1.76.76-3.51,1.18-5.25a8.38,8.38,0,0,1,.69-2.23c.17-.07.26.2.35.3a.08.08,0,1,1-.13.09L40,95.12c-.22.95-.41,1.91-.58,2.87a7,7,0,0,1,.36-.9l0-.18a.47.47,0,0,1,0-.38l.09-.1c.07-.26.14-.52.22-.77a.44.44,0,0,1,.58-.22.5.5,0,0,1,.28.36,3.22,3.22,0,0,1,.94-.3,11.68,11.68,0,0,1,2.59-.7c1.36,0,2.71.28,4.07.2a20.44,20.44,0,0,0,3-.51A.71.71,0,0,1,52,95.85a19,19,0,0,1-2.57.78l1.41.16c.24,0,.49.08.73.13A.58.58,0,0,1,52,96c1.56-.17,3.13-.37,4.68-.66.2-.09.45-.22.65-.13l.35-.07a1,1,0,0,1,.14-.49c.44-.61,1.37-.52,2-.83l.64-.2c.28-.05.57-.12.86-.16l1.1-.16,1-.17c.59-.1,1.19-.19,1.78-.25a3,3,0,0,1,.43.12c.21.07.42.16.63.25a8.24,8.24,0,0,0,1,.4,1.52,1.52,0,0,0,.56.08,4.36,4.36,0,0,0,.51,0,1.64,1.64,0,0,0,.32,0l.11,0a.39.39,0,0,0,.19.19.4.4,0,0,0,.24,0l.09,0a19,19,0,0,1,.2,5.24c0,.27,0,.51.06.7a.43.43,0,0,1,.63.37,24.52,24.52,0,0,1-.54,3.29c-.24,1-.24,2.09-.46,3.12a28.83,28.83,0,0,0-.82,7.8c.24,2.79,0,5.66.91,8.33,1.16,2.32-1.38,2.45-3,2.82-2.37.4-4.66,1.21-7,1.58a24.64,24.64,0,0,1-3.69.94.63.63,0,0,0-.4-.57,1.5,1.5,0,0,0-.69-.14l-.56,0c-.32,0-.63,0-1,.06a.57.57,0,0,0-.22-.11l-.11,0-.2,0-.07,0h0l-.19-.1-.11-.08-.28-.28-.15-.2,0,0c0-.11,0-.23,0-.35s0-.31,0-.46v-.33l0-.07c.08-.2.15-.41.21-.61a3.77,3.77,0,0,0,.14-.58.83.83,0,0,0-.13-.65.52.52,0,0,0-.6-.14.88.88,0,0,0-.43.53c-.06.13-.11.27-.16.4-.1.28-.2.55-.32.82a2.15,2.15,0,0,1-.14.26.76.76,0,0,1-.08.11l-.05.05-.18.14-.24.14c-.14.08-.29.14-.44.21h0l-.24.08a.35.35,0,0,0-.2.12.14.14,0,0,0,0,.2.48.48,0,0,0,.35.07,3,3,0,0,0,.31,0c-.33,1-.68,1.94-1,2.9-.19.51-.36.95-.53,1.42a2.14,2.14,0,0,1-.35.73v0l.06-.59c.09-.68.19-1.37.29-2.06,0-.24.07-.47.1-.7l.24-.57c-.08.14-.15.29-.22.43l0-.25c0-.19,0-.38.06-.57l0-.25a2.16,2.16,0,0,0,0-.44.29.29,0,0,0,0-.1c.1-.24.19-.5.28-.75a7.49,7.49,0,0,1-1.87-.9,14.53,14.53,0,0,1-1.57-1.27c-2-.4-4.1-.7-6.15-1.06l-.76-.16c0,1.07,0,2.14,0,3.21s.06,2,.16,3c0,.57.4,1.62-.43,1.75a.71.71,0,0,1-.2.85,1.43,1.43,0,0,0-.05.2c-.31,1.08-.56,2.17-.88,3.25s-.59,2-.89,3a16.78,16.78,0,0,1-.54,1.7.62.62,0,0,1-.55.46c-1,3.18-1.75,6.45-2.57,9.69a1.84,1.84,0,0,1-.27.69,15.14,15.14,0,0,0,3.12,1.49,9,9,0,0,0,2.14-.78c.83-.43,1.27,0,1.26.54a.28.28,0,0,1,0,.09,16.74,16.74,0,0,0,.14,3.76.78.78,0,0,1,.43.12c1.44.82,2.72,5.58,2,7.09a2,2,0,0,1-1.55,1.13,15.18,15.18,0,0,0-1.45.59l-.15.06a.91.91,0,0,1,.26.29c.43.81-.43,1.28-1,1.58a8.46,8.46,0,0,1-3,1Zm-3.63-7.15a2.77,2.77,0,0,0-.18-.43c-.05-.11-.11-.21-.14-.2A2.49,2.49,0,0,0,30.12,159.92Zm.65-9.31A3.69,3.69,0,0,0,33,151.85c-.64-.44-1.21-.81-1.78-1.28a.83.83,0,0,1-.38,0l-.13,0Zm6.45-19.39a.16.16,0,0,1,.07.07l0-.09Zm-.47-8.39c.07-.21.1-.5.16-.76l-.19,0ZM54.59,109c-.08.07-.15.15-.23.23l.33.05c0-.13.09-.26.14-.4Zm.28-.31.05,0a.14.14,0,0,0,0-.07Zm.94-1.83a6.7,6.7,0,0,0,.87-1.83,9.85,9.85,0,0,0,.31-2.42C56.61,104,56.25,105.47,55.81,106.87Z"/><path d="M71,94a3.28,3.28,0,0,1-1.27-.3l-.19,0v0a.45.45,0,0,0,0-.23h0a.9.9,0,0,0,0-.16,1,1,0,0,0-.13-.39.08.08,0,0,0,0,0l0-.11c0-.1-.07-.2-.1-.3.56,0,1.13,0,1.7,0-.12-.17-.23-.35-.34-.52a7.43,7.43,0,0,1-1.2-3.75,8.83,8.83,0,0,1-.22-4A18.63,18.63,0,0,1,71,77.89c.46-1.2.52-2.55,1.21-3.65a.78.78,0,0,1,1-.31c.06-1.07.19-2.14.26-3.21a.74.74,0,0,1-.64-.08c-.53-.29-.45-1-.46-1.48a11.83,11.83,0,0,0-.26-3c-.29-.83-1.43-2.4-.9-3.24.18-.12.33.16.18.25-.06,1.07.83,1.88,1.38,2.71a11.49,11.49,0,0,1,1.1,3.29,22.87,22.87,0,0,1,3.9-2.5c1.88-.78,4-1.18,5.58-2.47a4.73,4.73,0,0,0,.85-.7,7.67,7.67,0,0,1,.52-.79c-.65-.94-1.32-1.87-1.88-2.87-.38-.85-.61-1.76-.93-2.63a7.18,7.18,0,0,0-.47-1.66,15.78,15.78,0,0,1-1.57-2.15,2.46,2.46,0,0,1-.5-.87.63.63,0,0,1-.64,0A10.85,10.85,0,0,1,77,51.15c-1.48-1.58-3.71-1.49-5.69-1.68a75.3,75.3,0,0,0-9.61-.65.09.09,0,0,1-.14.1l0-.06c-.24-.26.46-.37.6-.39a31.57,31.57,0,0,1,8.41-.2,18.23,18.23,0,0,1,4.72.59,24.51,24.51,0,0,1,4.14,2.55.65.65,0,0,1,.25.43c.83-.58,1.69.71,2.16,1.31a10.41,10.41,0,0,1,1.1,1.29,4.57,4.57,0,0,1,.67,2.2c.13.65.35,1.27.44,1.93S85.1,61,85.44,62.21a.62.62,0,0,1,.58.53,2.77,2.77,0,0,1-1.35,2.76c-.1,3.43.12,6.88-.24,10.3A20.48,20.48,0,0,1,83.56,80a.84.84,0,0,1,0,.17,18.41,18.41,0,0,1,3.83.37,34.36,34.36,0,0,1,6.37,1.17c1.33.4,5.62,1.71,5.69,3.24a.91.91,0,0,1-1.16.84c-.72-.31-1.25-1-2-1.25a35.62,35.62,0,0,0-4.92-2c-1-.37-2-.56-2.93-.9a19.37,19.37,0,0,0-4.52-1.21,3.53,3.53,0,0,0-.46,0,2.87,2.87,0,0,1-.18.4,1,1,0,0,1-1.48.16.94.94,0,0,1-.22-.9c.2-.74.47-1.45.63-2.19.31-1.44.54-2.89.81-4.33.1-.49.21-1,.34-1.45a.55.55,0,0,1,.33-.37c.26-1.73.41-3.47.52-5.21,0-.23,0-.47,0-.71a13.94,13.94,0,0,1-5,1.82A15.2,15.2,0,0,0,74,69.84a.82.82,0,0,1-.37.78c0,.1,0,.2,0,.3,1.2-.44,1,2.49,1.12,3.19.17,1.07.74,2,1,3.08a25,25,0,0,0,1.77,5,7.67,7.67,0,0,0,1.44,2,.8.8,0,0,1-.08.92c.38.16.73.33.89.38A64,64,0,0,0,89,87.58c2.62.42,5.27.78,7.87,1.29a.85.85,0,0,1,.62.69,2.05,2.05,0,0,1,1.15-.16,6.8,6.8,0,0,0,2.56-.44.52.52,0,0,1-.09-.64c.28-.44.77-.16,1.09.07a8.49,8.49,0,0,0,.75-.82c.17-.43,1-.83,1.19-1.11,1.15-.9,2.06-2,3.19-3a5.26,5.26,0,0,0-2.68-.1c.06.06.07.17,0,.2-1.09.44-2.25.74-3.35,1.15a1.21,1.21,0,0,0-.33.51.22.22,0,0,0,0,.16.11.11,0,0,1,0,.07.1.1,0,0,1-.16.09.72.72,0,0,1,0-.64,7,7,0,0,0-.74.34.09.09,0,0,1-.07.15c-.52-.09.07-.41,1-.77.77-1,3.2-1.75,3.93-2a9.26,9.26,0,0,1,2-.21c.44,0,1-.06,1.26.31s.43.67.19,1-.47.17-.67.34c-1.18,1-2.11,2.24-3.28,3.25a2.32,2.32,0,0,0-.25.22c0,.55-.76,1.15-1.1,1.48,1.44,1.51-.56,2.2-1.88,2.17A3.26,3.26,0,0,1,99.94,91a4.35,4.35,0,0,1-.65-.32c-.6,0-1.63.21-2-.35a.84.84,0,0,1-.73.35c-3.9-.58-7.82-1.28-11.64-2.24a28,28,0,0,1-5-2,12.65,12.65,0,0,1-1.48-1,.74.74,0,0,1-.7-.09l-.16-.13c0,.09-.16.07-.16,0s0-.08,0-.12c-1.13-1.13-1.47-2.84-2-4.31-.91.15-1-1.24-1.28-1.83s-.64-1.42-.84-2.17c-.44,1.93-1.48,3.69-1.94,5.61A15.05,15.05,0,0,0,71,87.72a10.63,10.63,0,0,0,.3,3c.22.44.33,1.1.61,1.56l.24,0a.76.76,0,0,1,.67,1,1.71,1.71,0,0,1-1.37.67A2.48,2.48,0,0,1,71,94Zm30.91-4.09c-.12.1-.23.21-.35.3l.39-.15.38-.14a2.09,2.09,0,0,0-.2-.22Zm-.11-5.53c1-.37,2.19-.74,2.58-.89A8.08,8.08,0,0,0,101.78,84.34Z"/><path d="M67.55,92.34a.32.32,0,0,0,0-.14,1.09,1.09,0,0,0,0,.17Z"/><path d="M67.52,91.93l.08,0v0a.19.19,0,0,0,0,.1A.58.58,0,0,0,67.52,91.93Z"/><path d="M46.18,150.56c-.45-.43-.06-1.21.19-1.66a18.12,18.12,0,0,0,.77-1.68c-.78-.63.63-2.46.91-3.2.45-.88.89-1.77,1.32-2.66.61-1.3,1.21-2.61,1.82-3.92q-.09.28-.15.57a4.91,4.91,0,0,0-.1.77v.08l-.33.86-.09.24-.09.24c-.07.17-.12.34-.18.51a4.84,4.84,0,0,0-.14.51,2.17,2.17,0,0,0-.07.24,1.6,1.6,0,0,0,0,.21c-.1.35-.19.71-.27,1.06,0,.16-.08.32-.11.48a2.33,2.33,0,0,0,0,.28s0,.09,0,.14a1,1,0,0,0,0,.17l0,.09c-.69,1.83-1.21,3.72-1.79,5.58a1.51,1.51,0,0,1-1,1.17.47.47,0,0,1-.16,0A.59.59,0,0,1,46.18,150.56Z"/><path d="M51.71,134a.11.11,0,0,1,0-.13l0-.07h0c.32-.45.37.36.34,1.32-.12.29-.24.58-.35.87l-.23.63a.76.76,0,0,1,0,.11A23,23,0,0,0,51.71,134Z"/><path d="M52.42,131.37c-1-.29-.2-1.54-.21-2.22,0-.17,0-.35,0-.53a4.5,4.5,0,0,0,.63,0l.55,0a2.34,2.34,0,0,1,0,.26c0,.29-.08.58-.11.87s-.07.67-.1,1l0,.31-.33,1.64a.41.41,0,0,0,0,.22,1.16,1.16,0,0,1,0,.18l-.09.53s0,.07,0,.1a.89.89,0,0,1-.08.17C52.46,133.08,52.54,132.21,52.42,131.37Z"/><path d="M53.06,111.54c-.48-.34.2-1.19.34-1.62.31-.64.61-1.28.9-1.93-1-.62,1.67-4.72,2.32-5.34l.05-.12.11-.22a10.58,10.58,0,0,0-1.92,1.92l0,0c-.33.42-.54.75-.83,1.17a.6.6,0,0,1-1-.59,3.37,3.37,0,0,1,.41-.58,15.42,15.42,0,0,1,2-2.08,4.19,4.19,0,0,1,2-1.08c1,.19.25,1.37,0,2a.28.28,0,0,1,.31.2,1,1,0,0,1,0,.24c.13.2,0,.43-.1.61-.57,1.13-1,2.31-1.68,3.39a9.15,9.15,0,0,0-.7,1.4c-.11.22-.15.69-.49.61a7.81,7.81,0,0,0-.6,1.09,3,3,0,0,0-.44.63C53.67,111.44,53.37,111.74,53.06,111.54Z"/><path d="M32.41,124.69a.65.65,0,0,1-.36-.22.72.72,0,0,1-.12-.21.42.42,0,0,1-.46-.27c-.09-.26.13-.48.22-.72-.65-1.33-.23-2.81.2-4.15.5-1.61,1.17-3.17,1.55-4.81,1.25-4.06,2.73-8.07,3.6-12.23.22-.91.42-1.67.63-2.53,0-1,.18-2,.32-3a.63.63,0,0,1,.13-1,11.12,11.12,0,0,1,.26-1.4,1.11,1.11,0,0,1,.34-.7.49.49,0,0,1,.69.16.43.43,0,0,1,.69.37c.49-.25.68.38.65.76a3.5,3.5,0,0,0,.27.83c1.82.08,3.66-.2,5.49-.17a21.21,21.21,0,0,0,5.57-.2,29.32,29.32,0,0,1,6.05-.57c.55,0,.82.75.25,1s-.84.21-1.27.31c.1.66-.75.53-1.17.58-.94.12-1.87.28-2.79.47-1.18.28-2.3.76-3.47,1a.55.55,0,0,1-.49-.92.82.82,0,0,1-.55-.12c-.56.08-1.12.17-1.69.22a.48.48,0,0,1-.44-.72c-.92.15-1.84.31-2.77.42-.52,1.12-2.3.56-3-.12h-.05a17.58,17.58,0,0,1-.41,2.6c-.05.22-.06.48-.26.61a.51.51,0,0,1-.79-.37h0a.5.5,0,0,1-.44-.06,19.23,19.23,0,0,0-.35,2.92,4.8,4.8,0,0,1-.14,1.92c-.84,3.56-2,6.89-3,10.38.2-.31.38-1,.87-.82s0,.83-.12,1.18c.52.23.15,1,.16,1.39a14.49,14.49,0,0,1-1.33,4.79c.32-.12.65-.22,1-.31s.54-.17.77,0a.54.54,0,0,1-.2.88l0,0a1.7,1.7,0,0,1,1.19.23.68.68,0,0,1-.13,1.1,3.35,3.35,0,0,1-1,.15c-.73.25-1.44.56-2.18.76-.28.11-.59.08-.87.18A2.5,2.5,0,0,1,32.41,124.69Zm1.56-3.6a11.18,11.18,0,0,0,1.23-3.46A16,16,0,0,0,34,121.09Z"/><path d="M37.49,122.11a.11.11,0,0,1,.1-.12.12.12,0,0,1,.12.1.11.11,0,0,1-.1.12A.11.11,0,0,1,37.49,122.11Z"/><path d="M50.89,95.79c-1.6,0-5.55.91-5.67-1.5a2.5,2.5,0,0,1,.14-.68l.51-.09.28,0,1-.06a1,1,0,0,1,0,.53,28,28,0,0,0,6.65-.36h0a.46.46,0,0,0,.25.28,1.74,1.74,0,0,0,.39,0h.77l1.14,0c.33,0,.67,0,1,0l1,0,1.1-.08.68-.06-.3.1a24.28,24.28,0,0,1-5,1.39c-1.2.14-2.37.51-3.58.6Z"/><path d="M39.75,96.34c-.5-.49-.21-1.3.17-1.77a2.31,2.31,0,0,1,.75-.65l.22,0h.43a5.87,5.87,0,0,0,.94-.09l.74-.11c1.07.07,2.14.25,3.2.39,1.09-.07,2.17-.21,3.25-.35s2.32-.3,3.49-.37l.8,0a.49.49,0,0,0,0,.17.46.46,0,0,0,.25.28,1.67,1.67,0,0,0,.39,0h.25c.17,0,.35,0,.52,0q.57,0,1.14,0c.33,0,.67,0,1,0l1,0,1.1-.08c.31,0,.62,0,.93-.1s.33-.06.49-.09c.56.77-.66.86-1.43.92a3.78,3.78,0,0,0-.46,0c-.76.13-1.5.33-2.25.49-.44.13-1.27.27-1.27-.4a37.36,37.36,0,0,0-7.08.63,9.68,9.68,0,0,1-3.21.22,3,3,0,0,1-2.79.08,3.12,3.12,0,0,1-1.76,1A1.08,1.08,0,0,1,39.75,96.34Zm1-.82a2.48,2.48,0,0,0,.66-.4A1.34,1.34,0,0,0,40.78,95.52Z"/><path d="M48.38,94.83a21.42,21.42,0,0,1-2.62-.8,13.6,13.6,0,0,0-3.45.62c-.2.08-.46.13-.59.31A2.09,2.09,0,0,0,42,95c.1,0,.09.17,0,.16s-.4,0-.44-.16c.09-.62,1.43-.83,1.94-1l.89-.26h.26s0,0,0,0h0a4.46,4.46,0,0,0,.63,0l.59-.1.28,0,.81,0h.13a18.32,18.32,0,0,0,2,0,.72.72,0,0,1,.18,1.42l-.15,0A2.35,2.35,0,0,1,48.38,94.83Z"/><path d="M65.17,95c-1.92.1-3.83-.06-5.75-.06a62.29,62.29,0,0,1-6.41,0c-2-.24-3.95-.53-5.95-.82a27.16,27.16,0,0,1-3-.39h0l.53,0h0a4.46,4.46,0,0,0,.63,0l.59-.1.28,0,1.77-.13c.36,0,.72-.08,1.07-.12l.29,0c.72,0,1.4,0,2.13-.06s1.62.07,2.43.07a.43.43,0,0,0-.09.39.46.46,0,0,0,.25.28,1.74,1.74,0,0,0,.39,0h.25c.17,0,.35,0,.52,0q.57,0,1.14,0c.33,0,.67,0,1,0l1,0,1.1-.07c.31,0,.62,0,.93-.1s.65-.13,1-.18l1.1-.16.7-.12c.71.07,1.42.14,2.13.24A.78.78,0,0,1,65.18,95Z"/><path d="M55.14,127.45a1.5,1.5,0,0,0-.69-.14l-.56,0c-.32,0-.63,0-1,.06a.57.57,0,0,0-.22-.11l-.11,0-.2,0h-.07s0,0,0,0l-.19-.1-.11-.08-.19-.18c.42-.56,1.55-.56,2.19-.6,1-.09,1.92-.33,2.89-.43,1.76-.36,3.56-.49,5.28-1a15.19,15.19,0,0,1,2.55-.83,8.66,8.66,0,0,0,3.9-1.34c-.07-2.4-1.26-4.7-1.43-7.11a58.82,58.82,0,0,1,.09-10,36.35,36.35,0,0,1,1.14-6.23,28.83,28.83,0,0,0,1-2.89c.17-.75.29-1.51.41-2.27.06-.23.05-.51.21-.69a.08.08,0,0,1,.14,0h0c.59,3-.54,5.94-.69,8.92A59.76,59.76,0,0,0,69.23,116c.29,1.55.78,3.07,1.11,4.62a4.12,4.12,0,0,1-.07,3,7,7,0,0,1-4.38,2.11,23,23,0,0,0-3.61,1.07,22,22,0,0,1-4,.48,29.11,29.11,0,0,0-3,.26A.66.66,0,0,0,55.14,127.45Z"/><path d="M37,95.76c-.72-.1-.64-.77-.45-1.28a12.15,12.15,0,0,1,1.54-4c.05-.5.05-1,.13-1.48a.19.19,0,0,1,.17-.16c.4,0,.17.84.2,1.1.19-.46-.06-2.82.58-2.71.2,0,.16.32,0,.29A5.23,5.23,0,0,0,39,88.74a1.09,1.09,0,0,1,.1-.25.36.36,0,0,1,.15-.12c.14-.59.94-.62.9,0-.4,1.83-.89,3.66-1.37,5.47h0l-.12.47c.64-.15,1.26-.32,1.87-.5a.69.69,0,0,0,.37.1h.43a5.87,5.87,0,0,0,.94-.09c.27,0,.53-.09.8-.12l.58,0a3.09,3.09,0,0,0,.43,0l.53,0h0s0,0,0,0h.27a.65.65,0,0,1-.5.52c-2.41.39-4.71,1.37-7.14,1.56Z"/><path d="M72.73,69.33c0-.11,0-.24.06-.35a3.63,3.63,0,0,0-.23-2.59c-.1.69-1,.94-1.18.21,0-.17,0-.38-.11-.52a24.51,24.51,0,0,1-1.67-2.4c-.28-.52-.95-1.06-.65-1.7s1.16-.38,1.57.12a9.32,9.32,0,0,1,1.33,1.48A18.27,18.27,0,0,1,73,65.9a4.12,4.12,0,0,1-.07,3.45A.09.09,0,0,1,72.73,69.33Z"/><path d="M70.05,95.2c-.64-.09-1.78,0-1.76-.87a.65.65,0,0,1,.52-.63l.13.1a.4.4,0,0,0,.24,0,.36.36,0,0,0,.21-.09.43.43,0,0,0,.11-.12c.21,0,.42,0,.59,0-.1-1.38-.44-2.74-.43-4.14A20.83,20.83,0,0,1,70.2,86c.6-3.41,1.26-6.81,2-10.18a6.74,6.74,0,0,0,.24-2.14,32.45,32.45,0,0,0,0-4.83.43.43,0,0,1,.12-.35.19.19,0,1,1,.3.24c0,.49.14,1,.18,1.47,1.11-.51.63,1.72.68,2.28l-.12,1.34c0,.41.1.89-.15,1.24-.71,4.65-1.18,9.33-2.07,14a30.47,30.47,0,0,0,.24,4.38c0,1.11-.1,1.75-1,1.83A4.27,4.27,0,0,1,70.05,95.2Z"/><path d="M72.49,71.21c0-.22.17-.41.27-.6A7.79,7.79,0,0,1,75.35,68c1.24-.68,2.35-1.57,3.63-2.18S81.85,64.73,83.2,64a4.08,4.08,0,0,0,2.1-1.49c0-.12,0-.23,0-.34a7.5,7.5,0,0,1-2.08-2.43,9.1,9.1,0,0,1-1.39-4.42c0-.62-.3-1.69.57-1.81a.66.66,0,0,1,.69.51A15.2,15.2,0,0,0,84,57.34a12.75,12.75,0,0,0,2.21,3.43c.38.22.49.67.75,1,.73,1.13-.09,1.94-.84,2.75a5.35,5.35,0,0,1-1.81,1,24.61,24.61,0,0,1-3.5,1.41c-1.41.49-2.78,1.27-4.16,1.8A10.72,10.72,0,0,0,73,71.07C72.86,71.2,72.61,71.49,72.49,71.21Z"/><path d="M30.48,67.2a15.86,15.86,0,0,0-2-.89c-.88-.17-1.79-.12-2.68-.27s-1.61-.8-1.1-1.61c.26-.36.61-.65.87-1A39,39,0,0,0,28.13,59a20.2,20.2,0,0,1,1.06-1.86.74.74,0,0,1,.49-.32.19.19,0,1,1,0,.38h0a14.3,14.3,0,0,0-1.56,3.1,30.54,30.54,0,0,1-1.43,4.06,17.62,17.62,0,0,1,2,.12c.94.24,3.5.88,2.89,2.24A.94.94,0,0,1,30.48,67.2Z"/><path d="M37.91,70.82a.09.09,0,0,1,.08-.09.08.08,0,0,1,.08.08.07.07,0,0,1-.07.08A.07.07,0,0,1,37.91,70.82Z"/><path d="M24.21,88.66c.76-.47,1.53-1,2.29-1.45,1.6-.85,3.27-1.81,4-3.53.25-.64.73-1.15,1-1.76a13.79,13.79,0,0,1,1.13-3.15c.34-.64.8-1.21,1.11-1.87a17.75,17.75,0,0,1,.81-1.7c.69-1,1.51-2,2.12-3.13.19-.23,1.66-3.38,1.61-2.38,0,.14,0,.48-.18.51a.09.09,0,0,1,0-.16h0a.19.19,0,0,0,0-.08c-.78,1.81-1.57,3.62-2.42,5.39a20.12,20.12,0,0,1-1,3c-.75,1.22-1.18,2.58-1.86,3.83a17.09,17.09,0,0,1-3,3.5c-1.6,1.39-3.68,2.12-5.45,3.29C24.22,89,24.06,88.76,24.21,88.66Z"/><path d="M19.41,91.46c0-.14.18-.11.27-.16a.09.09,0,0,1,.1.06c0,.14-.19.12-.28.16A.08.08,0,0,1,19.41,91.46Z"/><path d="M11.57,90.07c-1-.35-1.7-2.27-.36-2.59a2.87,2.87,0,0,1,1.61.66c.39.27.8.44,1.15.71l.13.06c.08.06,0,.19-.09.14l-.07,0a.36.36,0,0,1-.25,0,19.41,19.41,0,0,0-2.22-.65,1.1,1.1,0,0,0,.55.83.36.36,0,0,0,0,.14.57.57,0,0,0,.07.41h0v0h0l.07.11a.46.46,0,0,1-.34.19A.41.41,0,0,1,11.57,90.07Z"/><path d="M11,89.69c-.2-.3-.16-.53.17-.69.14-.1.29.12.15.21l-.13.08a1.13,1.13,0,0,0,.12.18C11.48,89.67,11.16,89.89,11,89.69Z"/><path d="M9.54,94.93c-1,.09-3.45-.36-2.06-1.72.78-.8,1.13-2,2.17-2.52a1.68,1.68,0,0,1,1.14-.27c.24.15,0,.4-.18.47a3.41,3.41,0,0,0-.86.6c-.69.75-.84,1.82-1.52,2.59a4.41,4.41,0,0,0,1.25.15h0l.14,0,.08,0h0a.36.36,0,0,1-.19.62Z"/><path d="M12.21,96.71a2.68,2.68,0,0,1-1.94-1.06,11.52,11.52,0,0,1-1.43-1.53.85.85,0,0,1-.19-.68.11.11,0,0,1,.21,0,.27.27,0,0,0,0,.09h0a2.09,2.09,0,0,0,.2.22l0,0a1,1,0,0,0,.27.31.87.87,0,0,0,.3.16l.15,0h0c.3.17.61.31.92.45a3.76,3.76,0,0,0,2.55.31.67.67,0,0,1,.69.45c.23.82-.78,1.11-1.49,1.17Z"/><path d="M14.14,95.24c-.22-.27.17-.51.38-.62L16,93.78A22.63,22.63,0,0,0,18.61,92a.82.82,0,0,1,1.17,1.13,5.28,5.28,0,0,1-2.67,1.27,23.61,23.61,0,0,1-2.73.91A.16.16,0,0,1,14.14,95.24Z"/><path d="M51.91,19.76c-.08-.14,0-.27.16-.32a1.35,1.35,0,0,0,.67-.72c.08-.39-.19-.79,0-1.17a1.84,1.84,0,0,1,1.09-1.09c.08,0,.19-.07.24,0s-.07.13-.13.16A1.5,1.5,0,0,0,53,18a1.37,1.37,0,0,1-.41,1.6C52.44,19.69,52.1,20,51.91,19.76Z"/><path d="M45.53,31.13c-.28-.18.19-.68.3-.87a10.28,10.28,0,0,0,1.88-3.45,1,1,0,0,0,0-.5.52.52,0,0,0-.1-.18c-.9-.88-.12-1.77.6-2.43a3.74,3.74,0,0,0,.68-1.42,3,3,0,0,1,1.25-1.45,1,1,0,0,1,.53,0,.1.1,0,0,1,.08.09.09.09,0,0,1-.09.08.58.58,0,0,0-.59.14,2.83,2.83,0,0,0-.79,1.13,4.07,4.07,0,0,1-.53,1.51c-.25.57-1,.87-1,1.54,0,.28.23.48.34.72a1.64,1.64,0,0,1-.09,1.3,7.88,7.88,0,0,1-.91,1.81c-.43.65-.95,1.27-1.33,1.94A.16.16,0,0,1,45.53,31.13Z"/><path d="M42.1,37.47c-.1-.76.66-1,1.12-1.39a.42.42,0,0,0,.1-.41A1.45,1.45,0,0,1,43.93,34c.14-.08.26.15.12.22l-.15.07a1.58,1.58,0,0,0-.28.82c0,.33.18.63.1,1-.15.5-.72.67-.95,1.1-.08.21,0,.53-.34.55A.3.3,0,0,1,42.1,37.47Z"/><path d="M45.55,39.3c0-.36.15-.73,0-1.09s-.61-.52-.75-.91a3.4,3.4,0,0,1,.22-2.1c.07-.11.13-.38.29-.32a.09.09,0,0,1,0,.13,2.67,2.67,0,0,0-.31,1.11c-.22,1.37.45,1.05.92,2,.13.27.24,1.42-.17,1.45A.24.24,0,0,1,45.55,39.3Z"/><path d="M47.9,41.86c-.11-1.29-1-2.34-1.2-3.6-.33-2,2-2.48,1.32-4.39a15.81,15.81,0,0,1-.77-1.79.28.28,0,0,1,.54-.15,19.06,19.06,0,0,1,.89,2c.61,2.07-1.85,2.7-1.39,4.68.26,1.06.92,2.07.8,3.19h0A.1.1,0,0,1,47.9,41.86Z"/><path d="M49.21,42.54c-.61-.67-.33-1.53-.07-2.27-1.6-1.14-.51-1.85.39-2.9.53-.7.17-1.57-.05-2.31a15.49,15.49,0,0,0-.24-1.92c-.27-1.47.52-2.83.8-4.22a2.2,2.2,0,0,0-.52-1.7c-.26-.61.41-1.11.74-1.56s.62-.8.93-1.19c.13-.19.47-.64.61-.23-.52.81-1.22,1.55-1.76,2.36a.86.86,0,0,0-.12.3c0,.19.16.35.24.51.64,1,.24,2.3.07,3.35a14.23,14.23,0,0,0,0,3c0,.45-.2.89-.16,1.33a3.49,3.49,0,0,1,.22,2.59c-.15.64-1.18,1.3-.56,1.9a1.16,1.16,0,0,1,.25.71,5.5,5.5,0,0,0-.23,1.92C50,42.57,49.47,42.8,49.21,42.54Z"/><path d="M50.11,42.88a.72.72,0,0,1-.14-.24c-.07-.12.12-.2.17-.07l.08.13a1.14,1.14,0,0,0,.74-.85.16.16,0,0,1,.19-.1c.25.13,0,.49-.11.67a1.44,1.44,0,0,1-.65.46A.34.34,0,0,1,50.11,42.88Z"/><path d="M51.83,40.94c-.12-.23-.08-.53-.18-.78a3.29,3.29,0,0,1-.36-1.54.28.28,0,0,1,.56,0A14.94,14.94,0,0,1,52,40.72h0a.11.11,0,0,1,.08.21C52,41,51.9,41,51.83,40.94Z"/><path d="M51.27,44c-.15,0-.41,0-.44-.17a.15.15,0,0,1,.14-.16,2.33,2.33,0,0,0,1.5-.53c.2-.39-.28-.75-.39-1.1a1.24,1.24,0,0,1,0-.87.42.42,0,0,1,.81.16,4.73,4.73,0,0,0,.29,1.15C53.52,43.61,52.16,44.05,51.27,44Z"/><path d="M52.82,40c-.75-.33.83-2.2.08-2.82a1.93,1.93,0,0,1-.51-.76,1.66,1.66,0,0,1,.12-1,.61.61,0,0,0,0-.27c-.15-.8-.42-1.56-.62-2.34a3.66,3.66,0,0,1,.43-2.07c.25-.73.65-1.45.92-2.15a.81.81,0,0,0-.08-.57,6.73,6.73,0,0,1-.89-2.7c0-.4.11-1.79.74-1.22.14.46-.14,1,0,1.46.12,1,.77,1.89.84,2.9A6.49,6.49,0,0,1,53.23,30c-.34,1-1,2-.71,3.12a7.3,7.3,0,0,1,.29,2.93,1.52,1.52,0,0,0,.25.74c.75.87,0,2-.11,2.92A.16.16,0,0,1,52.82,40Z"/><path d="M51.54,19.88c-.71-.18-.43-1.08-.12-1.51a2.84,2.84,0,0,1,1.37-1.19,3,3,0,0,0,.78-.34h0c-.18-.46-.41-1.08.11-1.43A2.09,2.09,0,0,1,55.56,15a.19.19,0,0,1,0,.22c-.12.2-.35.09-.52.13-2.82.75,1.27,1.23-2.14,3.2a4.33,4.33,0,0,0-.82,1A.56.56,0,0,1,51.54,19.88Z"/><path d="M53.38,22.23c-.38-.3-.26-.88-.09-1.26.25-.57,1-.75,1.2-1.34,0-.16-.1-.29-.15-.43-.2-.67.48-1.25.95-1.62.08-.07.28-.19.29,0s-.08.16-.15.12a2.38,2.38,0,0,0-.69,1.23v0a.33.33,0,0,0,0,.16c.68.73-.08,1.55-.53,2.17a1.11,1.11,0,0,0-.13.57A.49.49,0,0,1,53.38,22.23Z"/><path d="M55.22,23.15a.51.51,0,0,1,0-.71.93.93,0,0,0,.35-.59c0-.21-.22-.28-.29-.45-.14-.46.35-.84.49-1.24a3.41,3.41,0,0,0,.36-1c0-.06.09-.13.16-.13.66.08-.23,1.77-.35,2.15C56.62,21.64,56.23,23.76,55.22,23.15Z"/><path d="M56.67,18c-.54-.42,0-1,.33-1.35s1.12-1.13,1.18-.33c-.22.38-.84.65-1.13,1a.66.66,0,0,0-.23.41c0,.11.07.22,0,.28A.09.09,0,0,1,56.67,18Z"/><path d="M55.58,15.9a3.48,3.48,0,0,1,1.13-1.4c.81-.69.63,1,2.5-.34a.42.42,0,0,1,.53.13c.27.42-.24.73-.57.88A1.68,1.68,0,0,1,57,14.74a2.84,2.84,0,0,0-1.24,1.16A.09.09,0,1,1,55.58,15.9Z"/><path d="M62.79,19.35c-.95-.57-2.9-.24-2.85-1.8a5,5,0,0,0-1.4-.14c-.18,0-.66-.05-.37-.29a1.42,1.42,0,0,1,.22-.2c.09-.07.19.06.12.14a11.9,11.9,0,0,1,1.58-.15.68.68,0,0,1,.58.18c.12.1.18.25.29.36a.89.89,0,0,0,.43.11,9.16,9.16,0,0,1,1.48.14c.53.16,1.06.84.71,1.37A.69.69,0,0,1,62.79,19.35Z"/><path d="M68.36,22.75c-.37,0-.56-.33-.82-.54-1.21-.55-1.76-1.19-1.12-2.48-.74-.33-1.66-.63-1.82-1.54-.13-.57.21-1.13.11-1.7s-1.83-.43-2.3-.36a.16.16,0,0,1-.28,0c-.22-.62,2.24-.41,2.58-.27,1,.34.38,1.54.83,2.21a2,2,0,0,0,.9.47,1.45,1.45,0,0,1,1.18,1.92c.57.33,1.28.57,1.49,1.26A.77.77,0,0,1,68.36,22.75Z"/><path d="M72.55,34.88c-.84-1-.35-1.69.34-2.52a2.75,2.75,0,0,1-.56-.8c-.23-.47-.16-1-.46-1.47-.53-.42-1.39-.76-1.23-1.59a1.72,1.72,0,0,1,.35-.67c.42-.59-.13-.89-.51-1.29s-1.17-.54-1.24-1.21h0a2,2,0,0,1-.94-.32c-.35-.26-.53-.71-.89-1s-.82-.43-.36-.81c.07-.08.19,0,.12.11l-.14.16c.37.2.79.28,1.15.48a2,2,0,0,0,.84.36c.65.05,1.27-.17,1.39.71,1.14.87,2.39,1.81,1.74,3.41a2.56,2.56,0,0,1,1.22,1.29c.21.44.19,1,.43,1.38,1,1.18.3,1.84-.5,2.8.11.36.36.86-.1,1.09A.53.53,0,0,1,72.55,34.88Z"/><path d="M70.08,42.33a.63.63,0,0,1-.6-.47c-.1-.37.2-.67.41-.93.28-.51.61-1,.93-1.46s-.45-1-.33-1.61c-.08-.39,1.53-1.59,1.56-.92,0,.1-.14.1-.16,0a1.58,1.58,0,0,0-.66.89c.24.45.68.82.66,1.38a6.78,6.78,0,0,1-.45,1.7,12,12,0,0,0,1.13-.57.4.4,0,0,0,.25-.39c-.13-1.29-1-1.75.25-2.86a7.28,7.28,0,0,0,.48-1.16.34.34,0,0,1,.37-.22c.45.12.19.64.12,1a3.39,3.39,0,0,1-.84,1.41.45.45,0,0,0-.07.37c.52,2.3-.06,2-1.84,2.95A1.54,1.54,0,0,1,70.08,42.33Z"/><path d="M76,38.7a.8.8,0,0,1-.29-.41,2.19,2.19,0,0,1-.3-1c0-.21.24-.42.12-.64-.27-.37-1.55-1-.51-1.32a2.68,2.68,0,0,1,0-1.61,4,4,0,0,0,.33-1.15c-.28-.94-1-1.77-.92-2.82a.21.21,0,0,1,.19-.19c.29,0,.2.36.24.55a4.55,4.55,0,0,0,.31,1.05,6.39,6.39,0,0,1,.58,1.35c.07.7-.46,1.33-.4,2a3.9,3.9,0,0,0,.9,2.08,1.88,1.88,0,0,1,.49,1.79A.5.5,0,0,1,76,38.7Zm-.73-2.83a2.4,2.4,0,0,1-.11-.23l0,0H75l0,0h0l.18.15Z"/><path d="M74,25.66c-.67-.27-1.72-.73-1.44-1.62-.75-.23-1.9,0-2.25-.9A4.09,4.09,0,0,0,69.79,22a.62.62,0,0,0-.42-.24.09.09,0,0,1-.07-.11c.07-.19.4,0,.52.1.45.36.58.95.87,1.41.45.39,1.13.31,1.66.43s.68.3.59.82v0c0,.25.35.39.51.52s.46.24.7.34a.23.23,0,0,1,.12.29A.23.23,0,0,1,74,25.66Z"/><path d="M69.73,17.32c-.49-.39-1-.68-1-1.39a.33.33,0,0,0-.11-.15c-.6-.27-1.43-.16-1.83-.78-.23-.3-.2-.71-.36-1-.32-.5-1-.41-1.54-.28.07.06.26.08.21.21a.08.08,0,0,1-.11,0c-.1-.08-.35-.13-.29-.3s.39-.16.59-.19a1.53,1.53,0,0,1,1.07.2c.35.27.37.76.63,1.09.47.56,1.3.33,1.89.67a1,1,0,0,1,.38.73.57.57,0,0,0,.1.19c.22.23.53.35.74.59S70,17.55,69.73,17.32Z"/><path d="M69.64,18.93c-.27-.45-1.54-1.69-1-2.16a.12.12,0,0,1,.15,0c.12.14-.13.18-.09.3a3.19,3.19,0,0,0,1.12,1.3c.18.13.41.39.19.59A.29.29,0,0,1,69.64,18.93Z"/><path d="M47.93,133.73c-.8,0-.6-.92-.52-1.43a.29.29,0,0,1,0-.09.36.36,0,0,0,0-.11c0-.1,0-.21,0-.32l0-.3c0-.19.05-.39.07-.58.09-.69.19-1.38.29-2.07,0-.36.11-.73.15-1.09l.06-.57,0-.25a2.16,2.16,0,0,0,0-.44.27.27,0,0,0-.1-.17c0-.17.07-.34.1-.51s0-.43.17-.58a.27.27,0,0,1,.44.14,3,3,0,0,1,.06.6,4.56,4.56,0,0,1,.39-1,.36.36,0,0,1,.61.16,31.2,31.2,0,0,1-.37,3.59c-.13,1-.35,2-.42,3-.14.55-.12,2.06-.82,2.11A.52.52,0,0,1,47.93,133.73Z"/><path d="M29.76,150.85c-.55-.36-.28-1,0-1.44s.47-1,.68-1.47a23.42,23.42,0,0,1,.85-3c1.14-2.68,2.17-5.21,3.38-7.82a19.8,19.8,0,0,0,1.58-3.36,12.77,12.77,0,0,0,1.22-4.87,1.22,1.22,0,0,1,0-.27.09.09,0,0,1,.16,0v.45a24.23,24.23,0,0,1-.8,6.39c-1,2.82-2.16,5.59-3.27,8.37a24.47,24.47,0,0,0-1.36,3.41C31.85,148.24,31.17,151.6,29.76,150.85Z"/><path d="M25,154.88c-.21-1.14,1-1.89,1.23-2.91a6,6,0,0,1,.72-2.34,2.61,2.61,0,0,1,3.19-.08c.36.31.1.78-.36.69-2.38-.19-1.37,1.14-1.94,2.67a8.69,8.69,0,0,1-.81,1.54c-.24.46-.57,1-1.13,1.08A.85.85,0,0,1,25,154.88Z"/><path d="M32.08,155.81c-.23,0-.49-.27-.37-.48a.38.38,0,0,1,.26-.23c.55-.1,1.11-.13,1.65-.28.91-.4,1.88-.67,2.79-1a1.47,1.47,0,0,1,.58-.12c.47.11.24.57-.1.69A17.66,17.66,0,0,1,32.08,155.81Z"/><path d="M33.1,157c-.4,0-.26-.56,0-.3a24.36,24.36,0,0,0,3.43-1.08,19.59,19.59,0,0,0,2.61-2.36c.07-.08.2,0,.13.11-.69.88-1.64,1.52-2.3,2.43a4.25,4.25,0,0,1-2.33.88C34.15,156.77,33.64,157,33.1,157Z"/><path d="M37,157.6c-.67-.09-.45-.95-.26-1.38.92-1.49,2.85-.3,4.13,0-.49-1-1.71-.86-2.62-1.16-.49-.19-1.1-.81-.58-1.29a6.58,6.58,0,0,0,.57-.5c.6-.62,1.59-1.94,2.57-1.6.42.36,0,1,0,1.5-.15.68.1,1.29-.81,1.38,1,.27,3.26,2.6.95,2.49-1.07-.14-2.1-.77-3.19-.53-.3.13-.21.54-.32.8A.45.45,0,0,1,37,157.6Zm1.83-3.27a2.79,2.79,0,0,0,1.3-1.76,1.85,1.85,0,0,0-.87,1l0,.14c0,.11-.21.07-.17,0-.17.2-.33.41-.51.6A1.33,1.33,0,0,0,38.8,154.33Zm1.2-.94a2.42,2.42,0,0,1-.51.72,3.48,3.48,0,0,0,.43-.22l.06,0v0c0-.22.06-.44.1-.66C40.05,153.28,40,153.34,40,153.39Z"/><path d="M34.57,159.76c-1.19-.14-1.76-.72-.58-1.55a3.73,3.73,0,0,1,2-.39,2.71,2.71,0,0,0,1.15-.57c.32-.22.49-.67.9-.73.16,0,.18.24,0,.26s-.24.14-.33.24a3.21,3.21,0,0,1-1.5,1.39c-.65.24-1.41.19-2,.7l.45.2A.24.24,0,0,1,34.57,159.76Z"/><path d="M36.92,161.53a.62.62,0,0,1-.08-.53,3.22,3.22,0,0,1,.43-1.31c-.06-1,.14-1.89.16-2.84-.19,0-.15-.22,0-.23,0-.19,0-.41-.11-.55-.48-.43-1.18-.37-1.74-.62-.39-.16-.81-.38-1.19-.53-.62-.2-1.28-.36-1.58-1a.17.17,0,0,1,0-.22c.24-.16.38.25.55.36a1.26,1.26,0,0,0,.32.21,11.08,11.08,0,0,1,2.09.75c.78.28,2.11.42,2,1.54.36.31.38.86.48,1.3a3.7,3.7,0,0,1-.31,2.43c0,.49,0,1.2-.49,1.42A.47.47,0,0,1,36.92,161.53Z"/><path d="M30.2,160.41A5.07,5.07,0,0,1,28,158.94a5.18,5.18,0,0,0-1.4-1.4c-.32-.24-.67-.44-1-.65a3.15,3.15,0,0,1-1.32-3c.21-1.61,1.55-2.63,2.88-3.37a.33.33,0,0,1,.33.56,8.43,8.43,0,0,0-1.95,1.72,2.53,2.53,0,0,0-.17,2.14c.45.82,1.5,1.09,2.16,1.65.92.58,1.46,1.62,2.37,2.2.31.29.8.42,1,.81A.63.63,0,0,1,30.2,160.41Z"/><path d="M46.69,157.56a.34.34,0,0,1-.13-.6,7.58,7.58,0,0,0,2-.49c0-.38.57-.69.82-.95a13.89,13.89,0,0,1,1.9-1.43c.22-.11.51-.56.74-.28.07.25-.24.42-.36.59a21.17,21.17,0,0,1-1.9,1.89A4.59,4.59,0,0,1,46.69,157.56Z"/><path d="M49.63,158.52l-.06-.06c-.33,0-1.19.46-1.28,0a.25.25,0,0,1,.23-.27,2.64,2.64,0,0,0,1.62-.57c.53-.42,1-.85,1.53-1.31.17-.17.66-.93.78-.38a.18.18,0,0,1,0,.21.15.15,0,0,1-.13,0,7.92,7.92,0,0,1-2,2.15C50.11,158.43,49.87,158.67,49.63,158.52Z"/><path d="M50.15,159.69c-.26-.23.19-.51.31-.71a10.43,10.43,0,0,0,1.48-1.9,1.07,1.07,0,0,0,.09-.49c0-.06,0-.15,0-.2s.32,0,.14.11h0c.09.74-.5,1.36-.89,1.94-.3.4-.59.79-.88,1.2A.19.19,0,0,1,50.15,159.69Z"/><path d="M51.42,162.66a1.11,1.11,0,0,1-.15-1c.16-.63.27-1.28.38-1.92.16-1.1-.72-2.28,0-3.28a2.71,2.71,0,0,0-1.92-.25h.09a5,5,0,0,1-4.16-.55.68.68,0,0,1,.84-1.07c.57.13,1.13.33,1.71.41a8.14,8.14,0,0,1,3.37.52.68.68,0,0,1,.07-.28,1.44,1.44,0,0,1,.35-.46,5.47,5.47,0,0,1,.78-2.59,3.23,3.23,0,0,1,1.94-1.92,1,1,0,0,1,1.28.83,3.3,3.3,0,0,1-1,2.81,3.79,3.79,0,0,1,2.41-.32,1.1,1.1,0,0,1,.8.39c.31.55-.25,1.11-.69,1.39-1.51.84-3.39.59-4.92,1.4a2.94,2.94,0,0,1,0,1.83,7,7,0,0,1,0,3.43C52.6,162.63,51.93,163.19,51.42,162.66Zm.82-6.65a13.66,13.66,0,0,1,3.11-.72c.83-.14,1.87-.18,2.38-.95v0s0,0,0,0,.06-.11,0-.14l0,0c-2.14-.79-3.65,1.24-5.57,1.68Zm1.18-3.31a2.5,2.5,0,0,1-.19,1.11,3.39,3.39,0,0,0,1.63-2.38,2.62,2.62,0,0,0-1.45,1.25Z"/><path d="M51.18,154.31a5.24,5.24,0,0,1-1.25-.11,3.62,3.62,0,0,1-1.57-.2c-.51-.24-.92-.53-1.43-.72s-1.51-.41-1.94-1c-.06-.28.25-.3.43-.18a10.29,10.29,0,0,0,1.1.4c-.43-.26-.44-.83-.48-1.28a2.73,2.73,0,0,1,.94-2.05c-.2-.7.52-.91,1.06-.95a.46.46,0,0,1,.15-.16.29.29,0,0,1,.4.07A8.93,8.93,0,0,1,52,148a.5.5,0,0,1,.36,0,.43.43,0,0,1,.19.13c.45-.64,1.15,0,.76.59-.62,1.47-.56,3.2-1.41,4.59a.47.47,0,0,1,.51.67C52.21,154.38,51.61,154.31,51.18,154.31Zm-1-1.13a2.58,2.58,0,0,1,.48,0h0v0a.64.64,0,0,1-.58-.27l-.08-.13a.48.48,0,0,1-.35.08h0a.43.43,0,0,1-.21-.11,2.43,2.43,0,0,1-1.38-.67h0a1.72,1.72,0,0,1-.56,0,2.26,2.26,0,0,1,.47.4,6.45,6.45,0,0,1,1.69.66Zm-2.62-1.76-.09-.15-.17,0h0A.37.37,0,0,0,47.55,151.42Zm.86-.25,0,0,.08-.13-.09,0-.09,0Z"/><path d="M36.06,152.28a1.68,1.68,0,0,1-.44-.27l-.07,0-.09,0a.69.69,0,0,1-.49,0,5.23,5.23,0,0,1-5-.85.51.51,0,0,1,.41-.89,6.38,6.38,0,0,1,.76.15,4.19,4.19,0,0,1,.77-1.19,11.8,11.8,0,0,1,.1-2.06c-.93-.46-.57-1.72.47-1.47l.46,0c.26-.44.85-.26,1.28-.31a14.72,14.72,0,0,1,2.74.1c.92,0,2,.23,1.27,1.35a1.55,1.55,0,0,1,0,.21c0,.11-.06.21-.1.32.51.07.33.65.17,1s-.16.6-.27.88a22.38,22.38,0,0,1-1,2.41C36.78,152,36.51,152.44,36.06,152.28Z"/><path d="M102,92a1.69,1.69,0,0,1-1.33-.89c-.16-.36-.87-.89-.52-1.28.22-.18.5,0,.71.09.44.3.85.67,1.42.54-.16-.51-.48-1.1-.27-1.63a.67.67,0,0,1,1.18,0,5.5,5.5,0,0,1,.67,2.05C103.8,91.78,102.77,92.11,102,92Z"/><path d="M102.88,88.88c-1,0,2.25-2.59,2.37-3a13.13,13.13,0,0,1,1-1.07c.34-.51.59-1.09.93-1.6-1-.63-2.71,0-3.63.54a23.41,23.41,0,0,1-2.82,1.55c-.58.32-1.47.83-1.94.1-.69-1.36,1.86-2,2.79-2.25a16,16,0,0,1,4.5-1.16,2.37,2.37,0,0,1,2.24,1,1.66,1.66,0,0,1-.16,1.32,4.69,4.69,0,0,1-.76,1.41c-1.26,1.3-3.2,1.62-4.43,3A.13.13,0,0,1,102.88,88.88Z"/><path d="M99.73,84.81c-.16-.26.32-.46.52-.49a.15.15,0,0,1,.18.13c0,.14-.12.18-.23.21h0C100.05,84.72,99.9,85,99.73,84.81Z"/><path d="M51.57,170.94a4.25,4.25,0,0,1-3.29-1.08l-.56-.44a1.66,1.66,0,0,1-.71-.33.79.79,0,0,1,0-1.18c-1.54-1.43-.8-3.67-1.48-5.41a.22.22,0,0,1,.07-.42c.29,0,.46.34.59.57.52,1,.64,2.1,1.23,3a23.61,23.61,0,0,0,2.1,2.26c.71.25,1.71.46,2,1.27,1.6-.22,2.64-1.74,3.88-2.56.46-.36,1-.68,1.39-1.07s.72-.83,1-1.29c.4-.66.18-1.4.24-2.12a.66.66,0,0,1,.63-.6c.8,0,.74,1,.81,1.56a4.17,4.17,0,0,1-.93,2.69,9.48,9.48,0,0,1-2.7,2.84c-.54.42-1,.91-1.55,1.34A6.23,6.23,0,0,1,51.57,170.94Z"/><path d="M46.09,166.48c-.26-1.39-.11-3-.86-4.18a4.18,4.18,0,0,1-2-1.12c-1.16-1-2.15-2.22-1.9-3.84.11-.57.92-1.06,1.41-.64.22.19.21.51.25.78a7.94,7.94,0,0,0,.62,2.24,7.92,7.92,0,0,0,1.29,1.09,1.54,1.54,0,0,0,.68.41,1.47,1.47,0,0,1,.79.83,12.7,12.7,0,0,1,.82,2.78c.1.7.68,1.95-.32,2.22A.7.7,0,0,1,46.09,166.48Z"/><path d="M34.39,166.74a3.63,3.63,0,0,1-3.63-1.64,6.41,6.41,0,0,1-.57-2.54,6,6,0,0,0,0-2.86c-.29-.51-.91-.68-1.36-1-.21.09-.35-.21-.32-.38.12-.45,1.43.27,1.76.34A3,3,0,0,1,32,160.81a10.06,10.06,0,0,0,.17,2.39,2.47,2.47,0,0,0,.31,1.06c.73,1.45,3.29.38,4.48,0A4.29,4.29,0,0,0,38.69,163c.37-.45.6-1,1.11-1.37a.81.81,0,0,1,1.13.23c.52,1-.43,2-1,2.71C38.46,166.08,36.36,166.52,34.39,166.74Z"/><path d="M17.86,93.51c-2.72-.14-5.45-.24-8.16-.5l-2.64-.32a3.57,3.57,0,0,1-2.44-1c-.72-.22-1.65-.3-2.15-.91a.7.7,0,0,1,.37-1,28.69,28.69,0,0,1,9.73,1.41c1.07.15,2.19,0,3.27.08a9.51,9.51,0,0,1,2.45.69C19.31,92.35,18.91,93.59,17.86,93.51Z"/><path d="M98.35,90.83a.66.66,0,0,1-.59-.55c-.1-.86,1.6-1.33,2.21-1.73,0-.54.53-.73,1-.85.6-.19,1.18-.4,1.77-.6a45.34,45.34,0,0,0,4.44-1.87c1.36-.57,2.7-1.25,4.09-1.75.46-.08.81.51.67.92s-.41.48-.69.64c-.59.7-1.71.91-2.53,1.31-1,.41-2,.93-3,1.35-1.51.75-3,1.54-4.53,2.23A8.85,8.85,0,0,1,98.35,90.83Z"/><path d="M4.28,89.19a.08.08,0,0,1,.08-.08s.08,0,.08.08a.08.08,0,0,1-.08.08A.09.09,0,0,1,4.28,89.19Z"/><path d="M111.56,85.61a.5.5,0,0,1-.36-.58,42.16,42.16,0,0,0-.38-4.52c-.65-3.1-1.93-6.05-2.25-9.23-.21-1.23-.23-2.49-.43-3.72-.3-1.66-.85-3.27-1.21-4.91-.67-3.57-1.62-7.07-2.58-10.57-1.56-6-3.44-12-5.54-17.87-1.9-4.67-4.13-9.24-6.44-13.72a83,83,0,0,0-5.51-8.79c-.77-1.06-1.3-2.27-2-3.34a13.37,13.37,0,0,0-5.57-4.29,39.08,39.08,0,0,0-6.62-2c-1.41-.38-2.81-.88-4.25-1.16a59.37,59.37,0,0,0-11.6.87c-1.76.27-3.57.39-5.32.6a35.85,35.85,0,0,0-9,4.39,50.54,50.54,0,0,0-7.64,6.28C33.24,14.62,32,16.39,30.56,18a80.78,80.78,0,0,0-9,11.14,53.16,53.16,0,0,0-3.76,7c-1.15,2.43-2.62,4.68-3.88,7.06-1.18,2.55-2.28,5.14-3.41,7.71A109.05,109.05,0,0,0,7,63.31C5.88,67.72,4.58,72.1,3.78,76.59c-.36,2.09-1.11,4.13-1.2,6.24,0,2.33.34,4.64.55,7a8.36,8.36,0,0,1,.07,1.73.37.37,0,0,1-.09.2c0,.1-.11.23-.22.26s-.13,0-.15,0a.08.08,0,0,1,.1-.11h0c.19-.13,0-.4.06-.58-.32-2.76-.92-5.49-1-8.27a21.62,21.62,0,0,1,.86-4.9c.85-4.47,1.92-8.88,3.14-13.27,1.29-4.85,2.13-9.86,4-14.53C11,47.83,12.07,45.39,13.19,43c1.51-2.82,3.23-5.53,4.58-8.44.76-1.5,1.42-3.06,2.33-4.49,1.78-2.78,3.81-5.41,5.82-8,2.19-2.64,4.73-5,6.81-7.74A44,44,0,0,1,50.18,2.18,8.5,8.5,0,0,1,53,1.62c1.18-.13,2.36-.29,3.53-.48A62.61,62.61,0,0,1,68.39,0c1.72.31,3.37.92,5.07,1.33a28.51,28.51,0,0,1,7.6,2.51,12.75,12.75,0,0,1,4.83,4.3c.56.95,1,2,1.6,2.91a111.42,111.42,0,0,1,5.77,9.63c2.3,4.56,4.58,9.15,6.45,13.91,1.52,4.29,3,8.61,4.22,13,1.47,5.33,3,10.7,4.06,16.13a31.23,31.23,0,0,1,1.16,6.05,35.66,35.66,0,0,0,.71,4.11c.53,2.11,1.39,4.13,1.88,6.25a24,24,0,0,1,.45,3.77,2.66,2.66,0,0,1-.11,1.48A.48.48,0,0,1,111.56,85.61Z"/><path d="M18.05,94.58c-2-.16-4-.49-6-.51a79.91,79.91,0,0,1-8.19,0c-1,0-2.64-.24-2.4-1.66a2.37,2.37,0,0,1,.07-1.18,6.2,6.2,0,0,1,.71-2.07c.08-.11.23-.25.38-.21s.12.43.16.64c.47.19.18.74.06,1.07a4.93,4.93,0,0,0-.34,2.08,11.21,11.21,0,0,0,3.52.09c1.92-.1,3.82-.43,5.73-.54a33.8,33.8,0,0,1,7.26.59.86.86,0,0,1,0,1.67A5.24,5.24,0,0,1,18.05,94.58ZM2.5,89.64a.49.49,0,0,1,.17-.06c0-.09,0-.19,0-.28A1.74,1.74,0,0,0,2.5,89.64Z"/><path d="M6.21,94C4.76,94,1.93,94,1,92.74a.75.75,0,0,1,.46-1.08,5.58,5.58,0,0,0-.59-.1.16.16,0,0,1-.17-.15.17.17,0,0,1,.16-.17,9.76,9.76,0,0,1,1.07.13c.39-.58,1.16-.29,1.72-.24.74.1,1.47.24,2.2.37L8.2,92a.47.47,0,0,1,.18.84C8.16,93.73,7.06,94,6.21,94Z"/><path d="M101.15,91.22c-.76-.13-.24-1.09,0-1.49-.44-.79.61-1.21,1.14-1.55a32.42,32.42,0,0,1,6.13-2.67,29.26,29.26,0,0,1,3.32-1,.66.66,0,0,1,.88.51c.48,0,1.16.18.82.82a.94.94,0,0,1,.6,0,.47.47,0,0,1,0,.83c-1.46.56-2.94,1-4.41,1.57-1.83.64-3.67,1.3-5.5,2A15.92,15.92,0,0,1,101.15,91.22Zm.23-.69c.57-.16,1.12-.38,1.67-.58a.47.47,0,0,1-.19-.18l0,0a2.67,2.67,0,0,1-1.3.27A2.55,2.55,0,0,0,101.38,90.53Z"/><path d="M113.09,86.14a.65.65,0,0,1-.23-.13h0c-.27.23-.45-.24-.55-.43-.34-.68-1-1.17-1.26-1.89-.17-.34.22-.76.55-.53a2.22,2.22,0,0,1,.49.74c.68-.82,1.24.48,1.39,1a1.93,1.93,0,0,1,.32.52A.55.55,0,0,1,113.09,86.14Z"/><path d="M17.23,94c-1.6-.19-3.24-.84-4.84-.77-2.18,0-4.37-.18-6.54-.06-1.74.18-3.72,1.06-5.3-.08A1.44,1.44,0,0,1,.87,90.6c.24-.53.42-1.36,1.08-1.47s.5.74.58,1.13a1.38,1.38,0,0,1,1.63-.43.09.09,0,0,1,0,.15c-.13.11-.35.08-.5.1a1.69,1.69,0,0,0-1.07.85,3.1,3.1,0,0,1-.35,2c1.41.08,2.73-.6,4.14-.64,2.13-.09,4.26-.05,6.39-.19,1.56-.22,3.06.31,4.6.4A.74.74,0,0,1,17.23,94ZM1.62,92.83a.81.81,0,0,1-.12-.39v-.17a.79.79,0,0,1-.34.38A1.83,1.83,0,0,0,1.62,92.83Zm.09-1.32a1,1,0,0,1,0-.1c.08-.16.17-.31.26-.46l0-.45c0-.2-.05-.39-.09-.59a4,4,0,0,0-.38.87A.9.9,0,0,1,1.71,91.51Z"/><path d="M39,72.12c-.87-.35-.55-1.41-.61-2.14a7.66,7.66,0,0,1-4-1.9c-1.13-.76-2.22-1.58-3.42-2.23-1.44-.53-5.13.35-6-1.09-.42-.94.67-1.47,1.17-2.09C27,61.6,27.26,60.18,28,59c.89-1.47,2-2.83,3-4.21a.15.15,0,0,1,.28.05.62.62,0,0,1-.1.39c-.47.94-1.14,1.88-1.6,2.8s-.78,2-1.15,3a6.86,6.86,0,0,1-1,2.82c1.88.12,3.93-.4,5.53.87.94.59,1.86,1.2,2.77,1.82a5.54,5.54,0,0,0,3.09,1.42,22.29,22.29,0,0,1,.89-2.88,5.37,5.37,0,0,1,1.14-2.08c.55-.5,1.16-1.84,2-1.29a.73.73,0,0,1,.15,1,11.07,11.07,0,0,0-1.55,2.51,19.15,19.15,0,0,0-1.13,4.39C40.42,70.69,40.51,72.55,39,72.12Z"/><path d="M71.86,80.6c-.89-.26-.44-1.29-.32-1.93.32-1.45,1.23-2.76,1.14-4.29a21.57,21.57,0,0,0,.2-2.4,19.79,19.79,0,0,0-.94-3.45c-.46-2-.94-4.39-3-5.34l-.06.13c0,.09-.2,0-.15-.06s.1-.27.25-.24a4.07,4.07,0,0,1,.83.48c1.7,1,2.28,3,3.12,4.64a14.43,14.43,0,0,1,1.52,3.49,11.05,11.05,0,0,1,0,2.93,7.33,7.33,0,0,1-.21,1.61c-.26,1-.79,1.94-1.15,2.92C72.85,79.69,72.76,80.79,71.86,80.6Z"/><path d="M66.6,95.38c-3.14-.23-6.29,0-9.43,0-2.6-.19-5.2.17-7.8.14a17.35,17.35,0,0,0-5.62-.42c-1.16,0-2.33,0-3.48.13-1.23.31-2.33,1-3.56,1.29a1,1,0,0,1-.61,0,.93.93,0,0,1,0-1.7c.61-.29,1.24-.54,1.86-.8a7.06,7.06,0,0,1,2.55-.75.59.59,0,0,0,0,.13h0a.77.77,0,0,0,0,.26v0a.27.27,0,0,0,.06.12c.09.12.28.13.42.14a3.24,3.24,0,0,0,.44,0,7.32,7.32,0,0,0,.93-.09c.27,0,.53-.09.8-.12l.58,0a3.09,3.09,0,0,0,.43,0l.53,0h0a4.46,4.46,0,0,0,.63,0l.59-.1.28,0,1.77-.13.54-.06a11,11,0,0,1,1.29.31c1.33,0,2.66-.1,4-.15a.61.61,0,0,0,0,.14.46.46,0,0,0,.25.28,1.74,1.74,0,0,0,.39,0h.25c.17,0,.35,0,.52,0q.57,0,1.14,0c.34,0,.67,0,1,0l1,0,1.1-.08c.31,0,.62,0,.93-.1s.65-.13,1-.18l.21,0c1.18,0,2.36,0,3.54,0a8,8,0,0,0,1.83,0l.36.13a1.52,1.52,0,0,0,.56.08,4.36,4.36,0,0,0,.51,0,1.64,1.64,0,0,0,.32,0l.11,0a.39.39,0,0,0,.19.19.4.4,0,0,0,.24,0,.33.33,0,0,0,.21-.09.42.42,0,0,0,.14-.18.59.59,0,0,0,0-.23h0a.47.47,0,0,0,0-.16.72.72,0,0,0-.07-.28,12.83,12.83,0,0,0,2.07-1c.25-3.19-.5-6.39-.13-9.56a.23.23,0,0,1,.45.11,8.61,8.61,0,0,0,0,2.43,50.63,50.63,0,0,0,.88,5.47c.1.54.15,1.1.21,1.65a1,1,0,0,1-.09.84c-1.31,1.47-4.35,2.41-6.29,2.56Z"/><path d="M68.73,87a.11.11,0,0,1,.1-.11A.12.12,0,0,1,69,87a.11.11,0,0,1-.11.11A.1.1,0,0,1,68.73,87Z"/><path d="M52.91,131.84a.42.42,0,0,1-.16-.33.5.5,0,0,1-.08-.26c-.11-.76-.25-1.51-.35-2.26-.07-.53-.14-1.05-.2-1.57s-.17-1,.39-1.07a.47.47,0,0,1,.4.23l.1-.07a.46.46,0,0,1,.44,0,.41.41,0,0,1,.68-.06,1.55,1.55,0,0,1,.14.8c0,.13,0,.26,0,.39a.3.3,0,0,0-.18-.06.41.41,0,0,0-.16,0,.28.28,0,0,0-.17-.07.27.27,0,0,0-.24.15.87.87,0,0,0-.05.22s0,0,0,.06a1.55,1.55,0,0,0,0,.21,2.5,2.5,0,0,1,0,.29c0,.13,0,.25-.05.38q-.07.44-.12.87c0,.34-.07.67-.1,1l0,.31c0,.26-.1.52-.16.78Z"/><path d="M51,137.71a4.66,4.66,0,0,1,.25-.5,7.27,7.27,0,0,0-.22.8s0,.08,0,.12A.51.51,0,0,1,51,137.71Z"/><path d="M52.56,132.29c0-.32-.07-.75.18-1,.07-.41-.23-2.07.49-1.84a.91.91,0,0,1,0-.33l0-.06-.09.7c0,.34-.07.67-.1,1l0,.31-.33,1.64a.4.4,0,0,0,0,.22,1.16,1.16,0,0,1,0,.18l-.09.53,0,.1-.05.12C52.56,133.34,52.55,132.81,52.56,132.29Z"/><path d="M51.57,136.09a26.22,26.22,0,0,1,.19-2.94,11.45,11.45,0,0,1,.39-2,.27.27,0,0,1,.34-.15,5.35,5.35,0,0,0,0-.55.15.15,0,0,1,.27-.08.26.26,0,0,1,.23-.17.42.42,0,0,1,.12,0c0,.18,0,.36,0,.54l0,.31c-.07.37-.15.73-.22,1.09a3.28,3.28,0,0,0-.23.87c0,.26,0,.53,0,.79a2.56,2.56,0,0,1-.11.24l-.41,1c-.13.31-.26.62-.38.94l-.09.25Z"/><path d="M63.55,135.19c-.92-.05-.91-1-.46-1.59.33-.83.56-1.69.82-2.54.34-1.3.23-2.7.75-4a7.43,7.43,0,0,0,.28-1.22.16.16,0,0,1,.28,0,5.08,5.08,0,0,1,.4-.85.49.49,0,0,1,.87.15,5.29,5.29,0,0,1-.28,1.51,25.62,25.62,0,0,0-.55,2.91c-.14.57.08,1.48-.64,1.69C64.65,132.46,65.17,134.86,63.55,135.19Z"/><path d="M60,138.69c-.54-.54.15-1.12.51-1.52s.78-1,1.19-1.52.92-1,1.32-1.42.44-.83.71-1.22a10.81,10.81,0,0,0,1.38-4.37.2.2,0,1,1,.33.21,21.39,21.39,0,0,1-.44,3.92c-.12.87-.15,2.94-1.49,2.55a15.68,15.68,0,0,0-1.43,1.92C61.64,137.83,60.92,139.35,60,138.69Z"/><path d="M52.42,148.67c-1.69-1.09,2.33-4.35,3.06-5.3a43.35,43.35,0,0,1,5.1-5.22c1.18-1.24,2.62-2.23,3.76-3.49-.09-.1,0-.24.13-.12a.41.41,0,0,1,0,.4,5.27,5.27,0,0,1-.62,1.05c-.84,1.23-1.51,2.43-2.42,3.57-1.25,1.54-2.83,2.76-4.11,4.27-.84,1.12-2,2.07-2.85,3.11C53.83,147.53,53.57,149.19,52.42,148.67Z"/><path d="M47,150.62c-.86,0-.55-1.4-.62-2a16.34,16.34,0,0,1,.93-3.95,46.54,46.54,0,0,0,2.29-5.16,51.19,51.19,0,0,0,1.29-5.16c.17-1.25.8-2.38,1-3.62.09-.58.15-1.16.28-1.74,0-.15.07-.45.27-.47l-.06,0a.18.18,0,0,1,.22.28c-.26,2-.31,4.09-.5,6.14v0c-.13.31-.26.62-.38.94l-.23.63c-.06.16-.1.32-.16.48-.1.31-.19.62-.26.94a4.91,4.91,0,0,0-.1.77v.08l-.33.86-.09.24-.09.24c-.07.17-.12.34-.18.51a4.84,4.84,0,0,0-.14.51,2.17,2.17,0,0,0-.07.24,1.6,1.6,0,0,0,0,.21c-.1.35-.19.71-.27,1.06,0,.14-.07.28-.1.42a16.51,16.51,0,0,0-1.9,5.17c-.2.61.08,2.23-.73,2.3Z"/><path d="M38.85,173.66c-2.9-.06-5.81.11-8.71.08-2,0-4.17-.14-6.14.45.16.13.64.11.59.39a.15.15,0,0,1-.19.08c-.22-.15-.84-.2-.72-.57a3.06,3.06,0,0,1,1.6-.51c.94-.12,1.88-.19,2.83-.23,2.2-.07,4.41-.1,6.61-.24,1.22-.07,2.45-.15,3.66-.25.24,0,.5-.12.71,0A.43.43,0,0,1,38.85,173.66Z"/><path d="M62.53,178.69c-2.31.13-4.62-.19-6.92-.28s-4.58-.21-6.87-.32c-5.93-.07-11.87.27-17.79-.06-1.1-.05-2.15,0-3.23-.1-.14,0-.12-.23,0-.27.4-.06.81,0,1.22-.06,6.66.17,13.3-.42,20-.48,4.16.2,8.32.06,12.45.43a12.87,12.87,0,0,1,2.78.11.54.54,0,0,1-.23,1C63.45,178.66,63,178.68,62.53,178.69Z"/><path d="M69.11,173.88c-4.32-.06-8.65.27-13-.07.09.16-.15.3-.24.15a.87.87,0,0,1-.11-.18c-.1-.45.82-.21,1.06-.24,1.43.05,2.87,0,4.3,0,2.68-.07,5.27-.53,7.92-.62A.49.49,0,0,1,69.11,173.88Z"/><path d="M21.4,161.84c-3.8.16-7.58-.41-11.37-.55-1.24,0-2.51-.1-3.74,0-.32,0-.75,0-1,.28,0,.12.06.4-.1.44a.09.09,0,0,1-.08-.08c0-.18,0-.38.09-.52a2.51,2.51,0,0,1,1.2-.36,33.1,33.1,0,0,1,3.59-.09c2.43,0,4.87.21,7.29.23,1.36,0,2.71-.08,4.06-.08A.38.38,0,0,1,21.4,161.84Z"/><path d="M21.4,167.28c-2.13,0-4.25-.2-6.37-.15a.09.09,0,0,1-.09-.08c0-.14.2-.08.29-.1,1.68-.1,3.36,0,5.05,0h1.11a.17.17,0,0,1,.18.17A.16.16,0,0,1,21.4,167.28Z"/><path d="M77.22,164.2c-3-.16-5.89-.36-8.84-.28-1.17,0-2.34,0-3.51.11-.21,0-.47,0-.62.17a.27.27,0,0,0,0,.09.09.09,0,0,1-.17,0,.27.27,0,0,1,.2-.32,24.76,24.76,0,0,1,4.21-.45c3.12-.17,6.25-.27,9.37-.22a.43.43,0,0,1,0,.85C77.66,164.18,77.44,164.2,77.22,164.2Z"/><path d="M76.06,169.76c-3,0-6.07.22-9.09,0-.14,0-.39,0-.37-.23a.11.11,0,0,1,.21,0,47.91,47.91,0,0,0,7.38-.38c.53,0,2.21-.54,2.27.24A.41.41,0,0,1,76.06,169.76Z"/><path d="M71.44,97.06a1.28,1.28,0,0,1-.57-.34A5.13,5.13,0,0,0,67,95.24c-1.39,0-2.77,0-4.16,0a49.09,49.09,0,0,0-6.06-.3c-.61,0-1.22,0-1.83,0a1.06,1.06,0,0,1-1-.33h0a.88.88,0,0,1-.17-.35,7.51,7.51,0,0,0-1.23.27.82.82,0,0,1-.55.08.67.67,0,0,1-.29-1.12c-.54-.61,1.6-.84,2-1,.93-.19,1.72-.38,2.6-.54s1.79-.14,2.63-.23a18.24,18.24,0,0,1,2.56-.16,26.16,26.16,0,0,1,8.61,1.45,10.13,10.13,0,0,0,.3-2.85c0-.68,0-1.8,1-1.73,1.12.09,1.16,2.78,1.38,3.68C72.93,93.28,73.35,97.51,71.44,97.06Z"/><path d="M81.91,56.74c-1.29-1.21-2.09-2.87-3.28-4.15a29.7,29.7,0,0,1-2.74-1.28.92.92,0,0,1,.76-1.63,11,11,0,0,1,2.09.89,9.68,9.68,0,0,1,2.92,1.77A5.67,5.67,0,0,1,83,54.61a4.5,4.5,0,0,1,.4,1.52A.92.92,0,0,1,81.91,56.74Z"/><path d="M82.7,54.91c-.88-.37-1.31-1.43-2.24-1.74a15.87,15.87,0,0,1-2.37-.51c-.79-.37-1.52-.86-2.32-1.22-2.37-1.12-5-1-7.59-1-1.94,0-3.86-.29-5.8-.18a2.33,2.33,0,0,1-1.17-.15.85.85,0,0,1,.07-1.51,5.25,5.25,0,0,1,1.59-.17c1.86-.14,3.71.07,5.56,0,3.15-.11,6.44,0,9.19,1.74a10.65,10.65,0,0,0,1.44.79,8.44,8.44,0,0,1,2.11.7,6.75,6.75,0,0,1,2,2.8C83.33,54.76,82.9,55,82.7,54.91Z"/><path d="M37.8,40.25c-1.18-.55-.13-2,.17-2.83s1.23-1.17,1.7-1.88a10,10,0,0,0,.62-1.77,6.93,6.93,0,0,1,1.45-2.18c.46-.53,1.12-.89,1.46-1.51a9.77,9.77,0,0,0,.29-1.95c.12-1.78,1.42-2.89,2.55-4.1.7-.65.41-1.64.83-2.41.73-1.26,2.31-3,3.91-2.61.22.17,0,.46-.17.53a3.71,3.71,0,0,0-2.37,3.62c-.05,1.76-1.71,2.74-2.55,4.11-.59,1.33-.1,3-1,4.17C44,32.32,43,32.91,42.4,33.9a6,6,0,0,0-.58,1.6,6.89,6.89,0,0,1-2.12,2.87C39.29,39.12,38.94,40.61,37.8,40.25Z"/><path d="M79,39.38a.83.83,0,0,1-.47-.35,7.05,7.05,0,0,1-1-2.61c-1.07-.62-2.17-1.25-1.89-2.71.16-.94.65-1.87.43-2.85-.42-1.85-2.41-3.27-1.87-5.32,0-.56.58-1.31,0-1.73-1-.75-2.09-1.47-3.12-2.24-2-1.67,0-3.1-2.23-5.17a6.05,6.05,0,0,0-1.58-1.27.18.18,0,0,1-.18-.17c.08-.44.66,0,.87.13a8.21,8.21,0,0,1,3,2.73c.42.79.16,1.9.91,2.51.91.65,1.75,1.17,2.64,1.82A2.79,2.79,0,0,1,76,23.89c.21,1-.47,2-.09,3,.89,1.89,2.22,3.69,1.6,5.87a4.13,4.13,0,0,0-.2,1.43c.58.61,1.52.92,1.74,1.83a9.63,9.63,0,0,0,.88,2.27A.79.79,0,0,1,79,39.38Z"/><path d="M51.9,45.42c-1.46.07-2.72-.48-2.72-2.12-1.24.15-3,.38-3.56-1a8.62,8.62,0,0,0-1-2,8.6,8.6,0,0,0-1.25-.93c-.19-.66.79-.16,1,0a6.07,6.07,0,0,1,2.46,2.31c.59.44,1.43.05,2.1,0,1.36-.32,2,.53,2.08,1.78a7.47,7.47,0,0,0,1.83,0,1.43,1.43,0,0,1,1.31.33.85.85,0,0,1,.13.84C53.89,45.5,52.71,45.38,51.9,45.42Z"/><path d="M66.87,44.15c-.37-.1-.16-.34.07-.47a20.92,20.92,0,0,1,2-1.12,8.56,8.56,0,0,1,3-.71,5.62,5.62,0,0,0,1.59-.74c.43-.3.94-1,1.48-.47.92,1-1.81,2.36-2.65,2.42a6.69,6.69,0,0,1-1.89-.12A7,7,0,0,0,67,44C67.05,44.09,67,44.2,66.87,44.15Z"/><path d="M53.15,41.29c-1-.16-.76-1.45-.69-2.2.07-.58.48-1.19.27-1.78-.46-.49-1-1-.89-1.74.14-1,1.2-1.49,1.77-2.23a4.32,4.32,0,0,0,.59-1.69c.15-.68.43-1.33.56-2s-.33-1.68,0-2.51a3.36,3.36,0,0,1,.56-1,.17.17,0,1,1,.28.19c-.65.93-.07,1.92.07,2.9a14.34,14.34,0,0,1-.09,2.07,8,8,0,0,1-.14,2.19,6.51,6.51,0,0,1-1.74,2.27c1.13,1,.94,2.41.57,3.73C54.12,40.22,54.18,41.37,53.15,41.29Z"/></g></g></svg>