<svg xmlns="http://www.w3.org/2000/svg" viewBox="0 0 293.53 456.94"><g id="Layer_2" data-name="Layer 2"><g id="Layer_group" data-name="Layer group"><g id="Vector_layer" data-name="Vector layer"><path d="M99.7,53.42c-.33-.18-.34-.64-.42-1a40.67,40.67,0,0,1-.42-7.56c-2.18,1.42-1.09-4.8-.92-5.74.55-2.27,1.41-4.39,1.29-6.76A20.55,20.55,0,0,1,100.59,25c.31-.53.94-2.1,1.68-1.63.49,1.44-.17,3.27-.24,4.79a72.94,72.94,0,0,1,4.21-8.09,10.58,10.58,0,0,1,1.36-1.81c.78-.14.12.83-.07,1.11.69-.68,8-8.22,8.22-6a.43.43,0,0,1-.49.37,37,37,0,0,0-9.38,9.05c-2.07,3-2.52,6.68-3.15,10.19-.49,2.12-.68,4.42-1.52,6.4-.55.43-.83-.27-.74-.76a32.44,32.44,0,0,1-1.16,5.52A37.73,37.73,0,0,0,100,52.4a.3.3,0,0,1,.37-.25.31.31,0,0,1,.23.37C100.5,53,100.28,53.72,99.7,53.42Zm-1.23-9.48c.83-1.95.35-4.17.56-6.24A17.31,17.31,0,0,0,98.47,43.94Zm1-7.82c0,1,0,2-.08,3,0,.48,0,1,0,1.43.5-2.55.88-5.12,1.32-7.68C100.26,33.9,99.82,35,99.49,36.12Zm.08-2.24A24,24,0,0,0,102,23.72a.21.21,0,0,0-.07.05C99.65,26.57,99.84,30.47,99.57,33.88Z"/><path d="M115,86.45c-.34-.38-.69-.76-1-1.15l.11.06c.34.17.68.33,1,.47a5.73,5.73,0,0,0,1.35.36,3.87,3.87,0,0,0,.48,0c-.09.7-.86.75-1.46.52h0A1.49,1.49,0,0,1,115,86.45Z"/><path d="M101.41,58h0a.05.05,0,0,0,0,0h0a10,10,0,0,1-.53-1h0v0a0,0,0,0,1,0,0h0a2.88,2.88,0,0,0-.13-.31c0-.06,0-.13-.08-.19l-.12-.17c0-.06-.09-.12-.13-.19h0l-.27-.45c0-.09-.07-.17-.11-.26l-.2-.41c0-.17-.08-.34-.13-.51s-.09-.35-.14-.53a2.1,2.1,0,0,0,.13.26c-.52-3.42-.51-7-1.58-10.3-.55,3,.31,6.17,1,9.15a.27.27,0,0,0-.18,0h0a.31.31,0,0,0-.33-.06,40.69,40.69,0,0,1-1.09-6.67,5.3,5.3,0,0,1,.32-2.8c.33-.33.73,0,.84.35,0-2.74-.51-6,1.41-8.24a.42.42,0,0,1,.59,0c.37.39-.17.72-.36,1-1,1.69-.92,3.75-.89,5.64a58.77,58.77,0,0,0,.63,7.27c.56,3,1.12,6,1.77,9C101.65,58.39,101.53,58.21,101.41,58Z"/><path d="M115.53,87.35a10.52,10.52,0,0,1-4-3.6l.7.44a19.51,19.51,0,0,0,1.91,1.17c.33.17.67.33,1,.47.19.07.38.14.57.19a3.1,3.1,0,0,0,1.92.46,11.91,11.91,0,0,0,3.9-1.75.57.57,0,0,1,.78.2c.45.93-1.62,1.51-2.21,2a5.05,5.05,0,0,1-4.27.57Z"/><path d="M114.58,86.92a.23.23,0,0,1,.29-.14,17.47,17.47,0,0,0,4-.58c.66-.67,1.35-1.31,2.06-1.92l.2.06.42.14c-.58.48-1.15,1-1.69,1.48a22.92,22.92,0,0,0,2.53-1.26l.15,0a6.85,6.85,0,0,0,.91,0h.12l-1.13.59c.88-.3,1.8-.57,2.66-.93l.26,0a8,8,0,0,0,1.35-.4,6.49,6.49,0,0,0,1.24-.61l.25-.16c-1.91,2-5.15,2.46-7.68,3.23-.52,0-1.66,1.13-1.92.43-.54,0-3,.74-3.78.44C114.65,87.15,114.57,87.06,114.58,86.92Z"/><path d="M146.06,66.24c.8-1.08,1.63-2.14,2.47-3.2.23-.26.47-.51.69-.79h0l.09-.16.39-.3c0-.47.42-.71.81-.84,1.51-.52,1.63,1.16.49,1.79-1.79,1.29-3.56,2.6-5.29,4Z"/><path d="M144.69,67.82a17.11,17.11,0,0,0,1.37-1.57c.34-.47.7-.94,1.06-1.4.63.86-1.45,2.43-1.87,3.17l-.57.67A3.17,3.17,0,0,0,144.69,67.82Z"/><path d="M143.7,70.82a4.81,4.81,0,0,0,.61-.93,4.69,4.69,0,0,0,.33-1c.23-.26.46-.51.68-.77a32.61,32.61,0,0,0,3.21-5.07h0c.23-.26.47-.51.68-.79h0a1.19,1.19,0,0,0,.18-1,64.1,64.1,0,0,0,2.85-7.57c0-.32-.13-.75.29-.83s.51.55.52.9A42.31,42.31,0,0,1,147,67.41,29.12,29.12,0,0,1,143.82,71,.57.57,0,0,0,143.7,70.82Z"/><path d="M119.84,85.21a2.29,2.29,0,0,0,.41-.53c.06-.1.11-.2.16-.3.39.05.78.09,1.18.12l.38.12h0a2.54,2.54,0,0,0,.55.1,6.85,6.85,0,0,0,.91,0,7.84,7.84,0,0,0,1.19-.24l.87-.13a16.47,16.47,0,0,0,5.11-2.52c.31-.16.63-.3,1-.45a19.57,19.57,0,0,0,1.92-1c.48-.3.93-.65,1.39-1s.85-.67,1.26-1l-.19.16c.35-.29.7-.57,1-.88a2,2,0,0,1,.11.29,1.7,1.7,0,0,1-.55,1.31,31.44,31.44,0,0,1-4.41,3.55,16.84,16.84,0,0,1-6.53,3.07,17.6,17.6,0,0,1-6-.36A3.48,3.48,0,0,0,119.84,85.21Z"/><path d="M148.5,64.69a.41.41,0,0,1,0-.62,26.53,26.53,0,0,0,4.71-10.48,46.46,46.46,0,0,0,.58-7.34c.12.93.27,1.85.42,2.78l-.07-.42a9.46,9.46,0,0,1,.11,1.07,23.79,23.79,0,0,1,0,2.67c-.07.53-.15,1.06-.23,1.6A27.08,27.08,0,0,1,150.3,63c-.38.45-1,2-1.69,1.75A.41.41,0,0,1,148.5,64.69Z"/><path d="M154.23,52.46c0,.06,0,.12,0,.19S154.22,52.52,154.23,52.46Z"/><path d="M100.18,33.23c-.38-6.16,6.37-14.1,11.33-17.29a22.06,22.06,0,0,1,5.54-2.24l-.35.2a2.07,2.07,0,0,0-.68.73,3.08,3.08,0,0,0-.66.73,17.84,17.84,0,0,0-6.51,4.18c-.29.28-.57.58-.85.88l-.1.11a33.75,33.75,0,0,1,7.28-4.86c0,.08-.07.17-.11.26a3.7,3.7,0,0,0-.13,2,33.09,33.09,0,0,0-9,6.73,26.81,26.81,0,0,0-4,8c-.19.54-.32,1.38-1.08,1.3l-.16,0A1.07,1.07,0,0,1,100.18,33.23Z"/><path d="M110.44,23.1a14.13,14.13,0,0,1,4.62-4.79c0,.11.09.22.14.33l.24.41a16.9,16.9,0,0,0-4.6,5.09.73.73,0,0,0-.64-.2.74.74,0,0,0-.37.22Z"/><path d="M148.2,85a1.79,1.79,0,0,0,0,.23,5.64,5.64,0,0,0-.16-1.3c-.16-.51-.38-1-.56-1.5h0A11.65,11.65,0,0,1,147,81a29.91,29.91,0,0,0-.81-3.46c-.25-.73-.54-1.45-.81-2.18a18.15,18.15,0,0,0-.93-2,.36.36,0,0,1,0-.09,1.8,1.8,0,0,0-.18-1.46,27,27,0,0,1,.48-2.81.24.24,0,0,1-.13-.07,3.14,3.14,0,0,0,.07-1.14l.35-.36a.82.82,0,0,1,0,.35l.16-.55a11.53,11.53,0,0,0,.84-1c.64-.85,1.28-1.69,1.94-2.52a1,1,0,0,1,.07.44c-1,4.07-2.28,8.22-1.83,12.48.55-3.05,1.14-6.09,1.7-9.14a.54.54,0,0,1,.58-.41.54.54,0,0,1,.48.59c-.16,1.28-.34,2.56-.56,3.83-.45,2.62-.93,5.2-1.41,7.82.72,1.82,1.14,3.75,1.8,5.58,0,.08.07.15.1.22l-.69.39Z"/><path d="M144.51,73.43l.07.15Z"/><path d="M143.7,70.82l.23-.3c0,.16-.07.33-.1.49A1.27,1.27,0,0,0,143.7,70.82Z"/><path d="M124.52,90.38a22,22,0,0,1,.34-6l.48-.09a9.85,9.85,0,0,0,1-.26c.09,1,.13,2,.18,3-.21.79,1.16,3.85,1.47,5.76l-.63.2a17.13,17.13,0,0,0-.64-3.09c.18,1-.09,2.24.34,3.17A22.74,22.74,0,0,0,124.16,92,3.32,3.32,0,0,1,124.52,90.38Z"/><path d="M109.46,16.77a5.72,5.72,0,0,1,3.24-4.06c.82-1.26,2.11-3.37,3.88-2.77.48.28,1.64,1.07,1,1.67-.45.22-.69-.07-.93-.37-.43-.52-.87-1-2.54,1.24a2.19,2.19,0,0,1,2.13,1.79,2,2,0,0,0-.25.35,3,3,0,0,0-1,1.31l-.06.19c-1.16.77-2.79,1-3.2-.61-.67.62-.63,2.36-1.78,2.19l-.09,0A.79.79,0,0,1,109.46,16.77Zm3.79-2.6c-.13.38-.45,1-.09,1.25a2.34,2.34,0,0,0,1.73-.85c.29-.23,0-.47-.24-.56h0l-.09,0h0A1.8,1.8,0,0,0,113.25,14.17Z"/><path d="M100.61,26.68c-2.29-1.57-.17-4.95,2.07-5.25,1.07-1.81,4.15-4.29,5.77-1.79a.26.26,0,0,1,0,.35.24.24,0,0,1-.35,0c-1.25-1.88-3.49.15-4.34,1.45,5.88,1-2.36,5.82-1.7,1.46a2.57,2.57,0,0,0-1.1,2.37,1,1,0,0,0,.15.27,1.8,1.8,0,0,0,.19.2l.11.08a2.2,2.2,0,0,0,1.35.21c.42,0,1.08-.34,1.27.22a.46.46,0,0,1-.3.56A3.61,3.61,0,0,1,100.61,26.68Zm2.47-3.09a2.75,2.75,0,0,0,2-.8,2.1,2.1,0,0,0-1.86-.46C103.09,22.7,102.74,23.28,103.08,23.59Z"/><path d="M97.21,27.89C96,26.16,98.79,23,100.7,23.18c.78,0,4.39,1.14,3.77,2.19a.63.63,0,0,1-.84.24,8.51,8.51,0,0,0-2.62-1.2c-1.47-.24-2.56,1.49-2.81,2.7.38.33,1.26.33,1.1,1C99,29,97.63,28.32,97.21,27.89Z"/><path d="M99.76,33.14c-1.08-.5-2.32-1.17-2.59-2.44-2.47-2.25,1.13-6.4,3.62-6.93.8-.08,3.2-.45,3.16.76a.68.68,0,0,1-.75.61,5.29,5.29,0,0,0-2.44,0,5.27,5.27,0,0,0-3,3.56,3,3,0,0,1,3.48-.47c2.91,1.54-.62,3.29-2.43,3.06a10.23,10.23,0,0,0,1.42,1A.49.49,0,0,1,99.76,33.14Zm-1.3-3.37a3.77,3.77,0,0,0,2.57-.33c-.78-.59-2.17-.69-2.67.29Z"/><path d="M92.52,42c-3.48-2,.64-6.61,3.11-3.34.44.23,0,.81-.36.53a2.84,2.84,0,0,0-1.3-.61,1.35,1.35,0,0,0-1.36,1.24v-.09a1.08,1.08,0,0,0,.62,1.09l-.06,0-.05,0,0,0a4.06,4.06,0,0,0,2,0,.59.59,0,0,1,.64.41C96.09,42.33,93.11,42.43,92.52,42Z"/><path d="M93.05,41.27c-1-.61-.91-1.94-.48-2.88-1.23-1.59.28-4,2-4.55-.48-1-1.37-2-1-3.16,1.54-2.59,5.34-2.43,8-2.12a.31.31,0,0,1-.07.62,24.68,24.68,0,0,0-2.72,0,8.17,8.17,0,0,0-3.59,1.12c-.28.21-.61.46-.64.84.15,1.07.93,1.9,1.34,2.87,2,1,3.39,3.61,1.66,5.5C96.51,40.74,94.66,42.17,93.05,41.27Zm.65-.86c1.45.12,2.85-1.3,3.39-2.51A1.94,1.94,0,0,0,96.55,36,2.62,2.62,0,0,1,96,38c.08.27.52.63.24.88s-.39-.35-.54-.54a2.22,2.22,0,0,1-2.46.58c-.13.54-.16,1.27.43,1.49h0l-.06,0,.11,0h0Zm.16-2.69a1.29,1.29,0,0,0,1.23-.48c-.4-.7-1.06,0-1.31.44l.1,0ZM93.43,37c.46-.6,1.45-.92,1.91-.16A2.47,2.47,0,0,0,95.12,35h0a2.31,2.31,0,0,0-1.64,2v-.09A1,1,0,0,0,93.43,37Z"/><path d="M98,38.47c-1.6-1.31-.7-3.59.3-5,.46-.47.77-1.87,1.61-1.42.66.62-.68,1.63-.9,2.22-1.77,2.65-.63,4.3,2.44,3.58.7-.22,2.27-.53,1.06-1.34-.64.1-1.52.13-1.87-.52-.26-1.09,1-.82,1.52-.46a4.84,4.84,0,0,0,2.41-1.82c0,.08-.09.17-.13.25a1.21,1.21,0,0,0-.14.58c-.18.38-.37.77-.54,1.16-.06.12-.11.25-.16.37l-.27.18c.06.06.11.13.16.19l0,.06h0v0h0c-.11.41-.31.8-.45,1.2a7,7,0,0,0-.21.75,6,6,0,0,1-4.22.38A1.67,1.67,0,0,1,98,38.47Z"/><path d="M105.13,28.94c-.77-.1-1.88-1.25-.85-1.77.79-.2,1.32.68,1.73,1.22a3.41,3.41,0,0,0,.77-.14l-.06.14-.24.55-.14,0,.06.15-.46,1.08-.27.65A3.06,3.06,0,0,0,105.13,28.94Z"/><path d="M106.65,24.08c.1-.52,1-.75,2.22.71l.39-.09A3,3,0,0,0,109,25c-.09.12-.16.24-.24.36l-.09-.09a3,3,0,0,1-1.29-.17C106.81,24.83,106.58,24.4,106.65,24.08Zm1.1.65a3.17,3.17,0,0,0,.57.11c-.32-.28-.63-.67-1.07-.73-.45.16.29.55.51.62Z"/><path d="M110.69,24c1-.67,2-1.67,1.82-2.64-1.54-.33-2.07-.93-2-1.31s1.19-.59,2.32.93a9,9,0,0,0,2.88-.32c1.24.49-2.43.87-2.73.76a3.73,3.73,0,0,1-2,2.91A.64.64,0,0,0,110.69,24Zm.27-3.85a3.05,3.05,0,0,0,1.17.67h0s.06,0,0,0a3.66,3.66,0,0,0-.86-.54Z"/><path d="M117.61,27.87a4.19,4.19,0,0,1-1.21-1.05,2.38,2.38,0,0,1-.31-.4c-2.31-.4-4.86-3.13-2.91-5.32a3,3,0,0,1,3.2-1,4.36,4.36,0,0,0,.8.51l.16.07a10.68,10.68,0,0,1,1.56,1.95c1.06.63,3,2.06,1.37,3.18,1,1.62-.83,2.82-2.29,2.25A2.58,2.58,0,0,1,117.61,27.87Zm.41-1.35.15.05c.27.07.6.19.84,0h0c0-.07,0-.13,0-.2A6.56,6.56,0,0,1,118,26.52Zm-4.21-5.32c-1.49,1.57.07,3.38,1.7,3.91-.46-1.35.44-3.88,2.19-3.19a3.45,3.45,0,0,0-1.54-1.43A2.12,2.12,0,0,0,113.81,21.2Zm2.47,2.08a2.48,2.48,0,0,0,.38,2.11,4.73,4.73,0,0,0,3.24-.68,9.23,9.23,0,0,0-2.34-2.15.6.6,0,0,0-.21-.13C116.86,22.23,116.4,22.82,116.28,23.28Z"/><path d="M116.85,27.56c-1.39-.94-3.28-2.75-2.26-4.55.32-.56,1-1.21,1.6-.63a.88.88,0,0,1-.21,1.33c-.41.45.12,1,.41,1.37a6.2,6.2,0,0,0,6.07,1.57,1,1,0,0,1,1.06.67c.28,1.06-.92,1.3-1.71,1.4A6.88,6.88,0,0,1,116.85,27.56Z"/><path d="M124.17,33.1a3.29,3.29,0,0,1-.19-5.41,3.4,3.4,0,0,1-2.2-.71c-.75-.6-.41-2.28.71-1.91A.78.78,0,0,1,123,26c2.84.83,7.44-1.17,5.72,3.9.62,3.52-4.5,2.67-2.24-.78-.47-.52-1.21-.91-1.81-.43a1.71,1.71,0,0,0-.65,1.54c.11,2,2.47,2.33,4,2.35.72.12,2.06-.31,2.18.74a.73.73,0,0,1-.7.74C127.7,34.07,125.72,34.17,124.17,33.1Z"/><path d="M130,33.16a1.81,1.81,0,0,1-.69-3,.82.82,0,1,1,1,1.26c1.38,1.34,3.61.6,5.13-.11a.67.67,0,0,1,.61,1.18C134.31,33.63,131.9,34.23,130,33.16Z"/><path d="M142.21,39.63a1.92,1.92,0,0,1-.6-1.59c-1.11.27-2.92.42-3.18-1-.11-1.21,1.32-2.06,1.09-3.3a.19.19,0,0,0,0,.07v.07c-.35-1.38-2.65-1.28-3.76-1.23-.86,0-1.9.57-2.65,0a.62.62,0,0,1,.85-.91c3.79-.93,9.43,0,6.45,5a5.19,5.19,0,0,0,1.62-.1c2.22-4.11,4.95-.16.76,1.12a1.31,1.31,0,0,0,.09.65l0,0s0,0,0,0c.77,1.3,2.37.56,3.48.23a.66.66,0,0,1,.45,1.24C145.34,40.42,143.45,41,142.21,39.63Zm1.22-3.47c.26-.16.57-.3.66-.59h0C143.79,35.61,143.61,35.94,143.43,36.16Z"/><path d="M148.3,47.47c-2.51-1.16-1-1.66-.35-3.34-1.16-.39.33-2.36.42-3.15a10.1,10.1,0,0,1-3.46-.69,2.28,2.28,0,0,1-.59-4,.87.87,0,0,1,1.24,1.21,5.22,5.22,0,0,0-.46.48s0,0,0,0c.08,1.47,3.19,1,4,1.88,1.28,1.3-.8,2.59-1.06,3.88h0c.51.2.23.8.07,1.15s-.32.69-.45,1c-.1.51.68.63,1,.88A.39.39,0,0,1,148.3,47.47Z"/><path d="M150.12,48.71c-.81-.5-.78-2,.33-2a1,1,0,0,1,.62-1.47c.43-.83,1.64-1,1.72.14a3.71,3.71,0,0,1,1,.52c.11.79.23,1.58.35,2.36a2.81,2.81,0,0,1-3.19.9A2.74,2.74,0,0,1,150.12,48.71Zm1.42-1.59a.66.66,0,0,1,.28.48c.32,0,1.19-.05,1.23-.44a.62.62,0,0,0-.33-.31A1.38,1.38,0,0,0,151.54,47.12Z"/><path d="M118.12,11.89c-.8-.53-.62-1.7-.18-2.41a5.22,5.22,0,0,1,1.76-4,2.56,2.56,0,0,1,3.64,1.74,20.92,20.92,0,0,1,4.53.53.59.59,0,0,1-.2,1.17,28.19,28.19,0,0,0-4.25-.38C123.21,10.9,120.39,12.87,118.12,11.89Zm.66-.81a3.1,3.1,0,0,0,3.47-2.49,4.59,4.59,0,0,0-3.37,1.7.21.21,0,0,1,.1.27.21.21,0,0,1-.26.12.73.73,0,0,0,0,.25v-.07C118.69,10.94,118.68,11.06,118.78,11.08Zm-.38-2.19a6.15,6.15,0,0,1,3.77-1.62,1.8,1.8,0,0,0-1.76-1.18C119.09,6.25,118.59,7.77,118.4,8.89Z"/><path d="M122.48,9.84c-1.12-1.9,0-4.34,1.56-5.65s3.52-1.32,5.35-1a.93.93,0,0,1,.82.88c-.1,1.69-3,.55-4.1,1.36-1.07.61-2.45,2-1.86,3.3A1.06,1.06,0,1,1,122.48,9.84Z"/><path d="M128.31,6C125,.1,142-2.85,140.92,3.78c.44-.16.94-.42,1.39-.16a.69.69,0,0,1,.3.84,1,1,0,0,0-.15.47c1,3.06,6.79,2.21,9.29,1.82a.65.65,0,0,1,.74.54c0,1.1-1.55.76-2.28,1-3,.31-7.58.44-8.89-2.86-.6.39-1.31.66-1.58,1.37a2.49,2.49,0,0,1-1,1.2,1.07,1.07,0,0,1-1.48-1.09h0c.22-1.1,1.27-1.85,1.52-3,.1-.45.35-1,0-1.42-2.07-1.85-7.33-.9-9.19,1a1.5,1.5,0,0,0-.24,1.89A.61.61,0,0,1,128.31,6Z"/><path d="M157.08,19.25a7.35,7.35,0,0,0-1.56-6.15c-.74.66-2.19,1.43-2.89.36s.63-2.1,1.63-2l0-.06s0-.08,0-.07c.15-1.57-.84-3.08-1.58-4.4a2.79,2.79,0,0,0-3.45-1.33c-.64.6-2.1,0-1.71-1a.81.81,0,0,1,.53-.49,12.72,12.72,0,0,1,3.13-.39c2.88.1,6.21,6.17,4.85,8.65,1.21,1.06,4.66,7,2.16,7.75A1,1,0,0,1,157.08,19.25Z"/><path d="M157.77,25.52c-2.55-1.89-2.45-8,1.31-8.28A1.44,1.44,0,1,1,159,20.1c-1.87,3.8,2.78,4,5.35,3.54-.46-1.22-2-2.13-1.79-3.51.21-.77,2-3.07,2.85-2.31a.66.66,0,0,1,0,.91c-.48.64-1.05,1.15-1.46,1.81h0c.84,1.09,2.16,1.64,2.68,2.95C167.63,27.59,159.82,27.2,157.77,25.52Z"/><path d="M164.49,22.79c-2.1-1.08-4.59-3.27-3-5.78.52-1.12,1.49-2.24,1.21-3.54-1.68-3.21-8-4.05-10.12-1,.6.71,2.61.45,2.32,1.73-.45,1-2.13-.18-2.83-.47-1.51-.92-.38-2.7.84-3.27a8.85,8.85,0,0,1,8.54.13c4.37,2.29,2.73,4.54,1.45,8.16h0c.24,1.28,1.5,2,2.4,2.82a.72.72,0,0,1-.78,1.2Z"/><path d="M173,34.19c-1.66-1.22,1.54-3.23,2.07-4.45a3.34,3.34,0,0,0,.7-2.36c-1.14-1.22-3-1.28-4.59-1.34,3.41,2.58,3.57,8.31-1.79,4.57-1.3-1.13-.52-3.13-1-4.59l-.27-.94a.21.21,0,0,1,.41-.12c.07.23.13.47.19.7.59-2.2,8-.51,8.5,1.45s-.63,3.82-1.74,5.31C174.82,33.09,174.23,34.75,173,34.19Zm-1.51-3.77c-.41-1.6-1.58-2.74-2.6-4C169.09,28.55,169.3,29.79,171.53,30.42Z"/><path d="M165.62,64.78a4.34,4.34,0,0,1,1.13-4.66,5.31,5.31,0,0,1,6.37-.23c2.91,1.56.85,6.65,3.78,7.5.35-.68.69-1.1,1-1.72a11.41,11.41,0,0,1-2.43-4c-.74-1.76-1.05-3.86.25-5.44-1.58-.14-3.83.1-4.69-1.53a1.69,1.69,0,0,1,1.21-2.25c2.42-.23,4.87,1.42,7.26.28.46-.22,1-.3,1.11-.81-.41-1.23-.5-2.56-.95-3.77a6.13,6.13,0,0,1-.83-1.58c-6.53-.62-7.83-6.26-2.31-9.78.45-.36,1.15-1,1.66-.39s-.1,1.65-.31,2.39c-.09,1.2-1.46,3.07,0,3.78,1.21.81,4.36,1.51,3,3.5.94,1.67,1,3.54,1.4,5.37.39,2.32-2.4,3.13-4.12,3.65.1.91-.8,1.56-1,2.43-.27,1.06.49,2,.8,3a11.55,11.55,0,0,0,1.4,2.84,3.48,3.48,0,0,1,.72,2.41,3.89,3.89,0,0,1-3.79,3.06c-6.23-.45-1.54-7.07-5.41-8.09a3,3,0,0,0-4.05,2.49,2.73,2.73,0,0,0,.18,1A.75.75,0,0,1,165.62,64.78Z"/><path d="M148.71,72.17c-2.58-2.38,2-5.08,3.91-6a.74.74,0,0,1,.74,1.25,10.9,10.9,0,0,0-3.11,2.9,29.87,29.87,0,0,0,3.25.45c-1.09-2.15.75-4.78,2.86-5.44,1.6-.49,3.17.69,3.84,2.09,1.54-.33,3.49-1.37,4.94-.36,1.07-.24,4.81-2.87,5.44-1.55a.7.7,0,0,1-.36.93c-1.9.46-2.71,2.59-4.64,3a1.48,1.48,0,0,1-2-.78A29.89,29.89,0,0,0,159.43,70a1,1,0,0,1-1-1.77,1.81,1.81,0,0,0-1-.75l.14,0c-1-.15-2.08,1.31-1.9,2.22.38,1,1.65,1.21,1.92,2.17.1,1.54-1.53,1.07-2.5,1.14C153,72.89,150.68,73.06,148.71,72.17Z"/><path d="M92.08,63.09a5.14,5.14,0,0,1,2.83-3.43c.61-.41,1.5-.78,1.63-1.56.07-.45-.38-.86-.16-1.31-1.17-2.06,1.14-4,2.38-5.5-1.51-1.91-5.21-6-.75-6.78a3.58,3.58,0,0,1,1.14-5.44c1-.37,1.88,1.29.62,1.58-1.35,1.7-.37,2.87,1.21,3.83a.75.75,0,0,1,.39.51v0a4.59,4.59,0,0,0-.17.48,1.94,1.94,0,0,0,0,.2v0a1.44,1.44,0,0,1-1.48-.05,4.36,4.36,0,0,0-2.34.59c-.11.3.11.63.23.91.65,1.42,2,2.58,2.38,4.08,0,.4-.4.64-.67.91s-.52.52-.76.8a.34.34,0,0,0-.13.16,9,9,0,0,0-.67,1c-1.3,1.85-.11,2.59,1.5,3.44a.54.54,0,0,1-.22,1,3.61,3.61,0,0,1-1.93-1c.74,2.15-2.2,2.81-3.25,4.13a5.75,5.75,0,0,0-.94,1.72.41.41,0,0,1-.77-.3Z"/><path d="M99.89,74a1.83,1.83,0,0,1-.52-2.52A4,4,0,0,1,96.86,70a3.57,3.57,0,0,1-3.61-.23c-2.69.15-3.71-3.67-1.44-5,.5-.46,3.29-1.22,2.83.12-.59.38-1.39.58-1.72,1.3,1.09,0,1.79,1.37,1.69,2.33a2.19,2.19,0,0,0,2.08-.52.73.73,0,0,1,.42-.16c.92,0,1,1.18.45,1.7a3,3,0,0,0,3,1,2.12,2.12,0,0,1,.71,0,.41.41,0,0,1,0,.79,9,9,0,0,0-1,.29.58.58,0,0,0-.32.76h0a1.81,1.81,0,0,0,1.52.91.62.62,0,0,1-.13,1.23A2.41,2.41,0,0,1,99.89,74Z"/><path d="M101.75,78.58a4.1,4.1,0,0,1-1.39-4.18.26.26,0,0,1,.28-.23c.46.11.1.77.15,1.07a2.74,2.74,0,0,0,1.74,2.68.47.47,0,0,1,.27.61C102.61,79,102.06,78.81,101.75,78.58Z"/><path d="M105,81.36A2.89,2.89,0,0,1,103.3,79c0-.75.17-2,1.19-1.78a.85.85,0,0,1,.63,1c-.25.83.86.83,1.39.7l.25,0a.86.86,0,0,0,.14.18l1.21,1.47c-.21,1.33-1.92,1.32-3,.9Z"/><path d="M144.93,74a.57.57,0,0,1-.18-.12l-.12-.24a1.9,1.9,0,0,1,0-.63,5,5,0,0,1,4.9-3.93A5.94,5.94,0,0,1,152.65,71c1.09,1,2.18,2,3.75,1.89,1.88-.2,2.49-2.3,4-3.09a1.59,1.59,0,0,1,2,.64h0l.12.24c1.74.29,3.53-.41,5.08-1a.9.9,0,0,1,1.17.45c.75,1.73-5.18,2.92-6.39,2.74-1.56,3.13-6.17,4.34-8.71,1.66-1.62-1.21-2.24-3.3-3.88-4.4-2-.79-4.92,1.47-4.75,3.51a1.11,1.11,0,0,0,.26-.27.21.21,0,0,1,.34.26c-.13.18-.45.55-.71.45Z"/><path d="M167.4,70.15a1,1,0,1,1,1.13-1.62,13.05,13.05,0,0,0,7.3-1.77c.51-1.62-2-4.19.9-4.58,2.15-.55,4.9-.64,6.38-2.43.07-1.4-1.41-2.31-2.16-3.34a29,29,0,0,1-2.66-3.94,6.34,6.34,0,0,1-1.4-2.83c-.24-2.93,2.38-5.37,4.91-6.38A25.79,25.79,0,0,0,185,42c.56-1.47,2.07-2.62,1.81-4.33-.61-3.07-3.44-7.47-6.83-7.66.76.91,1.58,3.22-.15,3.51-1.76-.11-3.25-2.44-2.3-4-3.56-2.29-7.78-2.49-11.81-2.59-1.18,0-2.89.33-3-1.32-.07-1.24,1.48-1.38,1.91-2.36.43-1.27-.67-2.44-1.27-3.46-1.35-1.91-2.65-4.07-4.84-5.11-1.48-.75-3.13-.58-4.72-.58a1.42,1.42,0,0,1-.95-2.39.73.73,0,0,0,.23-.37c0-4-6-6.47-9.55-6.14a7.08,7.08,0,0,0-2.46.74,1,1,0,0,1-1.29-.23c-.55-.73,0-1.43.69-1.81,5.13-3.78,14.69.84,15.25,7.08,4.18-.11,7.51,2.84,9.32,6.4,1.19,2.12,3,4.65,1.82,7.14,4.2.31,8.56,1.28,11.83,4.1,4.25-1.2,6.92,3.6,8.38,6.86a6.29,6.29,0,0,1-.68,6.17,1.76,1.76,0,0,0-.16.9,2,2,0,0,1-.81,1.27c-1.91,1.32-4.34,1.7-5.52,3.85-1,1.46-.56,2.12.49,3.32s1.7,2.79,2.78,4,2.07,2.24,2.36,3.74c.7,4.26-4.93,4.94-8,5.54.91,3-.1,4.33-3,5.2C172.3,70,169.69,71.08,167.4,70.15Zm12.25-37.61c.95.1-.61-2-1-2.19h0l0,0h0A2,2,0,0,0,179.65,32.54Z"/><path d="M110.1,20.08a.49.49,0,0,1,.3-.67,3.31,3.31,0,0,0,1.24-.87.25.25,0,0,1,0,.07,1.53,1.53,0,0,0,.22-1.12c-.53-2.57,1.5-4.82,3.67-5.88-6.38-5.34,5.68-10.37,10.12-8.3,2.81-2.24,6.87-3.73,10.44-2.74,2.87,1.34,5.93,3,7.73,5.71a.87.87,0,0,1-1.49.9C141,5,138.34,3.72,136.23,2.55c-3-1.35-6.48.11-9.21,1.51.67.38,1.39,1.49.42,2-1.15.44-2.88-.78-2.32-2.05a9.59,9.59,0,0,0-10,3.78c-.3,1.45,1.17,2.44,2.17,3.17a.86.86,0,0,1,.06,1.55c-2.42.68-4.66,2.63-4.24,5.33,0,1.37-1.23,2.16-2.42,2.51A.47.47,0,0,1,110.1,20.08ZM126.89,5.2a.93.93,0,0,0,.22,0h0a1.81,1.81,0,0,0-.78-.72.29.29,0,0,0-.1.12.31.31,0,0,0,0,.08A1.21,1.21,0,0,0,126.89,5.2Z"/><path d="M94.19,37.89c-2.54-1.51-.89-4.76.77-6.3-4.73-1.13-3.64-5.88-.91-8.57-1.87-5.61,6.88-8.11,10.34-4.63,2.58,2.27.38,4-1.6,5.51a.58.58,0,0,1-.82-.09.59.59,0,0,1,.09-.83A17.49,17.49,0,0,0,104.31,21c.31-.58-.39-1.08-.8-1.38-2.23-1.43-6-1-7.12,1.63,1.31-.66,3.27-.48,4,1,.93,2.85-3.5,3.55-5.19,2.08-1,1.33-2.34,4.1,0,4.8,1.14.51,3.22-.34,3.8,1,.28.87-.64,1.2-1.19,1.62-1.15,1-2.59,2.37-2.57,4,.24.4.74.52,1.1.7a1,1,0,0,1-.61,1.93A5,5,0,0,1,94.19,37.89Zm3.27-15.11A2,2,0,0,0,99,22.72a.72.72,0,0,0-.11-.19h0l-.07-.06.07.05a1.28,1.28,0,0,0-.58-.27,2.19,2.19,0,0,0-1.32.33A3.07,3.07,0,0,0,97.46,22.78Z"/><path d="M90.55,45.55c-2.94-2-.57-5.28,2.11-5.92a4.29,4.29,0,0,1,2.14-2.48c.23-.14.45.23.22.37a4,4,0,0,0-1.88,2c1.16-.37,3.53.86,2,2-1,.63-2.49.37-2.59-.95-1,.45-2.33,1.47-2.09,2.7v0a.64.64,0,0,0,0-.07c.63,1.53,2.66,1.68,4,2.27A.81.81,0,1,1,93.87,47,14.63,14.63,0,0,1,90.55,45.55Zm3-4.25.19.05a1.63,1.63,0,0,0,.85-.18c.62-.25.41-.6-.09-.78a2.34,2.34,0,0,0-1.48,0,.91.91,0,0,0,.4.8Z"/><path d="M127.34,38.94V39l-.24,0Z"/><path d="M131.65,58.07l-.22.12A.17.17,0,0,1,131.65,58.07Z"/><path d="M151.84,53.54c-2-.74-1.23-2.68-.15-3.91-3.86.17-7.63-1.68-2.95-4.84-.17-.35.95-.7.78-.16-.76,1-2.34,1.48-2.56,2.78.48,1.94,3.65,1.8,5.24,1.77a.22.22,0,0,1,.23.37c-.63.69-1.78,2.17-1,3a4.28,4.28,0,0,0,1.78.76.28.28,0,0,1,.18.35.27.27,0,0,1-.34.18A8.22,8.22,0,0,1,151.84,53.54Z"/><path d="M146.39,68.25c-1.79-1-2.43-2.75-.48-4.06-.09-1.9,2.05-3.13,3.65-3.64-1.32-1.65,1.24-3.67,2.33-4.75-2.55-1-2.61-3.37.26-3.85a2.06,2.06,0,0,1,1-2.32.29.29,0,1,1,.27.52,1.28,1.28,0,0,0-.57,1.71c2.1-.1,1.69,2.27-.14.87a4.12,4.12,0,0,0-1.42.53c-1,.7.71,1.64,1.29,1.92,1,.3,0,1.12-.4,1.48a10.93,10.93,0,0,0-1.44,1.68c-.5.74-1.1,1.55,0,2,.32,0,.83.2.62.58s-.49.23-.74.17a4.14,4.14,0,0,0-3.91,2.68c1-.4,2.85.07,2.52,1.42-.64,1.25-2.6.57-3.15-.46a1.42,1.42,0,0,0-.54,2,8.37,8.37,0,0,0,1.18,1,.28.28,0,0,1,0,.38A.27.27,0,0,1,146.39,68.25ZM147.66,65c.51.25,1.46.08.72-.54a1.76,1.76,0,0,0-1.52-.1A1.57,1.57,0,0,0,147.66,65Z"/><path d="M145.34,67.81a1.59,1.59,0,0,1,.23-2.71c-.61-2.55-.23-5.76,1.84-7.55,1.4-1,3.22-.73,4.81-1h0a39.86,39.86,0,0,1-1.49-4.84A31.52,31.52,0,0,1,149.17,47c-.23-1.55-2.08-1.9-2.52-3.29-.07-.29-.13-.79.27-.84s.38.38.44.66c.4.95,1.55,1.23,2,2.13.81,1.73,1,3.69,1.82,5.41.46,1.83.84,3.65,1.46,5.42a.57.57,0,0,1-.55.49,27.76,27.76,0,0,0-3.41.51c-2.72.94-3.1,4.87-2.61,7.29.52-.3,3.15-.29,2.11.27a4.71,4.71,0,0,0-2,.15c.11.82.62,1.78.15,2.56A.72.72,0,0,1,145.34,67.81Zm.44-.28c.63,0-.05-1.56-.09-2a1.08,1.08,0,0,0,.11,2Z"/><path d="M107.94,18.7a1.19,1.19,0,0,1-.54-1.06,2.59,2.59,0,0,1,.27-1.28c-.21-1.18-.57-2.51,0-3.64,1-1.49,3.12-2.05,4.8-2a.47.47,0,0,1,.66.52c-.35,1.37-1.68,2.18-2.72,3a5,5,0,0,0,.11,1.54c.88,0-.56,1.93-.55-1.18a7.21,7.21,0,0,0-1.56,1.85C108.48,17.05,109,18.83,107.94,18.7Zm.29-3.49,0,.2a8.83,8.83,0,0,1,1.82-1.79,3.44,3.44,0,0,1,1-2C109.06,12.11,107.75,12.91,108.23,15.21Zm2.39-2a6.38,6.38,0,0,0,1.87-1.86A3,3,0,0,0,110.62,13.23Z"/><path d="M99.4,50.8C97.35,49.63,98,47,99.25,45.5c-4.38-1.64-4.8-9.75.18-10.7a.67.67,0,0,1,.45.14.26.26,0,0,1-.35.39c-3.1.56-3.56,5-2.14,7.32a5.38,5.38,0,0,0,2.92,2.21.45.45,0,0,1,.37.34.48.48,0,0,1-.23.52,4.39,4.39,0,0,0-1.4,2.7,2.48,2.48,0,0,0,1.22,2,.34.34,0,0,1-.23.61A1.63,1.63,0,0,1,99.4,50.8Z"/><path d="M103,81.05c-2.66-1-1.56-3.53.18-4.88a6.06,6.06,0,0,1-4.32-4.71c-2.28,1.33-4.68-1.47-5.17-3.54-.92-3.56,1.84-6.75,4.85-8.26a4.48,4.48,0,0,1-.93-6.84c.33-.29.6-1.18,1.13-.87.43.49-.66,1.15-.84,1.58a3.47,3.47,0,0,0-.51,3.61,4.51,4.51,0,0,0,2.25,2.1.49.49,0,0,1,.26.83,4.48,4.48,0,0,1-.6.35A13.1,13.1,0,0,0,97,62.18c1.58.63,3.16,2.76,2.23,4.45a3,3,0,0,1-4.7.4c.32,1.65,1.74,3.4,3.5,3.42H97.9c.78-.17,1.64-1,1.76.38a5.41,5.41,0,0,0,4.33,4.7c.42,0,.75.48.36.78-.18.14-.37.26-.54.4-.68.66-2,2-1.2,2.92a2.7,2.7,0,0,0,.82.61A.46.46,0,0,1,103,81.05ZM96.18,66.6a2.11,2.11,0,0,0,.59.11c.69,0,1.6-.38,1.76-1.1a3,3,0,0,0-2.08-2.9c-1,1.1-2.11,3.16-.18,3.92Z"/><path d="M104.29,85.7A4.53,4.53,0,0,1,104,79a.76.76,0,0,1,.74-.07,1.41,1.41,0,0,1,.47.53.21.21,0,0,1-.37.21,2.72,2.72,0,0,0-.16-.25c-.41-.36-.83.6-1,.9-.94,2.44.92,5.69,3.74,4.4.16-.82,1.16-1.72,2-1.16.57.43.3,1.24-.18,1.63,1.08,0,2-.76,3-.91h0c.31.21.62.42.94.62.15.17.28.36.44.51a1.29,1.29,0,0,0,.48,0c.33.16.67.32,1,.46a5.59,5.59,0,0,0,1.13.32.77.77,0,0,1-.16.15c-1.26.93-3.36,1.41-4.17-.31-1.29.46-3.07,1.23-4.18,0a4,4,0,0,1-2.82,0A3.28,3.28,0,0,1,104.29,85.7Z"/><path d="M120.51,82.84a2.11,2.11,0,0,0-.87-1.12,2.4,2.4,0,0,0-.93-.43h0c-1.16-1.11-2.25-2.31-3.4-3.4A61.51,61.51,0,0,1,107,67.08c-.31-.52-.64-1-1-1.56l0-.12a.14.14,0,0,1,0-.06,5.81,5.81,0,0,0-1.06-3,2.85,2.85,0,0,0-1.8-1.33v0l0,0,0,0a4.09,4.09,0,0,1-.25-.46h0l0,0v0c-.15-.34-.31-.67-.48-1s-.23-.39-.36-.58-.4-.58-.59-.88h0s0,0,0,0h0v0h0a10,10,0,0,1-.53-1h0c0-.11-.09-.22-.14-.33a1.42,1.42,0,0,0-.08-.18,1.77,1.77,0,0,0-.12-.17l-.12-.19h0l-.25-.42c0-.09-.07-.17-.11-.26l-.2-.41-.12-.51c-.07-.25-.14-.5-.22-.75s-.07-.23-.11-.34a1.42,1.42,0,0,0-.08-.18A.35.35,0,0,0,99,53a38.47,38.47,0,0,1-1.47-6.37c-.22-1-.51-1.88-.8-2.81a.88.88,0,0,1,.54-1c2.24-.66,2.65,8.09,3.77,9.69,1.67,4.21,4.27,8,6.6,11.8a102.36,102.36,0,0,0,6.58,10.07,68.34,68.34,0,0,0,5.23,5.78c1.32,1.37,2.63,2.89,4.52,3.43a10.2,10.2,0,0,0,9.63-2.72.61.61,0,0,1,.05-.12.35.35,0,0,1,0-.08A9.05,9.05,0,0,1,129.46,83c-.14.15-.43,0-.36-.25s.34-.14.51-.19c2.16-.49,3.66-2.17,5.14-3.69,2-1.94,3.79-4,5.72-6a.46.46,0,0,1,.68.48,8.43,8.43,0,0,1-1.42,2,.36.36,0,0,1-.15.38c-1.74,1.86-3.4,3.8-5.24,5.56a11.27,11.27,0,0,1-11.92,2.84A13.16,13.16,0,0,1,120.51,82.84Z"/><path d="M102.09,33.47c-1.35-1.7.5-3.79,2-4.65a2,2,0,0,1,.07-.23,2.22,2.22,0,0,1,.23-1.65c-.6-2.21,1.27-4.43,3-5.64a6,6,0,0,1-1.7-.9.21.21,0,0,1-.07-.29.22.22,0,0,1,.29-.07,6.06,6.06,0,0,0,2,1c1.06-.59,1.09.71,0,.45-1.67,1-3.32,2.9-3.19,5l.09-.11a3.32,3.32,0,0,1,.37-.38c-.16-1.42,1.69-3.46,3.17-3.15.33-.79,1.66-1.26,2.2-.44a2.38,2.38,0,0,1-.82,3.23c-.12.89-.39,1.71-.49,2.59-.3.95-1.34,1.93-2.39,1.5-.6.22-1.16.67-1.84.59a1,1,0,0,1-.93-1c-2.36,1.44-3.13,4.52.41,4.7a.22.22,0,0,1,0,.43A3,3,0,0,1,102.09,33.47Zm2.79-3.65.08,0,.06,0h.11l.19,0-.21-.07a1.47,1.47,0,0,1-.58-.47A.61.61,0,0,0,104.88,29.82Zm.63-.76a1.17,1.17,0,0,0,.74,0,1.05,1.05,0,0,1-.06-.24v-.07a2.12,2.12,0,0,0-1,.08h0A.79.79,0,0,0,105.51,29.06Zm-.57-.61a2.58,2.58,0,0,1,1.29-.13,2.22,2.22,0,0,1,.4-.76,3.51,3.51,0,0,1-1.21,0,6.41,6.41,0,0,0-.54.65l0,.08S104.93,28.41,104.94,28.45Zm2,.23a5,5,0,0,0,1.57-1.75A2.78,2.78,0,0,0,107,28.68ZM105.2,27l.17,0,.37-.33a.66.66,0,0,1-.17-.12l0,0h0l-.26.3h0A.83.83,0,0,1,105.2,27Zm.75.11h0l.48-.05h0c.24-.05.47-.1.71-.17h0l.06,0a2.85,2.85,0,0,1-.51.07,2.11,2.11,0,0,1-.5,0Zm.36-1,.06,0,.09,0c.21-.18.42-.36.62-.55a2.77,2.77,0,0,0-.91.45A.42.42,0,0,0,106.31,26.09Zm1.08-.22a2.09,2.09,0,0,1-.22.2,4.61,4.61,0,0,0,.93-.32,1.35,1.35,0,0,0-.33-.18l-.07,0Zm-1.31-.58a2.58,2.58,0,0,1,1.6-.38,2.53,2.53,0,0,0,.54-1.36c-.06,0-.21,0-.26,0l-.24.05-.09,0A3.66,3.66,0,0,0,106.08,25.29Zm2.32-.08a1.94,1.94,0,0,1,.26.23h0l.08,0,.22-.14a3,3,0,0,0-.37-1.4c0,.14-.06.29-.1.43a3.05,3.05,0,0,1-.38.74A1.17,1.17,0,0,1,108.4,25.21Zm.94-1.55a4.2,4.2,0,0,1,.22.55c0,.17.08.33.11.5a2.15,2.15,0,0,0,.63-1c.1-.46.08-1.18-.43-1.37a1.13,1.13,0,0,0-1.13.59A1.82,1.82,0,0,1,109.34,23.66Z"/><path d="M99.41,51.87a3.28,3.28,0,0,1-1.31-2.3c-1.55-1.23-.66-3.6,0-5.09.29-.51,1.35-2.52,2-1.5a9.37,9.37,0,0,0,2.19-3.33c-2-1.47-2.61-3.7-.94-5.71.6-.7,1.39-1.89,2.44-1.68a1.13,1.13,0,0,1,1.47-.74,3.84,3.84,0,0,1,.4.21c.23.14,0,.5-.23.36s-.68-.35-1-.09c-1.24,1.43.27,3.28.53,4.83.33,1.71-1,2.1-2.46,1.85,2,1.3-1.72,4.84-2.66,6.06a.56.56,0,0,1-.93,0c-.22-.41.2-.78.33-1.13-1,1.39-1.92,3.41-1.2,5.07h0C98,46.85,100.37,45,101.52,47c.62,1.51-1.25,3-2.68,2.83a2.74,2.74,0,0,0,1,1.51A.33.33,0,0,1,99.41,51.87Zm-.66-2.67a2.23,2.23,0,0,0,2.18-1.08.93.93,0,0,0-.86-1.43,1.24,1.24,0,0,0-.54.22,2.54,2.54,0,0,0-.8,2.27l0,0Zm3.1-11.4c4,.91,2.15-1.45,1.73-3.81a27.8,27.8,0,0,0-1.81,3.46C101.75,37.56,101.7,37.76,101.85,37.8ZM101.2,37c.62-1.52,2-2.73,2.42-4.3-.37-.22-.82.39-1.08.61C101.69,34.3,100.75,35.63,101.2,37Z"/><path d="M94.37,72.09a4.73,4.73,0,0,1-.53-6.25,10.7,10.7,0,0,1,2.06-4c0-.89,1.17-1.32,1.62-2,1.63-1.6,2.6-4.72.25-6.13l0,0c.5.65,1.56,1.8.69,2.52-.94.24-1.94-.54-2.69-1-1.54-1.25-2.93-3.94-1.41-5.67-.64-1.94-.8-3.88,1.88-2.71.25.11.07.5-.18.39-2.22-1-1.74.54-1.34,2,2.31-1,3.7,2.12,3.2,4,2.8,1.47,2.16,5.07.47,7.18-.48.68-1,1.59-1.86,1.83a10.17,10.17,0,0,0-1.44,2.47c2.06-1.37,4.31,1.05,4,3.14-.68,3.25-4.81,3.31-5.39-.06-.35,2.28,1.25,4.76,3.75,3.9.4,0,.8-.64,1.14-.24a.35.35,0,0,1-.08.49A3.42,3.42,0,0,1,94.37,72.09Zm1.47-2.73a2,2,0,0,0,2.45-1.61A2.75,2.75,0,0,0,97,65.27,2.15,2.15,0,0,0,94.7,66C94.38,67.2,94.59,68.79,95.84,69.36Zm1.67-13.72.58.19h.08c.24-.57-.37-1.18-.66-1.63-1,1.09-2.72-3.41-3-4.14C93.27,52.24,95.45,54.93,97.51,55.64Zm-.31-2.7.18.1c.39-1.51-.67-4.24-2.54-3.29A13.87,13.87,0,0,0,96,52.27C96.41,52.38,96.75,52.79,97.2,52.94Z"/><path d="M99.84,75.55A4.25,4.25,0,0,1,98,71.15c.13-.3,0-1.1.47-1.07a.22.22,0,0,1,.15.26,4.12,4.12,0,0,0,.44,3.87,8.2,8.2,0,0,0,1,1,.23.23,0,0,1,0,.3A.22.22,0,0,1,99.84,75.55Z"/><path d="M104.69,89a3.4,3.4,0,0,1-1.46-4.6c-4.51.61-4.11-4.4-2.19-7a3,3,0,0,1-2.51-4C96.16,73.92,95,70.89,95.2,69c.18-1.54,1.35-3.75,3.16-3.49a.28.28,0,0,1-.09.56,1.86,1.86,0,0,0-.34,0,1.72,1.72,0,0,0-1,.59,4.17,4.17,0,0,0,0,5.68,1.43,1.43,0,0,0,2.27-.18.41.41,0,0,1,.56.52c-.74,2-.13,3.78,2.22,3.63a.65.65,0,0,1,1,.85c-.86,1.31-2.52,4.22-1.12,5.53a3,3,0,0,0,2.33-.08c.43-.07.7-.46,1.14-.5a.7.7,0,0,1,.77.62.74.74,0,0,1-.26.64c-.1.13-.29.19-.39.32s-.22.35-.26.42c-2.32,4.24,2.38,4.39,5.07,2.8.58-2.49,3.44-.82,1.42.82,1.13.94,2.75.56,4,.16a.49.49,0,0,1,.57.31c.28.94-2.15,1.18-2.81,1.24a3.62,3.62,0,0,1-2.88-1C108.79,89.2,106.57,89.87,104.69,89Z"/><path d="M117,87.65c-.53-.37-.92-1.2-.42-1.75.16-.15.49-.41.65-.14s-.19.31-.33.44c-.33.58.45,1.18,1,1.09a5.77,5.77,0,0,0,3.47-2.7c.15-.34.31-.84.71-.94-5.49-2.19-7.81,1.31-8.61-6.43a2.8,2.8,0,0,0-.4-1.21c-.21-.47-1.29-.62-1.14-1.15.21-.38.62,0,.89.09a2.88,2.88,0,0,1,1.52,2.32c.4,1.38.32,3.2,1.45,4.19,3.08.62,6.52.66,9.09,2.75,1.64.12-.09,2.35-.81,2.73a1.81,1.81,0,0,1-2.92-1C120.13,87,118.57,88.4,117,87.65Zm5.49-1.19c.83.16,1.54-.53,2-1.14a.72.72,0,0,1-.09-.2.75.75,0,0,1,0-.2,6.9,6.9,0,0,0-2.06-1.18c.37.27,0,.7-.19,1C121.91,85.34,121.78,86.17,122.52,86.46Z"/><path d="M114.08,80.47a3.3,3.3,0,0,1-1.48-3.19c-2.21,0-1.75-1.09-2.21-2.64-.53-.78-1.54-1-2.27-1.51-2.16-1.33-3-4.06-2.81-6.48a3.26,3.26,0,0,1-1.09-.69l-.21-.2a3.11,3.11,0,0,1-2.25-2.69c.07-1.6,1.42-1.11,2.22-.32l.21-.18a1.11,1.11,0,0,1,.3-.17c-.06-.74.26-1.6-.07-2.29-1.47-.83-3.22-1.34-4.14-2.91a2.15,2.15,0,0,0,.59.92.21.21,0,0,1,0,.3.23.23,0,0,1-.3,0,2.22,2.22,0,0,1-.75-1.6c0-.12.11-.27.25-.26.47,0,.66.6,1,.9,2.42,2.93,4.55.1,4.88,5.17a1.08,1.08,0,0,1-.18,1.84c.14.17.28.35.41.53a4.92,4.92,0,0,1,.37.56.68.68,0,0,1,1,.51c.08.42-.35.57-.51.9.07.57-.32,1.27-1,1.17a6.08,6.08,0,0,0,2.34,4.45c1,.74,2.59,1.15,2.65,2.62.08.58.06,1.29.71,1.48,1.6.2,1.46-.37,1.85,1.46a2.82,2.82,0,0,0,1.4,1.68.46.46,0,0,1-.25.88h0A1.5,1.5,0,0,1,114.08,80.47ZM103.36,64.35a2.17,2.17,0,0,1,0-.67c-.22-.2-.45-.4-.69-.58A1.84,1.84,0,0,0,103.36,64.35Z"/><path d="M142.35,39.54c-1.63-.89-1.15-2.93-1.67-4.39h0c-2.08.39-5.24,1.84-6.53-.68-2.39.48-5.33-.58-5.75-3.23-3.18,2.35-5.17-.09-5.16-3.4-2.21.86-5.44.33-4.92-2.68-3.52,1.66-6.88-1.55-5.1-5.11.43-.82,1-2.21,2.18-2a.24.24,0,0,1-.14.46.31.31,0,0,0-.23,0,1.81,1.81,0,0,0-.65.64c-1.81,2.44-1,5.91,2.51,5.41a5.43,5.43,0,0,0,1.91-.87.63.63,0,0,1,1.09-.08.64.64,0,0,1,0,.63,3.37,3.37,0,0,0-.15,1.33,1.8,1.8,0,0,0,.13.43,1.11,1.11,0,0,0,.29.32l0,0,0-.05c1.34.94,3.07-.8,4.33,0,1,1.13.06,3.28,1.42,4.2h0l-.06,0c1.16.28,2.2-.81,2.9-1.6a.73.73,0,0,1,1.31.62c-.88,2.6,1.64,4.05,3.94,3.69.25-2.86,3.63.09,1.34,1.08,1.05,1,2.68.34,3.88.08.77-.2,1.82-.67,2.42.09.86,1.15.23,2.93,1.24,4a3.49,3.49,0,0,0,1.67.61.51.51,0,0,1,.42.58C144.69,40.48,142.89,39.82,142.35,39.54Zm-7.48-6.41.14,0a1.28,1.28,0,0,0-.11-.2.76.76,0,0,0,0,.21v0Z"/><path d="M151.36,50.65c-2.1-1-1.36-3.8-2.47-5.41-.66-.76-1.69-1.07-2.4-1.77a2.76,2.76,0,0,1-.65-2.83c.11-.24.08-.79.44-.75a.21.21,0,0,1,.15.27,6.82,6.82,0,0,0-.3,1.16c-.21,1.62,1.33,2.37,2.48,3.09a3.27,3.27,0,0,1,1.3,2.35c.19,1.24.34,2.81,1.59,3.41a1.41,1.41,0,0,0,.6.1.25.25,0,0,1,0,.5A1.65,1.65,0,0,1,151.36,50.65Z"/><path d="M91.43,44.44a3.4,3.4,0,0,1-1.07-1.19,3.12,3.12,0,0,1-.18-.42c-4-.27-3.17-6-.12-7.22-1.54-3,1.33-7.52,4.6-7.7h0c-3-3,2.1-6.73,5-7a5.18,5.18,0,0,1,1.67-2.38c-.94-.64-1.92-2.13-.9-3.11,1.29-1.38,5.59-2.47,5.32.54-.09.26-.36,1-.72.77a.22.22,0,0,1,0-.3,1.15,1.15,0,0,0,.26-1.27c-1-1.51-3.52-.37-4.53.63-.67.88.35,1.93,1.08,2.39.81-.71,3.83-1.22,3.81.38a.64.64,0,0,1-.41.36,4.55,4.55,0,0,1-3.21,0,4.75,4.75,0,0,0-1.43,1.91c1.18-.1,3.85.65,2.94,2.24-1.2,1.12-3.64.55-3.92-1.18a6.41,6.41,0,0,0-4.74,4c0,1,1,1.66,1.71,2.18.49,0,1.56.55.83,1.05a3.05,3.05,0,0,1-2.08-.7c-3.17-.47-6.21,4.32-4.49,7,.87-.21,2.37,0,2.54,1.06-.25,1.12-2.17.36-2.74-.16-2.13.72-3.33,4.86-.58,5.46,0-1.27,1.09-2.77,2.48-2.53,2.27.76.12,3.15-1.33,3.48.71,1.57,2.58,1.58,4,1.27a.44.44,0,0,1,.6.28.41.41,0,0,1-.3.49C94.17,45.05,92.64,45.33,91.43,44.44ZM91,41.58h0a3.65,3.65,0,0,0,1.39-.94c.43-.46-.14-.73-.53-.48A1.83,1.83,0,0,0,91,41.58Zm10.26-19a2,2,0,0,0,1.56-.11,2.74,2.74,0,0,0-2.36-.72,1.3,1.3,0,0,0,.39.59l.26.17.21.09Zm1.29-4.06a4.33,4.33,0,0,0,2.52-.14h0A2.42,2.42,0,0,0,102.57,18.48Z"/><path d="M95.27,60.35a.54.54,0,0,1-.07-.75A24.08,24.08,0,0,0,97.41,57h0c-.87-.6-1.9-1.34-1.89-2.51-3.25,1.33-5.72-1.34-4-4.43-6.33-.83,1-7.82,4.42-6.73a.21.21,0,0,1-.07.42,3.39,3.39,0,0,0-1.84.09c-1.71.53-5.34,2.87-4.35,5a2.19,2.19,0,0,0,2.13.82c2-2.6,4.78-.65.59.35-1.77,2.94.47,5,3.42,3.53.7-1.37,2-.31.63.51-.45,2.24,3.85,1.65,1.19,4.49L96,60.28A.54.54,0,0,1,95.27,60.35Zm-2.38-11a6.4,6.4,0,0,0,1.24-.59A1.82,1.82,0,0,0,92.89,49.39Z"/><path d="M145.34,81.49c-.23-1-.48-2-.68-2.94a.41.41,0,0,1,.15-.46c.19-.7.07-1.86.28-2.31-.1-.72.59-6.36,1.6-5.84a.22.22,0,0,1-.08.35,7.22,7.22,0,0,0-.72,2.34,18.32,18.32,0,0,1,1-2.7.3.3,0,0,1,.56.13,4.3,4.3,0,0,1-.18.85,1.53,1.53,0,0,1,.23,1.09,28.2,28.2,0,0,0,0,3.44.77.77,0,0,1,.16.7,36.6,36.6,0,0,0,0,5.13,29.14,29.14,0,0,1,1.26,3.87,23.87,23.87,0,0,0-2.39,1.5C145.81,85.07,145.83,83.14,145.34,81.49Z"/><path d="M126.06,92.66c-.27-1.43-.38-3,.2-3.24,0-.29,0-.56,0-.85-.48-.27-.1-.94.37-.9-.08-.47-.91-2.11-.06-2.12.17.08.11.27,0,.41a2.78,2.78,0,0,0,.15.75,16.86,16.86,0,0,1,.88,6.2l-.59.19Z"/><path d="M98.43,67.17c-1.89-1-2.4-3.57-1.69-5.48-.6-2.12,1-4.93,3.28-5.15,1.35-.14,2.92,1.35,1.94,2.63,1.34,1.23.46,3.2-.92,4-.06.42.32.6.62.81a2,2,0,0,1,1,1.89C102.44,67.86,99.84,68.06,98.43,67.17Z"/><path d="M97.45,75.21c-1.18-1.35-.63-3.41.64-4.52a1.38,1.38,0,0,1,1.23-.82,2.52,2.52,0,0,0,.3-.27.48.48,0,0,1,.8.5c.86.21,1.85.92,1.56,1.92-.48,1.36-2.16,3-3.66,2.17C99,75,98.23,76.05,97.45,75.21Zm1.68-2.14a1.29,1.29,0,0,0,.88-.28c.44-.38,1-.74,1.08-1.32-.31-.53-1.34-.79-1.74-.27h0a3.32,3.32,0,0,0-.4,1.62C99,73,99,73,99.13,73.07Z"/><path d="M102.73,85.64a3.47,3.47,0,0,1-1-1.6,3.3,3.3,0,0,1,0-1.68c-1.35-1.26-.93-3.58.36-4.72-1-.4-1.81-1.73-.91-2.65a.46.46,0,0,1,.75.54c-.16.22-.31.45-.13.71l0,0a0,0,0,0,1,0,0,1.63,1.63,0,0,0,.92.81c.32.14.66-.1,1,0a.38.38,0,0,1,.08.66c-.14.1-.32.08-.45.15a2.06,2.06,0,0,0-.46,2.83c2.81-1.74,4.85,2.09,1,2.39-.18,1.29,1.18,1.9,2.22,2.12.42,0,1,.17,1,.66C106.73,87.39,103.5,86.49,102.73,85.64Z"/><path d="M109.6,84.65c-1.95-1.26,1.09-3.38,1.79-1.41a13.6,13.6,0,0,0,1.71.34c.27-.54,1-.25,1.35,0a11.12,11.12,0,0,0,2.59,1c.34,0,1.09.14,1-.38-.49-.36-.9-1.07-.48-1.62a8.92,8.92,0,0,0-4.62-1,12.55,12.55,0,0,1-2.12-.78c-3.12-1-7.43-4.54-2.37-6.4a10.19,10.19,0,0,1-2-1.5,1.93,1.93,0,0,1-1.58.66c.19.72,1.36,1.49.63,2.21-1.11.76-2.13-1.92-2.24-2.75-2.28-1.19-2-5,.64-5.45,2-.33,6.85,2.23,4.14,4.34.71.73,1.55,1.31,2.31,2a.6.6,0,0,1,.1.63c-.17.4-.6.41-1,.3-.91.24-2.52.67-2.54,1.75.49,2.63,3.64,3.36,5.79,4.09.14,0,.32.07.44,0a1.79,1.79,0,0,1,1.17-.53c2.1.07,4.7,1,5.63,3a1.06,1.06,0,0,1-.78,1.48c-.38,1.69-2.55,1.32-3.68.64a.25.25,0,0,1,0,.07.85.85,0,0,1-.67.35h0A14.5,14.5,0,0,1,109.6,84.65ZM104.75,72a.84.84,0,0,0,.26.07l.11,0c.16,0,.38,0,.48-.14a1.05,1.05,0,0,1-.13-.49c-.15-.17-.46-.37-.63-.12h0a1.46,1.46,0,0,0-.24.6l0,0,.23.08A.29.29,0,0,1,104.75,72ZM103.56,71a1.51,1.51,0,0,1,2.46-.43c.42-.19.79.16,1.2.18,1,0,.36-.9-.14-1.18-.93-.5-2.39-1.2-3.32-.39A1.49,1.49,0,0,0,103.56,71Z"/><path d="M106.63,81.44a10.44,10.44,0,0,1,.7-6,1.48,1.48,0,0,1,2.77,1.06,11.19,11.19,0,0,0-1,4.89A1.27,1.27,0,0,1,106.63,81.44Z"/><path d="M110.43,82.43a.76.76,0,0,1,.74-.68h0a1.18,1.18,0,0,0,.19-.31c.33-2-1.91-5-3.75-5.6-1.25.75-1.63-1-.2-1,1.4-.85,3.4-2.44,4.9-.93,1.06,1.25,1.2,3,1.39,4.55a.39.39,0,0,1-.78.08,9.71,9.71,0,0,0-1-4l-.12-.15-.06-.06c-1-.82-2.2.18-3,.74,2.19,1.23,4.22,3.71,4.18,6.32a2,2,0,0,1-1.25,1.74A.82.82,0,0,1,110.43,82.43Z"/><path d="M115.32,82.62c-2.64-1.68.39-5,2-2.31.93.53,2.34,1.22,1.73,2.53S116.22,83.25,115.32,82.62Z"/><path d="M118,20.53c-2.85-1.54-1.57-6.77.88-8a1.13,1.13,0,0,1,1.52,1.11c-.09.47-.12,1.07-.69,1.21-1.26,3.35.09,3.77,2.33,1.3-.13-2.16,2.61-2.06,2.88,0C125.14,19.19,120.72,22.11,118,20.53Z"/><path d="M119.13,19c-1.75-1-1.67-3.19-.59-4.63a.71.71,0,0,1,.95-.28c1,.66-.39,1.6-.37,2.43v-.1c.07,2.11,3.61,1.53,5,1.3a.94.94,0,0,1,1.07.75C125.36,20.44,120.14,19.82,119.13,19Z"/><path d="M126.31,26a6.09,6.09,0,0,1-3.15-3.63,4.36,4.36,0,0,1,0-1.65.81.81,0,0,1,1.56-.19c2.38-1.65,5.13.29,6.5,2.32.7,1.05,1.67,2.07,1.79,3.37-.17,1.73-2.26,1.12-2.21-.41A4.86,4.86,0,0,1,126.31,26Zm.84-.92a4,4,0,0,0,2.47,0,23.29,23.29,0,0,1-2.89-.13h0A3.36,3.36,0,0,0,127.15,25.06Zm-1.24-2a16.06,16.06,0,0,0,4.15.27,5.12,5.12,0,0,0-3-2.48,2.39,2.39,0,0,0-2.34,1A1.43,1.43,0,0,0,125.91,23.05Z"/><path d="M129.83,27c-1.35-2.12-2.58-4.32-3.86-6.49a5.8,5.8,0,0,1,.07-7.41c.74-1.31,5.86-5.6,7-3.77a1.18,1.18,0,0,1-.56,1.65A18.22,18.22,0,0,0,129,13.89c-2.81,3-.38,4.94.7,8,.58,1.49,1.58,2.86,2,4.39A1.06,1.06,0,0,1,129.83,27Z"/><path d="M145,25.53c-2.12-3.4,3.13-6.05,5.77-6.9-1.09-1.55-2.89-2.75-3.33-4.68-2.32.67-5.23.44-7-1.31a3.43,3.43,0,0,1-2.32-1.05,3.14,3.14,0,0,1-.76-1.64c-2.65,1.73-6.63,1.41-8-1.72a6.44,6.44,0,0,0-3.57.63c-1.59.87-1,1.61.52,1.82a.34.34,0,0,1-.16.66c-.3-.07-.6-.14-.9-.23a1.3,1.3,0,0,1-1-1.64c.87-1.68,3.16-1.89,4.85-2.07-.43-2.41,2-4.68,4.23-5,2.47-.27,4.6,3.46,4.34,5.62,2-4.65,6.66-2.19,1.44.9a1.7,1.7,0,0,0,.58,1.55c.25-2.3,3.15-4,5.34-3.48,2.86,1.19,3.95,2.67.56,4.25a19.15,19.15,0,0,0,3.22-.13.94.94,0,0,1,.76,1.64c0,.68.54,1.18,1,1.66A24.42,24.42,0,0,1,154,18.61c2.54.91,5.3,3.65,4.83,6.53-.47,1.42-2,2.16-3.22,2.79a2.22,2.22,0,0,1-1.41.32c-1.85-.81.75-2.65.34-3.93,0,0,0,.08,0,.13-.4-1.38-1.52-2.46-2.22-3.7a9.06,9.06,0,0,0-5.21,3.32,3.66,3.66,0,0,0,1.5,1,1.08,1.08,0,0,1,.61,1.38C148.53,28,145.68,26.46,145,25.53Zm11.39-2.26a4,4,0,0,1,0,1.73,4.24,4.24,0,0,1-.5,1.21c.65-.37,1.4-.74,1.61-1.49h0A3.73,3.73,0,0,0,156,22.12,6.55,6.55,0,0,1,156.39,23.27Zm-26-15.87a10.3,10.3,0,0,1,4.48,1.45c2.37-.77.88-3.78-.25-5C132.8,2.32,129.36,5.44,130.34,7.4ZM143,10.56a12.75,12.75,0,0,0,3.55-1.39c-1.26-1-3.19-.14-3.84,1.19A.94.94,0,0,0,143,10.56Z"/><path d="M136.46,23.43c-.8-.53.46-2,1-2.34,4.25-2.67,9.82-.59,13.06,2.76a.52.52,0,0,1,0,.72c-.71.54-1.29-.69-1.86-1-2.87-2.38-8.28-4-11.13-1C137.29,23,137.07,23.73,136.46,23.43Z"/><path d="M145.7,46.77c-2.59-1.74-2.17-5.35-1-7.84a2.67,2.67,0,0,1-.75-5.14,1.85,1.85,0,0,0-.38-.41,7.57,7.57,0,0,1-5.1-.2,3.12,3.12,0,0,1-1.71-2.38c-4.83.11-8.65-5.49-5.32-9.54-1.43-3.35,2.13-6.89,5.39-7a9.21,9.21,0,0,1,1.95.24,1,1,0,0,1-.45,1.9c-2-.69-4.59.78-4.62,3,2.39-1.29,6.11-.64,7.34,1.94.6,1.61-1,3-2.37,3.45a5.76,5.76,0,0,1-5.51-1.11c-.5,1.74,1.28,3.05,2.83,3.25,1.26.22,2.55-.27,3.71.28h0a1.64,1.64,0,0,1,.11,2.72,11.37,11.37,0,0,0,3.46,1.44c1-.62,2.83-.64,2.38,1,1.07.68,2.28,1.86,1.77,3.24a1.43,1.43,0,0,1,1.11,2,7.09,7.09,0,0,0-1,2.58c-.13,1-.29,2.65,1,2.88,2.08-.13,3.89,1.31,2.64,3.4C149.9,47.91,147.27,47.87,145.7,46.77Zm-6.35-15a3.81,3.81,0,0,0,1.71.25c-.55-.66-1.58-.84-2-1.64a3.6,3.6,0,0,1-.58.2,1.31,1.31,0,0,0,1,1.23Zm-3.11-10a3.1,3.1,0,0,0,2.16-.14,3.25,3.25,0,0,0-3.12-.28A4.58,4.58,0,0,0,136.24,21.78Z"/><path d="M148.87,49c-2-1.63-2.71-5.59-.16-7a2.34,2.34,0,0,1,2,.1,1.6,1.6,0,0,1-.21,3c.39,1.64,2.37,1.74,3.35,2.87a1.41,1.41,0,0,1-.66,2.22A5.26,5.26,0,0,1,148.87,49Z"/><path d="M147.27,62.56c-3.71-2.32-.31-7,2.57-8.34a2,2,0,0,1-1.26-1.42c-.14-.83.15-2.34,1.29-2,1.7,1.07-1.5,2,2.82,2.29a.63.63,0,0,1,.31,1.2,5.34,5.34,0,0,0-2.72,1.83,3.54,3.54,0,0,0-.94,2.9,2.22,2.22,0,0,1,1.73,2.53C150.67,63.33,148.56,63.33,147.27,62.56Z"/><path d="M148.2,68.13a5.12,5.12,0,0,1-.92-4.09c.24-1.68,2.78-6.45,4.8-4.52a1.35,1.35,0,0,1-.18,1.88,4,4,0,0,0-1.28,5.42A1.38,1.38,0,0,1,148.2,68.13Z"/><path d="M152.15,75.81c-1.59-.79-2.05-2.72-2-4.35-1.52-1.75.17-3.86,1.6-5a1.82,1.82,0,1,1,1.9,3.08,2.34,2.34,0,0,1-1.49,2.53c.14.61.36,1.39,1,1.62l-.15,0a1.06,1.06,0,0,0,.32.08c1,.14,2.72-.24,2.81,1.24A1.22,1.22,0,0,1,155,76.2,6.64,6.64,0,0,1,152.15,75.81Z"/><path d="M160.19,75.37a3.09,3.09,0,0,1-1-3.07,2.16,2.16,0,0,1,4-.91,11.21,11.21,0,0,0,3.73-3.08,2.12,2.12,0,0,1,2.31-.83c.64.2.77,1,1.42,1.14,2.37.37,4.87-1,6.56-2.58.35-.37.49-.89.95-1.16.69-.33,1.38.33,1.42,1a13.83,13.83,0,0,0,2.95.08.73.73,0,0,1,.74.68c.12,1.24-3,.71-3.85.67-1.64,3.31-6.83,5.52-10.28,4C167.64,73.87,163.12,77.15,160.19,75.37Z"/><path d="M181.76,63.87a2.29,2.29,0,0,1-.25-2.53,2.21,2.21,0,0,1,1.06-1h0l.15-.06c-1.18-.74-3.33-1-3.58-2.63,0-.78.65-1.21,1.28-1.45a2.28,2.28,0,0,0,.45-.33,10.9,10.9,0,0,0,1.47-2.7.67.67,0,0,1,1.24.47,11.94,11.94,0,0,1-1.15,3.41c2.31.9,7.06,1.84,5,5.3a5.89,5.89,0,0,1-2.2,1.69A2.35,2.35,0,0,1,181.76,63.87Z"/><path d="M169.51,48.19c-3.8-2.32-2.88-5.42.64-7.4a.6.6,0,0,1,.7,1c-.73.8-2,1.53-1.95,2.74l0-.1v0a0,0,0,0,1,0,0,1.19,1.19,0,0,0,.31.61,7.37,7.37,0,0,0,4.94,1.87c-.79-2.26.5-5.07,3-5.33-.67-3.73,4-2.11,5.24-.22,1.69,1.8,1.05,4.36,1.86,6.48a.58.58,0,0,1-.38.71c-1.05.24-1.11-2.11-1.16-2.81a5,5,0,0,0-3-5.33c-1-.34-1.9-.12-1.44,1.06,5.73.07,2.73,5.08-.58,1.18a2.47,2.47,0,0,0-.79.52c-1.21,1.68.8,3.24,1.93,4.29,1.05,1.6-.83,2.77-2.3,2.13C174.15,49.5,171.59,49.54,169.51,48.19Zm10.44-5c.4.18,1.26.07.66-.44a2.7,2.7,0,0,0-1.84-.41,2.72,2.72,0,0,0,1.2.86Z"/><path d="M166.5,46.21c-4.22-5.35.92-7.6,5.86-7.64a.33.33,0,0,1,.35.32c-.06.65-1.38.26-1.82.43-4.21.62-7.28,2.25-3.61,6.32C167.71,46.16,166.85,46.78,166.5,46.21Z"/><path d="M158,65.42c-3.16-1.88-1.75-6.48,1.15-7.86,1.64-.86,3.5-.53,5.29-.35C163.14,54,164.3,47.7,168.22,47a1.64,1.64,0,0,1,1.47,1.78c0,1-1.12,1.27-1.61,2-1,1.8-.56,3.93.15,5.75.46,1,.85,2.53-.35,3.2-2.8,1-7.42-2.85-8.9,1.21a1.8,1.8,0,0,0,.1,1.62l-.06-.08,0-.08a2.38,2.38,0,0,0,1.19,1,1.4,1.4,0,0,1,.63,1.7C160.33,66.31,158.89,66,158,65.42Z"/><path d="M154.19,68.46c-3.76-4,0-8.09,4.7-7.81A1.1,1.1,0,0,1,160,61.7c-.09,2.24-4.25.15-4.85,2.93-.13,1.44,1.28,2.59,2.53,3,1,.45,3.06.24,3,1.8a1.16,1.16,0,0,1-1.26,1C157.55,70.26,155.53,69.93,154.19,68.46Z"/><path d="M161,64.51a5.45,5.45,0,0,0-.47-.37l-.09,0h0A1.14,1.14,0,0,1,160.2,62c1.47-.29,3-.21,4.5-.56,2-.35,3.87-.81,5.81-1.23.71-.16,1.74-.37,2.15.4a11.22,11.22,0,0,0,4-5.23,4.8,4.8,0,0,0-2.1.35c-.66.19-1.58,1.17-2.09.27-.41-1.35,2.84-1.76,3.77-1.82,2.25-.14,2,1.52,1.25,3-.57,1.83-4.69,7.43-6.73,5.22a52.64,52.64,0,0,1-8.13,1.69A1,1,0,0,1,161,64.51Z"/><path d="M166.49,62.54a4.35,4.35,0,0,1-2.71-4.67c.14-.94.57-2.16,1.71-2.18.45,0,.9.06,1.35.07a.89.89,0,0,1,.8,1c-.11,1-1.21.81-1.93.74a2.73,2.73,0,0,0,1.53,3.69A.79.79,0,0,1,166.49,62.54Z"/><path d="M160.34,67.81c-6.69-2.54,1.34-9.25,5.49-9a.55.55,0,0,1,.56.52c-.11,1-1.44.46-2.08.75a9.34,9.34,0,0,0-4.86,3.45c-1.16,1.67-.2,2.5,1.36,3.21A.57.57,0,0,1,160.34,67.81Z"/><path d="M159.79,65.54a6.68,6.68,0,0,1-1.91-4.33.4.4,0,0,1,.79-.08,6.53,6.53,0,0,0,1,2.71c.24.55,1.39,1.13.82,1.77A.48.48,0,0,1,159.79,65.54Z"/><path d="M163.07,61.11a3.82,3.82,0,0,1-.95-5,.36.36,0,0,1,.44-.2c.58.36-.29,1.27-.28,1.8a3.15,3.15,0,0,0,.55,2.18,1.65,1.65,0,0,0,1.26.82c.34,0,.9-.27,1,.21C165.15,61.68,163.43,61.45,163.07,61.11Z"/><path d="M156.89,62.54c-1.69-.93-.73-3.06.09-4.29a9.37,9.37,0,0,0-2.93-1.83,1.44,1.44,0,0,0-.75.08.6.6,0,0,1-.76-.7c1.58-3.62.73-7.76,1.67-11.57-.13-.59-.05-1.55.69-1.65-1.7-2.08.06-4.93,2.17-5.9s4.4,0,5.73,1.62a4.1,4.1,0,0,1-.45,6.16c-1.85,1.66-4.91,3-7.15,1.33-.79,3.2,0,6.62-1.2,9.71a5,5,0,0,1,1.35.6,23.45,23.45,0,0,1,2.12,1.46c2.52-3.4,5.9-3.48,8.64-.29a.56.56,0,1,1-.76.81c-2.4-2.76-4.81-2.68-6.94.29.92.86,1.72,2.27.94,3.46A1.91,1.91,0,0,1,156.89,62.54Zm.76-1.11v0a.68.68,0,0,0,.4,0h0c1-.44.43-1.64-.13-2.23-.31.6-.9,1.61-.51,2.13A.89.89,0,0,0,157.65,61.43Zm-.93-16.22c1.61.48,3.22-.37,4.52-1.27a5.8,5.8,0,0,1-5.62-.65c0,.32-.17.65-.08,1A1.78,1.78,0,0,0,156.72,45.21Zm.88-3.05c1.41.48,2.94-.08,4.24-.56a1,1,0,0,1,1.18.17c.54-2.23-1.7-4.46-3.85-4.59C156.52,37.19,154,41.26,157.6,42.16Z"/><path d="M157,52.71c-.07-1.14.92-1.77,1.9-2a4.14,4.14,0,0,0,2.64-3.86c-4-.47-7.35-4.69-6.16-8.67,1.61-4,3.91-4.24,6.57-.95.57.54-.26,1.42-.82.88-.78-.64-2.07-2.79-2.84-1.2a2.29,2.29,0,0,0-.12,1.7c.58,1.36,2.22,2,3.61,2.05,2-.18,4.47-1,5.74,1.09.87,1.08.09,2.9-.05,3.94-.28,1.78-.27,3.66-1.16,5.27-1.57,2.56-4.94,4.32-7.93,3.46A1.82,1.82,0,0,1,157,52.71Z"/><path d="M143.09,39c-1-1-2-5.44.24-5.37.45.12.72.53,1,.85A25.41,25.41,0,0,0,149,39.41a1.42,1.42,0,0,1,.26-.07c.92-.43,2.29-1,2.44-2.11-.52-2.09-2.49-3.54-3.8-5.1-1-.82-1-2.47.58-2.48a22.1,22.1,0,0,1,5-.59,8.2,8.2,0,0,1,6.7,5.46,1.12,1.12,0,0,1-2,.94,5.81,5.81,0,0,0-7.66-4.11c3,2.87,6.06,7.34.66,9.6a1,1,0,0,1,.16,1.36c-.88,1.09-2-.28-2.84-.76A6.43,6.43,0,0,1,143.09,39Zm2.77.33A24.93,24.93,0,0,1,143.23,36a4,4,0,0,0,2.36,3.23Z"/><path d="M152.57,35.27c-1.37-.77-2.56-2.57-1.72-4.12.68-1.19,2.46-2.49,3.61-1.14a1.64,1.64,0,0,1-.3,2.36c4.11,2.53,8.26-1.51,10.64-4.62.82-1.42,2.77-1.86,3.3,0,.74,3.37,5.24,2.16,7.14,4.27,1.89,2.35-.52,5-1.56,7.22a2.2,2.2,0,0,1-4.07-1.55,11.69,11.69,0,0,1,1.23-3,9.61,9.61,0,0,1-4.67-3.45C163.12,35.3,157.33,38.31,152.57,35.27Z"/><path d="M172.33,44.74c-2.4-1.9-2.47-5.12.38-6.62a1.82,1.82,0,1,1,1.61,3.25c.79.93,1.64,2.21.59,3.29A1.85,1.85,0,0,1,172.33,44.74Z"/><path d="M174.32,48.91C172,45.76,176.67,40.06,180,43a3.1,3.1,0,0,1,.08,4.43A3.12,3.12,0,0,1,174.32,48.91Z"/><path d="M132.38,23.29c-1.69-1.09-1.55-3.36-1.34-5.12.27-1.1,0-4.26,1.65-4.12a.35.35,0,0,1-.07.69c-.17-.06-.29,0-.35.2a13.94,13.94,0,0,0-.54,2.91c-.22,1.83-.51,4.68,1.82,5.14,2.11.32,3.82-1.25,5.47-2.32.32-.21.69.29.38.52a17.8,17.8,0,0,1-3.35,2.14A4,4,0,0,1,132.38,23.29Z"/><path d="M123.33,26.23c-2-1.1-3.51-2.87-5.2-4.38-.86-.77-2-1.65-1.71-2.94-5.13-1.41-1.15-8,3-6.66-2.85-4.47-8.51-.67-10.56,2.68l-.76,1a.21.21,0,1,1-.34-.25c2.44-4.28,9-9.18,12.44-3.16a.71.71,0,0,1,.44,1c.76,2.33-1.24,5.43-3.75,5.46-.24,1.32,1.1,2.07,1.92,2.9,2.3,2.06,5.3,5.83,8.72,4.14a.37.37,0,0,0,.12-.47,7.73,7.73,0,0,1-.75-1.94c-.24-2.52,1.6-4.78,3.52-6.2a11.34,11.34,0,0,1,3.15-6.4c.25-.23.49-.56.85-.61s.53.09.51.38c-.38,1.76-1.23,3.47-1.25,5.3,1.53-.17,4.84.11,5.1,2,.44,0,1.19.1,1.06.72s-1,.22-1.47.26c-2,2.62-7.36,2.71-7.92-1.09-2.32,1.85-3.91,4.71-2.2,7.49C128.3,27.56,124.47,27,123.33,26.23Zm-6.88-8.12.16,0c.7-1.81,2.2-3.19,3.43-4.63a4.38,4.38,0,0,0-.31-.7C116.63,11.51,112.38,16.54,116.45,18.11Zm.6.08A3.9,3.9,0,0,0,120.17,14,16.66,16.66,0,0,0,117.05,18.19Zm16.18,1.92a4.81,4.81,0,0,0,4.2-1c-2.7.49-4.48,1.26-4.66-2.39a7.79,7.79,0,0,0-1.68.78A2.71,2.71,0,0,0,133.23,20.11Zm1.18-1.54c1.27,0,2.51-.58,3.81-.52-.25-1.48-3.38-1.76-4.59-1.55C133.69,17.21,133.71,18.21,134.41,18.57Zm-3.28-1.66a8.07,8.07,0,0,1,1.64-.67,15.27,15.27,0,0,1,1.2-4.78A11.56,11.56,0,0,0,131.13,16.91Z"/><path d="M110.7,19.16a4.93,4.93,0,0,1-2.11-3.81c-.06-4.27,5.94-6.29,9.12-8A.31.31,0,0,1,118,8c-1.25.62-2.52,1.25-3.73,1.92a13.33,13.33,0,0,0-4.47,3.55,4.06,4.06,0,0,0,.89,4.91,6.65,6.65,0,0,0,3.42,1.09.32.32,0,1,1-.06.63A8.91,8.91,0,0,1,110.7,19.16Z"/><path d="M121.39,7.78c-3.22-6.36,8-5.8,10.88-3.27a.24.24,0,0,1-.33.35,2.51,2.51,0,0,0-1-.66c-2.33-1-8.2-1.93-9.59.75a3,3,0,0,0,.14,1.93c0,.31.52.76.17,1A.23.23,0,0,1,121.39,7.78Z"/><path d="M136.73,14.18a.31.31,0,0,1-.07-.44c.3-.37.61-.75.9-1.13,3.8-4.78-.27-6.7-4.71-7.51A7.46,7.46,0,0,0,131.22,5a.26.26,0,0,1-.28-.26.28.28,0,0,1,.26-.29c3.21.12,9.35,1.31,8.43,5.67a9,9,0,0,1-2.49,4A.31.31,0,0,1,136.73,14.18Z"/><path d="M137.08,26.81a5,5,0,0,1-2.13-3.4c-3.32.73-6.48-2.28-4.63-5.53.3-.35.48-1.38,1.06-1.19.53.39-.49,1.24-.6,1.73-1.38,2.82,1.4,4.95,4.1,4.36-.17-2,1.89-5.16,4.15-4.45a4.5,4.5,0,0,1,.68-.56l.26-.17c-2.86-2,.7-5.45,3.07-5.89A4,4,0,0,1,148,15.57c.53-.68,1.74-.51,1.6.48-.22.78-1.06,1.17-1.7,1.55h0a2.77,2.77,0,0,0,1.85,1.46,10.81,10.81,0,0,0,7.91-1,.21.21,0,0,1,.18.38c-2.8,1.4-8.43,2.59-10.33-.66l-.2.09c-.07.1-.13.2-.21.3a5.51,5.51,0,0,1,1.33,7.49c-1.52,2.37-5.22,3.67-7.46,1.58A4.45,4.45,0,0,1,137.08,26.81Zm1.3-.35a3.73,3.73,0,0,0,2,0c-1.34-2.5,1.37-5.66,3.9-5.84a1.3,1.3,0,0,1,1.22,1.23c0,2.16-1.74,3.93-3.5,4.94,2.26,1.4,5.28-.35,6.25-2.57a4.83,4.83,0,0,0-1.51-5.63,7.46,7.46,0,0,1-7.31,1.93,5.65,5.65,0,0,1-3.69,2.7A4.08,4.08,0,0,0,138.38,26.46Zm2.9-.3c1.63-.83,3.41-2.35,3.43-4.28-.11-.74-1-.47-1.4-.22a4.6,4.6,0,0,0-2.39,3.19A2.2,2.2,0,0,0,141.28,26.16Zm-5.66-3.54a5.13,5.13,0,0,0,3.26-2.36,1,1,0,0,1-.23-1.48l0,0h-.09C136.74,18.92,135.55,21,135.62,22.62Zm3.94-3.73a1.66,1.66,0,0,1,0,1.12,7.05,7.05,0,0,0,6.6-1.74,8.09,8.09,0,0,1-5.75-.38,4.66,4.66,0,0,0-1,.78A1.64,1.64,0,0,1,139.56,18.89Zm-.47.79a.94.94,0,0,0,0-.55A.45.45,0,0,0,139.09,19.68Zm2.37-1.95a8.29,8.29,0,0,0,4,.09,5.19,5.19,0,0,0-4.42-.23Zm-1-.42a5.91,5.91,0,0,1,5.77.31l.33-.12.29-.11A3.49,3.49,0,0,0,143,12.18C141,12.61,137.65,15.76,140.49,17.31Zm7.29-.35c.47-.3,1.15-.53,1.33-1.1,0-.38-.48-.33-.69-.14A1.86,1.86,0,0,0,147.78,17Z"/><path d="M155,28.16c-3.13-1.54-2-5.17.74-6.43-3.27-1.9-2.28-6.21-.35-8.74A8,8,0,0,0,153,14.24a.33.33,0,0,1-.4,0c-.29-.23,0-.6,0-.89a7.54,7.54,0,0,0,.18-2.32c-3.36.1-7.52-.07-9.87-2.8-1.58-2,.78-4,2.84-4a8.27,8.27,0,0,1,7.53,6.34c1.26-.07,2.49-.31,3.76-.37,1,.17-.15,1.32-.42,1.74,2.36-.27,5.07.24,6.73,2a2.31,2.31,0,0,1-.22,3.67c-1.67,1.26-4.34,2.38-6.18.9a3.21,3.21,0,0,1,0-4.51,1.11,1.11,0,0,1,.57-.13.34.34,0,0,1,0,.68.42.42,0,0,0-.45.25,3.35,3.35,0,0,0-.28,2c.72,2.57,4,1.47,5.55.37.61-.42,1.33-1.09,1-1.9-1.29-2.52-4.76-3.05-7.29-2.5-2,2.46-3.37,7,.35,8.62,1.3-.48,3.14-.78,4.2.31a.5.5,0,0,1,0,.71,6.68,6.68,0,0,1-4.15-.39c-2.38,1.05-3.84,4-.92,5.43a15.64,15.64,0,0,0,2.85.79.38.38,0,0,1-.17.74A12.75,12.75,0,0,1,155,28.16Zm2.24-6.43a9.6,9.6,0,0,0,2.87.29h0A3.28,3.28,0,0,0,157.21,21.73Zm-3.83-9.61a8.93,8.93,0,0,1-.1,1v0A9,9,0,0,1,156,12.07a9.86,9.86,0,0,0,1-1.43c-1.21.08-2.44.3-3.66.37A6.86,6.86,0,0,1,153.38,12.12Zm-7.07-2.2a18.1,18.1,0,0,0,6.42.7,7.61,7.61,0,0,0-7.23-5.93c-4.59.88-2.51,4.35.82,5.23Z"/><path d="M146.69,36.41c-4.37-1.93-2.45-7.16.78-9.21a7.46,7.46,0,0,1,6.95-.72c1.77-2.51,5.93-3.11,7.91-.56a.37.37,0,0,1-.62.33,4.34,4.34,0,0,0-6.49.53A9.81,9.81,0,0,1,157.28,28a5.05,5.05,0,0,1,.51.43c2.16-1.66,3.83.26,3.1,2.55s-3.52,3.7-5.76,4.63c.39,3.89,5.26,2.61,7.48,1.13.34-.31.83.16.44.45-2.55,1.91-8.1,3.05-8.49-1.4C152,36.13,149.33,37.75,146.69,36.41Zm.82-.48a6.2,6.2,0,0,0,3.62,0c-5.24-1.44-1.84-8.48,2.63-6.26a3.13,3.13,0,0,1,.36-2.72A6.86,6.86,0,0,0,147,28.28C144.4,30.61,143.51,34.63,147.51,35.93Zm3.7-.78a4.59,4.59,0,0,0,1.22.16c1.13-.71,2.3-1.62,2.44-3a2.64,2.64,0,0,0-3-2.53C148.87,30.23,148,34.23,151.21,35.15Zm3.14-.51c-.18.19-.38.37-.58.55l.42-.1h0l.36-.1c0-.21,0-.41,0-.62A2.75,2.75,0,0,1,154.35,34.64Zm.74.18c2-.82,4.17-1.85,5.18-3.78.85-1.84-.16-3.81-2.19-2.34,1.39,1.6-.36,3-2.06,2.58A8.32,8.32,0,0,0,155.09,34.82Zm.12-3.5c0,.12.08.23.11.35v0a4.44,4.44,0,0,1,.24-.49l-.25-.08L155,31A1.41,1.41,0,0,1,155.21,31.32Zm.28-1.06a2.74,2.74,0,0,0,.4.15l.1,0a10.39,10.39,0,0,1,1.29-1.6l.07-.07a7.6,7.6,0,0,0-2.45-1.55c-.69,1.06-.7,2.52.61,3.05Zm1,.28c1,.2,2-.48,1.18-1.45A8.22,8.22,0,0,0,156.45,30.54Z"/><path d="M162.11,36.28c-3.35-2.15,2.85-7.11,4.56-4.18a.28.28,0,0,1-.48.3,3.13,3.13,0,0,0-.2-.3c-1.18-1.14-4.09,1-4.07,2.36.16,1.71,3.15,2.08,4.5,1.9a2.38,2.38,0,0,1,.58-3c1.36-1.37,5.19-2.1,6,.16,0,1.72-3.4,2.91-4.79,3.42a10.47,10.47,0,0,0,4.79,1,3.23,3.23,0,0,1,3.38-3.87,1.79,1.79,0,0,1,1.24,2.54c-.66,1.37-2.35,1.78-3.72,2a5.37,5.37,0,0,0,4,1.56c.72,0,1.45,0,2.18,0a.25.25,0,0,1,.25.23.24.24,0,0,1-.23.25c-2.33.13-5.21.19-6.7-2a9.59,9.59,0,0,1-6.19-1.52A6.55,6.55,0,0,1,162.11,36.28Zm5.16,0a10.18,10.18,0,0,0,5-2.45c.23-.7-.75-1-1.27-1.13-1.75-.29-4.23.67-4.25,2.66A1.77,1.77,0,0,0,167.27,36.24Zm6.16,1.68c1.4-.18,3.42-.44,3.85-2a1.29,1.29,0,0,0-1-1.42A2.79,2.79,0,0,0,173.43,37.92Z"/><path d="M186.47,54.45A3.07,3.07,0,0,1,185.08,50a4.45,4.45,0,0,1,1.14-4.92c-1.8-.23-4.45-.15-5.21-2.15a2,2,0,0,1,1.83-2.25,5.51,5.51,0,0,1-3.53-2.91c-4.65-.62-3.67-4.48.74-2.57,1.39-.46,3.47-.16,4.27,1.16.12,1.66-2.92,1.68-4.08,1.54,1,1.53,2.8,2.11,4.48,2.51.43.18,1.28,0,1.44.55,0,.44-.6.3-.9.26a7.31,7.31,0,0,0-2.14-.15,1.74,1.74,0,0,0-1.66,1.41c.11,1.51,2.06,1.69,3.22,1.93.77.1,1.58.25,2.34.27a.23.23,0,0,1,.22.18c0,.2-.2.26-.33.29a1.5,1.5,0,0,0-.51.33,4.35,4.35,0,0,0-.76,3.74,2,2,0,0,1,2.53-.41c.63.35,1.47.91,1.3,1.74-.61,1.47-3,1.17-3.93.16-.65,2.3,1.08,3,2.92,3.5a.42.42,0,0,1,.31.51C188.52,55.46,187,54.57,186.47,54.45ZM187,50.6c.57.22,2.36.21,1.69-.73a2.2,2.2,0,0,0-1.57-.79,1.42,1.42,0,0,0-.31.06l-.25.11a.19.19,0,0,1-.08,0,2.26,2.26,0,0,0-.53.54,1.63,1.63,0,0,0,1.06.76Zm-8.74-13.78c.28.08.58.16.86.21h0a2.14,2.14,0,0,1,.41-1.49c-.73-.28-3.32-.87-2.42.66A2.74,2.74,0,0,0,178.26,36.82Zm1.65.35c.64.27,5.25,0,3.48-1.14a4,4,0,0,0-2.53-.52c.21.1.6.17.5.49a.28.28,0,0,1-.34.15l-.84-.37A1.39,1.39,0,0,0,179.91,37.17Z"/><path d="M165.9,62.62c-2.2-1.58.24-7,2.65-7.32-2.37-2.72-6.84-1.4-9.05.89-.43.46-1.23,1.17-.85,1.84a.23.23,0,0,1-.4.24,2.2,2.2,0,0,1-.15-.26c-.25-1,.69-1.83,1.36-2.43,2.41-2.31,7.29-3.41,9.53-.36a4.49,4.49,0,0,1,1.63.1h0c-1.28-2.26,1.62-4.64,3.77-4.63a7.45,7.45,0,0,1,5.53,2.9c1.23,2.1-1.14,4-2.59,5.29,2.53.69,2.66,3.87,3.84,5.79a13.82,13.82,0,0,1,3.28-4.75,5.23,5.23,0,0,1,.86-2.89h0A3.35,3.35,0,0,1,186,51c1.09-.43,2.19.13,3.25.42a.39.39,0,0,1,.22.5c-.14.41-.64.19-.9.1-.75-.19-1.53-.62-2.3-.31a2.48,2.48,0,0,0-.39,4.54c1-1.58,4.2-2.3,4.26.17-.46,1.62-2.73,1.57-4,1.06a4.79,4.79,0,0,0-.52,1.66c1.28-.77,2.45.51,2.24,1.81-.3,1.77-2.74,1.44-3.18-.09a13,13,0,0,0-2.58,4.11,1.35,1.35,0,0,1-.55.77c-1.25.3-1.52-1.74-1.88-2.58-.55-1.51-1-3.56-2.9-3.82-4.41,3-4.43-.77,0-.55,1.25-1,3.55-2.76,2.94-4.58a6.33,6.33,0,0,0-6.11-3c-1.56.34-3.59,2.38-2.25,3.92.79-1.77,2.82-4.22,5-3.27,2.54,2,.58,5-2.25,5a1.46,1.46,0,0,1-.11,2.43c-1.47.45-3-1.16-2.9-2.6a8.77,8.77,0,0,0-1.66-.35C170,58.21,168.41,63.21,165.9,62.62Zm.39-.56c2.05-.15,3.22-4,2.7-5.73C167.13,56.25,165,60.84,166.29,62.06ZM173.91,60a4.06,4.06,0,0,0,2.12-.75A4,4,0,0,0,173.91,60ZM173,56c1.84.51,5.12-.93,3.39-3.06a.88.88,0,0,0-.7-.27h.07C174.27,53,173.32,54.63,173,56Zm13.34,5h0c.64.14.76-.41.62-.9-.15-.75-.92-.45-1.34-.13a1.62,1.62,0,0,0,.53.94Zm.33-4.45c.73.45,3.77.16,2.35-1l-.21-.08-.07,0A2.25,2.25,0,0,0,186.66,56.57Z"/><path d="M154.5,63c-2.14-1.26-1.85-4.26-1.06-6.27a3.83,3.83,0,0,1,1.82-4.38,4.73,4.73,0,0,1,.32-2.92c-1.52-2.06,1.27-4.23,3.18-4.52a6,6,0,0,1,3.74.67.26.26,0,0,1-.18.49,10.39,10.39,0,0,0-1.32-.53,4.4,4.4,0,0,0-4.91,1.68,1.32,1.32,0,0,0-.18,1.52c.82-1.62,2.42-3.32,4.4-2.9.91.17,1.91.89,1.79,1.91-.75,2-3.93,3.38-5.85,2.26a3.57,3.57,0,0,0-.14,1.94,5.25,5.25,0,0,1,4.71.94c1.41,1,1,2.53-.71,2.75.34,1.52-1.15,2.88-2.37,3.54a3.14,3.14,0,0,1-3.93-1.51c-.63,2.1-.17,5.06,2.5,5.1.26,0,.62,0,.63.33C156.82,63.91,155,63.32,154.5,63ZM156,58.58a2.76,2.76,0,0,0,3-1.21c.37-.47.87-1,.62-1.68a4.36,4.36,0,0,1-3.19-1.32,4.46,4.46,0,0,0-2.23,2.26A2.69,2.69,0,0,0,156,58.58Zm-2-2.86A5,5,0,0,1,156.07,54a5.84,5.84,0,0,1-.33-.53,4.74,4.74,0,0,1-.26-.5A3.28,3.28,0,0,0,154,55.72Zm4.54-1.14.29.08a2.17,2.17,0,0,0-1.15-.48A4.48,4.48,0,0,0,158.52,54.58Zm.69-.17.35.35c2.27,0,1.26-1.3-.05-2a4.7,4.7,0,0,0-3.21-.26,5.21,5.21,0,0,0,.76,1.15A3.07,3.07,0,0,1,159.21,54.41Zm-2-4.68c1.5.27,3.89-.68,4.37-2.17-.06-.78-1-1.14-1.63-1.17-1.71,0-2.85,1.62-3.47,3h0A2.67,2.67,0,0,0,157.21,49.73Z"/><path d="M155,72.92a4.27,4.27,0,0,1-2.4-6.33c-3.78-2.22.22-8.11,3.85-7.26a7.38,7.38,0,0,1,1.58.48.31.31,0,0,1,.18.4.3.3,0,0,1-.4.18,4,4,0,0,0-3.45-.14c-1.91.93-3.7,4.24-1.3,5.57.65-1.09,2.8-2.27,3.61-.78.21,1.77-2.28,2.33-3.59,1.76-.68,1.48-.8,3.48.56,4.59a12.18,12.18,0,0,0,1.64,1,.3.3,0,0,1,.11.39A.29.29,0,0,1,155,72.92ZM153.57,66a2.32,2.32,0,0,0,2.3-.39c.62-.64-.24-.89-.79-.7A2.5,2.5,0,0,0,153.57,66Z"/><path d="M153.91,78.32a4,4,0,0,1-1.75-5.42c.89-1.9,3-2.49,4.85-3.14a.41.41,0,1,1,.25.79l-1.76.64c-3.32.94-4,5.34-.55,6.58a.46.46,0,1,1-.22.89A8.33,8.33,0,0,1,153.91,78.32Z"/><path d="M155,78a2.15,2.15,0,0,1,1.22-3.78c.41.06,1.57-.16,1.59.41s-1.14.07-1.52.19a1.52,1.52,0,0,0-.5,2.94c.32.19,1.05,0,1.1.48a.28.28,0,0,1-.29.24A3.29,3.29,0,0,1,155,78Z"/><path d="M149.17,78.44c-1.24-.54-2.29-2-1.67-3.32a8.32,8.32,0,0,1,1.79-2.1c1.53-1.13,3.53-.74,5.22-.24a16.68,16.68,0,0,1,2.53,1,.33.33,0,0,1,.14.46.35.35,0,0,1-.46.13c-2.07-.9-4.71-2.14-6.88-1,1.91-.16,5.44.87,5.23,3.27a3.09,3.09,0,0,1-2.89,2.16c.22.07.63.05.58.38a.24.24,0,0,1-.29.18A11.73,11.73,0,0,1,149.17,78.44Zm-.59-1.1a3.22,3.22,0,0,1-.58-2A1.84,1.84,0,0,0,148.58,77.34Zm2.1.69c1.44.48,3.73,0,3.91-1.73-.21-2-3.89-2.94-5.47-2.21A2.6,2.6,0,0,0,150.68,78Z"/><path d="M158.64,76.34c-1.55-1.09-1.11-2.39.37-3.26a.45.45,0,0,1,.57.7c-.33.28-.8.49-1,.89.19,1.22,1.85,1.41,2.85,1.28-1.12-1.53.55-3,2.1-2.93,2.92.11,1.74,2.48-.18,3.21a3.91,3.91,0,0,0,3.44-.83,2.13,2.13,0,0,1,.15-3.07c.36-.12.56.27.65.56a3.09,3.09,0,0,1,.19,2.25c2.1.28,4.51-1.2,5.72-2.83-1-.17-2.06-1.62-1-2.32,1.07-.44,1.87.91,1.66,1.85a5.51,5.51,0,0,0,2.1-.19.3.3,0,0,1,.32.2c.09.68-2.13.66-2.62.58-1.16,2-4.22,3.76-6.53,3.26a4.36,4.36,0,0,1-5.21,1A4.3,4.3,0,0,1,158.64,76.34Zm3.62-.6c1-.21,3.87-1.83,1.43-2.18-.73,0-1.71.25-1.91,1A1.12,1.12,0,0,0,162.26,75.74Zm4.93-.82a2.65,2.65,0,0,0-.12-2,2.27,2.27,0,0,0-.11,1.75A1,1,0,0,0,167.19,74.92Zm6.22-3.3.34.13h0c.17-.57-.22-1.55-.92-1.38-.5.43.15,1.09.59,1.26Z"/><path d="M174.55,69.88a.77.77,0,0,1,0-1.36c.45-.26.74.45.28.64h0a.9.9,0,0,0,.21.19c2,1,4.25.09,6.26-.3a.36.36,0,0,1,.45.24c.09.71-1.14.57-1.61.78C178.34,70.45,176.18,71,174.55,69.88Z"/><path d="M168.48,70.3c-1.28-.49-1.18-2-.55-3-.29-1,.69-1.93,1.31-2.63a1.8,1.8,0,0,1,2.9.09,4,4,0,0,1,1.35.4,5.73,5.73,0,0,1,.75.45,4.42,4.42,0,0,1,5.61-.83,2,2,0,0,1,1,2.39,1.83,1.83,0,0,1-2.72,1.16c-.69-.37-1.24-1.49-.49-2.06a6.16,6.16,0,0,1,2.23-.39c-1.27-1.58-3.78-1.15-5,.28,1.74,1.26,1.56,4.32-.55,5a1.64,1.64,0,0,1-2.22-2C171.26,70.2,169.74,70.93,168.48,70.3Zm.66-.56a3.1,3.1,0,0,0,3.33-2.58,3.18,3.18,0,0,0-.61-1.89,3.85,3.85,0,0,0-3.14,2,.36.36,0,0,1-.3.63c-.41.9-.24,1.54.73,1.83Zm4.18.55c1,.42,1.68-.45,2-1.24a2.2,2.2,0,0,0-.65-2.35l-.15-.14c-.8,1-1.71,2.34-1.33,3.61l.07.07.12.08Zm-4-4.63a4.71,4.71,0,0,1,2-.94,1.12,1.12,0,0,0-.73-.12s-.08,0-.08,0A3,3,0,0,0,169.29,65.66Zm3.62.7A3.32,3.32,0,0,1,173,67v0a2.2,2.2,0,0,1,.17-.25,6.7,6.7,0,0,1,.64-.77,3.39,3.39,0,0,0-1.28-.62A4.79,4.79,0,0,1,172.91,66.36Zm6,1c.37.23.73-.13.92-.4l-1.22.11h-.09a1.24,1.24,0,0,0,.41.29Z"/><path d="M141.33,43.88c-1.37-.59-1.41-2.35-.77-3.51h0c-1.74.65-4.08.25-4.72-1.71-.78-2.24.29-4.56.93-6.7a.3.3,0,0,1-.23-.56c1-.52.94.48.67,1.12-.88,2.36-2.21,7.22,1.61,7.4a6.3,6.3,0,0,0,2.43-.6c1-1,2.36-2.46,3.9-2.28,1.21.72-3,2.61-3.61,2.94-.73,1-1,2.89.51,3.23.42.2,1.34.07,1.25.75C143.05,44.67,141.82,44,141.33,43.88Z"/><path d="M143.45,49.13c-1.44-.6-3-1.6-3-3.34.08-2.53,1.87-5.21,4.57-5.33a.25.25,0,0,1,.09.5,7,7,0,0,0-1.37.3c-2,.85-3.63,4.27-2.07,6.07a7.66,7.66,0,0,0,2,1.28A.3.3,0,0,1,143.45,49.13Z"/><path d="M145,54.12c-4.07-1.42-.22-7.06,2.77-7.18a.57.57,0,0,1,.58.54c0,.83-1.14.49-1.64.89-1.29.82-2.63,2.42-2.39,4h0a1,1,0,0,0,.11.18c.05.07.11.13.17.2l0-.05c.32.4,1.25.47,1.06,1.13A.47.47,0,0,1,145,54.12Z"/><path d="M146.6,60.7a3.06,3.06,0,0,1-.45-3.36c-4-1.3-.87-7.23,2.49-7a.36.36,0,1,1,0,.72,3.19,3.19,0,0,0-2.44,1.16c-1,1.2-1.72,3.75.43,4.11.72-1.28,2.28-2.4,3.79-2a1.05,1.05,0,0,1,.84,1.1c-.65,1.4-2.57,1.88-4,2a2.23,2.23,0,0,0,.17,2.26l0-.06c.8.84,2,.62,3,.46a.62.62,0,0,1,.21,1.22C149.22,61.69,147.67,61.78,146.6,60.7Zm1.15-4.29a5.52,5.52,0,0,0,2.7-1.11h0C149.56,54.58,148.24,55.65,147.75,56.41Z"/><path d="M142.48,58.38c-2.35-1-3.06-4.08-2.27-6.37a16.18,16.18,0,0,1,2.6-4.25.38.38,0,0,1,.62.44,31.52,31.52,0,0,0-2,3.27c-1.09,2.12-.63,5.49,2,6.2a28,28,0,0,0,5.4.58.52.52,0,0,1-.1,1C146.62,59.11,144.43,59.22,142.48,58.38Z"/><path d="M140,43.15c-.85-1.12,1-2.22,2-2.28.54-1.37-.49-2.69-1.49-3.52-2.22-1.93-5.22-2.13-8-2.57-.67-.85,1.4-.48,1.81-.49,1.06-.32,2.14-1.44,1.73-2.61s-1.7-1.39-2.68-1.74a11.75,11.75,0,0,0-6.48-.45c-.18,0-.41.2-.55,0a.21.21,0,0,1,.07-.3A4.87,4.87,0,0,0,128,27.81c1.26-1.9-1.45-3.28-2.89-4-1.2-.59-2.42-1.05-3.66-1.53a.23.23,0,0,1,.16-.43c1,.37,2,.75,3,1.18,2.39,1,6.13,3.35,3,5.88,2.28-.46,7.82.33,8.9,2.63a2.46,2.46,0,0,1-1.31,2.83c3.28.41,8.27,2.49,7.71,6.49a7.41,7.41,0,0,1,5.76,3.52.42.42,0,0,1-.09.48c-1.57,0-3.34-1.37-4.89-1.71-.37-.09-1.7-.16-1.24-.76a.54.54,0,0,1,.48-.06,17.73,17.73,0,0,0,3.38.82.23.23,0,0,1,.16.26c-.1.3-.46.09-.68.07.4.18.81.35,1.23.5s.77.29,1.15.42a6.84,6.84,0,0,0-5.46-2.94C142.21,42.37,141.07,43.92,140,43.15Zm.67-.7a2.26,2.26,0,0,0,.87-.78,1.89,1.89,0,0,0-.87.78Z"/><path d="M113.72,24.14c-3.9-1.82.45-6.91,3.53-5.43a1.78,1.78,0,0,1,1.18,1.53c1.92-.53,2.48,1.5,1.06,2.61a5.52,5.52,0,0,0,3.43.17c2.07-2.56,4.19,0,.66,1h0a1.23,1.23,0,0,0-.08.22c.26.89-1,.89-1,.06a5.82,5.82,0,0,1-4-.71A5.11,5.11,0,0,1,113.72,24.14Zm.67-.57a4.5,4.5,0,0,0,3.42-.5,1.81,1.81,0,0,1,.19-2.59.34.34,0,0,1-.12-.34A1.62,1.62,0,0,0,116.42,19C114,18.62,111,22.53,114.39,23.57Zm4.41-1.15c.4-.3,1.23-1.23.34-1.4h0A.77.77,0,0,0,118.8,22.42Z"/><path d="M99.94,26c-5.15-2.93-.09-7.73,3.79-8.56a4.8,4.8,0,0,1,5.75.58c.32.45-.45.81-.58.29a4.5,4.5,0,0,0-1.92-.6c2.3,2-3,3.88-3.83,1.65-1.5.82-3.39,2-3.54,3.83.17.7.84,1.13,1.3,1.64A.76.76,0,0,1,99.94,26Zm4.83-7.1,0,0,0,0a1.8,1.8,0,0,0,1.32-.14,3.53,3.53,0,0,0-1.41.09l0,0,.15.07Z"/><path d="M98.31,42.5c-7-3.14-.22-14.64,4.21-17.47l.3-.15a.21.21,0,0,1,.18.38,3.46,3.46,0,0,0-.77.49c-3.6,2.72-8.63,10.94-5.51,15.17a10.23,10.23,0,0,0,1.79,1.21C98.75,42.25,98.55,42.64,98.31,42.5Z"/><path d="M92.31,66.27a3.17,3.17,0,0,1-.14-2.82c-.92.65-3.4,1.71-3.3-.26a25.28,25.28,0,0,1,6.33-9.46C87.58,52.39,94.63,40,99.79,40.4c.42.08,1.42.32,1.14.9-.23.31-.54,0-.77-.1a2.08,2.08,0,0,0-1.37-.08c-4.51,1.39-9.9,12.48-1.59,11.62a.38.38,0,0,1,.12.68c-2.17.56-3.47,2.55-4.71,4.3s-2.41,3.63-2.86,5.69c1.85,0,3.24-1.6,4.64-2.63.19-.15.5-.26.67,0a2.23,2.23,0,0,1,.68,0,2.9,2.9,0,0,1,.87.3,31.12,31.12,0,0,0-2.1-4.71c.26-1.27,1.79-1.86,2.69-2.68a.27.27,0,0,1,.34.41c-.4.3-.8.62-1.2.93s-1.27.78-1.26,1.42a27.35,27.35,0,0,1,2.75,6.39C97.88,65.3,94.42,68.72,92.31,66.27ZM93.48,66a1.84,1.84,0,0,0,1.77-.35,2.7,2.7,0,0,1-2.19,0,1.09,1.09,0,0,0,.43.34Zm-.08-1a2.8,2.8,0,0,0,3.46-2.55c.09-.6-.58-.89-1-1.05-.88-.34-1.34.34-1.94.83s-1.71,2.33-.49,2.77Z"/><path d="M99.63,58.07c-.78-.33-1.74-.87-1.6-1.85,0-.44.65-2.4,1.21-2.09a.27.27,0,0,1,.06.37c-.38.67-1,1.52-.61,2.29a3,3,0,0,0,1.14.75.28.28,0,1,1-.2.53Z"/><path d="M108.21,35.84A3.3,3.3,0,0,1,107,33.25c-3.19-.57-2.78-5-3.27-7.49,0-.25.4-.3.43,0a4.58,4.58,0,0,0,.1.63c.06.12.13.27,0,.37.37,2,.19,5.59,2.72,6.11,0-.19,0-.39,0-.59-1.35-2,.76-4.94,3-4.84a1.59,1.59,0,0,1,1.69,1.93c1.11,2-1.54,4.56-3.59,3.74a2.75,2.75,0,0,1-.41.11,2.45,2.45,0,0,0,1.9,2.35.42.42,0,0,1-.19.82A3.2,3.2,0,0,1,108.21,35.84Zm-.06-3.23a6.34,6.34,0,0,0,3.1-3.23c-.47-.57-1.35-1.16-2.06-.74-1.1.84-1.32,2.43-1.48,3.71l.15.1a2.69,2.69,0,0,0,.29.16h0Zm3.08-2.25a7,7,0,0,1-2.46,2.42,2.6,2.6,0,0,0,2.74-2.91C111.42,30,111.33,30.2,111.23,30.36Zm-4.11,1.21c.36-2.08,2.07-4.89,4.23-2.71a1.16,1.16,0,0,0-1.09-1A3.06,3.06,0,0,0,107.12,31.57Z"/><path d="M106.16,43.41a2.56,2.56,0,0,1-.47-.46,2.39,2.39,0,0,1-.21-.34c-3.16.12-2.21-4-.78-5.58-2.78-2.21.59-8.18,2.84-3.41a2.28,2.28,0,0,1,2.31-1.23.31.31,0,0,1,.28.33c-.09.52-.79.1-1.13.36a2.92,2.92,0,0,0-1.12,1.24,10.31,10.31,0,0,1,.46,1.32c2.13.49,4.08,2.58,3.15,4.83C110.89,42.6,108.35,44.77,106.16,43.41Zm.9-.58c2.08.42,3.73-1.9,3.86-3.74,0-1.38-1.24-2.33-2.42-2.77.45,2.15-.23,4.78-2.16,6h0A1.21,1.21,0,0,0,107.06,42.83Zm-2.12-1.28a.7.7,0,0,0,.29,0,12.15,12.15,0,0,1,.58-4h0a4,4,0,0,1-.47-.21C104.58,38.36,103.44,40.87,104.94,41.55Zm1.11-.32a5.15,5.15,0,0,0,1.49-5.06,2.42,2.42,0,0,0-.54.07l-.06.17-.1.31a.6.6,0,1,1-.33,1.13A12.63,12.63,0,0,0,106.05,41.23Zm-.43-5,.28-.18a4.12,4.12,0,0,1,.52-.24c.08-.21.17-.41.26-.61s.21-.44.32-.66a5.24,5.24,0,0,0-.89-1.45c-.18-.18-.39-.38-.63-.25a2.76,2.76,0,0,0-.54,2.55A1.58,1.58,0,0,0,105.62,36.18Z"/><path d="M107.26,31.77a4.14,4.14,0,0,1-.07-4.91c.66-.66,1.65-.43,2.48-.33a.78.78,0,0,1-.15,1.56,8.69,8.69,0,0,0-1.24-.13,2.92,2.92,0,0,0,.13,2.85c.64.91,1.86.7,2.83.75a.63.63,0,0,1,.65.6.64.64,0,0,1-.6.66C109.87,33,108.2,33,107.26,31.77Z"/><path d="M110.63,33.17c-2.26-1.25-.76-4.35-.19-6.22.65-1.64,1.49-3.13,3.47-2.23a.39.39,0,1,1-.23.74,3.07,3.07,0,0,0-1.1-.24,1.26,1.26,0,0,0-.57.57,11.38,11.38,0,0,0-1.27,5.33,1.26,1.26,0,0,0,.25.62h0a1,1,0,0,0,.8.2c-.27-1.78,1.81-8.44,4.29-6.86,1.31,2.49-.51,6-2.57,7.57a1.24,1.24,0,0,0,1.25.11c.65-.15,1.47-1,2-.31a.66.66,0,0,1-.21.89c-1.26.94-3.32,1.55-4.34-.05A2.48,2.48,0,0,1,110.63,33.17ZM113,31.28a6.35,6.35,0,0,0,2.45-5.6c-.09-.16-.34,0-.42.08A7.93,7.93,0,0,0,113,31.28Z"/><path d="M115.4,34.92c-2.78-1.62-.38-8.2,2.21-9.15a.44.44,0,0,1,.61.14.47.47,0,0,1-.27.68c-2.26,1.12-2.9,4.1-2.72,6.4.24,1.33,1.59,1.12,2.61,1.1a.51.51,0,0,1,.54.5C118.45,35.5,115.92,35.2,115.4,34.92Z"/><path d="M111.05,40.42c-3.17-3-1.24-7.77,2.59-9,1.31-1.85,3.62-3.56,6-2.77a.66.66,0,0,1-.3,1.28,3.65,3.65,0,0,0-3.84,1.28c4.76.72,3.85,6.21.14,7.81a2.64,2.64,0,0,1-3.85-1.51,7.21,7.21,0,0,1,1-4.65c-2.94,1.8-3,6,.29,7.3,1.61.45,3.13-.78,4.46-1.44.5-.24,1.17-.88,1.62-.24a.63.63,0,0,1-.2.85C116.62,40.76,113.44,42.85,111.05,40.42Zm2.81-2.55c1.71.24,3.24-1.4,3.75-2.88.53-1.69-1.31-3.11-2.88-2.91C113.86,33.32,111.94,37,113.86,37.87Z"/><path d="M119.06,33.32c-2-1.63-.47-4.83,1.19-6.18.76-.5,1.31.61.54,1-1,1-2.05,2.67-1.27,4a.16.16,0,0,0,0-.07l0,.07.07.06-.06,0,.18.14v0a2,2,0,0,0,2-.46c-1.62-1-1.26-4.23.82-4.28,1.5.16,1.8,2.07,1.27,3.23a1.5,1.5,0,0,0,.48-.69.35.35,0,0,1,.26-.41.33.33,0,0,1,.38.27,2.26,2.26,0,0,1-2,2.27C122,33.32,120.35,34.15,119.06,33.32Zm3.35-2.12a2.67,2.67,0,0,0,.66-2.29c-.6-1.36-1.73.14-1.5,1.06A1.64,1.64,0,0,0,122.41,31.2Z"/><path d="M145.94,75.17a.3.3,0,0,1,.59,0,2,2,0,0,1,.06.41c.22,1.76.45,3.48.83,5.2,0-2.94-.09-5.86-.09-8.82-.46-.18.24-1,.42-.43.19,3.81,0,7.65.37,11.46a23.45,23.45,0,0,0,.93,3.69.36.36,0,0,1-.17.37c-.87.44-1.08-3-1.43-3.64a84.36,84.36,0,0,0,1.64,8.35,1.56,1.56,0,0,0,.07.32,2.44,2.44,0,0,0-.81-.11A96.61,96.61,0,0,1,145.94,75.17Z"/><path d="M150.6,93.39a2.22,2.22,0,0,0-1-1.19c-1.33-4.66-4.34-16.22-2-16.19a.42.42,0,0,1,0,.81c-.17,4.21,1.11,8.47,2.13,12.52.41,1.42.85,2.84,1.3,4.25a.46.46,0,0,1-.21.57A3,3,0,0,0,150.6,93.39Z"/><path d="M150.92,95.19c0-.1-.09-.2-.14-.3a3,3,0,0,0-.18-1.5,2.25,2.25,0,0,0-1-1.18,54,54,0,0,1-3.15-10.72,13.37,13.37,0,0,1-.31-3.93.81.81,0,0,1,.35-.48c.6-.34,1.18.52.53.85h0a39.06,39.06,0,0,0,2.21,10.56,53.23,53.23,0,0,0,2.64,6.22.53.53,0,0,1-.67.71A.54.54,0,0,1,150.92,95.19Z"/><path d="M150.53,96a3.67,3.67,0,0,0,.07-2.57,2.3,2.3,0,0,0-1.79-1.45c-.13-.38-.28-.77-.39-1.16-.65,0-.73-.75-.83-1.24-.25-1.2-.46-2.41-.65-3.62-.42-1.53-2.48-9.82-.39-10.11,0-.82.15-2,1.23-2a1.07,1.07,0,0,1,1,1.12c-.15,1.47-.37,2.93-.44,4.41a.4.4,0,0,1,.27.22.41.41,0,0,1-.16.55c-.57,3.74,1.26,7.38,2.25,10.92a19.28,19.28,0,0,1,.86,3.21.63.63,0,0,1-.19.48c.22.6-.07,1.52-.72,1.26Z"/><path d="M121.81,98.82a.57.57,0,0,1,0-.26c-.32-.24-.16-.66,0-1a2.5,2.5,0,0,1-.09-1.33c.49-.7,1.1-1.32,1.63-2a36.21,36.21,0,0,0,2.41-6.55c.2-.59.95-1.33,1.51-.7.53,1.15-.24,2.51-.58,3.64a3.91,3.91,0,0,1-.33,1.59c.31-.44.58-1.4,1.28-1.14a.5.5,0,0,1,.28.41,4.9,4.9,0,0,1-.72,1.7A27.33,27.33,0,0,1,123.56,98C123.24,98.54,122.23,100,121.81,98.82Z"/><path d="M116.56,100.11a.23.23,0,0,1,.07.2.2.2,0,0,1-.18.17C116.49,100.36,116.52,100.23,116.56,100.11Z"/><path d="M125,102c-.6-.28-1.36-.56-1.63-1.2a7.3,7.3,0,0,1-2.52-1c-.19-.9,1.33,0,1.74,0,6.72,2.58,19.22,1.53,25-2.87a12.09,12.09,0,0,0,2.25-2.8c1.35-.38.15,1.86,0,2.4h0c.61-.31.64.38.35.76a8.32,8.32,0,0,1-4.56,3.52,37.28,37.28,0,0,1-10,2.87C132,104.07,128.41,103.14,125,102Zm1.32,0c3.92,1.22,8.1,1.92,12.09.68-1.88.15-3.77.07-5.65.09a7.32,7.32,0,0,1-2.58-.33,43.82,43.82,0,0,1-6.18-1.5A7.74,7.74,0,0,0,126.36,102Zm3.32-.19-.83-.07c.44.08.87.16,1.31.22a.25.25,0,0,1,.08-.12ZM145.84,100a36.59,36.59,0,0,1-7.51,2.22,18.34,18.34,0,0,0,8.38-2.64Q146.27,99.8,145.84,100Z"/><path d="M49.44,408.82c-2.42-1.91-4.81-2.41-7.31-3.9-6.8-4.55-6.65-8.54-1.58-14.51-2-1.29-4.59-1.56-6.06-3.63-3.34-3.6-.49-8.82,3.68-10.14a40.88,40.88,0,0,0,7-2.27c-.6-2.71-.9-5.85,1-8.16,1.35-1.67,3.54-3,5.75-2.52,3.12.42,5.24,2.85,7.72,4.52.51.24,1.19.67,1.74.41A18,18,0,0,0,62.46,364c.27-4.21,4.23-7.54,8.4-6,5.41,2.34,5.56,10.61,3.44,15.29-.48,1.26-1.42,2.4-1.52,3.77l.15.71a.27.27,0,0,1-.52.1c-1.2-3.4-.13-7-.76-10.48-.33-1.69-.75-3.62-2.1-4.79a2,2,0,0,0-2.85,1.15C66,365.75,65.85,368,65,370c-1.26,3.43-5.56,3.21-8,1.25-1.83-1.23-3.26-3.16-5.49-3.7-1.3-.41-2.59.89-3.16,2-.61,1.81.2,3.72.35,5.54-.47,3.74-7,4.24-10,5.18-1.64.8-3.45,2.68-2.1,4.51,1.21,2.25,4.06,2.18,5.81,3.72,2.84,2.57-1,5.47-2,8-1.55,2.73,2,4.62,3.87,5.93a9.62,9.62,0,0,0,3.7,1.18c1.72.57,3.08,1.87,4.76,2.54,1.39.7,4,.47,3.9,2.61C56.22,411.86,51.21,409.69,49.44,408.82Z"/><path d="M126.22,402.54c-1.12-2.56.81-5.33,2.88-6.75a27.4,27.4,0,0,1,3-1.17c1.16-2.76,2.1-6.06,5.35-7,1.09-.49,3-.16,2.92,1.3,0,1.16-1.34,1.17-2.09,1.69-2.21,1.06-2.14,3.78-3.66,5.46a4,4,0,0,1-3.26,1.36c-2.74.25-4.13,2.85-3.88,5.41a.26.26,0,1,1,.18.49C127,403.88,126.39,403.12,126.22,402.54Z"/><path d="M194.84,417.56c.48-2,2.39-1.66,3.94-1.33,10.43,1,5.76-4.35,12.09-6.81,2.42-.87,5.26,0,7.19-2.06,3-1.83,1.16-5.88,2.57-8.66,1.91-5.11,8.65-5.17,11-9.8-1.08-1.3-3-1.65-4.32-2.62a7.72,7.72,0,0,1-3.66-4.06c-.7-3.28,0-6.7-.11-10-2.28-.13-4.57-.17-6.86-.18-2.07,0-4.28.33-6.24-.57-2.47-1.08-3.33-3.75-4.89-5.71-2.22-1.22-5.63-1.34-8.12-1.59-1.46,2.67-1.76,5.85-2.05,8.83-.21,1,.2,4.56-1.44,4.22-.47-.1-.18-.66.24-.5a32.09,32.09,0,0,1,.45-12.16c.32-1,.58-2.22,1.55-2.78,2.94-.95,6.62.09,9.66.45,2.87.59,4.3,3.43,6.64,4.83,3.87.44,7.81,0,11.7.47a4.37,4.37,0,0,1,3.22,1.12c2.58,3.65-.17,8.48.93,12.49,1.44,1.83,3.87,2.37,5.77,3.57,6.82,4.86-1.44,12-6.44,14.16-3.4,2.25-1.19,6.94-3.28,10-1.64,2.3-3.92,4.51-6.68,5.3-2,.36-4-.26-6,0-.84.28-.91,1.53-1.4,2.21a7.21,7.21,0,0,1-3.83,3.42C204.15,421.09,194.22,421.6,194.84,417.56Z"/><path d="M33.08,426.14c-.73-3.23-2.11-6.07-2.16-9.36A9.26,9.26,0,0,1,35.64,409a10.35,10.35,0,0,1,2.8-1.08c.34-.06.93-.1,1.11.3a2,2,0,0,1,.13.48.26.26,0,0,1-.51.1c0-.1,0-.21-.08-.31v0h0c0-.07-.08-.1-.15-.1a5.77,5.77,0,0,0-1.79.75c-3.38,1.82-5.37,6.2-3.72,9.78.55,1.69,3.77,7.08,1.4,8A1.39,1.39,0,0,1,33.08,426.14Z"/><path d="M43.68,422c-1.33-1.31-3.64-2.75-3.49-4.83a.42.42,0,1,1,.75-.21,15.14,15.14,0,0,0,11.22,5.29,86.91,86.91,0,0,0,17.5-2.52c3.9-1.37,4.59,0,7.34,2.29a94.34,94.34,0,0,0,19.66,10.7c2.31.88,6.38,0,6.69,3.36a2.82,2.82,0,0,1-2.61,3,19.61,19.61,0,0,1-7.46-.9c-7.89-3.72-15.87-7.9-21.84-14.21C62.33,425.24,51.46,428.83,43.68,422Z"/><path d="M97.55,421.32c-2-.9-7.15-4.33-1.81-4.31a.51.51,0,0,1,.07,1l-.69.07c6,3.28,13.5,3.82,20.19,3.3,3.46-.21,6.81-2.32,10.27-1.52,1.67.53,3.07,1.73,4.68,2.42,3.4,1.4,7.18.25,10.65-.33a113.69,113.69,0,0,0,16-2.14c3.14-.66,6.39-.6,9.48-1.48,1.62-.48,3.86-1.61,4.89.39a2.22,2.22,0,0,1-1,3c-6.11,3.57-13.28,3.26-19.94,5a38.87,38.87,0,0,1-8.54,1.53c-6.06,1.09-12.86,1.59-17.61-3.09a1.43,1.43,0,0,0-1.45-.4A63.84,63.84,0,0,1,114,425.9C108.15,426.21,102.87,423.28,97.55,421.32Z"/><path d="M160.26,440.55c-.52-1.19,2.24-2,3-2.54a34.79,34.79,0,0,1,14.3-3.4,15.63,15.63,0,0,1,6.82,1.3,9.06,9.06,0,0,0,6.28-.76c3.76-1.66,7-4.22,10.62-6.16,3-1.25,5.88-2.6,8.81-3.91,4.42-1.78,9.32-1.54,14-2.21,2.36.07,3.86-1.88,5.55-3.24s3.28-2.71,4.92-4.05c8-5.91,2.73-7.93-4.09-9.9a2.29,2.29,0,0,1,.59-4.52,20.71,20.71,0,0,1,6.19,1.78c7.51,3,8,9.69,2.56,15.06-3.58,2.72-6.89,5.66-10.46,8.35a9,9,0,0,1-4.49,1.32c-4.08.54-8.3.36-12.27,1.49-2.81,1.34-5.54,2.88-8.42,4.08-4.76,2.11-9.08,5.4-14.28,6.41a10.75,10.75,0,0,1-6-.68,29,29,0,0,1-3.23-1.93,14.59,14.59,0,0,0-4.53-.85,29.59,29.59,0,0,0-14.81,4.06C161.42,440.88,160.57,441,160.26,440.55Z"/><path d="M55.31,451.33c-2.38-1.24-4.09-3.49-6.58-4.54s-5.44-1.7-6.91-4.12a28,28,0,0,0-1.29-3c-4-3.36-10.23-3.45-13.54-7.74-2.77-3.48,0-8.87-3.2-12-1.31-.94-3-1.06-4.46-1.56-3.77-1.3-4.21-4.87-2.92-8.23.73-2.83,2.6-5.62,5.72-5.93a.65.65,0,0,1,.26,1.28c-3.15.19-4.07,3.77-4.51,6.36-1.05,5.22,4.27,4,7.3,5.71,5.31,2.73,2.47,8.51,5,12.4,4.68,4.06,13.23,3.39,15.55,10.05,1.64,1.86,4.58,1.67,6.63,2.93,2.46,1.2,4.48,3.46,7.3,3.77a40,40,0,0,0,6.38-.12c3.09,0,5.69,2.17,8,4a2.67,2.67,0,0,1,.66,3.16c-1.78,3.16-6.07.4-8.33-.83C62.81,452.32,58.72,453.27,55.31,451.33Z"/><path d="M91.68,448.56a25,25,0,0,0,2.71-1.3.26.26,0,0,1,.24.47l-.35.18a39.69,39.69,0,0,1,18.09-1c4.7,1.05,9.35,2.58,14.15,3.15a98.19,98.19,0,0,0,23.24.14c5.64-.61,11.36-.82,16.86-2.32,5.26-1.75,10.42-4.73,16.16-4,3.5.39,6.78,1.93,10.37,1.74a18.91,18.91,0,0,0,8.06-2.05,49,49,0,0,1,12.94-3.09,11.19,11.19,0,0,1,6.12-3.88c1.53-.32,3.83-1.42,4.61.57a1.83,1.83,0,0,1-1.09,2.31,22.78,22.78,0,0,0-3.87,1.82c-1.48,3.59-1.83,5.38-6.18,5.73-5,.8-9.56,2.78-14.2,4.59a24.38,24.38,0,0,1-9.43.7c-3.1-.26-6-1.61-9.14-1.58-4.79.11-8.85,3.12-13.43,4.16-7.37,2-15,1.19-22.58,1.91-5.43,0-11.19.65-16.38-1.23-5.08-2.14-10.83-3.5-15.84-5.61A26.41,26.41,0,0,0,102,447.85a50.17,50.17,0,0,0-8.62,1.08,5.09,5.09,0,0,1-1.73.19C91.45,449,91.38,448.64,91.68,448.56Z"/><path d="M241,433.39a.58.58,0,0,1,.08-.46c.11-.26.46-.13.49.1,4.16-2,7.21-5.59,10.07-9.1,4.31-8-7.64-9.72-.9-19.53a13.68,13.68,0,0,0-3.26-3.69,1.53,1.53,0,0,1,1.84-2.44c2.2,1.64,5.3,3.23,5.71,6.22,0,2.11-2,3.59-2.28,5.63.18,2.22,1.73,4.1,2.35,6.22.92,3,.58,6.66-1.78,8.91-3.46,3.15-6.83,7.2-11.57,8.29C241.54,433.58,241.12,433.69,241,433.39Z"/><path d="M68.14,350.7a.6.6,0,0,1,.5-.61,5.19,5.19,0,0,0,1.7-2.26,7.89,7.89,0,0,0,.8-3.81c-.36-1.66-3,4.34-2.66,4.92a.46.46,0,0,1-.76.52c-.59-1,.06-2.17.4-3.12a10,10,0,0,1,2.13-3.48c2.42-1.2,2.15,2.65,1.6,4A10.5,10.5,0,0,1,70,350.61a1.52,1.52,0,0,1-1.29.67A.61.61,0,0,1,68.14,350.7Z"/><path d="M14.36,383.84c-1.09-.36-2.17-1.56-1.24-2.64,1.67-1.77,4.71-4.33,7.26-3.22.25.22.47,1,0,1.09s-.2-.48-.36-.69c-2-.61-4,1.42-5.5,2.62-.35.43-1.18,1-.64,1.5,2.46,1.46,6.74,1.73,9-.21a.55.55,0,0,1,.76,0c.57.68-.54,1.29-1,1.6C20.07,385.14,17,384.76,14.36,383.84Z"/><path d="M213.79,353.48c.68-2.81,2.44-5.18,4.22-7.4,1-1.51,2.4-2.17,3.05,0s-.37,4.58-1.56,6.45c-.37.46-.77,1.44-1.49,1-.78-.73.52-1.6.79-2.29.92-1.61,2-3.83.92-5.6a20.94,20.94,0,0,0-4.47,6.12,9.83,9.83,0,0,0-.65,1.94.42.42,0,0,1-.51.31A.43.43,0,0,1,213.79,353.48Z"/><path d="M247.89,377.44c.1-.78.94-.58,1.49-.62,1.1-.17,7.24-.86,6.21-2.45-1.41-1.23-3.64-1.11-5.37-1.3a10.87,10.87,0,0,0-4.5.64.46.46,0,0,1-.88-.28.85.85,0,0,1,.53-.55,13.74,13.74,0,0,1,6.55-.65c1.47.15,3.13.27,4.28,1.3s.61,2.49-.71,3.06C254.46,377.22,248,379.44,247.89,377.44Z"/><path d="M216.32,324.93c0-.25-.09-.51.12-.68.39-1.69,1.33-6.81,3.79-4.16a6,6,0,0,1,.94,2.18.39.39,0,0,1-.25.49.38.38,0,0,1-.48-.26c-.24-.78-.84-3.07-1.92-2.15a12,12,0,0,0-1.32,3.55c-.19.4,0,1.18-.54,1.3A.33.33,0,0,1,216.32,324.93Z"/><path d="M38.71,342.53c-.09-1.6-1.23-3.21-.45-4.81a1.91,1.91,0,0,1,2.64-1,3.82,3.82,0,0,1,1.31,1.12.33.33,0,0,1-.05.46.32.32,0,0,1-.46,0,2.75,2.75,0,0,0-1.44-1.11c-1.44-.26-1.78,1.52-1.56,2.59s.51,1.84.54,2.8a.28.28,0,0,1-.26.28A.27.27,0,0,1,38.71,342.53Z"/><path d="M1.24,413.52c-3.33-3.06.72-6.72,4.22-5.86a7.73,7.73,0,0,1,1.75.61.36.36,0,0,1,.21.46c-.36.6-1.22-.29-1.7-.32A4,4,0,0,0,1,410.2a2.53,2.53,0,0,0,.4,2.17c1.13,1.48,3.16,1.19,4.64.47a.44.44,0,0,1,.57.21c.2.79-1.08.85-1.58,1.13A4,4,0,0,1,1.24,413.52Z"/><path d="M287.24,407.71c-.11-.87,1.26-.8,1.81-1.15,1.37-.58,4.24-1.74,3.58-3.57l-.11-.14-.07-.08a1.49,1.49,0,0,0-.88-.38,13.15,13.15,0,0,0-4,1,.35.35,0,0,1-.65-.22.38.38,0,0,1,.25-.3,15.33,15.33,0,0,1,2.42-.72c1-.21,2.14-.68,3.1-.09a1.89,1.89,0,0,1,.5,2.71c-1.18,1.82-3.37,2.55-5.32,3.25A.5.5,0,0,1,287.24,407.71Z"/><path d="M188.5,70.67c.82.71-.25,1.25-1,.94-2.92-1.06-5.94-2.3-9-1.18a23.86,23.86,0,0,0-6.45,2.5c-1.85.92-6.16,4.29-7.69,1.73-1-2.22,1.95-2.93,3.32-3.91,3.2-2.48,7.09-3.21,11-3.57,3.43-.53,6.76,1.12,9.43,3.15C188.33,70.29,188.45,70.5,188.5,70.67Z"/><path d="M160.55,76.17a1.46,1.46,0,0,1-.94,1.67,37.07,37.07,0,0,0-5,3.16c-3.57,2.8-3,3.61-2.43,7.64a1.33,1.33,0,0,1-2.62.38,1.16,1.16,0,0,1,0-.18c-.13-.44-.23-.89-.33-1.34-2.32-.44-1.08-3.31-.39-4.7,0-1.87,3-7.1,5.11-5.36C155.55,76.49,159.47,73.29,160.55,76.17Z"/><path d="M103.28,350a4.49,4.49,0,0,0-.09-2.09l.09.4a10.18,10.18,0,0,0-.86-2.6l.83-.08a2.26,2.26,0,0,1-.33-.83c-.88-5.81-2.37-11.53-3-17.39,0-3.76-1-7.43-1-11.15.38-.65.76.38.86.73a24,24,0,0,1,.29-2.93,1.42,1.42,0,0,1,1.27-1.21,1.94,1.94,0,0,1,.06-1.08c-3.8-3.52-3.1-9.17-2.94-13.87-1.31-4.66-1.08-9.58-1.69-14.4-.65-4.44-1.47-8.86-2.34-13.27s-.64-8.71-1.25-13c-.1-1-.2-2-.29-3a2.77,2.77,0,0,1-.33-.8,22.44,22.44,0,0,1-.53-3.47,9.38,9.38,0,0,1-.09-5.25,20.79,20.79,0,0,1-3.16-.85,6.19,6.19,0,0,1-1.6-1.13s0,0,0,0c-2.11.08-2.56-2.54-3.09-4.1a11,11,0,0,1,0-7,48.1,48.1,0,0,1-.3-5.74,1.41,1.41,0,0,1,2.1-.94c.44-1.93.62-3.92,1.21-5.81.11-.32.33-.81.74-.79a.48.48,0,0,1,.18.87c-.53,3-1.25,6.29-1,9.29.58,3.57,1.1,7.27,2.84,10.5,2,2,8.46,1.23,13,.18a27,27,0,0,1,2.67-.73c.35-.11.66-.22.93-.32,7.17-1.66,11.68-8.53,18.72-10.27,4.42-1.45,9-1.58,13.6-2a92.77,92.77,0,0,1,23.77.75c3.23.12,6.11,1.53,9.19,2.34a38.79,38.79,0,0,0,13.2,1.52,29.12,29.12,0,0,0,6-2.77,3.22,3.22,0,0,1,1.93-.72,2,2,0,0,1,1.13.41,25.45,25.45,0,0,0,3.7-11.86,64,64,0,0,0-2.41-12c-.59-1.86-1.75-5.12.62-6.11a1.69,1.69,0,0,1,.35-.1,1.4,1.4,0,0,1-.74-.83c-1.62-4.55-1.92-9.46-4-13.87-2.85-5.65-8.09-9.53-11.42-14.83-1.84-3.36-2.28-7.24-2.61-11a68.42,68.42,0,0,1,.58-14.44c.51-3.65,2-7.34,1.42-11.06a.8.8,0,0,1-.21.15.94.94,0,0,1-.75.05h0c-3.42-2.37.76-12.33,1.63-15.7a.83.83,0,0,1,1.48.18,2.77,2.77,0,0,1-.14,1.5c-1,3.56-2.08,7.27-1.81,11a14.2,14.2,0,0,1,1.73,7.33c.06,9.08-1.32,18.32,1.1,27.21a16.41,16.41,0,0,0,3.44,6.47c2.58,3.89,5.57,7.52,8,11.5,2,4.73,2.87,9.82,4.35,14.7a1.4,1.4,0,0,1-1.08,1.69,2.33,2.33,0,0,1,.93.64l.1-.17c2.34-4.13,7.61-3.52,11.55-4.88,3.37-.77,5.85-3.3,8.51-5.35,1.88-1.28,3.9-2.15,5.25-4,1.8-2.25-.57-4.61-1.52-6.68-1.33-2.54-2.58-5.1-3.88-7.65a40.35,40.35,0,0,1-4.25-18.05c0-3.21-.64-6.36-.85-9.53.29-6,.78-11.89.1-17.84a39.89,39.89,0,0,0-4.11-18.63,27.14,27.14,0,0,0-14.8-10.72,43.82,43.82,0,0,0-8.72-2.92,20.58,20.58,0,0,1-4.82-.27q-.68.06-1.35.18c-.9-.11-2.64.48-2.94-.65a36,36,0,0,0-7.74.94,38,38,0,0,1-9.92,2.25c-.61,0-1.33.15-2.06.2-.82,1-1.63,2-2.45,3a42.7,42.7,0,0,0-4.71,6.38,2.29,2.29,0,0,1-1.45,1.29c6.43,6.92,9.43,18.49,7.5,27.6-.59,2-1.26,4.59-3.35,5.58a1.82,1.82,0,0,1-2.48-1.49,1.22,1.22,0,0,1-1.25-1.63,7,7,0,0,1,2-2c1.95-7.11,1-14.67-1-21.64-.58-2-1.87-3.83-2.68-5.75a5,5,0,0,1-1,1.09,1.86,1.86,0,0,1-2.06.3,19.81,19.81,0,0,1-2.58,2.9.83.83,0,0,1-1.15,1,6.07,6.07,0,0,1-.88-.58,14.65,14.65,0,0,1-2.71-2,3.21,3.21,0,0,1-1-.28c-3.26,3.32-5.1,8-3.74,12.63s2.12,9.45,4.81,13.56l.11,0c1,.39.24,2.06.63,2.85.47,2,1.36,4.25.49,6.24a1.49,1.49,0,0,1-2.62-.05,4.7,4.7,0,0,1-.19-5.58l0-.09a1.25,1.25,0,0,1,.33-.55,7,7,0,0,1,0-.79c-6-7.69-10.26-20.23-2.2-28a6.24,6.24,0,0,1,1.15-1,37.28,37.28,0,0,0-7.53-3.82c-1.82-.2-3.64-.33-5.46-.45-1.91.23-3.74.87-5.63,1.17a1.55,1.55,0,0,1-1.47-.8,47.48,47.48,0,0,0-8.28,2.63c-5.08,2.92-9.2,7.7-13.5,11.59-2.88,3.28-6.75,5.68-9,9.5a76.48,76.48,0,0,0-7.9,17.9,56.19,56.19,0,0,0-1.32,8.67c-.65,4-1.77,7.9-2.53,11.88-1.33,5.18-2.42,10.56-5.15,15.21-2,3.52-3.62,7.29-6.58,10.11a45.34,45.34,0,0,0-6.69,7.95,31.69,31.69,0,0,0-4.72,7.93c-1.29,1.58-.08,3.15,1.29,4.21.34.23.68.46,1,.67l1.33.14a3.31,3.31,0,0,1,1.31.37c2.7-.78,5.2-2.57,8.16-1.75,2.52.79,5.12,1.34,7.57,2.31a44.71,44.71,0,0,0,6.5,2.87c.72.27,1.41.59,2.11.91s1.31.61,2,.86A1.86,1.86,0,0,1,81,219a3.73,3.73,0,0,0,.6-.18,13,13,0,0,0,4-1.87,15.22,15.22,0,0,0,2.77-5.26c1.19-3.5,2.59-6.95,4-10.35.79-1.68,2.14-3.12,2.9-4.8,1.64-4,2.35-8.28,4.44-12,2.46-4.25,4.55-8.67,5.2-13.57.41-3.46,2.08-6.59,2.6-10a34.32,34.32,0,0,0,.08-8.94c-.4-2.61-1.07-5.17-1.5-7.78-.17-.54.25-1.24.87-1,.89.5,1.18,1.65,1.68,2.49,1.36,2.88,2.73,6,2.13,9.27-.14.71-.1,2.81-1.32,2.06A34.89,34.89,0,0,1,107.22,168a95.11,95.11,0,0,1-2.27,9.54c-1.58,4.55-4.63,8.53-5.87,13.2a184.57,184.57,0,0,1-8.59,21.17c-1,2.46-2.21,5.13-4.25,6.91a9.32,9.32,0,0,1-5.78,1.55,1.85,1.85,0,0,1-1.18.54c-4.51.13-8.67-2.35-12.55-4.35-2-.8-4.23-1.25-6.23-2.2-1.8-.75-3.56.34-5.3.73a11.08,11.08,0,0,1-6.26-1.24c-3.47.71-6.8,2-10.21,3,1.55.75,3.27,1.27,4.55,2.41a.8.8,0,0,1,.07.75c-.82,1.37-2.86-.51-3.85-1-.48.6-1.29-.07-1.79-.32-.79-.44-1.51-.87-2.26-1.28l-.41.05a18.48,18.48,0,0,0,3.58,3,28,28,0,0,0,4.77,1.41c3.2.39,6.38-.52,9.59-.44a18.84,18.84,0,0,1,7.83,1.8,6.91,6.91,0,0,0,2.22.6,2.11,2.11,0,0,1,2.32.4A8.16,8.16,0,0,0,67,220.93a4.62,4.62,0,0,1,2.12-2.42c1.13-.37,1.86.86,1.75,1.87-.26,2.35-.84,4.7-1.07,7a1,1,0,0,1-.59.5c.3.81.94,1.47,1.82.94a19.5,19.5,0,0,0,.82-3.63c.15-1.55.12-4,2.28-3.85A2,2,0,0,1,76,223.44c-.16,2.68-.18,5.8-2.18,7.84-1.6,1.47-4.83,1.35-6-.57-1.1-1.74-.72-3.89-.57-5.85a6.79,6.79,0,0,1-1.24.87,2,2,0,0,1-.86,1.58c-2.41,1.73-5,.65-7.47-.4a21.28,21.28,0,0,0-2.6-1c-3.46-.9-7.18-.2-10.58-1.3-.9.52-2.56-.18-3.46-.51-.76,0-3.76-2.36-5.77-4.54a5.87,5.87,0,0,1-1.76-2c-2.26.11-4.55-.16-4.94-1.93-.29-3.83,5-2.69,7.47-3.2A76.91,76.91,0,0,1,44.08,211c.84,0,1.68,0,2.52.1A4.67,4.67,0,0,1,45.4,207c.41-1.15,1-2.22,1.45-3.37a20.92,20.92,0,0,1,3.46-5.83,43.2,43.2,0,0,1,7.73-9c7-7.56,10.15-17.71,11.79-27.64,1.36-5.22,1.62-10.59,2.65-15.86a82.65,82.65,0,0,1,9.25-20.69c1.49-2.3,3.67-4,5.71-5.8s3.77-3.86,5.83-5.6a66.24,66.24,0,0,1,7.26-6,16,16,0,0,1,7.19-3.54l.44-.12c.3-.94,3.5-1.77,6.72-2.42a19,19,0,0,1,3.59-1.06,18.22,18.22,0,0,1,3.41-.55h0a.74.74,0,0,1,.26,0,15.43,15.43,0,0,1,7.36,1.39,21.06,21.06,0,0,0,3.51,1.36,18.53,18.53,0,0,1,4,1.63c1.69,1,2.09,2.28,1.71,3.2l1,.68a35.62,35.62,0,0,0,3-3.58c.44-1.8,2.21-3.21,3.51-4.45,1.6-1.1,4.55-5,6.55-3.91.64-.5,1.28-1,1.92-1.54a2.34,2.34,0,0,1-2.1-2.22,2.45,2.45,0,0,1,1.94-2.57c2.5-.48,5-.59,7.54-1.06C167,87,172,85.47,177.15,86.05c2.62.18,4.94,1.6,7.55,1.84a4.81,4.81,0,0,0,.85.1.38.38,0,0,1,.26-.53l.34-.21c.27-.16.54.2.35.39a33.56,33.56,0,0,0,9.38-1.1,5.29,5.29,0,0,1,1.56-.49,17.9,17.9,0,0,0,5.76-3.18c4.26-5.39-.07-10.06-6.15-9.63a43.44,43.44,0,0,1-4.56.1,2.27,2.27,0,0,1-1.73-3.48c1.46-1.65,4.14-1.42,6.17-1.7,5.12-.31,10.4,1.59,12.28,6.74,1.85,4.23-.29,9.15-3.73,11.89a21.24,21.24,0,0,1-10.17,2.54c-1.12-.08-2.26-.11-3.39-.15,2,.41,4,1,5.91,1.61,6.11,1.52,11.1,5.84,14.86,10.75,2.43,3.91,3.62,8.52,4.84,12.93a152.94,152.94,0,0,1,1.26,18.28c-.08,4.25-1.09,8.49-.29,12.71.58,6.3.18,13.06,2.74,18.92,2.44,5.4,6.19,10.4,7.42,16.27.61,5.19-4.25,8.31-7.9,11-2.34,1.9-4.64,4-7.45,5.14-3.11,1.26-6.5,1.6-9.65,2.72a5.31,5.31,0,0,0-1.63,2A3.56,3.56,0,0,1,203.4,203c.4-1.14,1.59-.39,1.88.43,1.06,2,1.12,4.56,1.72,6.67.21.9.51,1.91,1.63,1.88a5.58,5.58,0,0,0,1.41-3.25,2,2,0,0,1,3.74-.52l.06.14a13.53,13.53,0,0,0,2.73,1.2c2.89.95,4.93-1.39,7.22-2.67a33.51,33.51,0,0,1,8.54-2.9c2.26-.68,4.93-.56,6.93-1.87A8.44,8.44,0,0,0,241,198.8c-1.47-.05-3-.42-4.44-.41-6.54.86-12.51,4-18.95.28a2.43,2.43,0,0,1,0-4.31c2.06-.82,4.13.95,6.23,1,2.62.3,5.19-.43,7.78-.67,3.3-.22,6.6,1,9.59,2.32a2,2,0,0,1,3.39-.29c2.1,2.71.74,6.43-1.33,8.75-2.82,3.12-7.48,2.74-11.24,3.86a31.91,31.91,0,0,0-8.33,3.09,8.64,8.64,0,0,1-7.43,0,5.38,5.38,0,0,1-1.85-1.31c-.3,5.47-7.12,8.08-10.4,3.1-.83-1.39-.58-3.05-.53-4.6-.21-2.12-.11-4.3-1.08-6.28a3.73,3.73,0,0,0-.75-1.15,12,12,0,0,1-.88,1.46,66.35,66.35,0,0,1,1,7.14c1.38,6.85-2.71,12.94-7,18a2.07,2.07,0,0,1-.65,2,21.37,21.37,0,0,1-5.69,4,9.2,9.2,0,0,1-.45,2.79c-1.87,5.29-2.08,10.84-2.84,16.32-1,4.3-1.42,8.66-2.08,13a83.17,83.17,0,0,0-1.56,12.86,69,69,0,0,0,.11,13.48,23,23,0,0,1-6.54,12.46c.63,1.37-.14,2.8-.25,4.19-.27,2.73-.37,5.47-.41,8.21.05,7.33,1.54,14.9.26,22.14l.64-.23a19.58,19.58,0,0,0-.82,2c-.22.72-.42,1.43-.59,2.14a6.65,6.65,0,0,0-1.65,1c-.18.17-.36.36-.52.54h0c-1,.08-2,0-3,.07a17.68,17.68,0,0,0-3.55.37,29.6,29.6,0,0,1-7.24-1.69c-1.1,0-2.19.09-3.28.2l0-.05a16.71,16.71,0,0,0-2.25-2.43,10,10,0,0,0-.81-.65c1.19-.27,2.38-.51,3.58-.74a2.39,2.39,0,0,1-.48-.28c-3.84-3.22-3.43-8.68-3.72-13.22-.47-6.57-.14-13.18-.61-19.74-1.57-11.55-5.51-22.75-7-34.28-1.16-9-2.25-18-3.62-26.91-.39-3.77-.48-7.58-.51-11.38a2.07,2.07,0,0,1-1.2.56c-.22,1.15-.48,2.29-.65,3.43-1.19,5.93-1.53,12-3.25,17.83-1.62,3.72-1.88,7.81-3.19,11.63-1.67,4.8-2.9,9.73-4.35,14.6a41,41,0,0,0-1.29,8.82c.59,4.82,1.72,9.59,1.59,14.49.28,7.21-1.25,14.34-1.85,21.5-.45,3.54-.48,7.1-.92,10.63a3.42,3.42,0,0,1-1.67,3c1.42,1.41,1.8,3.83,2.3,5.86a11.87,11.87,0,0,0-4.93,1.65c-.19-.81-.36-1.62-.61-2.41-3.18,2.41-7.33,2.52-11.13,3.08-1.59.19-3.19.29-4.78.34C103.27,350.08,103.28,350.06,103.28,350Zm35.51-118.83a4.17,4.17,0,0,1,.38.34c0-.13,0-.26,0-.39Zm-29.93-81.29a27.73,27.73,0,0,1,.57,5c0-.59.09-1.17.09-1.75,0-.35,0-.68-.07-1a11.6,11.6,0,0,0-.27-1.33c-.12-.41-.26-.81-.4-1.2C108.81,149.7,108.83,149.81,108.86,149.92Z"/><path d="M91.71,355c-1.24-3.36,3.4-2.93,5.43-3.28-1-.26-.15-1.43.36-.72a11.84,11.84,0,0,0,5-.45c4.31-1,8.63-1.86,13-2.77,1.84-.39,3.66-.83,5.53-1.05a1.7,1.7,0,0,1,1.49.62,55,55,0,0,0,5.69-.91,1.47,1.47,0,0,1,1,2.66,45.41,45.41,0,0,1-10.66,4.23c-6.15,1.57-12.54,1.09-18.81,1.77C97.41,355,93.1,357.37,91.71,355Z"/><path d="M147.05,347a1.87,1.87,0,0,1-.46-.47,1.69,1.69,0,0,1-.17-.29h-.57c-.14.37-.69.1-.75-.21,0-.62.84-.44,1.25-.48.24-2.44,7.1-1.22,9-1.32,5.59.46,11.18,1.08,16.79,1.21,3.8-.21,7.59-.87,11.35-1.23a2.08,2.08,0,0,1,.83,3.7c-.55,2-1.05,4-1.71,6a1.23,1.23,0,0,1-1.37.81,1.21,1.21,0,0,1-1-1.41c.29-1.6.55-3.2.85-4.8-.68,0-1.35.06-2,.07h-1.38c-.78,1-2.14.67-3.23.67-2.49-.11-5-.25-7.46-.47C160.4,348.62,153.4,349.11,147.05,347Z"/><path d="M149.77,352.3a.27.27,0,0,1,.33-.17.26.26,0,0,1,.17.33.27.27,0,0,1-.33.17A.27.27,0,0,1,149.77,352.3Z"/><path d="M101.94,390.59a5.1,5.1,0,0,1-1.34-2.93c-.61-2.28-1.09-4.59-1.75-6.85-3.18-1.13-5.58-13.47-6.1-16.86-.31-1.8-.39-3.62-.69-5.42-.24-1.07-.64-2.6.57-3.23,3.18-1.34,3.55,6.26,4.23,8.22,1.21,7.25,4.31,13.87,6.69,20.76.39,1.14.83,2.27,1.28,3.4a2,2,0,0,1,.38,1.88A2.05,2.05,0,0,1,101.94,390.59Z"/><path d="M129.34,386.17c-1.4-1.14-.86-3-.93-4.58a101.83,101.83,0,0,0-.59-11.84c-.37-4.35-.62-8.7-.58-13.06-.07-1.91,0-5.22,2.83-4.3.21-1.34,0-2.88.52-4.13h0c.41-.33.74.2.67.61-.35,5,1,9.83,1.24,14.81.46,6,1.38,11.89,1.52,17.88a14.74,14.74,0,0,1-.11,3A2.84,2.84,0,0,1,129.34,386.17Z"/><path d="M119.5,406.58c-1.61-.69-3.4-2.48-2.51-4.35a2.52,2.52,0,0,1,2.68-1.36,42,42,0,0,0,9.91-3c.83-1.47.65-16.55,3.32-13.46.55,2.11.54,4.38.94,6.55.29,2.84,1.56,5.48,1.8,8.31s-2.63,4.7-4.86,5.62C127.3,406.08,123,408.8,119.5,406.58Z"/><path d="M82.53,414.38c-1.11-2.11,7.74-3.48,9-3.54,3.18-.52,6.2-2.19,9.07-3.55a16.88,16.88,0,0,0,4.85-3.26,16,16,0,0,0,3.37-2.92,2.27,2.27,0,0,1,3.94,1.88c-.09,2.06-1.47,3.62-3,4.88-1.27,1.1-2.39,2.35-3.75,3.33-2.67,1.86-6,2.18-9.07,2.84s-6.6,0-9.66.15c-1.25.05-2.48.21-3.72.38A1.21,1.21,0,0,1,82.53,414.38Z"/><path d="M80.7,414.85c-2.3-4.51-5.36-9.94-2.08-14.76,2.13-3.1,4.9-6.74,8.8-7.44,1,.06,2.46-.51,3.33,0,2-1,4-1.93,6-2.84a12,12,0,0,1,8.14-2.75,2.11,2.11,0,0,1,1.89,2.75c-.34,1.17-1.57,1.56-2.63,1.76-2.27.13-3.93,1.69-5.73,2.9A78.82,78.82,0,0,0,85.9,405.36c-2,2.5-2.8,6.15-1.37,9.07a1.75,1.75,0,0,1-2.27,2A3.53,3.53,0,0,1,80.7,414.85Zm1.3-8.43a21.25,21.25,0,0,1,5-8.07C84.34,400.45,81.68,402.75,82,406.42Z"/><path d="M169.67,387.23a1.67,1.67,0,0,1,1.23-1.71,27.5,27.5,0,0,1,5.43-2.21l-1-.32a.26.26,0,0,1,.17-.5c1.72.88,3.51.31,5.31.09,6.25-2.62,14.39-3.42,19.78,1.44,1.31,1.59,3.65,2.65,4,4.83a2.76,2.76,0,0,1-4.5,2.32c-5.61-4.62-10.39-6.41-17.61-4.85-2,.29-4.1.34-6.1.83S170.5,390.35,169.67,387.23Z"/><path d="M198.28,397.27a22.67,22.67,0,0,0,.25-6.2c-.56.18-.33-.55-.27-.85.08-.53.61-.33.74.06.52,1.12,2.15,8,.11,7.91A.88.88,0,0,1,198.28,397.27Z"/><path d="M159.41,402.74a3,3,0,0,1-.75-3.56,3.2,3.2,0,0,1,4-1.46c2.36.21,4.73.46,7.11.46,2.83-.12,5.6-1.5,8.4-.31,4.76,1.46,9.64,3.79,14.74,2.89a13.36,13.36,0,0,0,7.4-7c.55-1.14.63-2.71,1.84-3.37a.62.62,0,0,1,.57,1.09c-.68.88-.56,2.26-.92,3.32a16.85,16.85,0,0,1-1.63,4c-5.19,8.1-14.57,7.25-22.43,4.4-1.54-.58-2.82.76-4.25,1.18C169.62,405.77,162.79,405.2,159.41,402.74Z"/><path d="M146.86,403.66a4.36,4.36,0,0,1-.77-.83c-2.18-.13-3.91-2.5-1.83-4.1-.43-3.45,1.67-6.78,1.7-10.32.62-4.42.36-8.94.29-13.35v.07c-.13-6.31-.35-12.47.05-18.68.08-.7,0-6.65,1.19-5.54a4,4,0,0,0,.55,1.15,5.66,5.66,0,0,0,1.44.76c.3.13.08.6-.23.47a4,4,0,0,1-1.78-1.09,42.7,42.7,0,0,0,.3,5.65c1.59-.11,2.06,1.63,2.16,2.91.28,1.88.47,3.76.66,5.65q.43,4,1,7.9c.15,1.84,1.4,4.34-.64,5.53a66.12,66.12,0,0,1,.93,11.14c.09,2.67-1.33,5.21-1.59,7.73,2.67.65,5.13-.55,7.73-1a1.4,1.4,0,0,1,.79,2.68c-.88.33-1.75.66-2.64,1-.17,2-2.44,2.62-4,3.13A5.47,5.47,0,0,1,146.86,403.66Z"/><path d="M173.07,381.24c1.79-10.72,5.22-21.17,8.2-31.57a2.31,2.31,0,0,1,4.22.2c.73,3.32-1.45,6.55-2.05,9.78-1.9,7.59-3.6,15.27-5,22.94A2.82,2.82,0,0,1,173.07,381.24Z"/></g></g></g></svg>