<svg xmlns="http://www.w3.org/2000/svg" viewBox="0 0 394.87 408.55"><g id="Layer_2" data-name="Layer 2"><g id="Layer_group" data-name="Layer group"><g id="Vector_layer" data-name="Vector layer"><path d="M115.53,72.28c.17.26-.22.5-.39.3a1.17,1.17,0,0,1-.32-1c-1.33-6.25-9.53-10-15.34-10.54-5.15-.61-10.31-.47-15.47-.82-5.58-.68-7.87.9-11.85,4.46-3,2.86-4.07,7.17-7.06,10a20.5,20.5,0,0,0-6.85,14.47c.12,2,1,4,.59,6-.52,2.44-1.55,5.3.39,7.37a4.28,4.28,0,0,1,.51.77.92.92,0,0,1-1.3,1.15c-3.9-3-2.22-6.76-1.68-10.77-.18-1.62-.7-3-.85-4.64-.09-6.69,3.5-12.52,8.43-16.75,2.73-3,3.86-7.17,7-9.78,5-4.89,7.77-5.42,14.63-4.8,5,0,10.05,0,15,.44,5.57,1,13.16,4.6,14.49,10.6a9.65,9.65,0,0,1-.16,3C115.3,72,115.44,72.16,115.53,72.28Z"/><path d="M86.69,85.84A1.15,1.15,0,0,1,88,87.71c-1.84,1.72-4.45,2-6.67,2.93-2.8,1.37-5.18,3.42-7.72,5.2-1.57,1.23-3.23,2.34-4.81,3.55-.61.33-3.17,3-3.39,1.65a.23.23,0,0,1,.25-.24c4.24-4.74,8.74-9.41,14.3-12.63C82.1,87.21,84.57,87,86.69,85.84Z"/><path d="M110.55,72.57c1.09-.93,2.7.67,1.77,1.76-1.26,1.9-3.83,2-5.8,2.4-3.42.8-7.21,1.61-9.77,4.16.51,0,.58.48.2.52-2.4-.1,1.75-3.15,2.26-3.78a12.71,12.71,0,0,1,5.46-3.06C106.61,73.82,109,74.16,110.55,72.57Z"/><path d="M57.35,118.22c.28.34.11.82,0,1.2a12.94,12.94,0,0,1-3.47,4.69c.59-.13,1.66-1.14,2.13-.58a.42.42,0,0,1-.14.56c-1.76.92-3.52,2.41-5.54,2.56-1.85-1.17,1.46-2.11,2.18-2.81,1.8-1.34,3.66-3,4.35-5.22C56.58,118.34,57.11,118,57.35,118.22Z"/><path d="M59.66,124.79a.44.44,0,0,1-.12.56,3.1,3.1,0,0,0-1.16,1.28,9.23,9.23,0,0,0-1.05,2.66c-.06.79-.71,2.06-1.61,1.32a.71.71,0,0,1-.18-.71c.54-1.46,1.35-3,1.3-4.55-.06-.81-.75.1-1-.42,0-.44.66-.42,1-.49.63.06.86.79.92,1.32C58,125.2,59.1,124.15,59.66,124.79Z"/><path d="M65.59,126.74a.53.53,0,0,1-.1.75c-1.72,1.27-3.37,2.63-4.95,4a10.22,10.22,0,0,0-1.32,1.31c-.07.44-.27,1.17-.86,1a.55.55,0,0,1-.3-.39,18.06,18.06,0,0,1,.63-3.39c.34-.87.53-4.62,1.83-4.18a.34.34,0,0,1,0,.48,1,1,0,0,0-.34.44,39.15,39.15,0,0,0-.82,4.94c1.52-1.5,3.15-2.88,4.69-4.35C64.47,127,65.07,126.16,65.59,126.74Z"/><path d="M70.88,129.2a.55.55,0,0,1-.4.6A9.43,9.43,0,0,0,67,133.91c.3.76-.18,1.91-1.09,1.34-.86-.84-.56-2.24-.78-3.33,0-.79-.78-4,.39-4a.32.32,0,0,1,.15.45,18.4,18.4,0,0,0,.9,4.12C67.1,131.73,70.08,127.3,70.88,129.2Z"/><path d="M75.43,130.39a1,1,0,0,1,0,1.47A22.4,22.4,0,0,0,73,134c-.54.58-1.11,1.63-2,1.27s-1-1.72-1.23-2.62c-.14-.49-.33-1.91.44-1.84a.28.28,0,0,1,.16.37c-.14.68.76,1.56,1.09,2.16C72.29,132.47,74,129.14,75.43,130.39Z"/><path d="M76.32,134.57a.25.25,0,0,1-.49.05,18.81,18.81,0,0,1-1.46,9.55c-.71,1.66-2.46,6.2-4.61,5.87-2.05-.78-.36-2.74.43-3.85a22.94,22.94,0,0,0,2.71-5.34c.07-.19.13-.38.19-.57a0,0,0,0,1,0,0l.13-.49a7.17,7.17,0,0,0-.07-4.92A1.07,1.07,0,0,1,75.1,134c.15-.39.21-2.06.88-1.61A7.53,7.53,0,0,1,76.32,134.57Z"/><path d="M73.54,139.94c.32.42-.19.92-.64.91h-.09c-.45-.08-.22-.61.19-.5a.18.18,0,0,0,.09-.06,10.42,10.42,0,0,0-3.65,1.34,8,8,0,0,0-3.57,2.75c-1.05,1.23-2.53,2.38-2.58,4.09a5,5,0,0,0,2.39,3.06,1,1,0,0,1,.48.9.66.66,0,0,1,0,.21c-.24.89-1.35.83-2,.47a5.83,5.83,0,0,1-3-4.3,3.73,3.73,0,0,1,.17-1.47C62,145.2,64,144,65.25,142.28a1.74,1.74,0,0,1,.77-.86c1.19-.53,2.54-.67,3.76-1.16,1.06-.26,2.39-1,3.45-.5A2.48,2.48,0,0,1,73.54,139.94Z"/><path d="M67.72,153.14c.93.75-.19,1.68-1.08,1.27C65.32,154,59,150.69,60.83,149a1.13,1.13,0,0,1,.32-.19c.19-.08.4-.13.59-.2a17,17,0,0,1,1.06-3.18A8.09,8.09,0,0,1,64,143.75a.46.46,0,0,1,.69.61c-.17.22-.33.43-.47.63a6.89,6.89,0,0,0-1.12,2.88,2.63,2.63,0,0,1-.73,1.89l.76.62c-.08-.44.47-.66.51-.16a.61.61,0,0,0,.19.56,9.43,9.43,0,0,0,2.3,1.64A13.69,13.69,0,0,0,67.72,153.14Z"/><path d="M72.1,154.23a.25.25,0,1,1,.25.25A.25.25,0,0,1,72.1,154.23Z"/><path d="M74.45,153.88a.25.25,0,0,1,.25-.25.25.25,0,0,1,.25.25.25.25,0,0,1-.25.25A.26.26,0,0,1,74.45,153.88Z"/><path d="M29.68,207.79a13.45,13.45,0,0,1,0-10.24c1.52-2.74,3-5.51,4.36-8.28a5.63,5.63,0,0,0,.77-2.59c-4-11.27-3.28-12.33,2.47-22.66a31.07,31.07,0,0,1,5.05-8.79c2.11-4,6.77-6,11.17-5.59.65,0,5.39.49,3.82,1.4h0c-4.27.09-9.63-.25-12.39,3.67-1.13,1.92-2.4,3.74-3.49,5.67-.77,1.54-1,3.07-1.69,4.61-2.45,5.15-6.26,10.22-3.71,16.12.7,2,1.86,4,1.71,6.15-.5,3.35-2.71,6.18-4.08,9.2-.87,1.58-1.92,3.11-1.94,5a18.65,18.65,0,0,0,.34,5,2.25,2.25,0,0,1,.06,1.38A1.34,1.34,0,0,1,29.68,207.79Z"/><path d="M31,267.57c-3.89-.34-5.5-4.47-6-7.83-.82-6,2-11.53,3.93-17,.54-1.89,1.42-4,.75-5.95-.39-.68-1.26-.9-1.85-1.39-5.38-3.85-2.14-11,.09-15.77a29,29,0,0,0,1.87-9.31.44.44,0,0,1,.24-.81c.77,0,.8,1.08.8,1.65.26,5.21-1.72,10.07-3.17,14.95-.84,4.16-.2,6.29,3.66,8.25,4.59,5-2.94,14.75-3.28,20.65a12.61,12.61,0,0,0,1.33,8.43c1.63,2.2,4.8.88,7,.28,1.18-.29,2.94-1.44,3.67.14a1.38,1.38,0,0,1-.74,1.8C36.61,266.7,33.85,267.88,31,267.57Z"/><path d="M149.51,139.4c.13-.28.57-.08.45.22a.67.67,0,0,1-.31.31,20.69,20.69,0,0,0-3.28,4.22c-2.33,1.58-4.63-2.05-6.69-2.82-3.26-1.17-7-3.73-10.49-2.13a47.9,47.9,0,0,1-7.14,3.08,15.65,15.65,0,0,1-9.4,2.58c-.94-.06-2.38-.24-2.41-1.43a1.2,1.2,0,0,1,.86-1.14c2-.56,4-.48,6-.9,1.44-.27,2.51-1.34,3.83-1.91a42.76,42.76,0,0,0,6.44-2.7c3.28-2.05,7.44-.79,10.67.77a23.36,23.36,0,0,1,7.13,4.32,7.18,7.18,0,0,1,4.2-2.36A.43.43,0,0,0,149.51,139.4Z"/><path d="M87.31,361.44l0,0Z"/><path d="M89.55,282.68h0Z"/><path d="M89.55,282.67Z"/><path d="M89.55,282.67h0Z"/><path d="M89.57,282.65h0Z"/><path d="M89.91,282.17Z"/><path d="M90.46,281.38h0Z"/><path d="M90.47,281.37h0Z"/><path d="M84.54,355.86v0Z"/><path d="M85.56,295.48s0,0,0,.06S85.55,295.5,85.56,295.48Z"/><path d="M90.49,281.33h0Z"/><path d="M90.5,281.32h0l0,0Z"/><path d="M91,280.2h0v0Z"/><path d="M38.8,190.84c-.53-.47.42-.56.75-.6,1.75-.24,3.42-.8,5.15-1.09a8.37,8.37,0,0,1,2.64.6.58.58,0,0,1,.41.62.57.57,0,0,1-.64.47,24.28,24.28,0,0,1-2.37-.62C42.74,190.26,40.75,190.61,38.8,190.84Z"/><path d="M57.87,233.85c-1.76,0-3.4-.65-5.12-.9-2.08-.08-4.15.14-6.24.12-4,.17-8-.92-12-.6.33.8-.85.15-1.19.23a.35.35,0,0,1-.48-.23c.09-1.51,4.61-1.13,5.8-1.24,4.93.32,9.86-.42,14.77-.24,2.5.52,5.2,1.53,7.65.24,2.24-1.45,4.52-3.69,7.39-3.25.68,0,1.32.1,2,.08,2.18-.23,4.21-1.25,6.38-1.59a.75.75,0,0,1,.88.42c.49,1.3-2.85,1.78-3.7,2.29-2.23,1-4.53.83-6.87.64-1.89.52-3.24,1.88-4.77,3A8.13,8.13,0,0,1,57.87,233.85Z"/><path d="M29.75,263.65c0-.15,0-.29,0-.44A.23.23,0,0,1,30,263c3.77-6.6,6.13-5.39,12.74-6a23.83,23.83,0,0,0,5.83-.79,22.53,22.53,0,0,1,4.65-1.73,1.16,1.16,0,0,1,.55,2.05,20.21,20.21,0,0,1-5.36,2.42c-4.51,1-9.26-.67-13.71.29a12.21,12.21,0,0,0-4,3.64c-.25.3-.36.72-.6,1A.25.25,0,0,1,29.75,263.65Z"/><path d="M66.25,188.5c-.44-3,1.88-5.69,4-7.54,1-4.12,1.61-9.31,6.13-11,1.45-.71,3.81-1.82,4.88,0a.25.25,0,0,1-.43.26.85.85,0,0,0-.34-.36,4.51,4.51,0,0,0-2.78.56A9.26,9.26,0,0,0,74.15,173c-1.58,2.35-1.6,5.3-2.34,7.95a1.31,1.31,0,0,1-.39,1.06,10.85,10.85,0,0,0-3.87,5.79c0,.47,0,1.1-.58,1.17A.65.65,0,0,1,66.25,188.5Z"/><path d="M129.12,160.93c-.82-.82-1-2.16-2-2.78l.07,0,.06,0c-2.85-.56-5.79,1.19-8.71.8-2.38-.26-4.56-1.76-7-1.82-2.63-.28-4.81,1.52-7.19,2.36-2.24,1-4.69.53-7-.06a.24.24,0,0,1-.36-.21c.06-.53.72-.19,1-.15,6.16,2,9.23-4.86,15.22-3.37,1.9.17,3.61,1.14,5.48,1.31a39,39,0,0,0,6.34-.95,4.2,4.2,0,0,1,4.13.85c.83.91,1.87,2,2,3.27A1.21,1.21,0,0,1,129.12,160.93Z"/><path d="M138.32,185.58c0,.94-1.08,1-1.7,1-3.68.79-7.47,0-11.18-.23-2.14-.38-4,1.2-6.1.88-1.47-.3-2.36-1.58-3.43-2.48-1.37.24-2.72,1.13-4.13.84a27.81,27.81,0,0,0-8.35-2c-2.77.57-5.58,1.39-8.41.68-1.61-.36-3.64-1.09-4.27-2.75,0-.5.81-.4.53.07,1.7,2.33,5.27,2.39,7.86,1.89,2-.4,3.85-1.83,6-1.44,2.39.18,4.73.78,7.09,1.14,1.67-.33,3.46-1.69,5.12-.67,1,.54,1.62,1.66,2.65,2.14,2.24-.49,4.45-1.21,6.78-.82,3.17.41,6.55,0,9.67.6C137.2,184.64,138.31,184.57,138.32,185.58Z"/><path d="M153.65,168.72c1.41,4.08,7.18,5.15,6.6,10.31a9.73,9.73,0,0,1-.75,3,1.1,1.1,0,0,1-2.12,0c-.16-4.59.59-5-3.07-8.4-4.9-4.61-2.82-7.54-1.47-13.06-.18-3.66-5.12-4.32-6.08-7.68-1-2.66.08-5.74,2-7.73a.26.26,0,0,1,.51,0c0,.25-.25.45-.36.68-1.49,2.28-2.15,5.65-.09,7.78,1.59,1.54,3.78,2.36,5.12,4.1C156.66,161.11,153.19,165.06,153.65,168.72Z"/><path d="M175.07,162.58a12.16,12.16,0,0,0-.12,1.33.24.24,0,0,1-.25.25.25.25,0,0,1-.25-.25c0-.33.07-.64,0-.94a2.67,2.67,0,0,0-.7-1.15c-1.34-1.8-3.46-2.51-5.16-3.8-2.55-2.27-1-5.68.46-8.08-.84-2.28-4.3-2.5-4.58-5.07a1.21,1.21,0,0,1,.73-1.28,1.27,1.27,0,0,1,1.66.77c2.16,1.26,5.19,3.2,4.79,6.06-.44,1.44-1.73,2.46-2,4-.46,2.45,2.41,3.29,3.61,5A6.28,6.28,0,0,1,175.07,162.58Z"/><path d="M189.38,112.71a1.18,1.18,0,0,1-.13,2.09,6,6,0,0,1-2.92.33c-3.11,0-5.59-1.35-8.36-2.35a36.6,36.6,0,0,0-7.5,1.39c0,.19.07.47-.18.5s-.29-.26-.32-.46c-.08-.58.72-.61,1.11-.78a51.21,51.21,0,0,1,7.44-1.94c1.92.29,3.75,1.14,5.72,1.18C185.94,112.91,187.74,112.35,189.38,112.71Z"/><path d="M33.75,185.36c.38-4.63-.58-9.16,0-13.72a38.25,38.25,0,0,1,11.17-18.21c2.57-2.34,5.54-4.43,9-5.06,1.78-.3,8-.89,6,2.39v.05c.34.06.25.59-.09.5-.58-.18-.42-.83-.51-1.29C48,149,40,161.33,36.58,170.67c-1.4,4.83.3,9.92-.42,14.85A1.21,1.21,0,0,1,33.75,185.36Z"/><path d="M62.41,363.75a18.86,18.86,0,0,1,3.19-2.49c-1.32,0-2.61-.07-3.82-.08a1.35,1.35,0,0,1,.39.8C62.26,362.57,62.33,363.16,62.41,363.75ZM79.26,252.53c0-.07.12-.14.18-.21l-.06,0c-1.71.35-2.43,1.91-3.5,3.08.25-.09.5-.19.74-.3A7.28,7.28,0,0,0,79.26,252.53Zm8.07,128.31a39.93,39.93,0,0,0,.77-9.18c-.9-13.37-17.26-13-24.49-4.86-.54.88-1.58,1.62-2.6,1-1.67-1.24-1.61-3.73-1.65-5.63a1.39,1.39,0,0,1,.39-1l-1.28.08c-3.6.38-7,.55-10.19,2-1.76.77-3.55,2-5.49,2.15.67,5.31.64,10.69,1,16a38.75,38.75,0,0,1,8.31-1.54c4.34.3,8.44,2.1,12.72,2.87a46.15,46.15,0,0,0,10.76,1.76c3.39,0,6.86.68,9.94-.85C86.92,383.3,87.11,382.07,87.33,380.84Zm6.44-133.61a8,8,0,0,0-3-1.08,1.42,1.42,0,0,1-.13.78A18.78,18.78,0,0,1,93.77,247.23Zm49.53-5.3c.28-1.79,1.35-3.77.64-5.37-1.63-2.07-4.77-3.69-4-6.79.43-2.15,1.71-4,2.38-6.1.08-.22.14-.47.21-.72-3.35.46-6.68,1.34-10.05.92l-.33-.09a2.33,2.33,0,0,1-1,.17c-2.29,1.07-4.26,3.12-7.09,2.49a10,10,0,0,1-2.28-.63,6.39,6.39,0,0,1-1.18,0,35.7,35.7,0,0,1-6.66-1c-2.24.79-4.22,2.16-6.39,3.12a47.19,47.19,0,0,1-14.32,1.83,2.24,2.24,0,0,0,.1.77c1.48,2.32.57,5-1.08,6.91-1.72,2.14-1.65,5.18-2.94,7.53a1.44,1.44,0,0,1,.94.29,10.71,10.71,0,0,1,5.1,1.23,5,5,0,0,1,1.85,1.66c.34.12.67.24,1,.38,2.31,1.1,3.8,3.27,5.73,4.85l.75.45,1.21,0a17,17,0,0,1,4.35.3c2.81.38,4.69,2.67,7.25,3.59.9.24,1.82.52,2.77.8a1.25,1.25,0,0,1,.49.14h0c2.57.72,5.24,1.27,7.7.29a38.93,38.93,0,0,0,4.64-3.57,8.62,8.62,0,0,1,4.46-.69,18,18,0,0,0,2.33-.05,14.82,14.82,0,0,0,3.29-2.41c.65-3.05-.47-6.28.07-9.4a1.36,1.36,0,0,1-1.2.76,36.35,36.35,0,0,1-8.38-2.27c-1.3-.49-2-1.79-3.07-2.28-2.91.17-5.75.57-8.55-.43-3-.51-6.09,0-9.13-.15-7.06-1.12-7.26-7-15.62-2.08a.25.25,0,0,1-.17.38,5.11,5.11,0,0,0-1,.34c-1.49-.17,2.34-1.92,2.67-2.15a13.94,13.94,0,0,1,4.84-1.35c2.82.06,5,2.38,7.81,2.82,4.08.43,8.16-.9,12.21,0,2.71.73,5.51-.59,8.18,0,1.48.7,2.38,2.27,4.08,2.65C137.51,239.84,142.76,240,143.3,241.93Zm20.24-39.72c2.88,3.75,4.22,9.06,2.74,13.64-1.08,3.25-4.36,4.81-7.24,6.2a16.43,16.43,0,0,1-7.57,1.68c-1.93-.14-3.74-1-5.7-1h-.16c0,2.38-2.9,6.39-2.76,8.12.35,1.21,1.73,1.84,2.49,2.8,2.58,2.17,1.89,5.09,1.12,8h0a22.65,22.65,0,0,0-.28,6.47c.14,1.88.51,3.89-.43,5.62a12.88,12.88,0,0,1-5,3.81,13,13,0,0,1-3.12.22,17.79,17.79,0,0,0-2.07,0c-1.84.19-2.91,2.22-4.5,3.08a8.58,8.58,0,0,1-5.94,1.64c-1.09-.12-2.19-.28-3.28-.48,0,.16,0,.32,0,.49a6.44,6.44,0,0,1,.69,2.77,1.25,1.25,0,0,1-.61,1.11,100.55,100.55,0,0,0,1.84,15.17c.78,5.06,2.08,10.11,1.53,15.27-.86,6.33-1.79,12.7-3.22,18.92-1.59,5.06-1,10.39-.07,15.52,1.05,4.9,1.35,10,3,14.74,2.69,6.2,8.53,14-2.06,15.91-3,1.19-6,2.42-8.88,3.76-2.35,1-4.94,1.93-7.51,1.32-3-.92-6-2.7-9.15-3.23-2.59-.64-5.28-.48-7.89-1l-.91-.29a3.18,3.18,0,0,0-.41-.41,4.22,4.22,0,0,0-.84-.52,3.47,3.47,0,0,1-.37-.21c0-.25-.06-.51-.1-.76-.07-.52-.15-1-.22-1.54-.17-1-.33-2.08-.49-3.12,0-.12,0-.24,0-.36a3.28,3.28,0,0,0-.08-.41.64.64,0,0,0-.15-.25c0-.32,0-.63-.08-.95-.08-.6-.19-1.2-.26-1.8-.27-2.51-.18-5-.38-7.55-.07-.95-.16-1.9-.22-2.86s-.12-1.92-.19-2.88a50,50,0,0,1-.19-5.61c.09-1.4.31-2.78.48-4.17.23-1.94.45-3.88.69-5.82.11-1,.25-2,.32-3s.09-2,.1-3a29.91,29.91,0,0,0,0-3.14c-.08-1-.21-2-.33-3-.22-2-.46-3.92-.54-5.89h0a21.9,21.9,0,0,1,0-2.43c.06-.77.13-1.54.17-2.32s.07-1.8.07-2.7c0-.42,0-.85,0-1.28,0-.26,0-.5,0-.75v-.05a.11.11,0,0,0,0,0,1.18,1.18,0,0,1,.07-.2c.13-.36.3-.71.45-1.06s.3-.75.45-1.12.18-.53.26-.81c.14-.52.3-1,.49-1.55.26-.71.56-1.4.83-2.1.13-.33.24-.67.38-1s.28-.63.43-.95c.32-.61.66-1.2,1-1.79s.78-1.21,1.15-1.84l0,.09.18-.3c.17-.29.34-.57.5-.86a5.13,5.13,0,0,0,.34-.66,3.33,3.33,0,0,0,.23-1.21,5.32,5.32,0,0,0-.28-2,.5.5,0,0,1,0-.12.49.49,0,0,0-.52-.37.48.48,0,0,0-.43.39,1.88,1.88,0,0,0,0,.71,4.9,4.9,0,0,1,0,.54,8.11,8.11,0,0,1,0,.86h0v0c0,.09,0,.19,0,.29l-.06.19a1.3,1.3,0,0,0-.08.17l-.29.46v0l0,0h0l-.54.79h0l0,.05h0l-.3.41h0l0,.05c-.19.26-.38.53-.56.8a26.33,26.33,0,0,0-2.17,3.79,43.87,43.87,0,0,0-1.7,4.14.49.49,0,0,1,0-.11c-.1.26-.19.53-.28.8l0,.07a11.52,11.52,0,0,1-.64,1.49l.06-.11c-.08.17-.17.34-.26.51a8.41,8.41,0,0,0-.46,1.07,3.66,3.66,0,0,0-.13.87c0,.86,0,1.71,0,2.57s0,1.7-.1,2.55-.12,1.77-.14,2.67,0,1.65,0,2.47q0,1.54.09,3.06c.12,2,.47,4,.57,5.95,0,.93,0,1.87,0,2.8s0,1.75-.1,2.63v0c-.19,1.93-.42,3.85-.63,5.77-.11.95-.21,1.9-.32,2.86s-.27,1.91-.36,2.87a38.72,38.72,0,0,0,0,5.8c0,1,.11,1.93.16,2.9s.09,1.92.17,2.87.19,1.87.28,2.81.19,1.9.32,2.84.27,2,.45,2.93.5,1.8.74,2.71a5.43,5.43,0,0,1,.13.68v0c0,.11,0,.21,0,.31s0,.36,0,.53l-.09.09a1.15,1.15,0,0,0-.25.52,4.15,4.15,0,0,0-.1.58l-.06.69c0,.36,0,.73,0,1.1A.83.83,0,0,0,84,360a1,1,0,0,0,.12.36,3.4,3.4,0,0,0,.15.63c.15.35.37.68.78.71a.86.86,0,0,0,.38.22,1.61,1.61,0,0,0,.22.6.78.78,0,0,0,1.12.16,4.16,4.16,0,0,0,.48.22l.06,0,0,0,.06.06a1.67,1.67,0,0,1,.23.23c.15.18.29.38.45.55a.59.59,0,0,0,.44.19l.18,0a13.59,13.59,0,0,1,1.41,2.77c-.13-2,0-3.64.77-3.55.51,9,3.21,18.18,4.79,27.18a69.16,69.16,0,0,1,9.73-2.21c2.85-.15,5.72-.06,8.59,0,2.57.08,5.14.16,7.72.07,3.53,0,7.15-.07,10.66-.31,5.42-.39,10.73-.3,16-1.7,2-3.41,1.52-7.52.41-11.15-1.72-4.4-6-7.19-10.35-8.61-6.47-3.13-14.17-3.78-19.28,2a41.36,41.36,0,0,1-4.79,4,1.48,1.48,0,0,1-2-2.22,53.6,53.6,0,0,0,5.5-4.71,16.72,16.72,0,0,1,8.45-4.32,24,24,0,0,1,12.64,2.25c6.82,2.09,13.12,7.42,13.57,14.95a13.49,13.49,0,0,1-1.35,8.83,2.84,2.84,0,0,1-2,1.88c-5.39,1.47-11,1.42-16.45,1.79-6.52.48-13.06.32-19.59.26-2.88,0-5.79-.47-8.65.06s-5.85,1.43-8.79,2.07a4.93,4.93,0,0,1-.94.11,2,2,0,0,1-1-.22c-1.37-.73-.63-2.47-.82-3.71-.5-4.69-1.36-9.35-1.87-14a55.61,55.61,0,0,1-.91,6.45c-.64,5.89-8,5.95-12.52,5.75-6.52,0-12.74-1.7-19-3.27-3.25-1-6.57-2.11-10-1.13-8.14,1.93-7.48,2.38-7.1-6,.41-3.94.17-7.87.21-11.8a2.09,2.09,0,0,1-.35,0c-3.26-.52-3-9.55-3.63-12.33-.43-7.33-3.65-14.21-4-21.55,0-3.45-.61-6.64-.44-10,.69-7.54,2.68-14.9,3.77-22.38.49-6.94,1.08-13.9,2.24-20.76.16-.79.34-1.58.51-2.36a24.79,24.79,0,0,0-.15-3.93c-.72-4.2-.57-6.07.79-7.36a10.37,10.37,0,0,0-.81-2.39.25.25,0,0,1,.48-.13,2.85,2.85,0,0,0,.12.29,7.27,7.27,0,0,1,.8,1.75,34.14,34.14,0,0,1,5.42-2.5c1.81-.88,3.84-.67,5.77-1.09l.08-.05a13.31,13.31,0,0,1,6-1.73c2.33-.77,4.65-1.58,7-2.18a17.68,17.68,0,0,1,2.82-.36c1.77-.87,3.61-1.62,5.34-2.55,1.43-2,2.92-3.84,5.46-4.37,1.77-.68,3.71-.67,5.51-1.17a7.17,7.17,0,0,1,.69-.3c1.14-.76,2.1-1.75,3.16-2.61a48.93,48.93,0,0,1,.58-5.89c.25-2.26,2.14-4,2.37-6.18-.26-1-1-1.75-1-2.79a8.41,8.41,0,0,1,0-1.23c-1.94-.67-3.72-1.82-5.6-2.66-2.49-.69-5.18-.79-7.48-2.11-.75-.41-1.49-.86-2.21-1.34l-.55-.1c-4.16-.69-5.76-5-7-8.46-.6-1.26-1.87-1.86-3.06-2.51a.2.2,0,0,1-.08,0,1.25,1.25,0,0,1-1.33-.25,5.41,5.41,0,0,1-1.13.56c-.17.12-.4.33-.57.11a.25.25,0,0,1,0-.35,5.44,5.44,0,0,1,1.37-.72c-.18-.26-.34-.53-.5-.81a23.35,23.35,0,0,1-3.27-3c-2.13,2-12.57,1.5-14.49,1.55-1.62-.07-2.91-1.19-4.33-1.78-1.65-.55-3.39-.06-5-.15-.74-.78,1.08-1.14,1.59-1.31A7.77,7.77,0,0,1,43.34,207c1.63.76,3.49.39,5.23.45a47.48,47.48,0,0,0,8.34-.49A2.93,2.93,0,0,0,58,206.5a32.74,32.74,0,0,1-4.65-7.56A11.09,11.09,0,0,1,51,189.85a20.23,20.23,0,0,1,0-2.2c-.71-1.3-1.51-2.68-3-3.16-.42-.21-1.25-.15-1.23-.77a.4.4,0,0,1,.31-.35c1.75-.1,3.16,1.29,4,2.69a14.41,14.41,0,0,1,2.09-5.89c.32-.54,2.62-4.94,2.94-3.64-.06.2,0,.61-.29.65a55.62,55.62,0,0,0-2.1,5.3.25.25,0,0,1,.21.24c-.05.63.16,1.35-.25,1.89a.81.81,0,0,1-.48.24q0,.3-.06.6a26.59,26.59,0,0,0,3.34,13.42c2.36,2,5,3.78,6.44,6.57.22.65.9,1.84,1.42,3.05.22.14.45.27.68.4.65-1,1.24-2,2-2.85a4.09,4.09,0,0,1,2.78-.42c2.09.17,4.2.81,6.29.45,2-.11,6.9-4.59,8-2.28.61,1.8-2.59,2.25-3.73,2.9-1.82.72-3.71,1.53-5.71,1.25-2.18-.26-4.3-1.2-6.49-1.21a1.37,1.37,0,0,0-.87.28,17.29,17.29,0,0,0-1.83,2.15c1.9,1.07,3.79,2.12,4.72,4.19,1.17,3.09,2.25,7,6.3,6.89a1.45,1.45,0,0,1,1.2,1.83l.2.09c2.55,1.31,5.5,1.05,8.16,1.94.88.36,1.74.81,2.61,1.25.14-3.34,2-3.59,6.08-5.12,2.29-1,3.63-3.22,5.22-5.06,1.46-1.28,3.43-1.93,4.77-3.37,0-2.69.21-5.73,2.37-7.64.59-.48,1.35-1.29,2.14-.67a1.07,1.07,0,0,1,.27,1.38c-4.57,6.61,1.87,7.1-7.62,12-1.54,1.45-2.72,3.31-4.61,4.37-3.39,2.22-7.22.39-7.85,4.51a11.16,11.16,0,0,0,2.46.89c2.91.57,5.87,0,8.77-.35a34.84,34.84,0,0,0,5.66-1.15c2.31-1.09,4.46-2.56,6.93-3.3a5.41,5.41,0,0,1,2.34.32,57.4,57.4,0,0,0,6.68.78,1.43,1.43,0,0,1,1.23,1.41,1.29,1.29,0,0,1,0,.29c2.45.09,4.18-1.73,6.12-3.06-.6-.28-.8-1.6-1-2.66a15.57,15.57,0,0,1-1.35-7.13,11.53,11.53,0,0,1,0-1.76c0-.26.07-.51.12-.77,0-2.18-.17-4.45.93-6.37-.2-.18-.41-.37-.61-.57a21.4,21.4,0,0,1-5.6-2.25,8.67,8.67,0,0,0-7.4-1.91,13.2,13.2,0,0,0-3.37,1.05,1.79,1.79,0,0,1-1.28.16,3.92,3.92,0,0,1-2.63.1c-2.25-.63-3.71-2.56-5-4.4-1-.86-2.51-.8-4-.75-2.1.09-4.13.17-4.56-2.47-1-3.76-2.12-7.57-5-10.41-.42-.49-.87-1-1.28-1.46a.82.82,0,0,1-.44-.32c-1.53-2.31-3.17-4.56-4.53-7-1-1.65-1.27-3.63-2.36-5.21-.92-1.56-2.55-2.83-3-4.57.68-2.94,5.25,2.39,5.13,4.15a11.47,11.47,0,0,1,1.12-1.37,4.19,4.19,0,0,1,3.72-1.86c2.17-2.68,4-5.6,6.35-8.16,2.87-2.55,6.57-3.9,9.64-6.13a.26.26,0,0,1,.38-.33h0a1.25,1.25,0,0,1,.43-.69,13.22,13.22,0,0,0,2-4.91c.7-3.25-4.4-1.93-6.26-1.9a1,1,0,0,1-.83-1.81c-.4-.07-.94.07-1.26-.23s.06-.43.22-.59a.25.25,0,0,1,.4.28,51.74,51.74,0,0,0,7.35-.66,97,97,0,0,1-9.77-2.15,1.3,1.3,0,0,1,.22.55,12.11,12.11,0,0,0,.56,1.89c.67,2.18,1.73,4.22,2.5,6.36a1.3,1.3,0,0,1-2.29,1c-1.43-1.86-2.09-4.19-3-6.33-.14-.67-1.41-2.69-.23-2.81a1.16,1.16,0,0,1,.77-1.06c-3.76-1.12-6.89-2.4-7.3-3.53-1-.5-2-1-2.93-1.58a.57.57,0,0,1-.25-.63.55.55,0,0,1,.61-.4c1.78.63,3.63,1.49,5.4,2.1a11.76,11.76,0,0,0,2.67.68.52.52,0,0,1,.28.88l.19.07a.73.73,0,0,1,.43.56c3,.63,6.13.93,9.21,1.35a36.3,36.3,0,0,0,6.16.49,1.43,1.43,0,0,0,1.25-.61c1.64-1.9,2.56-4.28,3.84-6.41,1.77-2.79,3.92-5.4,5-8.54A52.77,52.77,0,0,0,122.5,105a15.87,15.87,0,0,0-.6-6.75q-.09-.3-.21-.6a8.22,8.22,0,0,1-4-1.56c-1.08-1.89,1.89-1.37,2.86-1A1.66,1.66,0,0,1,122,92.71c1.84,0,3.68.27,5.52.25a35,35,0,0,0-5.28-3.49c-5.43,1.78-11.11,2.68-16.53,4.5-.62.27-1.24.54-1.84.82a3.91,3.91,0,0,1,1.2,1.35c.4.67.46,1.5.87,2.18a2,2,0,0,0,.52-.17c.2-1.3-.65-2.6-.29-3.85,1.3-2.75,7.17,2.71,8.68,3.73a3.76,3.76,0,0,0,1.24-3,.43.43,0,0,1,.86.12,30.65,30.65,0,0,1-.48,3.19c-.75,3-2.76,1.52-4.32.15a17.33,17.33,0,0,0-3.58-2.39c.3,1.25.67,2.71-.24,3.79s-3,1.6-4.2.44c-.92-.85-1-2.14-1.45-3.21a4,4,0,0,1-1-1.32c-1.54.75-3,1.55-4.54,2.43a99.46,99.46,0,0,1-16.14,11.6c-2.74,1.5-5.67,2.78-8.45,4.17a18.72,18.72,0,0,0-2.93,1.8l.09.05a3.87,3.87,0,0,1,.52,1.13.25.25,0,0,1-.48.13c0-.15-.1-.28-.15-.42a1.73,1.73,0,0,0,0,.32v0a21.19,21.19,0,0,0,.46,2.48c0,.09,0,.18.07.27a14.86,14.86,0,0,0,1.23,2.94l.16.26a.86.86,0,0,1,.62,1.06,5.15,5.15,0,0,1,.64,1.11.48.48,0,0,1-.81.45c-.21-.25-.45-.51-.69-.78a1.06,1.06,0,0,1-.51-.14,1.67,1.67,0,0,1-.63-1l-.12-.39a4.67,4.67,0,0,1-1-2.13,18.15,18.15,0,0,1-1.22-4.09l-.28.22c.32,1.92-4.69,3.5-6.13,3.32-2.54.11-3.54-2.41-4.49-4.32-.88-2.33-3-5.31-.85-7.51.52-.57,2.37-2.13,2.93-1.21.13.2.41.59.09.75a.28.28,0,0,1-.37-.25c-.75.88-1.88,1.75-1.89,3a19.14,19.14,0,0,0,2.52,5.28c.45.59.93,1.18,1.32,1.81,1.84.71,3.77-.48,5.24-1.51a1.1,1.1,0,0,1,1.1-.11l.93-1a.89.89,0,0,1,.39-.42,15.65,15.65,0,0,1,1.44-1.38c3.91-3.18,8.64-5.2,12.74-8.09,3.16-2.25,6.41-4.36,9.59-6.58a24.09,24.09,0,0,1,6.59-4.39c8.88-4.94,19.48-5.17,28.43-9.75a.66.66,0,0,1,.2-.11,14.62,14.62,0,0,0-2.65-5.75,19.62,19.62,0,0,1-5.35-6.29,2.49,2.49,0,0,0-1.14.08c-.67.14-1.34.29-1.68-.48-.48-1.68,2.07-1.93,3.23-1.88,1.59.13,2,2,2.89,3.11.93,1.58,2.54,2.53,3.63,4a10.91,10.91,0,0,1,1.62,7.2.91.91,0,0,1,.6,1.35,5.06,5.06,0,0,1-2.5,1.9c-1,.43-2,.81-3,1.16,2.78,1.22,5.32,3.07,8.05,4.27a1.2,1.2,0,0,1-.62,2,37.71,37.71,0,0,1-6.55,0c2.12,5.29.68,11-.11,16.44a47.09,47.09,0,0,1-7.38,18.35c-1.79,3.34-3.12,9.11-7.89,8.72l-.37,0a1.51,1.51,0,0,1,.23.21c2,2.67.92,6.54-.71,9.14-.69,1-1.36,2.69-2.82,2.58a1.26,1.26,0,0,1-.85-.46c-2,2.83-5.48,4.18-8,6.44-2.18,2.22-3.37,4.85-5.17,7.26-.85,1-1.54,2.53-3.05,2.62-2-.32-2.47,2.37-3.86,3.19a23.12,23.12,0,0,0,2.66,4.57c.54,1.25,3.65,4.36,2.06,5.38a.72.72,0,0,1-.2.09c1.38,1.61,3.12,2.93,4.48,4.54,1.77,2.1,2.57,4.74,3.83,7.13.63,0,1.29,0,2,0,2.22,0,4.55-.07,6.07,1.75a12.06,12.06,0,0,0,2.39,2.65,2.82,2.82,0,0,0,1.92.62,2.23,2.23,0,0,1,.77-.06c1.51-1.11,4.7-1.45,5.94-1.65,2.72-.42,5,.76,7.19,2a12,12,0,0,1,1.86.44,12.74,12.74,0,0,1,4,2,23.06,23.06,0,0,0,2.53.47,1.66,1.66,0,0,1,1.28.53c1.65-1.94,3.82-2.24,6.87-1.25,1.45.42,3.08.65,4.55,1.17a17.1,17.1,0,0,0,1.39-2.93c.62-1.23-.26-2.34-.9-3.36-1.46-2.46-3.07-5-3-8-.11-1.08-.08-2.7,1.37-2.7,2.43.2.92,4.15,1.79,5.76,2.63,6.38,4.36,6.47.34,11.6a5.27,5.27,0,0,1,2.4,2.19,14.43,14.43,0,0,1,.69,1.42,11,11,0,0,1,7.15-3.13,30.18,30.18,0,0,1,4.94-.12C161.39,201.27,162.76,201.24,163.54,202.21Z"/><path d="M167.33,108.62a5.39,5.39,0,0,1,.64-.22,5.06,5.06,0,0,0-.68,0A1,1,0,0,0,167.33,108.62Zm10-.33c.78-.23,1.56-.45,2.34-.69-1,.23-2,.45-3.07.7Zm9.93,14.37c1.71-4.66,6-11.7.35-15.2-.87-.34-1.4.45-2.07.84a19,19,0,0,1-4.36,1.91,16.24,16.24,0,0,1-4.82,1.2c-1.46-.08-2.91-.47-4.39-.44-4.63-.43-6.19,2.54-7.86,6.25l-1.26,2.67a.28.28,0,0,1,.26.46c-.46,2.57,2,5.2,4.41,5.73a3.62,3.62,0,0,0,3.67-1.38,2.66,2.66,0,0,1,2.6-1.4c2,.2,3.68,1.36,5.66,1.5a11.28,11.28,0,0,0,4.41-.16,15,15,0,0,1,2.57-1.11,1.8,1.8,0,0,1,.58-.23C187.1,123.09,187.19,122.87,187.26,122.66Zm6-34.95A33.82,33.82,0,0,1,195,105c-.44,1.24-1.2,3.51-2.63,3.73a8.36,8.36,0,0,1,.42,5.37c-.77,3.48-2.78,6.53-4.63,9.57l0,0c.8,1.15-.55,2-1.55,2.52l-.19.31a1.41,1.41,0,0,1,.69.73c.45,1.69-.09,3.49-.34,5.18s-.1,3.4-.6,5-1.3,3.33-1.85,5c1.23,1.5-1,5.38-1.65,6.74-1.48,2.37-1,5.15-.92,7.8-.11,6.35-5.19,11.07-9.82,14.75-2.31,1.69-3,4.3-3.59,6.94-.53,6.54-1.54,11.18-9.24,11.2a8.15,8.15,0,0,1-4.36-1.19c-1.52-.7-3.25-1.07-4.63-2a14.7,14.7,0,0,0-7.86-3.46c-2.17.41-4.54,1.11-6.61-.09-1.47-.75-4.59-3.23-4.08-5,.12-.22.37-.26.59-.33.5-.13.58.65.07.69a6.47,6.47,0,0,0,9.42,2.52,14.47,14.47,0,0,1,7.86,1.88,16.08,16.08,0,0,0,5.64,2.89c2.61,1.57,7.25,2,9.07-.94,1.37-4.13.85-8.71,3.19-12.51,1.79-2.62,4.59-4.29,6.83-6.49,2.68-2.65,5-6.36,4.45-10.27a17.4,17.4,0,0,1,.23-4.94,11,11,0,0,1,.44-1.26c-1.81-1.3.92-4.23,1.44-5.82a48.79,48.79,0,0,0,3-12.33,11.55,11.55,0,0,1,.64-4.1c-3.53,1-7.44-.48-10.7-1.85-.9-.26-1.39,1-2.17,1.4a4.56,4.56,0,0,1-4.09.68c-2.8-.78-5.5-4-4.91-7-2.48,5.15-5.19,10.17-9.15,14.4-1.33,1.15-3.83,5.84-5.66,4.37-1.67-1.56.93-3.2,1.8-4.45a72.87,72.87,0,0,0,5.7-7.17c2.67-3.64,4.15-8,6.3-11.91,1-2.06,1.94-4.28,3.77-5.76a5.41,5.41,0,0,1,.78-.6c-.13-.12-.07-.39,0-.58a8.73,8.73,0,0,0-.57-1.24c-1-1.7-2.2-3.92-.86-5.76,2-2.59,6.1-2.67,8.81-1.17a11,11,0,0,1,.29-2.55c0-.19,0-.38,0-.55a11.42,11.42,0,0,1,5.68-10.15c2-1.28,4.24-2.94,6.63-2.9C188.84,84.13,192.35,84.67,193.27,87.71Z"/><path d="M227.71,213.09c-6.31,0-12.45-2-18.51-3.35-7.87-1.07-15.14-4.26-21.93-8.29A52.81,52.81,0,0,1,173,190.66c-3.19-3-6.14-7-5.29-11.64.3-1.46-.22-4.28,1.83-4.44a1.48,1.48,0,0,1,1.46,1.27c.09,4.65,1.61,7.42,5.19,10.34a52.75,52.75,0,0,0,11.54,8.59c6.15,2.9,12,6.64,18.78,8,4.41.8,8.78,1.75,13.14,2.78,8.22,1.19,16.57,1.21,24.85,1.16,9.64-.11,19.78-.58,28.64-4.68a39.12,39.12,0,0,0,16.4-16.35c11-22.23,13-49.33,3.14-72.31a64.56,64.56,0,0,0-5.33-7.82,54.1,54.1,0,0,0-6.07-7.25,34.2,34.2,0,0,0-5.95-3.66,44.31,44.31,0,0,0-9.15-4.47c-3.5-1.28-7.24-2-10.53-3.8-.66-.34-1.92-1.32-.87-2,1.45-.35,3,.64,4.46.77,6.36.93,12.88,1.37,18.65,4.46a27.5,27.5,0,0,1,9.2,5.27,89.47,89.47,0,0,1,7,7.89c6.43,6.85,9.43,16,11.27,25,4.52,22.08,0,47.13-11.71,66.35-5.42,7.59-13,14.19-22.17,16.53C257.19,213.9,242.26,214.13,227.71,213.09Z"/><path d="M193.59,96.49c.64-2.28,2.52-3.95,4.37-5.33,3-2,6.16-4.6,9.86-5.15a2,2,0,0,1,.27,4c-5.08.21-9.68,3.14-13.72,6-.26.23-.22.78-.53.77A.23.23,0,0,1,193.59,96.49Z"/><path d="M216.22,94.7c-15.85.11-31.88-4.15-32.06-22.93a37.71,37.71,0,0,1,3-15.25c.67-1.28,4.35-11.43,6-9a.53.53,0,0,1,.11.76.54.54,0,0,1-.39.2c-2.13,5.09-4,10.54-3.66,16.13.7,5.27,1.7,11,5.09,15.26,5.89,5.84,14.93,5.64,22.58,5.84C225.45,85.27,224.5,95.66,216.22,94.7Z"/><path d="M242.67,86.82c-1.34,0-3.94-1.24-2.22-2.67,2-.92,4.29-.67,6.38-1.22a41.62,41.62,0,0,0,14.38-5.62c6-3.83,9.7-10,12.86-16.28a30.27,30.27,0,0,0,3.28-11.69c.43-6.68.25-13.44-2.11-19.78-2.48-7.19-6.66-14.17-13.69-17.65-8.23-4-17.94-4.44-26.88-3.22a43,43,0,0,0-11.29,4.36c-2.93,1.53-6.21,2.5-8.78,4.64-11,11.22-21.32,24-24.76,39.6a1.36,1.36,0,0,1-1.5,1c-3.57-.35,2.5-14.3,3.29-16.48A94.54,94.54,0,0,1,203.2,22.41c2.41-3.09,4.58-6.38,7.32-9.19S217,9,220.36,7.13c2.35-1.26,4.65-2.61,7.07-3.75A36.93,36.93,0,0,1,243.11.11c10.79-.69,22.51,1.72,30.27,9.73,6,5.83,9.16,14,10.86,22,1.52,7.71,1.05,15.81-.16,23.54-2.14,9-7.64,19.93-15.08,25.59a27,27,0,0,1-16.61,5.63C249.16,86.74,245.9,87.2,242.67,86.82Z"/><path d="M238.65,381.8a168.61,168.61,0,0,1-24.91-3.32c-7.69-1.59-15.52-3.51-22.23-7.74-3.61-2.12-7.39-3.94-10.88-6.25-4.83-3.21-9.09-7.19-13.89-10.44a35.94,35.94,0,0,1-11.36-10.66c-9.61-11.74-14.21-26.55-16.85-41.27a117.45,117.45,0,0,1,6.92-51.34c4.56-12.25,13-22.3,20.49-32.85,3.45-4,7.1-8,11.62-10.83,3.12-1.8,6.3-3.75,9.8-4.64a.53.53,0,1,1,.47.95,34.94,34.94,0,0,0-3.81,2.17,48.55,48.55,0,0,0-13.18,13.35c-2.51,3.83-4.24,8.12-6.77,11.95a95.07,95.07,0,0,0-16,43.12c-1.34,8.34-1.35,16.81-1.16,25.24a118.72,118.72,0,0,0,4,17.44c2.61,7.2,5.81,14.24,10.71,20.19,2.25,3.09,4.71,6.37,8,8.37,5.36,3.38,10.1,7.57,15.21,11.29,3.52,2.31,7.29,4.2,10.93,6.3a36.12,36.12,0,0,0,7.14,3.51A144.23,144.23,0,0,0,262.61,372c6.42-.68,12.74-2,19.08-3.09,4.31-.91,8.28-2.9,12.4-4.37,4.39-1.68,8.94-3.13,12.85-5.81,6.49-4.11,11.29-10.15,16-16.12,3.86-6.44,7.77-12.88,11.25-19.55a89.67,89.67,0,0,0,7.52-35.71,79.11,79.11,0,0,0-1.11-14.82c-1.2-8.48-3-17.65-6-25.56-5.07-14.45-12.94-29.41-26.78-37.07a51.14,51.14,0,0,0-10.19-3.29c-3.36-.7-6.94-.27-10.2-1.34a4.37,4.37,0,0,1,.54-8.19c2.77-.66,5.69.21,8.5.29A42,42,0,0,1,303.9,199a39.66,39.66,0,0,1,19.69,11.86c9.94,9.46,15.8,22.38,20.16,35.19a124,124,0,0,1,5.54,24,95.1,95.1,0,0,1-1.47,40.26c-2.13,10.54-6.87,20.2-12.62,29.22-2.6,4.56-5.1,9.22-8.76,13.05-3.37,4.11-6.78,8.2-11.17,11.26-6.32,5.25-14.21,7.7-21.76,10.6a57.05,57.05,0,0,1-15.66,4.34A162.19,162.19,0,0,1,238.65,381.8Z"/><path d="M206.35,408.49c-3.69-.46-6.28-3.34-9.59-4.7a102.62,102.62,0,0,0-13.32-2.73c-4.91-.21-9.84.17-14.73-.35-7.05-.5-13.56-4.12-19.25-7.94a5.72,5.72,0,0,0-3.64-.78,39.76,39.76,0,0,0-8.34,1.58.48.48,0,0,1-.94-.14c-.22-1.79,2.15-2.24,3.42-2.79,3-.89,5.94-2.41,9.08-2.79,6.47.64,12.34,4.26,18.94,4.5,6.12.35,12.28-.53,18.38.17,4.7.86,9.5,1.52,14,3.07,2.4.85,5.15,3.09,7.09,4.08,1.2.59,2.5,1.12,3.18,2.36C212.52,405,209.8,409.12,206.35,408.49Z"/><path d="M196.31,381.18c-3.21-.36-6.37-1.16-9.59-1.41-4.44-.06-8.76-.54-13.16-.63a79.71,79.71,0,0,0-8.54,1.45.86.86,0,0,1-.9-.29c-.82-1.44,1.85-2.29,2.75-2.95a38.84,38.84,0,0,1,9.68-4.25,48.54,48.54,0,0,1,18.45-.71c2.76.05,6.29,1.35,6.26,4.61C201.32,379.64,198.76,381.33,196.31,381.18Z"/><path d="M390.71,375.08c-4.09-.16-8-1.61-12.14-1-4,.33-8.21,1.29-12.13-.14-4-1.17-7.15-4-10.92-5.7a62.37,62.37,0,0,0-16.72-2.09c-3.17,0-6.34.22-9.52.15-4,.11-8.63-.2-12,2.31-.35.35-.95,1-.54,1.46.29.32-.18.79-.47.46a1.59,1.59,0,0,1-.49-.75,4,4,0,0,1,1-2.74c3.68-4.24,9.89-4.49,15-5.68,11.41-2.82,24.5-3.72,34.62,3.22,3.1,1.91,6.63,1.26,10,.81,3.34-.28,6.77-.66,10.08.1s8.89,1.33,8.35,6A4.2,4.2,0,0,1,390.71,375.08Z"/><path d="M349.71,401.83c-8.47.11-16.4-3.09-24.53-4.95-7.17-2.1-15.08-3.94-22-.1a17.68,17.68,0,0,0-4.9,3.48.91.91,0,0,1-.87.78c-1.75-.32-.39-2.37.39-3.06,8.91-9.76,23.2-9.2,35.19-7.15,5.91,1.11,11.8,2.73,17.87,2.31,2-.19,3.93-.92,6-.91a4.27,4.27,0,0,1,1.65,8.18A24,24,0,0,1,349.71,401.83Z"/><path d="M1,398a1.2,1.2,0,0,1-.56-2.11c1.06-.8,2.27-1.4,3.37-2.14,3.5-2.1,6.64-4.77,10.4-6.41,5.32-2,10.6-4.18,15.93-6.17,4.74-1.4,9.65.28,14.4.86a54.18,54.18,0,0,0,17.05-.16c2.58-.17,5.08.65,7.66.77a3.37,3.37,0,0,1,.44,6.58,68,68,0,0,1-16.16,2.37c-7.25.36-14.15-2.28-21.26-2.89-3.34.45-6.48,1.81-9.74,2.64s-6.46,1.53-9.62,2.56c-2.9,1.07-5.7,2.41-8.41,3.35A7.89,7.89,0,0,1,1,398Z"/><path d="M222.65,124.1c-1.28-1,1.08-2.68,2.14-2.68a2.79,2.79,0,0,0,1.26-.13.45.45,0,1,1,.18.89,4,4,0,0,0-2.2,1.25C223.71,123.88,223.25,124.46,222.65,124.1Z"/><path d="M228,133.3c-3.2-.31-6.57-2.9-6.13-6.39a6.28,6.28,0,0,1,2.19-3.64c.35-.53,1-1,1.57-.48a.82.82,0,0,1,0,1.15,2.83,2.83,0,0,0-1,3.42l-.06-.17.09.19c.05.1.12.19.18.29v0c1.47,1.58,8,2.36,7.56-1h0c-1-.83-2.43-1.38-2.64-2.77-.18-3.23,4.4-3,5.83-.94a5.27,5.27,0,0,1,.8,3,3.78,3.78,0,0,1-.16,2.65C236.05,132.64,231.35,134.16,228,133.3Z"/><path d="M229.44,151.32c-4.15-.79-4.15-6.72-1.14-8.81.81-.54,2.18-.13,2.06,1-.27,1.07-.9,2-.47,3.1,1.64-.24,2.87-2.12,4.71-1.85,3.37.42,2.9,6.37-.69,5.57A6.09,6.09,0,0,1,229.44,151.32Z"/><path d="M222.37,181.31c-3.56-1.54-4.86-5.86-3.64-9.37.4-1.36,1.24-2.78,2.76-3a1.83,1.83,0,0,1,2,2.05,6.14,6.14,0,0,1,.52.5c.22.24-.14.6-.35.36a5.9,5.9,0,0,0-.51-.49c-1.09.14-.85,2.29-.83,3.15.28,1.91,2.46,2.22,4.05,2.12,2.81-.28,4.85-2.85,7.89-2.2,0-3.75,4.66-3.57,5.89-.56a4.76,4.76,0,0,1-2.52,6.08c-1.32.6-2.75.23-4.13.39A11.24,11.24,0,0,1,222.37,181.31Z"/><path d="M211,45.85l.05,0a.24.24,0,0,0,0,.08h0Z"/><path d="M216,39.14l0,0,.08,0a3.07,3.07,0,0,1,.35.28l-.14.07A.62.62,0,0,0,216,39.14Z"/><path d="M243.89,39.09a7.25,7.25,0,0,0,1-.61l.23-.07a3.24,3.24,0,0,0,.41-.13l0,.07-.24.3-1.22.56Z"/><path d="M243.73,39h0l0,0Z"/><path d="M244.09,33.65Z"/><path d="M223.75,62.79A5.84,5.84,0,0,1,219,56.28a.25.25,0,0,1,.5.07,5.32,5.32,0,0,0,4.17,5.91c2.49.63,4.23-1.41,4-3.77A3.71,3.71,0,0,0,225.21,55c-1-.39-2.29-.81-3.29-.14-.4.14-.6,1-1,.79a.25.25,0,0,1-.05-.35c1.36-2.28,4.77-1.13,6.31.38C229.47,58.36,227.81,63.68,223.75,62.79Z"/><path d="M217.83,65.69c-2.21-.45-4.1-2.88-3.24-5.14a.24.24,0,0,1,.31-.17.25.25,0,0,1,.17.31,3,3,0,0,0,.61,3.09,3.53,3.53,0,0,0,2.68,1.42c1.19-.07,2.41-1.17,1.8-2.4a3.33,3.33,0,0,0-2.76-1.24c-.28,0-.7.29-.84-.08s.5-.37.77-.41a3.76,3.76,0,0,1,3.28,1.5C221.49,64.33,219.53,66,217.83,65.69Z"/><path d="M212.36,67.88c-.85-.28-2.77-2.31-1.55-3a1.26,1.26,0,0,1,.54.13c.38.27,0,.64-.42.38-.15,1.3,3.14,3.48,2.9,1.19-.17-.35.31-.64.45-.25A1.29,1.29,0,0,1,212.36,67.88Z"/><path d="M200.87,71.65a178.36,178.36,0,0,1,22.22-17.43,1,1,0,0,1,1.07,1.59c-2.66,2-5.35,4-8.11,5.85s-5.41,3.71-8.12,5.51c-2,1.68-4.29,3-6.4,4.53-.19.16-.34.44-.62.45A.25.25,0,0,1,200.87,71.65Z"/><path d="M199.69,72.51h0a.3.3,0,0,1,.14-.42c1.52-.67,3.32-1.18,4.76-1.94,8.22-3.7,16.91-6.75,24.43-11.78.47-.39.52-1,.88-1.48.84-1.12,2.15.18,2,1.22-.2,1.74-2.1,2.59-3.28,3.65l.07-.05.07,0c-2.9,2.41-6.38,3.92-9.82,5.38a79.71,79.71,0,0,1-18.77,5.53A.25.25,0,0,1,199.69,72.51Z"/></g></g></g></svg>