<svg xmlns="http://www.w3.org/2000/svg" viewBox="0 0 321.07 342.26"><g id="Layer_2" data-name="Layer 2"><g id="Layer_group" data-name="Layer group"><g id="Vector_layer" data-name="Vector layer"><path d="M70,341.15c-7.84-1.5-13.61-7.52-17.42-14.22-2.08-3.12-2.79-7.39-5.86-9.74-3.28-2-7.39-1.68-10.53-3.91-5.85-4.19-5.57-13.4-11.86-17.09-2.75-1.29-5.86-1.24-8.75-2a7.18,7.18,0,0,1-5-4.87C9.22,286,8,282.68,6.49,279.43A61.89,61.89,0,0,1,.07,249.5c.64-6.83,2.83-13.42,5-19.9,3.07-8.49,7.05-16.91,13.57-23.3a54.83,54.83,0,0,1,5.55-4.89c3.31-2.62,7.7-4.64,8.68-9.14,2.58-6.89-1.83-8.13-6.21-12.1-7.87-5.91-5.74-16.51-4-24.84,2.65-11.43,9.46-22.11,19.4-28.49,12.59-8.83,13.89-7.67,13-23.67.39-7.65,2-15.22,3.77-22.66,2.38-7.32,6.79-13.85,11.75-19.67,1.9-2.34,3.92-4.72,5-7.58.91-2.59.77-5.24.9-7.91,1-12.07,4.11-32.27,14.06-39.84-2.83-3.06,9-4.85,10.81-5.14,4.82-.72,9.81-.52,14.22,1.76a34.76,34.76,0,0,1,8.17,5.15c2.67,2.29,4.28,5.64,7.31,7.55,2.92,2.17,6.58.76,9.8.27,8.32-1.88,16.31-5.45,24.87-6.2a29.74,29.74,0,0,1,27.75,13.43c2.57,3.68,4.75,7.84,8.55,10.44,2.35,1.32,4.6,2.24,6.95,3.49,1.52.9,3.46,1.5,4.42,3.08,2.28,5.12,1,10.94,1.57,16.35,1.58,9.73-1.54,19.13-2.46,28.73a7.07,7.07,0,0,0,.74,3.85c2.71,3,6.32,5.7,6.72,10.06a32.06,32.06,0,0,1-.32,10.11c-1.07,4.86-1.26,10-3.15,14.63-1.52,2.85-3.92,5.19-5,8.3-.63,3.14-2.42,6.23-2.27,9.43,6,1.8,12,4.2,18.27,4.84,11.91,1,25.64,2.84,32.78,13.63,2.88,4.21,3.08,9.53,2.19,14.4-.35,3.05-2,6.44-.53,9.38,2.66,3.25,6.93,4.95,8.9,8.88,1.83,2.87,2.14,6.31,3.22,9.47,1.23,2.93,2.67,5.77,3.61,8.82,1.66,3.92,5.1,7,5.56,11.44.48,5.87.86,12.19,1.48,17.9.24,2.13,0,4.71,1.2,6.54a14.13,14.13,0,0,0,3.83,3.43l13.88,8.57c5.07,3.1,11.44,5.62,14.13,11.28,1.71,5.13-.95,11-2.11,16.06-2.55,9.25-13.54,11.19-21.79,12.12a90.78,90.78,0,0,0-14.79,3.1c-4.28,1.42-7.78,4.39-11.95,6.07-5.77,2.48-11.43,5.15-16.42,9a122.23,122.23,0,0,1-19.59,9.95c-5.8,2.17-11.18,3.73-16.73,6.14-9.26,4.14-20.16,5.3-29.52.86-17.67-7.93-18.86-5-36.43-3.22-3.51.26-6.87-.87-10.29-1.4-4.71-.14-9.36.94-14,1.76A69.35,69.35,0,0,0,112,333.5c-3.89,1.64-7.29,4.3-11.42,5.37a75.75,75.75,0,0,1-20.67,3.39A42,42,0,0,1,70,341.15ZM143.57,30c-5.79,1.26-10.8,5-16.25,7.24a131.35,131.35,0,0,1-17.38,6.66c-4.57,1.68-10.07,2.63-13.17,6.66-4.7,8.13-8.16,17.55-7.71,27.06C89.17,82.14,92,85.86,93.44,90a20.07,20.07,0,0,1,.88,9.38c-.61,3-1.84,6-2,9.08-.31,5.53,3.09,10.46,5.81,15a97.4,97.4,0,0,0,9.26,13c1.46,1.52,3,2.93,4.49,4.46a1.83,1.83,0,0,1,.49.28c6.63,4.94,6,10.38,3.81,17.48-.59,3-.23,6.13-.76,9.15-.34,2.12-1.18,4.11-1.68,6.19-.57,3,1.19,5.55,2.26,8.14,1.86,3.59,5.16,6.36,6,10.44a31.54,31.54,0,0,1-.13,11.7c.81,2.87-2.23,8-4,9.84a16.32,16.32,0,0,0,4.09-1.11h0c2.2-.69,4.1-2,6.27-2.83,4-1.17,8.37-2.66,12.58-1.77,3.46.95,6.55,2.88,10,3.95a6.61,6.61,0,0,0,1.06.45,24.39,24.39,0,0,1,2.66-.83c-3.33-2.1-6.21-5-6.5-9-.15-4.61-.42-9.44,1.35-13.81,1.58-4.66,8-7.33,7-12.79-.55-4.59,1.6-8.78,3-13,.09-2.93,1.5-6,.61-8.86a18,18,0,0,1-1.46-1.7.49.49,0,0,0,0-.17,2,2,0,0,0-.27-.71c-.06-.24-.12-.49-.19-.74s-.13-.4-.21-.6a1.8,1.8,0,0,0-.53-.69,1.53,1.53,0,0,0-1.69-.14l-.2.13a11.32,11.32,0,0,1-2.19-3,8.55,8.55,0,0,1,.11-6.52l.47-.27c.78-.46,1.55-1,2.32-1.45a12.71,12.71,0,0,0-.66,3.72,4.8,4.8,0,0,0,.56,2.66c0-.27,0-.54,0-.82.24-2.23,1.21-4.34,1.72-6.52l0,0a2.4,2.4,0,0,0,.54-3,63.29,63.29,0,0,1,2.31-10.33,53.65,53.65,0,0,1,9-16.51c3.13-4,7.08-7.27,10.23-11.24a13.31,13.31,0,0,0,2.74-5.3c.29-1.42.14-2.87.35-4.31.25-2.67,1.94-4.85,3.58-6.86,2.61-3.1,5.21-7.08,2.12-10.8-1.78-2.73-4.45-4.65-6.62-7a17.19,17.19,0,0,1-3.81-7.55c-2.15-12.41-9.71-10-16.3-17.4-1.77-2.72-2.89-6.22-6-7.74a29,29,0,0,0-3.95-.25A73.19,73.19,0,0,0,143.57,30Z"/><path d="M259,191.64c-1.64-2-.16-4.76.1-7a104.68,104.68,0,0,0,2-11.25c.21-1.09,0-2.4.86-3.24-.36-4.46-3.5-7.1-6.86-9.54-1.88-1.64-3.34-3.28-5.5-4.34-2.9-1.95-6.43-1.66-9.73-2.39a133.41,133.41,0,0,1-14-3.74c-2.42,1.27-5-.86-7.3-1.61.74,3-2.39,4.49-4.85,3.12-4.77-2.15-6-7.78-7.17-12.39-1.18-2-2.39-4.88-1.39-7.19a2.31,2.31,0,0,1,3.41-.55c.9.82,1.07,2.11,1.59,3.16-.31-3.44-1-6.86-.62-10.33a28.3,28.3,0,0,1,2.81-9.41,1.89,1.89,0,0,1,3.07.26c.55-1.43,1.55-2.69,1.79-4.21.13-2,.22-4.88,2.7-5.25,1.47-4.41-3-7.23-5.91-9.64A27.77,27.77,0,0,1,210.39,92c-3.78-4.42-2.71-10.77-2.07-16.11.5-6.33,3-12.18,4.53-18.27-1.77-.75-1.5-3-1.73-4.61-.56-6.67,1.81-9.61-4.68-14.12a66.86,66.86,0,0,0-5.85-3.54c-1.71-.79-4.31-2.16-2.29-4.2-3.13-1.68-5.29-4.53-7.24-7.42a.29.29,0,0,1,0-.56c.47-.34,1,.17,1.36.47,6.33,6.69,8.75,5.1,16.75,5.94,6.32,2.16,11.33,8.42,10.42,15.3-.27,3.88-2.23,7.51-1.76,11.38-.11,4.45-1.78,8.68-2.82,13-.73,3.25-1.07,6.56-1.49,9.85a24.93,24.93,0,0,0,.26,7.81,25.73,25.73,0,0,0,3.74,4.77c4,3,8.32,6.8,8.33,12.24,0,3.36-1.52,6.47-3.13,9.33a44.11,44.11,0,0,0,.69,9.46c.62,3.21,1.22,6.51,3.05,9.27a38.63,38.63,0,0,0,4.34,5.52c1.28,1.12,2.37,1.71,3.61,2.76,3.67,4,8.35,6.23,13,8.82,7.63,1.49,13.68,2.52,18.32,9.66,2.26,3.46,2.21,7.75,2.47,11.72.4,5.15.72,10.33-1.42,15.1C265.5,188.44,262.89,194.91,259,191.64ZM213.57,40.1a7.84,7.84,0,0,0-1.21-2.17.86.86,0,0,1,0,.17A11.07,11.07,0,0,1,213.57,40.1Zm-2.65-3.74c-1.67-1.4-3.2-2.91-5.39-3.15A22.78,22.78,0,0,1,210.92,36.36Z"/><path d="M213.74,89.5c-.84-.87-1.39-2-2.29-2.78a.29.29,0,0,1,.31-.49,24.12,24.12,0,0,1,2.24,2.7c-.22-5-.73-10-1-15,.08-3.39.75-6.72,1.12-10.08a85,85,0,0,1,1.5-10.29c.18-2-.06-3.67.13-5.58.2-2.59,1-5.26.15-7.81-2.14-8.24-10.08-10.51-17.31-7-3.51,1.38-5.74-2.73-2.29-4.62,9.75-5.27,21.33-2.1,24.66,9.06,1.39,3.47.78,7.21.22,10.79.09,5.82-1.9,11.25-3.1,16.87a93,93,0,0,0-2.44,11.34c-.38,3.72-.43,7.47-.81,11.19C214.78,88.5,214.65,90.2,213.74,89.5Z"/><path d="M77,58.68c-1.72-3.06-1.13-6.57-1-9.91s.09-6.41.16-9.61c.3-11.27,1.87-23.86,10.73-31.79,2.27-2.15,4.73-6.21,8.36-4.76.28.12.63.29.69.62s-.22.79-.37,1.16a.28.28,0,0,1-.52-.23c.07-.13.13-.27.2-.4-2.36,1-3.64,3.57-5.32,5.42a28.33,28.33,0,0,0-7.15,13.29,70,70,0,0,0-1.54,17c.16,6.16.3,12.51-.65,18.58A2,2,0,0,1,77,58.68Z"/><path d="M30.57,300.73c-1.82-.74-2.7-2.87-4.65-3.63-4.43-2.07-9.2-3.61-12.49-7.47a33,33,0,0,1-8.66-19.16c0-.51,0-1.22.57-1.36h0a.47.47,0,0,1,.54.75c1.54,8.2,5.87,15.28,13.41,19.05,4.66,2.59,10.78,2.89,14.18,7.44A2.76,2.76,0,0,1,30.57,300.73Z"/><path d="M308.09,291.73c-2.3-.68-2.15-3.34-1.95-5.26.19-2.28.38-4.56.4-6.85,0-3-1.14-5.85-2.12-8.66a37,37,0,0,0-1.55-4.07c-1.63-2.81-7.39-8.61-3-11.18-4.75-2.08-10.05-2.86-14.43-5.76-7.89-5-8-21.49-9.46-29.91a.51.51,0,0,0,0,.13v0c-.84-4.32-.94-8.81-1.58-13.12-2-3.76-4.74-7.1-6.87-10.76a2.43,2.43,0,0,1,3.22-3.09c-1.74-2.82-7.29-8.29-5.75-11.67-.2-.89.66-.9.57,0,1.92,3,4.55,5.19,7.23,7.47,3.8,3.5,7,7.7,7.91,12.92a195,195,0,0,1,3.15,22c-.12,2.29,1.05,5.92-1.64,7,4,21,9.93,13,24.06,21.83,2.75,2.1,4.54,5.11,6.72,7.74,5.39,6.76,12.46,18.2,4.5,25.59-1.25,1.11-2.6,2.12-3.89,3.19C312.06,290.51,310.25,292.35,308.09,291.73Zm-1.19-28c2.87,6.27,5.08,13.13,4.39,20.1,10.41-6.1-2.33-18.67-6.8-24.93a4.37,4.37,0,0,1-.46.18C304.91,260.65,305.94,262.16,306.9,263.7Z"/><path d="M134,149.36c-11.86-2-22-9.12-29.43-18.36-7.2-7.66-10.91-17.64-12.77-27.8a.29.29,0,0,1-.18-.29c.81-1.42,1.35,2.82,1.51,3.31a40.28,40.28,0,0,0,8.54,17.24c5.77,6.36,12.06,12.42,19.68,16.49,6.09,2.59,12.31,4.91,18.88,4.16a2.74,2.74,0,0,0,1.1.23l.87,0h.08c.44,0,.88,0,1.32-.07a12.1,12.1,0,0,0,1.47-.21,6,6,0,0,0,.93-.21l.22,0a3.88,3.88,0,0,0,1.29-.4c.27-.14.54-.3.81-.46.89-.51,1.87-.87,2.79-1.33s1.9-1.07,2.85-1.62l-.16.09a10.46,10.46,0,0,0,1.19-.72,5.7,5.7,0,0,0,.71-.59,1.27,1.27,0,0,0,1-.14,1.5,1.5,0,0,0,.56-.64,5,5,0,0,0,.21-.48c.13-.35.25-.71.36-1.07a1.17,1.17,0,0,0,0-.26l.12-.14a4.11,4.11,0,0,0,.59-.9,4.48,4.48,0,0,0,.2-.62s0,0,0,0a1.24,1.24,0,0,0,0-.16,15.77,15.77,0,0,0,1.72-1c-.44,1.48-1.38,2.92-1.84,4.32-3.72,7.69-12.62,11.85-21,11.85A24,24,0,0,1,134,149.36Z"/><path d="M158.05,135.14h0Z"/><path d="M114.93,194.18c-1.8-2.1.38-3.85,2.37-4.47a38,38,0,0,0,6.43-3.25,10.28,10.28,0,0,0,3.45-4.34c1.19-2.62,2.58-5.26,2.82-8.17a12.18,12.18,0,0,0-4.74-10.47c-2.59-1.67-5.81-1.47-8.77-1.64-2.35.22-4.32-2.08-2.31-4,1.43-1.08,3.34-.55,5-.54l.4-.12a.32.32,0,0,0,.25.09.31.31,0,0,0,.27-.23l.34-.08c.3.06.6.15.9.24h0c.49.16,1,.32,1.44.52h0a.05.05,0,0,1,0,0h0c.3.13.59.29.88.45l1,.5.8.41.61.32h0l0,0,.39.27-.08-.05a9.47,9.47,0,0,1,.73.69l.74.75-.06-.07a25.08,25.08,0,0,1,1.86,2.26h0a21.29,21.29,0,0,1,1.25,1.89.56.56,0,0,1-.05-.08,14.34,14.34,0,0,1,.82,1.78c.22.57.41,1.14.6,1.72s.32,1,.46,1.53a14.06,14.06,0,0,1,.34,1.81v-.1q.12.87.21,1.74c0,.38.07.76.1,1.14a15.37,15.37,0,0,1-.81,3.29,12.56,12.56,0,0,0,.58-1.3c-.16.69-.35,1.37-.55,2-.11.37-.23.74-.33,1.11s-.25.9-.39,1.35l0-.12a24.58,24.58,0,0,1-.88,2.35v0h0v0c-.46,1-1,2-1.54,3-.28.48-.56,1-.82,1.46-.16.3-.31.61-.48.91h0c-.28.51-.55,1-.82,1.54-3.42,2.35-7.58,4.43-10.36,4.43A3.21,3.21,0,0,1,114.93,194.18Z"/><path d="M131.45,186.91a.6.6,0,0,0,.06.19l-.41.39C131.21,187.29,131.33,187.1,131.45,186.91Z"/><path d="M131.07,183.48v0l0,0Z"/><path d="M128.56,159.48c-.14-.09-.29-.17-.44-.25a6.35,6.35,0,0,0-.9-.82,6.92,6.92,0,0,0-1.34-.72c-.61-.28-1.23-.51-1.85-.75a7.92,7.92,0,0,0-.82-.28h.67a1.24,1.24,0,0,0,.46.29l.93.42a15.44,15.44,0,0,1,1.58.78,10.59,10.59,0,0,1,1.12.77c.18.16.36.32.53.5l.06.06h0Z"/><path d="M121.35,157.24h0Z"/><path d="M135.09,165.77a.08.08,0,0,1,0,0S135.1,165.79,135.09,165.77Z"/><path d="M129.09,157.72h0Z"/><path d="M151.46,189.17c-9.18-5.08-9.75-11.37-11.06-20.85-1.13-8.57,6.24-17.26,14.56-18.56,2-.25,3.06.88,1.95,2.76a.28.28,0,0,1-.49-.28c.23-.51.69-1.35.07-1.72a2.51,2.51,0,0,0-1.17-.21c1.55,1.93-3,3.35-4.12,4.45a16.65,16.65,0,0,0-5.76,6.4c-2.72,5.23.18,14.84,3.27,19.47a12.28,12.28,0,0,0,3.17,3.37c1.22.89,3.09,1.91,2.56,3.7A2.22,2.22,0,0,1,151.46,189.17Z"/></g></g></g></svg>